<svg xmlns="http://www.w3.org/2000/svg" id="flag-icon-css-gb" viewBox="0 0 512 512"><style>.st0{fill:#006cb7}.st1{fill:#fffffe}</style><g id="_x23_006cb7ff"><path d="M512-.2v512.4H0V-.2h512zM164.4 115.2c-34.4 21.4-60.3 55.9-70.8 95-9.9 37.8-6.5 79.1 9 115 5.1 10.7 10.1 22.2 19.6 29.8-26.7-42.8-33.6-98.7-12.9-145.4 18.4-43.2 58-76.8 103.8-87.6 38.1-9.2 80-4.6 114.3 14.5 28.9 15.9 50.8 44.1 58.2 76.3 13.9 56.7-20.2 121-75.4 140.5-31.6 11-68.5 10.6-97.6-7.4-28.2-15.9-45.7-46.2-50.9-77.5-4.6-27.3 4.3-55.3 20-77.6-8.3 5.9-12.3 15.9-16.8 24.7-14.6 32.2-13.1 70.7.7 102.9 15.4 35.7 49.7 62.3 88.3 67.7 30 5.2 61.1-4.2 85.6-21.5 33-23.1 54.6-60.9 59.2-100.6 5.8-39.8-4.2-82.1-28.5-114.3-21.8-29.3-55.1-49.4-90.8-56.2-39.1-7.8-81.1.4-115 21.7m-2.1 46.6c-28.3 27.6-43.6 67.5-43.1 107 .6 66.2 47.3 130.6 111.9 147.7 42.3 11.7 89.2 2.9 125.3-21.8 35.9-24.2 61.3-63.1 70-105.5 8-37 3.6-76.8-13.6-110.6-1.1-1.8-2.5-3.3-4.2-4.5 14.2 33.7 16.2 72.3 6.5 107.5-20 72.7-99.1 125.1-173.9 111.1-35.2-6.2-68.1-26.6-87.9-56.7-19-28.4-26.5-65.1-16.7-98.2 11.3-41.3 47.1-74.1 88.6-83.4 16.7-3.7 34.2-3.7 51-1.8 40.4 6 75.4 37.8 85 77.5 4.9 22.4 2.6 46.4-6.8 67.4 8.1-8 9.3-20.4 12.2-31 4.8-31.8-2.2-65.9-20.9-92.2-21.8-30.7-59.4-49.1-96.8-48.5-32.2-.7-63.8 13.5-86.6 36m41.7 45c4.4-1.3 8.8-2.2 13.3-2.7-6.2 9.8-14.2 18.8-18.4 29.8-5.7 12.5-7 26.6-4.8 40 7.3 38.1 49.5 66 87.4 56.2 27.5-8.6 41-36.3 54.2-59.7-6.4 3.4-12.6 7.3-19.5 9.4-10.2 2.6-20.8.4-30-4.3-6.4-3.6-12.8 1.1-17 5.8 7.6 1.3 16.4 3.4 20.2 11 6.6 12.3-2.1 28.2-14.5 32.7-10.4 3.4-21.8.1-31-5.1-20.7-12.1-26.3-41.4-16.2-62.1 8-15.4 26.3-20.9 42.5-21.4-6.1-5.4-11.1-12.7-9.4-21.2 9.4 5.9 18.9 12.2 30 14.1 2.7-7.5 4.2-17.8 13.3-20.1-5.2 6.6-9 14.2-11 22.4-11.5-.5-21.6-6.6-31.2-12.6 2.2 10.1 10.7 18.5 20.8 20.6 15.8 4.9 36 9.1 49.1-4.1-8 1.7-16.8 6.5-24.7 1.7 8.3-2.3 16.8-4.4 25.1-6.7-8.1-19-25-33.6-44.9-38.9-14.1-5-29.1-2.9-43.6-6.1-16.1-2.6-31.2 8.7-39.7 21.3z" class="st0"/><path d="M311.5 224.1c3.6-3.8 8.6 2.6 5.1 5.9-3.6 4.1-8.5-2.7-5.1-5.9z" class="st0"/></g><g id="_x23_fffffeff"><path d="M164.4 115.2c33.8-21.2 75.8-29.5 115.2-21.8 35.8 6.7 69.1 26.9 90.8 56.2 24.3 32.2 34.2 74.5 28.5 114.3-4.7 39.7-26.3 77.6-59.2 100.6-24.6 17.3-55.6 26.8-85.6 21.5-38.5-5.3-72.9-32-88.3-67.7-13.9-32.2-15.4-70.7-.7-102.9 4.5-8.8 8.3-18.8 16.8-24.7-15.7 22.3-24.6 50.3-20 77.6 5.2 31.3 22.7 61.7 50.9 77.5 29 17.9 66 18.4 97.6 7.4 55.2-19.5 89.1-83.9 75.4-140.5-7.4-32.2-29.4-60.4-58.2-76.3-34.5-19.1-76.2-23.7-114.3-14.5-45.7 11-85.3 44.4-103.8 87.6-20.9 46.6-13.9 102.5 12.8 145.4-9.5-7.7-14.4-19.1-19.6-29.8-15.4-35.9-18.9-77.2-9-115 10.5-39 36.4-73.6 70.7-94.9z" class="st1"/><path d="M162.3 161.8c22.7-22.5 54.3-36.7 86.7-35.9 37.6-.6 75 17.7 96.8 48.5 18.7 26.4 25.7 60.4 20.9 92.2-2.9 10.6-4.1 23-12.2 31 9.5-21 11.7-44.9 6.8-67.4-9.6-39.7-44.6-71.5-85-77.5-17-1.9-34.4-1.9-51 1.8-41.5 9.4-77.3 42.1-88.6 83.4-9.8 33.1-2.3 69.8 16.7 98.2 19.7 30.1 52.5 50.5 87.9 56.7 74.8 14 153.9-38.4 173.9-111.1 9.7-35.2 7.6-73.7-6.5-107.5 1.7 1.3 3.1 2.8 4.2 4.5 17.2 33.8 21.6 73.6 13.6 110.6-8.8 42.3-34.1 81.2-70 105.5-36.1 24.7-82.9 33.6-125.3 21.8C166.5 399.4 120 335 119.3 268.9c-.6-39.6 14.6-79.4 43-107.1z" class="st1"/><path d="M204 206.8c8.5-12.7 23.6-24 39.7-21 14.4 3.2 29.5 1.1 43.6 6.1 20 5.2 36.7 19.9 44.9 38.9-8.3 2.3-16.8 4.3-25.1 6.7 7.9 4.8 16.7 0 24.7-1.7-13 13.1-33.3 9-49.1 4.1-10.1-2.1-18.6-10.5-20.8-20.6 9.6 5.9 19.5 12.1 31.2 12.6 2-8.2 5.8-15.8 11-22.4-9.2 2.2-10.7 12.6-13.3 20.1-11.1-2-20.6-8.2-30-14.1-1.7 8.5 3.3 15.8 9.4 21.2-16.2.4-34.5 6-42.5 21.4-10 20.7-4.5 50.1 16.2 62.1 9.2 5.2 20.6 8.5 31 5.1 12.4-4.5 21.2-20.4 14.5-32.7-3.7-7.6-12.6-9.7-20.2-11 4.2-4.8 10.6-9.4 17-5.8 9.3 4.6 19.9 6.7 30 4.3 6.9-2.1 13.2-6 19.5-9.4-13.2 23.4-26.7 51-54.2 59.7-37.8 9.8-80.1-17.9-87.4-56.2-2.2-13.5-.7-27.5 4.8-40 4.3-11 12.2-20 18.4-29.8-4.6.1-8.9 1.2-13.3 2.4m107.5 17.3c-3.3 3.2 1.6 10 5.1 5.9 3.5-3.4-1.6-9.8-5.1-5.9z" class="st1"/></g></svg>