<svg xmlns="http://www.w3.org/2000/svg" id="Layer_1" viewBox="0 0 120 120" shape-rendering="optimizeSpeed"><style>.st1{fill:#fff}</style><path fill="#0a0b2d" d="M0 0h120v120H0z"/><path d="M17.1 111.3h2v2h-2z" class="st1" transform="rotate(-45 18 112.3)"/><path d="M41.6 96.6h2v2h-2z" class="st1" transform="rotate(-45 42.6 97.6)"/><path d="M39.5 111.4h2v2h-2z" class="st1" transform="rotate(-45 40.5 112.4)"/><path d="M64.7 83.6h4v4h-4z" class="st1" transform="rotate(-45 66.7 85.6)"/><path d="M63.6 104.3h2v2h-2z" class="st1" transform="rotate(-45 64.6 105.3)"/><path d="M65.4 111.8h4v4h-4z" class="st1" transform="rotate(-45 67.4 113.8)"/><path d="M9.7 95.6h4v4h-4z" class="st1" transform="rotate(-45 11.7 97.6)"/><path d="M84.6 103.6h2v2h-2z" class="st1" transform="rotate(-45 85.6 104.6)"/><path d="M96.7 84.6h4v4h-4z" class="st1" transform="rotate(-45 98.7 86.6)"/><path d="M100.6 102.6h2v2h-2z" class="st1" transform="rotate(-45 101.6 103.6)"/><path d="M30.6 88.3h2v2h-2z" class="st1" transform="rotate(-45 31.6 89.3)"/></svg>