<svg xmlns="http://www.w3.org/2000/svg" xmlns:xlink="http://www.w3.org/1999/xlink" viewBox="0 0 266.12 185.15"><defs><style>.cls-1{fill:url(#linear-gradient);}.cls-2{fill:url(#linear-gradient-2);}</style><linearGradient id="linear-gradient" x1="193.65" y1="615.48" x2="193.65" y2="450.98" gradientTransform="matrix(1, 0, 0, -1, 0, 622.82)" gradientUnits="userSpaceOnUse"><stop offset="0" stop-color="#fb2f88"/><stop offset="0.17" stop-color="#f82b7f"/><stop offset="0.45" stop-color="#ee1f67"/><stop offset="0.8" stop-color="#e00c3f"/><stop offset="1" stop-color="#d60026"/></linearGradient><linearGradient id="linear-gradient-2" x1="74.85" y1="613.48" x2="74.85" y2="448.98" xlink:href="#linear-gradient"/></defs><title>Asset 1</title><g id="Layer_2" data-name="Layer 2"><g id="Layer_1-2" data-name="Layer 1"><path class="cls-1" d="M216.28,26.27l-.94-.8-.94.54c0,.4-.14.8-.14,1.2a.15.15,0,0,0,.14.14h0c.13,0,8.85-3.77,9.92-4l.54.94c1.2-.4,3.21-1.47,4.55-1.47.81,0,1.08,1.87,1.75,1.87s6.57-2,7.5-2.27v.12c0,.54-2.27,1.07-2.68,1.21-3.21.94-6.16,2.42-9.38,3.49l-.67-.41c-.54.13-.67-.12-1.07-.12h-.27l-.4,1.19.8-.26.4.41c.81-.27,1.21.94,2,.94,1.48,0,3.09-.81,4.56-.81a.94.94,0,0,1,.67.27c1.34-.4,3.35-1.34,4.69-1.34h.27c0,.53-3.08,1.47-3.35,1.61.54,0,2.28,0,2.28.67.4-.14.54.13.54.53a2.69,2.69,0,0,1-.41,1.48,2.34,2.34,0,0,0-1.47,2c0,3.62.54,1.88-5.1,3.49l.54.26-.27,1.08c-.4,0-.94.13-1.07.53-.27,0-.94.14-.94.54a.89.89,0,0,0-.94.53,3.48,3.48,0,0,0-1.87.94c-1.08,0-2,.54-3.09.54a6.26,6.26,0,0,0-2.54,1.61h-.67c0,.27-2.28,1.07-2.82,1.47-.8,0-.8.54-1.74.54-.27,0-.81,0-.81.4l-1.74,1.07c-1.88,0-2.55,2.15-4.42,2.15l-.81.4A9,9,0,0,1,205,50l-1.07.94c-.53.14-2.55.81-2.55,1.48l-1.46-.28c0,.27-.13.53-.4.53s-.67-.13-.67.27a37,37,0,0,0-5.1,2.68c-1.2,0-2.14,1.08-3.08,1.61-1.34,0-.67.94-1.47.94l-5.5,2.67c-.14,0-.4,0-.4.28a2.25,2.25,0,0,0,.67,1.21c1.61-2,9.78-5.77,9.78-6.57l1.21.13.4.14-.14.11h-.94l-.67,1.07a2,2,0,0,0-1.48.54l-.93.4-1.61,2.14a20.83,20.83,0,0,0-3,1.47c-1.21,0-1.34,1.48-2.82,1.48l-.94.67c0,.67-.53.93-.53,1.47-1.07.94-5.1,2-5.1,2.55a2,2,0,0,0,.54,1.2l-.8,1.35-1.21.14-1.07,1.07c0,.4-.41.54-.81.54h-.27c0,.67-1.47.53-1.47.8s.4.39.54.53c-.27.4-.27,1.08.4,1.08,0-.4.13-.67.53-.67l1.08.13c0-.8,1.07-.53,1.6-.53,0-.4.14-.54.54-.54h.81l.4-.53c2,0,3.48-1.48,5.49-1.48l.54-.53h1.21l.13-.41h1.34c0-.67,1.61-.53,2-.53l.54-.54c.94,0,1.88-.54,2.81-.54.67-.53,3.22-1.34,3.36-1.6.4,0,1.87.4,1.87-.41h2.28l.27-.4c.54,0,2,0,2.15-.67,1.74,0,3.35-.54,5-.54.8-.67,3.35-1.34,3.48-1.6.27,0,2.82.13,2.82-.41,2,0,3.88-.53,5.76-.53l.81-.4a6.71,6.71,0,0,0,3.21-.68l1.88.14,1.34-.67c4.56,0,9.12-.54,13.54-.4l.94-.54c.27,0,3.75.4,3.75-.54.41,0,3.09.41,3.09-.53h9.78c.27,0,.94,0,.94-.4v-.15c1.75,0,7.11.14,7.78,1.61H256.6L255,60.84a.9.9,0,0,0-.94.54l-.53-.54c0,.4-.54.54-.81.54l-1.21.54-1.87-.14c0,.8-3.09,1.47-3.62,1.47,0-.67-.67-.27-.94,0,.54,0,.54.53,1.07.53h2l.67-.53a27.91,27.91,0,0,1,4.56-.41,5.94,5.94,0,0,1,1.88.27c0,.14-.54.14-.67.14H252.7c-.67,0-.8.53-1.74.53,0,.4-.54.4-.81.54a47.37,47.37,0,0,0-9.51,3.08h-3.22l.4,1.34,1.48.27.53-.54h2.41l.27-.53c1.08,0,2.68.28,3.62-.53,1.48,0,2.82-.53,4.29-.53.14,0,.67,0,.67.13,0,.54-3.08,1.07-3.48,1.21,0,.53-.14.8-.67.8h-.54l-.8.67c0,.54-.67.54-1.08.54H244l-.67,1.34a.36.36,0,0,0-.41.3V72c0,.53.14,1.07-.53,1.07l-2,1.07c-.14,0-.4-.13-.4,0,0,.54,2,.54,2.14.54l.54.54c1.2,0,3.48-1.08,4.55-1.08a1.43,1.43,0,0,1,1.21.53l-.8.54c-1.48,0-5.5.8-6.71,2h-2.14l-1.07,1.07c-1.08,0-2.15.54-3.49.54,0,.4-.27.53-.67.53a4.28,4.28,0,0,1-1.88-.53c0-.14,0-.54-.13-.54s-.4.4-.4.54h-.81c.27,1.07-1.07,1.07-1.74,1.2-.67-.13-2.28-.53-3,0,.13.27.94.54.94,1.08s-.94,1.74.67,1.74l1.88-.94-.54,1.48h-2c0,.53-1.34.53-1.74.53-1.48,0-2.42-.27-2.42,1.74,0,.27,0,1.34-.13,1.34s-.4-.4-.54-.53c-.8,0-.67.53-1.34.53l-1.07.68c0,1.2,1.07.53,1.07,1.34l.4-.41-.4-.26c0-.54.54-.67.94-.54l.81-.13.8.13c0,.27,0,.54.27.54a1.21,1.21,0,0,0,.94-.41l.93.54a6.64,6.64,0,0,0-1.47,3.08l.27.94c.27,0,.13-.8.53-.8v.27l.27.26,1.07.14.68.94a4.1,4.1,0,0,1,1.2-.27l.67,1.07c.54,0,1.21-.4,1.21-.94.27.14.67.4.67.81,0,.13-.4.13-.54.13l-.27.4.27.14.14.13c.53,0,.67-.67,1.2-.67s1.08,1.21,1.08,1.74-1.21,1.21-.14,1.61a13,13,0,0,0-.94,3,.78.78,0,0,0,.14.54c-.54.53-.81,1.07-1.34,1.61v.4a1.35,1.35,0,0,0,.26.94L229,104.93l-.8,1.74a4.45,4.45,0,0,0-1.21,2.15,5.65,5.65,0,0,0-1.47,1.61l.13.13-.27,1.21a2.19,2.19,0,0,0-.67,1.2,26.34,26.34,0,0,0-2.14,3l.13.54a1.56,1.56,0,0,0-.8,1.21,3,3,0,0,0-1.75,2.27c0,.27,0,.41-.26.54a13,13,0,0,0-1.35,3.08c-.93,1.21-5.09,7.11-5.22,7.51.13.4-.54.94-.81,1.07a39.71,39.71,0,0,1-2.81,5.37,7.32,7.32,0,0,1-1.88,2.68l-.4,1.34c-.27.27-.67.67-.67,1.07a.85.85,0,0,1-.54.67,16.23,16.23,0,0,0-1.88,3.22c-.26.13-.67.4-.67.8q-1.71,2.07-3.21,4.29v.81l-1.88,1.47a2.57,2.57,0,0,1-.4,1.08,9.11,9.11,0,0,0-2,1.87l.13.27a1.65,1.65,0,0,0-.54,1.07,13,13,0,0,1-1.6,2.28l-.27,1.07a1.17,1.17,0,0,0-.54.81v.13c.14.14-.54.54-.54.54l-1.47,2.55c-.13.13-.54.4-.54.67a9.43,9.43,0,0,1-2.41,2.81,1.24,1.24,0,0,1-.27.67v.67l-1.47,1.21a2.62,2.62,0,0,1-.4.94c-2.82,1.87-3.76,5.63-5.5,8.31l-.4.27a9.91,9.91,0,0,1-1.75,2.41c-.13.54-.53,1.61-1.34,1.61l-.13-.13.13-.54c.67-.67.67-1.48,1.21-2.15-.27-.26,2-3.88,2.41-4.69a.7.7,0,0,1,.37-.92l0,0,.13-.67c-.27.41-1.21,1.48-1.21,1.61-.53,1.34-1.87,2.15-2.41,3.49l-.13.8-.54.81-1.34.93-.14-.26a1.16,1.16,0,0,1,.41-.67l.53-1.61c.27-.27.94-.94.94-1.21l-.13-.27.94-1.74a1.08,1.08,0,0,1,.39-1.46h0l1.07-2.15-.13-.4c-.41.13-.67,1.07-1.21,1.47.27.4-.13.94-.4,1.21-.81.4-1.21,2.81-2,2.81h-.14a35.72,35.72,0,0,1,2.28-5l.14-1.07c.13-.13.67-.53.67-.8l.53-.54.27-1.07-1.61.4-.67-.4c0-.14.67-1.34.27-1.34s-1.34,1.07-1.61,1.34a7.44,7.44,0,0,1-.54,1.61c-1.34,1.07-1.74,2.81-3.21,3.89l-.14.53c-.27.27-.4.81-.8.81-.14,0-.27-.14-.4-.27l.26-.81c.41-.26,1.08-.8,1.08-1.34l-.14-.27,1.08-1.87c0-.54.67-1.34.93-1.88l-.4-.94a14.21,14.21,0,0,1,2-2.81v-.67c.67-.41,2-2,2-2.82l-.13-.67,1.21-1.07-.14-.54a.93.93,0,0,0,.4-.8l-.13-.4.67-.27-.13-.27.8-1.48v-.4l.81-1.87-1.08.67-.13.67L179,159.37v.4l-.67.54c-.54,0-1.48,1.74-1.61,2.13l-1.88,1.62-.13.8-.41.14c0-1.89,3.22-4,3.22-5.5l-.13-.26a31.33,31.33,0,0,1,2.41-3.49,2.72,2.72,0,0,1,.4-1.48,3.73,3.73,0,0,0,1.08-1.47l1.2-1.61c-.53,0,1.07-1.47,1.21-1.61l.13-.4c.27-.27.81-.54.81-.94l-.41.14s-.4.4-.4.13l.14-.27c-.14-.13-.67.81-.81.27l-.13.67a3.31,3.31,0,0,0-.54,1.21c-.53.4-.67,1.2-1.2,1.61h-.41c-.13,0-.8,0-.8-.14l.13-.27c.14,0,.81.14.81-.13l-.27-.27c.27-.13.8-.53.8-.94.67-.4.81-1.2,1.34-1.75-1.34,0,.14-.67.14-1.21s.8-1.07,1.34-1.07a1.22,1.22,0,0,1,.67.4l.54-.4V146a2.32,2.32,0,0,0,.93-1.34l.94-.27c.67-.93,1.07-2.14,1.75-3.08l.13-.94.8-.53v-.14l.54-.8c-.4-.14.54-.81.4-1.48l.94-2.28-1.21.81a7.32,7.32,0,0,1-1.47,2.95v.53l-.81.67c-.26,0-.8.27-.67.54a4.33,4.33,0,0,0-1.34,2l-2.28,2-.26.94c-.14.13-.27.27-.41.27a22.43,22.43,0,0,1,2.55-4.56c-.27-.54,1.34-1.47,1.34-2.28l-.13-.27c.8-.93,2-3.35,2.95-4.15l.13-1.07c.14-.14.67-.54.4-.81l.54-.67c-.8,0-1.21.54-2,.54l-.13.26.93.27-1.07,1.21-.13-.13a1.84,1.84,0,0,1,.4-.67l-.27-.54c-.4,0-1.61,0-1.61-.67l.14-.27,1.2-.4a12,12,0,0,1,1.88-1.61l.13-.67h.67l.14-.13-.27-.27c1.61-1.21,3.35-4.16,4.69-5.9l.54.27.67-.41c-.14-.53.4-.93.67-1.34,0-.26,0-.67-.4-.67-.67,0-1.34.81-1.75,1.21l-1.87.8a2.64,2.64,0,0,0-1.75.41c0,.4-.26.53-.67.53h-.24l-.81,1.08c-.8,0-1.34,1.08-1.74,1.61,0,.14,0,.53.13.53.41,0,.67-.39.81-.67a.9.9,0,0,1,.8-.53h.27l.8-.93,2.28-1.08s0-.53.14-.53.4.4.53.53a.13.13,0,0,1,.14.13h0c0,.26-1.21.8-1.48.94l-2,1.6-.94.67.94,1.08-2,1.74c-.54,0-.4.54-.94.54l-.53.4c0,.27-.14.8-.54.8a32.61,32.61,0,0,1-6.7,4.56c0,.94-1.21,1.48-2,1.48l-2,1.07-.53.8c0,.67-.81.67-1.34.67-2.55,0-1.48,1.48-3.09,1.48l-.4.53H170c-.67.94-2.15.14-2.82,1.08,0,.53-1.07.53-1.47.53H165l-.94.67a.35.35,0,0,1-.29.4h-.11c-.4,0-1.21-.26-1.21.41H159.9a4.57,4.57,0,0,1-1.88.53c-3,0-6.44-.53-9.12-.53l-1.34-.67a.35.35,0,0,0-.3-.41.17.17,0,0,0-.1,0c-1.07,0-.13-1.34-1.61-.8,0,.94-.94.13-1.21-.14-2.14.93-3.08-1.08-5.89-1.08l-1.08-.53c-.53,0-.53-.53-1.2-.53a2.05,2.05,0,0,0-1.48-.4c-.53-.54-1.21-1.61-2.14-1.61l-1.34-.94c-1.21,0-3.89-4.15-4.7-4.15l-1.13-1c-1.74,0-2.14-5-2.41-5.9-.81-.13-.54-1.87-.54-2.41,0-1.47-1.07-1.61-1.07-2.81,0-1.88-.67-10.86.54-12.07,0-2,.53-3.89.53-6l.54-1.22c.8-.67.53-2.28.53-3.08l.41-.53A6,6,0,0,1,125,96.06c0-1.09.94-1.89.94-3,.8,0,1.2-2.28,1.2-3a.37.37,0,0,0,.41-.31.14.14,0,0,0,0-.09c0-.41,0-.67.53-.67a1.72,1.72,0,0,1,.54-1.34l1.07-2.82a.37.37,0,0,0,.4-.3.17.17,0,0,0,0-.1c0-.4,0-.54.54-.54a2,2,0,0,1,.54-1.47c0-.67.53-.94.53-1.61l.94-.67c0-1.07,1.21-2.28,2-2.82.4-1.87,2.68-2.68,2.68-4.29a31.22,31.22,0,0,1,5-6.16l.67-.14c0-1.07.94-1.34.94-2.41l2.15-1.88c1.2.14.67-1.21,1.34-1.21a9.14,9.14,0,0,0,2.28-3.09l.93-.53c0-.67.54-.93.54-1.47.81,0,1.61-1.34,2-2l2.15-1.88c.8.14,2,.54,2-.67.53.14,1.07.14,1.07-.53.27,0,.54-.14.54-.41s-.14-.67.4-.67c.54-.67,1.21-2,2.14-2,0-.4.27-.53.67-.53h.27c.94-1.08,2.15-1.61,3.09-2.55,0-.4.26-.54.67-.54h.26c.41-.8,1.48-1.2,1.61-1.47l.41-1.07c.26,0,.8-.14.8-.54v-.17c.13-.14.27-.68.54-.68s.13.27.13.27l.94-.27,1.34-1.6,1.34-.54c.13-.27.54-.13.67-.27v-.13l.8-.81c.41,0,.94-.13,1.08-.53a21.09,21.09,0,0,0,2-1.48c1.07,0,1.07-1.07,2.28-1.07,0-.8,1.87-1.21,2.54-1.21l.81-.8c.4,0,.94-.14,1.07-.54.27,0,.81,0,.94-.4.4,0,.94-.13,1.07-.54a3.07,3.07,0,0,0,1.88-1.07,7.79,7.79,0,0,0,3.08-1.61,1.48,1.48,0,0,1,1.07-.4,2.15,2.15,0,0,1,1.21-.67c.27,0,.27.27.27.4l.54.4c3.88-1.74,8.84-2.94,12.33-4.82-.27-1.21,5.9-1.74,6.84-2a17.81,17.81,0,0,1,3.75-1.08l.4.14,13.41-3.49c5.36,0,12.33-2.81,17.56-4.29l.4.94-.53.67a31.29,31.29,0,0,1-6,1.21,1.91,1.91,0,0,1-1.07.94c0,.4-.67.53-.94.67-2.68.8-13.67,3.08-13.94,4.82a.89.89,0,0,0-.53.67v.17c-.41.13-5.1,1.07-5.1,1.87v.13C220.3,24.4,216.81,25.07,216.28,26.27ZM136,137.41c.27,0,.27-.27.27-.4a.28.28,0,0,0-.27-.27c-.13,0-.13.14-.27.14S135.84,137.41,136,137.41Zm1.07.41a1,1,0,0,0,.67-.27.27.27,0,0,0-.26-.27.93.93,0,0,0-.67.13C136.78,137.55,136.91,137.82,137,137.82ZM147,106c0,.27.26.4.53.4l-.53-.93Zm.26,1.61c.27,0,.27-.27.27-.4a.27.27,0,0,0-.27-.27c-.13,0-.13.13-.26.13s.13.54.25.54Zm-.26,2c0,.27.26.4.53.4l-.53-.93Zm3.61-13.94c0,.54-2.41,7.24-2.54,7.37v2.42c.27,0,1.07-2.42,1.07-2.83.94-.39.13-1.88,1.07-2.28,0-.94.4-1.74.4-2.81l.54-.66c0-.42.14-1,.54-1.09a2.37,2.37,0,0,1,.53-1.61c0-.8.54-.39.54-1.19l-.54.53c-1.2,0-.53,2.16-1.61,2.16Zm10.19-9.12c0-.13,0-.27-.13-.27l-.27.14A19.37,19.37,0,0,1,159,89c-.13,0-.13-.27-.13-.41l-1.08-.67c0-.53.54-.4.54-.94a5.69,5.69,0,0,0,1.48-.93,8.86,8.86,0,0,0,.93-2l-.93-.67-.54.93c-.27,0-.54,0-.54.41s.14.67-.4.67a6.2,6.2,0,0,1-.8,2.54c.67,0,.13,1.08-.14,1.08s-.13-.14-.13-.27l-.54.13.54.27c0,.67.13,2.41,1.07,2.41l-1.07,1.08c0,1.07-.81,1.6-1.61,2.27,0,.54-.4.81-.4,1.35,0,.13,0,.8-.27.8-1.48,0-.81.4-.81,2.81l-1.07,1.35a1.54,1.54,0,0,1-.4,1.07l-1.61-.4-.54,1.07v1.47a2.83,2.83,0,0,0-.93,1.48c-.41,0-.54.27-.54.67v.4l.54.4-.54.54.27,1.61c0-.67.13-2.55,1.07-2.55l.67.94c0,.4-1.47,3.62,0,3.62v3.89l2.28,1.87c-.27.41.54.54.8.54,1.48,0,3.49-.54,4.56-.54,3.76,1.75,1.48-1.07,4.29-1.07h.67a11.74,11.74,0,0,0,4.43-3.08c.67,0,.4-.54,1.07-.54,1.74-1.88,5-2.41,7.1-4,0-.67,1.48-1.07,2-1.21a4,4,0,0,1,2.54-1.87c1.08,0,1.48-.81,2.15-1.61l1.47-.54c.41-.54,1.21-2,2-2,.81-1.21,2-1.88,3-3.08.67,0,.67-.54,1.21-.54a5.84,5.84,0,0,0,2-1.47c0-.81,4.16-4.16,4.16-4.7l1.37-.43c.53-1.08,1.34-2.14,2-3.22L199.41,89h-1.87c-.41.67-1.48.53-2.15.53l-.13.53c-1.21,0-2.42-.53-3.62-.53,0,.53-.54.81-.54,1.48-1.2.66-5.76.53-7.1.53a22.81,22.81,0,0,0-5.1-2c-.13,0-.53,0-.53-.28,0-.53.53-.92.53-1.47,0-.27-.4-.27-.67-.27a26,26,0,0,0-3,.81l-2.14-.81-.94-1.07a1.08,1.08,0,0,0,.54-.81c0-.26-.41-.26-.54-.26a1.72,1.72,0,0,0-1.34-.54l-.67-.94h-1.48a6.32,6.32,0,0,0-1.61-1.61c0-.53.54-.39.54-.94L166,80.44c-1.07,1.2-2.28,3.62-3.62,4.42-.13.67-1.47,4.17-2.54,4.17a5.39,5.39,0,0,0,1-2.43Zm-10.19,19.84v-.53c0-1.34.14-2,1.61-2,0,1.07-.26,2.54-1.61,2.54Zm1.35-5.09c.26,0,.26-.27.26-.4l-.53-.14c0,.14.13.55.27.55Zm.67-9.25c.13,0,.13-.13.13-.27s-.13-.27-.4-.27h-.11c0,.28.11.55.38.55Zm-.41,7.77c0,.41.14.54.54.54l-.54-1.07Zm.41-2.27.26-.41c0-1.61,1.61-3.48,1.61-4.42,0-.4-.13-.67-.53-.67-.67,1.35-.94,4.57-1.34,5.51Zm.4-6.44c.13,0,.13-.27.13-.4l-.4-.14c0,.15,0,.55.27.55Zm.67-1.47v.4c1.07,0,0-1.08.94-1.08a6,6,0,0,0,1.07-2.55l1.07-.53c0-.67.54-1,.54-1.61a17.2,17.2,0,0,1,3.08-4.42l.54.94,1.47-.27-2-1.75A18.64,18.64,0,0,0,157.3,83a1.5,1.5,0,0,0-.54,1.21l-.94.67L154.75,87c-.13,0-.67,0-.67.27s.54.28.67.28a1.83,1.83,0,0,0-.54,1.47.63.63,0,0,0-.54.69Zm1.88.53c.13,0,.13-.27.13-.4s0-.27-.13-.27a.42.42,0,0,0-.27.14c0,.14,0,.54.27.54Zm2.14,51.08-2.41,1.61c0,.4.13.54.53.54a3.39,3.39,0,0,0,1.61-.54,1.44,1.44,0,0,1,1.21-.54c.4,0,1.21.14,1.21-.53l2.54-.81c0-.27.27-.27.4-.27.41,0,2.15.41,2.15-.26l-4.56-.14c0,1-2.15,1-2.68,1ZM156,89.16c.27,0,.27-.27.27-.4l-.54-.14C155.68,88.75,155.81,89.16,156,89.16Zm5.23-3.08c.26,0,.26-.27.26-.41a.27.27,0,0,0-.26-.26c-.14,0-.14.13-.27.13s.13.53.31.53Zm.8-3c0,.13.13.27.4.27.67-.81,1.61-1.61,1.61-2.69a.13.13,0,0,0-.13-.13h0c-.41,0-1.88,2.13-1.88,2.58Zm3.49-5.63L166,78c0-.81.54-.67.54-1.34Zm7.64,59.25c1.2,0,0,.94-.4,1.08l-3.62,1.07c0,.13,0,.53-.27.53s-.67-.4-.81-.53c-.4,0-.67-.54-.8-.54s-.14.81-.14.94l-1.6,1.21c0,.4.8.4,1.07.4.94,0,1.47-.54,2.41-.54l.4-.53h1.34c0-.67.94-1.08,1.48-1.08,0-.26.13-.53.4-.53s1.07.27,1.07-.27l2.15-.67a1.74,1.74,0,0,1,1.47-1.07.92.92,0,0,0,.54-.67c0-.54-1.74,0-2,.13,0-.4-.54-.54-.94-.54l-.67.14c0,.66-1.08.26-1.08,1.46Zm-5.23-20c.13,0,.13-.14.13-.28s0-.27-.13-.27-.14.14-.27.14,0,.43.27.43Zm8.44-48.53c0-.28-.53-.41-.53.13a1.08,1.08,0,0,0-.81-.54c-.26,0-.26.27-.26.41,0,1.34-1.61.93-1.61,1.74-1.21.4-4.56,2.55-4.56,4.15,0,0,0,.41.13.41s.41-.67.41-.81a16.67,16.67,0,0,0,4-2.68c1.07,0,1.07-1.47,2.14-1.47,0-.67.54-.41.54-1.08.15,0,.55,0,.55-.24Zm-5.1,7.66-1.61-.14C169.62,76.28,171,76,171.22,75.88Zm-.94,37.54c0,.26.54.26.67.26a4.89,4.89,0,0,0,2.15-1.87l-.4.27c-.48,0-2.41.8-2.41,1.34ZM171,74.27c.27,0,.27-.27.27-.4a.27.27,0,0,0-.27-.27c-.13,0-.13.13-.27.13s.15.54.28.54Zm.94.94c.27,0,.27-.27.27-.4l-.54-.14c0,.14.15.54.28.54ZM175,166.64l-.8.67h-.54c-.13,0-.4,0-.4-.14,0-.4.67-.53.67-.93s0-.27.27-.41a1.15,1.15,0,0,1,.8-.4h.14l.27.81.53.13Zm-.8,2.68h-.8c.4-.13.8-1.21.93-1.21a.43.43,0,0,1,.41.41Zm-.27-57.65c.27,0,.27-.27.27-.4l-.54-.13c0,.13.15.53.28.53Zm2,48.94a2.65,2.65,0,0,0-.94,1.2l-.8.4-.27-.53a10.37,10.37,0,0,1,1.74-2.55,3.3,3.3,0,0,1,.81-1.07l.94.13a6.65,6.65,0,0,0-1.46,2.42Zm-.13-50a.34.34,0,0,0-.29-.4h-.26c0,.39.17.39.57.39ZM176,66.5c.26,0,.26-.26.26-.4l-.53-.13c0,.11.15.52.29.52Zm.94,43.17c.26,0,.26-.27.26-.4l-.53-.13c0,.12.15.52.29.52Zm.53-43.17c.27,0,.27-.26.27-.4l-.54-.13c0,.11.16.52.29.52Zm1.07,7.78c.27,0,.27-.27.27-.4a.27.27,0,0,0-.27-.27c-.13,0-.13.13-.26.13s.15.53.28.53ZM183,131.66c-.81,0-2.68,2-3.62,2a3.34,3.34,0,0,0-.67,1.61.35.35,0,0,0,.29.4h.11c.94,0,1.07-.94,2-.94.4-.53.94-1.61,1.74-1.61l1.61-2,.94-.53c0-.14-.13-.54-.27-.54s-.13.4-.13.54a4.12,4.12,0,0,0-2,1.06Zm-4.29,23.86A1,1,0,0,1,179,155c-.27-.27-.14-.41.26-.41h.41c-.12.13-.65.93-.92.93Zm.8-91.16h.4c0-.27-.26-.4-.53-.4,0,.12,0,.39.15.39Zm.14,109.53,1.07-.67-.11-1.06c.13-.27.53-.54.8-.81V171s.13-.27,0-.27a8.32,8.32,0,0,0-1.07,1.07l-.14,1.34Zm5.09-38.61a2.3,2.3,0,0,1-.27.94c-.67,0-.94.53-1.61.53l-.4.54a.89.89,0,0,0-.94.54l-.67-.81,1.48-.27,1.61-2c.27,0,.82.12.82.52Zm-3.08-71.73.13-.13a.8.8,0,0,1,.54-.13l.4-.41.67-.26a7.33,7.33,0,0,0-1.74-.27c-.14,0-.27,0-.27.13a1.59,1.59,0,0,0,.4.81Zm-.14-3.08c0,.4.54.4.81.4l1.61-2-.54.4c-.52,0-1.86.65-1.86,1.19Zm2,106.85.14.67-1.07.8-.27.81c.53-.14,1.07-.81,1.47-1.07a3.44,3.44,0,0,0,.54-.95c0-.27-.27-.14-.14-.41l.14-.13Zm2.58-28.16a1.57,1.57,0,0,0-.67,1.2c-.53.39-.67,1.07-1.07,1.61l-.94.39-.4-.67a26.41,26.41,0,0,1,3.08-4.41l1.21.13A8.26,8.26,0,0,0,186.11,139.16Zm-1.89-5.9c.27,0,.27-.27.27-.41l-.53-.13C184,132.85,184.1,133.26,184.22,133.26Zm.14,16.89-.4.27.13.4V151Zm.4,16.09a.12.12,0,0,0-.12-.14h0l-.14.27v.13c.15,0,.28-.26.28-.26Zm.4-18.64-.26.27h.32Zm.14-89.28c.13,0,.13-.27.13-.41l-.4-.13c0,.13,0,.54.28.54Zm.4,90.22v-.13l-.67.8c.28-.13.68-.27.68-.67Zm-.54-1.74c0,.13.14.39.27.39s.27-.27.4-.39Zm.67-17.16c0,.27.67.53.94.53a.28.28,0,0,0,.27-.26l.8-.81a3,3,0,0,0-.13-.54c-.13,0-.13.54-.13.54-.53,0-1.74,0-1.74.54Zm.67,17.43-.26.4c-.14.13-.41.27-.41.39l.81-.67Zm.27-89.83c.27,0,.27-.27.27-.4l-.54-.13c0,.12.15.53.28.53Zm1.34,76.82.4.66H188c-.81,0-.94-.39-.94-1.07Zm2-103.91.14-.12h-.14Zm.94-.4c0-.12.14-.12.27-.26-.13,0-.27,0-.27.14Zm.27,69.19c.27,0,.27-.27.27-.41a.27.27,0,0,0-.27-.26c-.13,0-.13.13-.27.13s.17.54.29.54Zm0,2.41c.27,0,.27-.27.27-.4l-.54-.14c0,.13.17.54.29.54ZM192.26,29l-.67.26v.14ZM196,125.35l-.4.13-.27.27h-.12l.13-.4-.94.4a14.43,14.43,0,0,1-.93,2.14l-.68.67h.81Zm-1.47,4.56.13.67c.14.13.27.25.4.25.54,0,.67-.92.67-1.33h.14l.13-.26.14-.14H196Zm1.76-32.75a2,2,0,0,0-1.47.53l.4.54.27-.54c1.2,0,1.34-1.47,2.28-1.47l.53-1.08Zm-1.08,23.36c0,.27.94.27,1.07.27l1.74-.94c.14,0,.27,0,.27-.27a1.15,1.15,0,0,0-.8-.8c-.14,0-.14.13-.14.27Zm1.2,8.45c-.13,0-.13,0-.26.13.14,0,.14,0,.27-.13Zm.54-4.29c0-.14-.27-.14-.4-.14a.28.28,0,0,0-.27.27h.54Zm.67-1.08c0-.13,0-.13-.13-.13a1.13,1.13,0,0,0-.67.13c.13.14.13.41.4.41a.62.62,0,0,0,.41-.41Zm0,1.88-.54.4Zm-.54,2.41h.13l.13-.26v-.14Zm3.36-5.09c-.27.13-1.08.8-1.48.8a.13.13,0,0,1-.13-.13h0c0,.54-1.07,1.07-1.07,1.34H198l.41-.4c.94,0,1.48-.94,2-1.61Zm-1.08-.13-.4.26a.53.53,0,0,0,.4.14.45.45,0,0,1,.27-.14Zm.94-29.1c-.13.14-.4.41-.4.67H200c.14,0,.14,0,.27-.13-.53-.67.81-.54,1.07-.54.41-.53,1.21-1.47,2-1.47l.93-.94,1.21-.54c.4-.53,1.21-2.14,2-2.14l.81-.94c.13,0,.26,0,.26-.13a1,1,0,0,0-.67-.54c-.27,0-.4.27-.4.54l-.94,1.07-1.34.54a17.8,17.8,0,0,1-4.92,4.55Zm5.77,47.33.13-.4-.13.26Zm5.14-97.47c-1.07,0-1.61.94-2.55.94-.13.14-.53.4-.53.67s.27.27.4.27a1.53,1.53,0,0,1,1.07-.41l.54-1.07,1.07-.26Zm.27,0c.4,0,.67-.13.67-.53l-.27-.14-.53.41-.14.26Zm10.32,38.48a4.72,4.72,0,0,0,1.75-.27c0-.4-1.88-1.08-2.28-1.08a.37.37,0,0,0-.41.31V81Zm1.41-10.19c.27,0,.27-.28.27-.4a.28.28,0,0,0-.27-.27c-.14,0-.14.14-.27.14S223.11,71.72,223.22,71.72Zm2.54-9.25c.27,0,.27-.28.27-.4l-.53-.13c0,.13.16.53.29.53Zm2.15,9.11a.94.94,0,0,0,.67-.27l-.94-.13c0,.14.17.4.3.4Zm2.68-1.75,1.63.33,1.07-.53h1.93a.61.61,0,0,0,.4-.41c0-.14-.13-.14-.27-.14l-1.2-.53-1.34.14c0,.75-2.19.08-2.19,1.14Zm2,13c.27-.8.14-1.07,1.07-1.07h.56c0,.95-.92,1.09-1.59,1.09Zm4.69-1.47s.54,0,.54.14-.4.39-.54.53,0,.27-.13.27c-.54,0-1.07-.67-1.34-.94ZM258.06,62.6c-.53.13-2.28.53-2.28-.27Zm2.28-.67-.67.53a.76.76,0,0,1-.8-.67Z"/><path class="cls-2" d="M124.53,40.21a.49.49,0,0,0,.54-.43v-.11a1.76,1.76,0,0,1,1.47.54l.14.53,1.34.14,1.07.93-1.61.41c0,.67.94.67,1.48.67.8,0,2-.67,2.68.27a1.14,1.14,0,0,1-.81.53c-.13,0-.13-.4-.13-.53h-.54l.54.8,1.48.54c-.41-.41-.68-.81.13-.81l.8.54-.53.53a3.14,3.14,0,0,0,1.61.41c.4.8.67,1.87,1.74,1.87l.8.94.67-.4.94,1.07,2.42,1.21,1.47,2.41a2,2,0,0,1-.27,1.21c-.27-.14-.67-.94-1.2-1.07,0,0,0-.67-.14-.67s-.27.53-.27.67c1.21.8,2,2.14,3.22,2.94a5.34,5.34,0,0,0,.94,2.42c-.14.13-.94,1.07-.27,1.07-.13.4,0,.94.54.94a24.85,24.85,0,0,0-.67,5.5l-.41.4a1.73,1.73,0,0,1-.53,1.34l-.14.8c-1.6.81-2.14,3.35-3.88,4.16,0,1.74-8.32,7.1-10.33,9.12,0,.26,0,.53-.26.53-.81,0-1.35-.94-2-.94-.26,0-.4.27-.4.54l-2,1.61h-1.61a2.36,2.36,0,0,0-1.2,1.34,10.82,10.82,0,0,0-3.22,1.74c-.14-.13-.54-.4-.54-.67s.4-.27.54-.27a2.25,2.25,0,0,0,.8-1.34h1.48l1.07-.94-.4-.8-1.07.54c-3.89.26-2.69,2-3.89,2h-.54l-1.59.72c0,.53.54.8,1.07.8h.14c0-1.07,2,.14,2.41.4,0,1.08-1.2,1.75-2.14,1.75l-2.15.93c0,.68.67.81,1.21.81H115c0,.67-.8.4-1.2.27,0,.13,0,.53-.27.53s-.4-.4-.4-.53l-.54-.54c0,.4-.53.4-.8.4,0,.81-1.61.41-1.75,1.75A15.44,15.44,0,0,1,108.29,94l-.8-1.08-1.61-.67c.13-1.34-2.41-.67-2.41-1.47v-.14a13.5,13.5,0,0,0-3.36,1.61c-.93-.13-3.08,0-3.21,1.21H95.44c0,.4-.4.54-.8.54h-.27l.13.8c.54-.67,1.75-.27,2.42-.13a4.91,4.91,0,0,1,1.87-.54c.41,0,.67,0,.67.4.14,0,.54.14.54-.13s-1.07-.81-.13-.81l1.47-.94.4.54.67-.54a10.23,10.23,0,0,0,3.49,0c-1.61.94.94.67,1.34,1.21,0,.54-1.34.67-1.74.67.13.4-.14.67-.54.67-.8,0-1.21-.27-1.74.54l-1.34.4a1,1,0,0,1-.94.67c-.14.27-.67,1.48-.94,1.48s-.13-.27-.13-.27c0-.41,0-.67-.41-.67a4.67,4.67,0,0,0-2.28.8.8.8,0,0,0-1,.45l0,.09,1.21,1.07c.8.13,2.28,2.41,2.81,3.08,0,.54.14.81.67.81a6,6,0,0,1,2,.53.88.88,0,0,0,.53.94,3.11,3.11,0,0,0-.8,1.48l1.2-.94,1.88,2.55c0,1.2-.27,1.34,1.07,1.34,0,.4.14.93.54,1.07-.27.13-1.34.54-1.34.8s.4.27.53.27.14.4.27.4c.41,0,.41-.8.41-.93H108c.27,0,.54,0,.54.4,0,1.07-.27,1.2.94,1.34C109.5,114,111,114,111,116a12.85,12.85,0,0,1,1.88,1.88v.27l.8.53c.41-.13,1.48.41,1.88.54a.9.9,0,0,0,.54.94,3.33,3.33,0,0,0-.81,1.47l1.21-.94,1.88,2.55c0,1.21-.27,1.34,1.07,1.34,0,.4.13.94.54,1.07l-1.21.81.4.27c0,.13.13.4.27.4.4,0,.4-.81.4-.94h.94c.27,0,.54,0,.54.4,0,1.08-.27,1.21.93,1.34,0,.81,1.48,1.61,1.48,2.15,0,1.74,1.74,3.22,3.22,3.89l-.14,1.47.81.81,1.07,2.41-.13,1.21.53,1.2h.4c.94,0,.27-1.47.94-1.47.14,0,.14.27.14.27v.26A5,5,0,0,0,132,142l-.13,1.88.53,1.61.94.67c0,2,1.07-.54,1.07,3.08l1.21,1.34a.8.8,0,0,1,1,.48.7.7,0,0,1,.05.32l1.08,1.08a6.32,6.32,0,0,0,.8,2.68.83.83,0,0,0,.54,1l.13,0c-.13.67.4.4.4.94v.13a6.88,6.88,0,0,1,1.34,2.15c0,.67,2.15,2,2.15,3.22l.8,1.07c-.13.4-.13,1.07.4,1.07s.54.67.54,1.07l.94.94c-.13.54-.4,1.61.4,1.74a3.52,3.52,0,0,1,1.21,2.15,14.93,14.93,0,0,0,2,4.16h.27c0,.13-.94.53-1.08.53a9.25,9.25,0,0,1-1.74-3.22c.54-1.2-.94-1.2-1.74-1.34a2,2,0,0,1-.4-1.47l-1.08-.94c.14-1.21-1.34-.94-1.34-2.14v-.14c-1.07,0-1.2-1.47-2.41-1.47-.13.13-.67.94-.67.26a1.92,1.92,0,0,1-.94-1.34v-.13l-.94-.8-.53-1.08c-.4-.13-.54-.67-.54-1.07v-.34l-.4.14-.14-.41-.53-.26a6.45,6.45,0,0,0-1.48-2.82c0-.4-.67-.54-.93-.54-.94-1.2-2.15-2-3-3.21-.54-.14-.94-.67-1.48-.67,0-.27,0-.54-.27-.54-.53,0-.67,0-.67-.54a.71.71,0,0,0-.8.61.67.67,0,0,0,0,.2v.27l-1.21-.54c0-.8-1.2-.4-1.2-1.21,0-2.14-1.48-.4-1.48-1.34v-.53a3.38,3.38,0,0,0-1.61-.67c-.27,0-.67,0-.8.27a8.22,8.22,0,0,0-1.08.4c0,.13.27.13.27.13.54,1.74,2.55,3.89,2.55,5.36l.94,1.08-.4.93c-.54,0-1.08-1.2-1.21-1.6-.13,0-3.35-2.69-4.42-2.82-.14-.13-2.42-3.22-3.22-3.22-.14,0-.27.27-.27.41l-.67.4.54.4a3.12,3.12,0,0,0,.53,1.88c.4,0,.54.4.54.8,0,.14,0,.81-.4.81s-.54-.41-.67-.54c-1.08,0-1.21-1.61-2.42-1.74l-.27-1.34c-.53-.81-2.27-2.42-2.27-3.36-.41-.13-.54-.67-.54-1.07l-.94-.94a.73.73,0,0,1-.4-.67c0-1.34-1.07-.13-1.07-1.61l-.81-.67v-.67c-.13-.13-.67-.26-.67-.53s.94-.4,1.21-.4l.4-.54-.27-.54c0-.13,0-.27-.13-.27-.54,0-1.48,1.21-1.48-.13v-.13l-2.54-1.61v.13l.53.94a2.4,2.4,0,0,1,1.08,1.47,1.54,1.54,0,0,1-1.21-.8l-.94-.54c-1.07,0-1.21-1.6-2.41-1.74l-.27-1.34c-.54-.8-2.28-2.41-2.28-3.35-.4-.13-.54-.67-.54-1.07l-.93-.94a.76.76,0,0,1-.41-.67c0-1.34-1.07-.14-1.07-1.61l-.8-.67v-.67c-.14-.14-.67-.27-.67-.54s.93-.4,1.2-.4l.4-.54-.26-.53c0-.14,0-.27-.14-.27-.53,0-1.47,1.21-1.47-.13v-.14l-2.68-1.61c-.14-.94-1.88-1.2-1.88-2.14l-1.8-2.25c-.8,0-1.2-1.48-1.34-2.15-.27-.4-1.07-1.74-1.47-1.74s-.14.67-.4.67c-.81,0-3.76-2.68-4-3.22l-1.47-.67c-.14,0-.4,0-.4-.26s.26-.81-.27-.81c-.27.4-1.34.67-1.34.4s.67-.4.67-.8c0-.14-1.34-.4-1.61-.54-2.68.81-1.88-.67-3.62-.67-1.34.54-2.68.67-2.68,2.28l-.67-.4-.4.4c-.54,0-2.55,4.69-2.69,5l-.67.94-.53-.27a13.63,13.63,0,0,0-2.15,3.49c.14-.14.94-.94.94-.27s-.54.8-.67,1.47a6.1,6.1,0,0,1-1.5,2.15c0,.54-.54.67-.67,1.34l-1.08,1.07L56,125.74a34.49,34.49,0,0,1-3.35,2.68c0,1.21-1.61,1.34-1.61,2.41-.27.41-.94,1.21-1.34,1.21s-.27-.4-.27-.54v-.26c.8,0,1.47-1.88,1.74-2.55.13,0,.4,0,.4-.27a1.09,1.09,0,0,0-.53-.8,3.11,3.11,0,0,1,.8-1.48A2.25,2.25,0,0,0,49.46,124h0c-.54,0-1.21.13-1.21.8l-1-.64.4,1.74-2.14,3.49c0,.67-.54.94-.54,1.61-1.07-.14-.94,1.87-1.88,1.87s-1.47-.26-1.47.81a1.67,1.67,0,0,0-.67,1.34c-.14-.27-.4-.67-.67-.67s-.27.4-.27.53c-1.07-.13-.13.94-1.07.94-.14,1.08-1.21,1.48-1.21,2.55l-.54,1.21h-.93l-.67.94c-.14.53,0,1.87-.94,1.87-1.34,0-.14,1.07-1.34,1.07l-.41-1.6,1.75-2.15c0-1.47,1.07-1.61,1.07-3,.67,0,.8-.67.8-1.2l-.13-.81,1.61-2.14L38.6,130c.4,0,.54-.14.54-.54s-.27-.94.4-.94c-.14-.4-.14-1.2.53-1.07l-.4-.53-1.07,1.6c0,1.34-.54,1.48-1.61,2-.13.54-.54,1.08-.54,1.61-.13-.26-.53-.67-.8-.67s-.54,1.21-.67,1.48c1.74.13-3,3.48-3,4.56-1.07,0-2.15,4.55-4,4.55l-1.21,2.69c-1.21-.14-.67.8-1.21.8h-.13l-.54.8c0,1.08-1.07.27-1.07,1.08-.94,1.47-4,6.3-5.23,7,0,0,0,.27-.13.27a9.39,9.39,0,0,1-.27-1.48l1.07-2.41c.81-.4,1.21-3.09,2-3.76.41-.93,1.48-5.36,2.15-5.89.13-.94.8-1.75.8-2.82l.54-1.07c0-.67.54-.67.54-1.21l.53-.94a2,2,0,0,1,.54-1.47l1.21-3a22.47,22.47,0,0,1,1.87-4.83,1.74,1.74,0,0,1,.54-1.34c0-.53.53-.8.53-1.34l.94-.8a9.57,9.57,0,0,1,1.34-2.55c.14-.54.54-.8.67-1.34l.67-1.07c0-.67.14-2.69,1.08-2.69,0-.26,0-.93-.41-.93h-.13l.67-1.34.14-1.34.4-.27s0-.54.13-.54.4.4.54.54c.94,0,.94-1.07.94-1.75H37a32.6,32.6,0,0,0-4.69,1.1l-1.21-.27-.13-.4c0-.27,0-.54.27-.67H29.62a11.06,11.06,0,0,0-4.16.94c-.4-.94-1.47.26-2.14.26a.28.28,0,0,1-.27-.26l-2.42.8c-.13.13-.26.27-.4.27s-.27-.14-.4-.27a11.59,11.59,0,0,1-2,.54v.13a2.75,2.75,0,0,0-1.48.4c-.26-.27-.8-.13-1.07,0l-1.2.14h-.41L10.59,113c.27-.94-2.15.54-2.41.67-2.42-.94-5.77,1.21-8.18,1.21.13-.54,3.75-1.88,4-2,.27.94,1.88-.54,2.41-.54,1.08,0,6.71-1.74,8.32-2.28l-.94-.8-2,.8c-.27,0-.27-.26-.67-.13l-.81-.27-.8.94c-.54-.4-1.21-.94-1.21-1.61s1.07-.94,1.48-.54l.4-.13c.27,0,.53,0,.67.27l1.74-.67h.8c.81-1.07,2.42-1.48,3.62-1.88.41.67,1.48-.8,1.88-.94l.27-.8a9,9,0,0,1,5.9-2.42l1.34-.8c-.14,0-1.07-.4-1.07-.54a15.84,15.84,0,0,1,2.28-1.2,6,6,0,0,0,3.08-.15v-.8l2-.81c.8.14,2-.8,3-.8,1.21,0,1.07-2,2-2,.4,0,1.07.13,1.07-.54a10.88,10.88,0,0,1,2.28-2c.94.14.94.4,1.34-.4l2.42-.94a7.62,7.62,0,0,0,2-4c1.34.4,2.14-2,2.28-3.22.13-1.61,1.2-.27,1.2-1.07a2,2,0,0,0-.4-.94c1.07-.27,0-2.68.94-2.68h.13c0-.27,0-.67.27-.67,2.41,0,.54-1.07,1.88-1.07l.13-2.42c1.21-2.54,1.48-5.89,4-7.24-.67,0-.67-1.07-.53-1.47,1.07,0,1.07-1.34,1.2-2.14L59,62.86c0-1.2,1.74-2.68,1.87-3.48.81-.54.27-1.88.94-2.42l.54-.8c.13-.94.67-1.07.8-1.74.14,0,.4,0,.4-.14a.61.61,0,0,0-.4-.4,2.28,2.28,0,0,1-1.87.4l-1.08-.67.54-.4c.4,0,3,.54,3,0,0-.27-1.34-.8-1.61-.94,0,1.74-3.22-.53-3.62-.94l2.82-.13v-.54a10.46,10.46,0,0,1,2.14-.94c.13,0,.4,0,.4-.13a.89.89,0,0,0-.53-.8c-.67,0-.67-.81-1.61-.81L53,47.58l.27-.54a31.12,31.12,0,0,0,6.17-.4l-.54-.27c-4.29.27-9.11,0-13.4.54-5.37.8-12.07,2.14-17.7,2.14-.13.67-2,.81-2.55.81s-.94-.14-.94-.67L27,48c1.2.14,2.94-.4,4.29-.4.26,0,1.47,0,1.47-.54-.67-.13-.67-.67-1.34-.67h-.13l-.94-.4A26.5,26.5,0,0,0,35,45.3c0-.67,2-.67,2-.8s-.4-.27-.54-.27c.27-.27-.13-.54-.4-.54a60.08,60.08,0,0,1-6.84.27,13.56,13.56,0,0,1,3.22-.54,8.67,8.67,0,0,0,2.15-.26.91.91,0,0,0-.54-.81l-5.23.13c0,.27,0,.54-.27.54s-.4-.27-.53-.4c-3.89,0-7.64,1.07-11.67,1.07l-.53.54-10.19.4-.4.54c-.41,0-.67,0-.67-.41,0-.67-.14-1.34.53-1.34A3.81,3.81,0,0,0,7.27,43h.67l1.74-.67c-.13-1.07,1.88-1.07,2.55-1.07h2l3.35-1.34a1.26,1.26,0,0,1,.94-.27c.8,0,2.14-.67,3.22-.8a1,1,0,0,1,.77-1.19l.17,0a32.07,32.07,0,0,0,8.84-1.61,2.63,2.63,0,0,0,1.75,0c0-.67,1.34-.67,1.74-.67h.4l1.07-.8a45.84,45.84,0,0,1,7.38-.94,2,2,0,0,1,1.2-.54A55.42,55.42,0,0,0,51.63,33l1.21-.81L54.18,32c.67,0,1.88.53,2.28-.27,1.21-.54,3.22.4,5-.4,1.34.4,2.55-.27,3.89-.27l7.37-.27a7.54,7.54,0,0,1,2.41.27V31a4.16,4.16,0,0,0,.54-1.75l.8-.94a18.56,18.56,0,0,1,4.16-7.64c0-.94.54-1.61.54-2.54.8-.41,1.74-.68,1.74-1.75.27,0,.54,0,.54-.4s.13-.54.53-.54c0-.4-.13-.93.4-.93H85l.68-.94a7.24,7.24,0,0,1,1.74-3.89c-.14-.81-.14-.81.67-.81,0,0,.4,0,.4-.13s-1-.54-1.08-.54l.53-1.34,1.21-.4,1.07-2.14c.67,0,1.08-1.75,1.21-2.28l1.21-2c.4,0,.8.13.8.67a2.35,2.35,0,0,1-.54,1.2c-.13.41-.26.94-.67,1.08,0,.93-.4.93-.4,1.47a1.23,1.23,0,0,0-.53,1.07v.27a.75.75,0,0,0-.81.67v.14A1.46,1.46,0,0,0,90,7.76c-.41.14-.54.67-.54,1.07l-.54.94-.13.94-.4.4a9.08,9.08,0,0,1-2.15,5.37l-.67.13c0,.54.14,1.48-.54,1.48h-.67c-.13.8-.4,2.94-1.07,3.61-.27,0-.53.41-.53.68v.26A2.9,2.9,0,0,0,82,24.16c.4-.14.67.27.53.67,1.34-1.48,1.88-5.36,4.29-5.63L87,20.63c-.54.14-1.75.54-1.75,1.21a4.26,4.26,0,0,0,.54,1.74c.27,0,.27-1.07.27-1.2.13-1.35,1.74-.41,2-3.89.53-.14,1.61-1.88,2-2.42.27,0,.8.27.8.67v.81l-.8.54a5.07,5.07,0,0,1,.67,2.41c0,.4-.13.8-.67.8a13.34,13.34,0,0,1-.67,2.42,2.3,2.3,0,0,0-.54,1.34,1.46,1.46,0,0,0,.54,1.2c0,1.48-.94.41-1.07,1.88a2.11,2.11,0,0,1-.67,1.47v.94l-.54.54,3.08.13h.14a2.72,2.72,0,0,0,.53-1.74c.27,0,.54,0,.54-.27a.49.49,0,0,1,.54-.53l.93-.81c.14,0,.81,0,.81-.27l-.14-.67a1,1,0,0,0,.68-.94c.93-.8,1.47-3.61,2.41-3.61h.27A18.94,18.94,0,0,0,98,19.56c.54.13.67-.54,1.21-.54a.43.43,0,0,1,.4.41c0,.26-.27.93.13.93.67,0,.81.54.67,1.08a.43.43,0,0,0,.4-.41c0-.53-.13-.93.54-.93.27,0,.54.13.54.4a4.08,4.08,0,0,1-.67,1.74l-.94.54c0,1.2-.81.8-.81,2.68l-.53.53-1.08-.26c0-1.61,1.08.67,1.08-2.68.13-.14.67-.41.67-.67s-.4-.14-.54-.14a7.34,7.34,0,0,0-2.14,1.34c-.27.67-.67,4-1.48,4.16l-1.2,1.87L94,30.82l1.2-.53.54-1.08v-.8l.94.13v-1.2c.8.26.4-1.21,1.07-1.21s.54.67.54.94c0,.53-.54.67-.54,1.2,0,.27-.94,3.49-1.07,3.89,1.47.14,3.22.67,4.42.67-.13.67.94.67,1.34.67s1.21,0,1.48.4l3.48.27.41.54h1.34c.26.27.53.54.8.54s.27-.41.27-.54l1.21.13.53-.53a6.17,6.17,0,0,0,3.08,1.2l1.08,1.21c.67,0,1.34.4,2,.4l1.47,1.07c0-1.07.67,0,.81.27,1.34,0,2.14,1.08,3.62,1.08C124,39.8,124.27,40.21,124.53,40.21ZM14.74,110.05A18.38,18.38,0,0,0,18,108.71C17,108.71,14.74,108.85,14.74,110.05ZM18.62,109c0,.13.14.13.14.13a.29.29,0,0,0,.27-.26v-.14Zm1.34-.67c0,.13.14.13.27.13a.28.28,0,0,0,.27-.26l-.13-.27Zm9.52,30.85.4-.13c0-.4-.26-.54-.67-.54h-.4a.63.63,0,0,0,.59.67Zm4-88.34-.26.53H33c-.4,0-1.48,0-1.48-.67Zm-.13,93.71c0,.8-.67,1.87-1.47,1.87-.14,0-.41-.13-.41-.26,0-.81.81-1.61,1.34-2.15a.5.5,0,0,1,.56.41v.11Zm-1.21-35.66a.25.25,0,0,0,.06-.35l-.06-.06c-.15,0,0,.39,0,.39Zm2.15,23.73c.13,0,.13-.14.13-.27s-.13-.27-.4-.27h-.13c0,.25.15.52.42.52ZM35.5,49.88a.64.64,0,0,1,.67.61v.06l-1.08.13c-.53,0-.94-.13-.94-.67ZM36.3,100l.4.4.14-.27a.8.8,0,0,0-.52-.15Zm1.21-.4c0,.26.13.26.26.26h.14v-.13c0-.27-.27-.27-.4-.27Zm.93,24c0,.54.41.67.81.67l1.07-1.87c.4.13.4-.67.4-.94,0,0,0-.54-.13-.54v.4c-.78-.18-2.13,1.58-2.13,2.25Zm2.55,0c0,.27.4.41.67.41l.54-.94-.67-.94c-.12.51-.54.91-.54,1.44Zm2.42-5.76-1.75.4c0,.54.54.67.94.67h.13c0-.27.14-.53.41-.53a.89.89,0,0,1,.67.53c-.14-.4-.27-1.47.4-1.47l.8-1.61-1.07.4c.05.64-.51.91-.51,1.58Zm-.52-74.7a18.66,18.66,0,0,0,2.55-.54l1.87-.4c.14,0,.67,0,.67-.14h-.13l-5.77.14C42.08,42.75,42.35,43.16,42.89,43.16Zm1.47,72.12a.28.28,0,0,0,.27-.27c0-.27-.27-.27-.4-.27H44C44,115,44.1,115.28,44.36,115.28Zm1.21-1.2c0,.26.27.26.54.26l-.41-.94Zm3.08-66-.26.53c-.54,0-1.75-.13-1.75-.8Zm-1.07,75.61c.14,0,.14-.14.14-.27l-.54-.27c0,.18.13.58.4.58Zm1.61-18.91c0,.14,0,.41.13.41a.61.61,0,0,0,.41-.54c0-.27-.14-.13-.14-.13l-.4.13Zm1.34-57.51c.4,0,.8.14.8.67v.22H50.4c-.54,0-1.08,0-1.08-.67Zm-.13,74.54v-.94h-.94c0,1,.13.85.94,1Zm1.34-4a.49.49,0,0,0,.44.54h.09l.54-.14a20.16,20.16,0,0,0,1.34-3l-.8-.54c-.36.66-1.61,2.4-1.61,3.21Zm5,.27L54,120.38v.93l1.07.14c.67-1.07,2.95-2.82,2.95-4a1.78,1.78,0,0,0-1-1.5Zm-.27-9.52c-.13,1.21-.81.53-.81,2.55,0,.67.54.67,1.08.67L57,110.3l.93-1.21-.4-1.47c.27,0,.81,0,.81-.4a.58.58,0,0,0-.54-.54c-.4,0-.4.81-.4.94Zm.27,14.08c-.54,0-.54,0-.67.53a.9.9,0,0,0,.63-.51Zm.53-10.06c0,.94.54,1.21,1.48,1.21,0-.94-.81-1.48-1.48-2Zm.67,8h.41c0-.26-.27-.4-.54-.4,0,.2,0,.46.09.46Zm4.43-6.7s0,.27.13.27.27-.27.27-.4,0-.27-.13-.27-.14.13-.27.13ZM72.82,81.17v1.07l.94-.13L74.84,81l-1.08-.68a1.13,1.13,0,0,1-1,.87Zm5.37-5.36-1.48-.41c-.13.67-.53,1.08-.67,1.75L75,77.68c0,.41.8.54,1.07.54A5.37,5.37,0,0,0,77.52,78l.53-1.61,1-1.18c.4,0,.53-.54.53-.81l-1.07.14c-.4.3-.4,1-.4,1.38Zm5.63-10.46L85,64c0-1.07,1.08-1.21,1.21-2.41l-.53-.94c-1.21,0-.94,2-2.28,2.81,0,2.15-3.62,3-3.62,7.24-.14.14-.54.54-.54.81s.4.26.54.26l1.07-.93c-.14-.41-.14-1.21.54-1.21l.93-1.07c1.21.27,1.21-.67,2.28-.67h.27l-.27,1.47c-2.14,0-.4,1.21-1.61,1.88,0,.27.14,1.21-.26,1.21l-.27-.14c-.4.94-.4,2-1.75,2l-.53,1.07c.27.14.67.54.67.81s-.4.27-.54.27c-.13.4-.13,1.61-.67,1.61s-.8.13-.8.67c-.14.13-.54.26-.54.53s.4.27.54.27c1.07,0,4-1.21,5-1.47l.94-.81a.89.89,0,0,0,.94-.53,7.46,7.46,0,0,1,1.87-.94c.94,0,.94,0,.94-.94l1.61.4.13-.4c0-.54-.53-.54.54-.54a1.26,1.26,0,0,1,.94-.27H92l.93-.8,2-.27.13-1.07H96a.35.35,0,0,1,.29-.4.21.21,0,0,1,.11,0h.27a8.61,8.61,0,0,1,4-1.48l1.34-.8a.9.9,0,0,1,.94-.54c0-.67.54-.8,1.07-.67l1.07-.4c.94.27.27-.81.94-.81.94,0,2.82-.26,2.82-1.34,0-.26-.14-.67.4-.67l.27-.4,1.2.14L112.59,62c-.13-.27-.53-1.61-.8-1.61s-.14.4-.14.4L110,60.51c0-1.87-2.68-.67-2.68-2.28V58c-5.36-.41-9.92-2.28-15.55-2.28-.8,0-.94.67-.94,1.34-.4,0-.53.4-.53.8s0,.94-.81.94h-.27a18.24,18.24,0,0,1-1.07,2.95L87,63v.94l-.41.8c-1.34-1.34-1.2,1.34-1.2,2H83.24a1.74,1.74,0,0,0,.54-1.33Zm-4.56,8.31c0,.14,0,.4.27.4s.27-.26.27-.4a.3.3,0,0,0-.27-.27l-.27.14Zm2.28-46.79c0-.13,0-.4-.27-.4s-.27.27-.27.4l.54.14Zm4.29,30.7-.54.94c0,.27.27.67.54.67s.54-.4.54-.67l1.07-2.14c.13-.14.94-.54.94-.67s-1.08-.27-1.34-.27c-.18,1.27-1.25,1.27-1.25,2.2Zm2.14-24a2.07,2.07,0,0,0-.26-.94c-.27,0-.67,0-.67.4a1.37,1.37,0,0,0,.53.94.35.35,0,0,0,.36-.33Zm2.11,90.59c-1.07,0-1.21-.54-1.21-1.47Zm3.35-92.5H93l.13.4h.27l.13-.14c0-.16,0-.29-.09-.29ZM96,99.73c.13,0,.13-.27.13-.4l-.4-.14C95.71,99.33,95.71,99.73,96,99.73Zm2.14-78c-.13,0-.13,0-.13.14V22l.54.14a.43.43,0,0,0-.42-.44Zm.41-1.34.26,1.08.81-.27Zm2.8-3.23c0,.26,0,.53-.4.53a1.74,1.74,0,0,1-1-.53s-.27,0-.27-.14a4.7,4.7,0,0,1,1.21-.94c-.54-.26-.94-.67.13-.67h.27Zm-.54-2.55c0-.54.67-.54.94-.54s.67,0,.67.27-.8.94-1.07,1.07c-.27-.25-.54-.54-.54-.81ZM105,36.05c0-.8-1.47-1.34-2.14-1.47C102.82,36.05,103.75,36.05,105,36.05Zm-.8,48.26a.56.56,0,0,0,.53.54c.67,0,1.21-.67,1.74-1.07l-.93-.14ZM112.36,87c-.4.14-.4-.53-.4-.67a36.79,36.79,0,0,0-4.56,2.42c0,.4-.53.53-.8.53l-.54.54v.13c0,.41.27.41.54.41a3.19,3.19,0,0,0,1.61-.54c.8,0,.8-.94,1.61-.94H110a2.36,2.36,0,0,1,2-1.07Zm-6.3,4c0,.13,0,.4.27.4s.27-.27.27-.4l-.54-.14Zm1.61,22.65h.27c0-.27-.27-.4-.54-.4,0,.16,0,.43.24.43Zm1.21-75.34c.13,0,.27-.14.27-.4l-.94-.54c0,.3.24,1,.64,1Zm1.87,96.39c0,.27-.13.4-.13.67s.67.27.81.27l.13-.54a.89.89,0,0,0-.67-.53h-.14Zm1.88-98.8c.14,0,.27,0,.27-.14a5.19,5.19,0,0,0-1.91-.59.3.3,0,0,0-.27.27,4.38,4.38,0,0,0,1.88.49ZM112,88.3c.27,0,.4-.4.4-.53H112Zm7-11.52c-.4,0-.94,0-1.2.4-.67.53-2,2-3.09,2a.93.93,0,0,1-.8.4h-.27l-1.34,1.34.27-.13h.13l2.15-.94a14.53,14.53,0,0,0,2.54-1.07L118,77.7c.41.14,1.08.41,1.08-.26l1.74-1.35h-.54v.27a1.36,1.36,0,0,0-1.4.45Zm-4.42,62.47c0,.13.27,1.07.4,1.07s.27-.8.27-.94a17.06,17.06,0,0,1-2.41-2l.26.4c-.07,1.1.35,1.5,1.42,1.5ZM113.2,87.5c.27,0,.27-.27.27-.4l-.54-.14c-.06.2.06.57.21.57ZM115,139l1.35.94.65-.79-.81-1.2C115.28,137.94,115.15,138.07,115,139Zm.54-52a.85.85,0,0,0,.54-.13l-.94-.27a.36.36,0,0,0,.31.39h.11Zm1.74,57.65-.53-.4c0-.13.13-.67-.14-.67s-.26.4-.26.54.13.53.4.53ZM117.81,75c0,.4.8.13.94,0l-.94-.14Zm.27,72.12c.27,0,.27-.26.27-.4l-.54-.13c0,.11.18.51.29.51Zm1.07.81h.13a.28.28,0,0,0-.26-.27h-.14a.3.3,0,0,0,.29.25Zm.4-18h1.88l-.13-1.07-.94-.13h.27l-.54-.4c0,.54-.52.41-.52,1.61Zm1.08-56c.26,0,.26-.27.26-.41l-.53-.13c0,.11.15.52.29.52Zm6.43-2.95c-1.07,0-1.07.93-2,.93,0,1.61-1.21,1.75-2.55,2l-.4,1.07-.67.53c0,.14.13.41.27.41s.13-.27.13-.41c.81,0,.94-.93,1.61-.93h.13a15.68,15.68,0,0,0,3-3.09l1.21-.53Zm-5.36,59.65c0,.14,0,.41.27.41s.26-.27.26-.41a.28.28,0,0,0-.26-.26l-.27.13Zm.4-57.78a.27.27,0,1,0,.1-.53h-.1a.46.46,0,0,1-.27.13c0,.12.16.38.29.38Zm.27,7.91c.13,0,.13-.4.13-.53s0-.14-.13-.14l-.4.14c0,.24.15.51.42.51Zm.67.81,1.07.13c0-.67.54-.27.54-.8h-1.06c0,.65-.53,0-.53.65Zm1.74-1.61c0,.13,0,.4.14.4s.26-.27.26-.4l-.4-.14Zm5.5-5.1c.13,1.48.4,2-1.21,2,0,.13,0,.4-.13.4s-.4-.54-.4-.67l-.94-1.08-.67.41.8,1.34-.8.53-.41-.67-.4.54c-.67,0-.94,0-.94.8,0,0,0,.27.14.27s.4-.4.53-.53l.94-.27c0,.67-.53.67-.53,1.34l1.2-.4c.67.13,1.48.4,1.48-.54a24.62,24.62,0,0,1,3.75-3.75c-.13,0-.8-.67-.27-.67h.14l2.81-1.21a30.63,30.63,0,0,1,4-4.29.36.36,0,0,0,.41-.3V68c0-.27,0-.54.4-.54l.94-1.07c.13,0,.4.13.4-.14s-.13-.53.13-.53H142c.14-.14.27-.27.27-.4,0-.41-.4-.81-.67-1.08,0-.13,0-.26-.13-.26-.54,0-1.21,2.27-1.35,2.41a8,8,0,0,1-2.68,2.55c-1.07-.14-.53.93-1.34.93a17.52,17.52,0,0,0-3.75,3.89,4.2,4.2,0,0,0-2,1.07Zm-.52,79.35-.67.8-1.34-.93c.14-.94.27-1.08,1.21-1.08Zm-1.87-11.66h.4v-.14a.3.3,0,0,0-.27-.27c0,.14-.13.27-.13.41Zm.67-71.86c.26,0,.26-.27.26-.4l-.53-.14C128.29,70.24,128.42,70.64,128.56,70.64Zm4.15,72.93c.4,0,.81.27,1.34.27l.14,1.07h-1.88C132.31,144.51,132.31,143.84,132.71,143.57Zm2.55-95.41c0,.13,0,.26.27.26a.83.83,0,0,0,.53-.13v-.13c0-.14-.27-.14-.4-.14h-.4Zm4,115.29c.13,0,.13-.13.13-.27s-.26-.27-.53-.27c0,.1.13.5.42.5Zm.4-110.33c0,.13,0,.4.27.4s.27-.27.27-.4l-.54-.14Z"/></g></g></svg>