<svg xmlns="http://www.w3.org/2000/svg" viewBox="0 0 624.94 155.02"><defs><style>.cls-1{fill:#fffdf1;}</style></defs><title>Asset 5</title><g id="Layer_2" data-name="Layer 2"><g id="Layer_1-2" data-name="Layer 1"><path class="cls-1" d="M554.94,102c-12-2-66,20-92,18-24,0-59.69-14.91-78-18-7.32-1.24-18,8-8,24s35.6,28,35.6,28h22.4s-42-11-52-34c-5-11,2-11,3-11,.27,0,4.18,1.53,10.25,3.7l5.75,16.3s18.94,8.59,29,11,32,5,32,5l7-7,6,7s23-3,28-5,27-12,27-12l4.75-15.2c8.32-2.22,14.66-3.8,17.25-3.8,9,0,7,7,7,7s-2,12-23,23-36,15-36,15h22.31s16.5-6.24,27.69-15C573.94,121,572.94,102,554.94,102Z"/><path class="cls-1" d="M617.44,0H513.94s-8,55,47,53C629.94,51,617.44,0,617.44,0Zm-67,39c-4.14,0-7.5-5.6-7.5-12.5S546.3,14,550.44,14s7.5,5.6,7.5,12.5S554.59,39,550.44,39Z"/><path class="cls-1" d="M423.48,0h-104s-6.56,52,58.44,54C435.94,52,423.48,0,423.48,0Zm-47,40c-4.14,0-7.5-5.6-7.5-12.5S372.3,15,376.44,15s7.5,5.6,7.5,12.5S380.59,40,376.44,40Z"/><circle class="cls-1" cx="379.94" cy="29" r="1"/><ellipse class="cls-1" cx="375.44" cy="23" rx="3.5" ry="5"/><path class="cls-1" d="M567.94,63c-68,1-62-50-70-54C496.21,7.7,475,6.15,475,6.15S484.94,39,482.94,59c-.58,23.16-17,47-37,47-10-1-15.71-6.91-15.71-12.65,0-10.1,12.7-24.41,19.71-40.35,6-13,9.32-47,9.32-47s-16.5,1.15-18.32,3c-8,13-6,50-67,54-37.4,1.81-55.51-21.49-64-40.27V82s54.3,6.56,114,9c0,1,4.21,20,22,20,13,0,25.12-10,32-19-.48,0-.95,0,0,0h.53c98.64-.07,146.47-18.28,146.47-18.28V30S610.94,64,567.94,63Z"/><path class="cls-1" d="M477.94,92h0C477,92,477.46,92,477.94,92Z"/><path class="cls-1" d="M477.94,92h0Z"/><path class="cls-1" d="M477.94,92h0Z"/><ellipse class="cls-1" cx="375.44" cy="23" rx="3.5" ry="5"/><circle class="cls-1" cx="379.94" cy="29" r="1"/><circle class="cls-1" cx="553.94" cy="28" r="1"/><ellipse class="cls-1" cx="549.44" cy="22" rx="3.5" ry="5"/><path class="cls-1" d="M92.59,2.61h16.87l13.1,32.3,5.66,15h.38c-.74-7.17-2.25-16.9-2.25-25V2.61h15.43V70.12H125.1L111.86,37.74l-5.72-14.88h-.39C106.5,30.41,108,39.73,108,47.8V70.12H92.59Z"/><path class="cls-1" d="M152,35.78C152,13.05,163.18,1,179.43,1s27.4,12.05,27.4,34.78c0,23.3-11.16,35.41-27.4,35.41S152,59.08,152,35.78Zm38.13,0C190.16,22.14,186,15,179.43,15s-10.73,7.1-10.73,20.74c0,14.21,4.12,21.37,10.73,21.37S190.16,50,190.16,35.78Z"/><path class="cls-1" d="M0,140.53H15.43V100H0V86.52H47.26V100H31.83v40.51H47.26V154H0Z"/><path class="cls-1" d="M61.73,86.52H76.57l13.92,32.3,6,15h.4c-.79-7.17-2.39-16.9-2.39-25V86.52h16.4V154H94.24L81,121.65l-5.72-14.87h-.38c.74,7.54,2.27,16.86,2.27,24.94V154H61.73Z"/><path class="cls-1" d="M139.85,100H120.56V86.52H176.5V100H156.25v54h-16.4Z"/><path class="cls-1" d="M186.15,85.56h24.66c14.57,0,26.74,5,26.74,21.58,0,16-12.17,22.78-26.74,22.78h-8.27V154H186.15Zm23.4,31.83c7.77,0,11.92-3.38,11.92-9.77s-4.15-8.56-11.92-8.56h-7v18.33Zm9.32-2L240.61,154H222.42l-14.7-28Z"/><path class="cls-1" d="M245.6,119.61c0-22.73,11.15-34.78,27.4-34.78s27.4,12,27.4,34.78c0,23.3-11.15,35.41-27.4,35.41S245.6,142.91,245.6,119.61Zm38.13,0c0-13.64-4.12-20.74-10.73-20.74s-10.73,7.1-10.73,20.74c0,14.21,4.12,21.37,10.73,21.37S283.73,133.82,283.73,119.61Z"/></g></g></svg>