<svg xmlns="http://www.w3.org/2000/svg" viewBox="0 0 624.94 154.02"><title>Asset 4</title><g id="Layer_2" data-name="Layer 2"><g id="Layer_1-2" data-name="Layer 1"><path d="M477.94,92c-1.92,0,2,0,0,0-6.87,9-19,19-32,19-17.79,0-22-19-22-20-59.7-2.44-114-9-114-9v72h102.6s-25.6-12-35.6-28,.68-25.24,8-24c18.31,3.09,54,18,78,18,26,2,80-20,92-18,18,0,19,19-4,37-11.19,8.76-27.69,15-27.69,15H624.94V73.72S576.94,92,477.94,92Z"/><path d="M376.44,15c-4.14,0-7.5,5.6-7.5,12.5S372.3,40,376.44,40s7.5-5.6,7.5-12.5S380.59,15,376.44,15Zm-1,13c-1.93,0-3.5-2.24-3.5-5s1.57-5,3.5-5,3.5,2.24,3.5,5S377.38,28,375.44,28Zm4.5,2a1,1,0,1,1,1-1A1,1,0,0,1,379.94,30Z"/><path d="M550.44,14c-4.14,0-7.5,5.6-7.5,12.5S546.3,39,550.44,39s7.5-5.6,7.5-12.5S554.59,14,550.44,14Zm-1,13c-1.93,0-3.5-2.24-3.5-5s1.57-5,3.5-5,3.5,2.24,3.5,5S551.38,27,549.44,27Zm4.5,2a1,1,0,1,1,1-1A1,1,0,0,1,553.94,29Z"/><path d="M552.94,109c-2.59,0-8.93,1.58-17.25,3.8L530.94,128s-22,10-27,12-28,5-28,5l-6-7-7,7s-21.94-2.59-32-5-29-11-29-11l-5.75-16.3c-6.07-2.17-10-3.7-10.25-3.7-1,0-8,0-3,11,10,23,52,34,52,34h66s15-4,36-15,23-23,23-23S561.94,109,552.94,109Z"/><path d="M617.44,0s12.5,51-56.5,53c-55,2-47-53-47-53H423.48s12.46,52-45.54,54c-65-2-58.44-54-58.44-54H302.94s9,66,71,63c61-4,59-41,67-54,1.82-1.82,18.32-3,18.32-3s-3.32,34-9.32,47c-7,15.94-19.71,30.25-19.71,40.35,0,5.74,5.71,11.65,15.71,12.65,20,0,36.42-23.84,37-47,2-20-7.95-52.85-7.95-52.85S496.21,7.7,497.94,9c8,4,2,55,70,54,43,1,57-33,57-33V0Z"/><path d="M92.59,1.61h16.87l13.1,32.3,5.66,15h.38c-.74-7.17-2.25-16.9-2.25-25V1.61h15.43V69.12H125.1L111.86,36.74l-5.72-14.88h-.39C106.5,29.41,108,38.73,108,46.8V69.12H92.59Z"/><path d="M152,34.78C152,12.05,163.18,0,179.43,0s27.4,12.05,27.4,34.78c0,23.3-11.16,35.41-27.4,35.41S152,58.08,152,34.78Zm38.13,0C190.16,21.14,186,14,179.43,14s-10.73,7.1-10.73,20.74c0,14.21,4.12,21.37,10.73,21.37S190.16,49,190.16,34.78Z"/><path d="M0,139.53H15.43V99H0V85.52H47.26V99H31.83v40.51H47.26V153H0Z"/><path d="M61.73,85.52H76.57l13.92,32.3,6,15h.4c-.79-7.17-2.39-16.9-2.39-25V85.52h16.4V153H94.24L81,120.65l-5.72-14.87h-.38c.74,7.54,2.27,16.86,2.27,24.94V153H61.73Z"/><path d="M139.85,99H120.56V85.52H176.5V99H156.25v54h-16.4Z"/><path d="M186.15,84.56h24.66c14.57,0,26.74,5,26.74,21.58,0,16-12.17,22.78-26.74,22.78h-8.27V153H186.15Zm23.4,31.83c7.77,0,11.92-3.38,11.92-9.77s-4.15-8.56-11.92-8.56h-7v18.33Zm9.32-2L240.61,153H222.42l-14.7-28Z"/><path d="M245.6,118.61c0-22.73,11.15-34.78,27.4-34.78s27.4,12,27.4,34.78c0,23.3-11.15,35.41-27.4,35.41S245.6,141.91,245.6,118.61Zm38.13,0c0-13.64-4.12-20.74-10.73-20.74s-10.73,7.1-10.73,20.74c0,14.21,4.12,21.37,10.73,21.37S283.73,132.82,283.73,118.61Z"/></g></g></svg>