<svg xmlns="http://www.w3.org/2000/svg" viewBox="0 0 189 36"><defs><style>.cls-1{fill:#fcfcfc;}</style></defs><title>Asset 1</title><g id="Layer_2" data-name="Layer 2"><g id="Layer_1-2" data-name="Layer 1"><rect class="cls-1" x="95" width="13" height="28"/><path class="cls-1" d="M88,31.36V0H67.2A12.84,12.84,0,0,1,80,12.8V23.2A12.84,12.84,0,0,1,67.2,36H92.64A4.64,4.64,0,0,1,88,31.36Z"/><rect class="cls-1" x="155" width="8" height="36"/><path class="cls-1" d="M183,22H170V36h19V16A6,6,0,0,1,183,22Z"/><path class="cls-1" d="M183,0a6,6,0,0,1,6,6V0Z"/><path class="cls-1" d="M180.22,7H170v8h10.22A2.8,2.8,0,0,0,183,12.22V9.78A2.8,2.8,0,0,0,180.22,7Z"/><polygon class="cls-1" points="148 0 130 0 139 20 148 0"/><path class="cls-1" d="M115,0V31.36A4.64,4.64,0,0,1,110.36,36H123V0Z"/><polygon class="cls-1" points="140 32 138 32 130 15.03 130 36 148 36 148 15.03 140 32"/><polygon class="cls-1" points="35 28 35 21 45 21 45 14 35 14 35 7 52 7 52 0 29 0 29 36 52 36 52 28 35 28"/><path class="cls-1" d="M65.18,7H58V28h7.18A7.82,7.82,0,0,0,73,20.18V14.82A7.82,7.82,0,0,0,65.18,7Z"/><path class="cls-1" d="M12,23h1.5A5.52,5.52,0,0,0,19,17.5V5.5A5.52,5.52,0,0,0,13.5,0H0V7H10.73A2.27,2.27,0,0,1,13,9.27v4.46A2.27,2.27,0,0,1,10.73,16H0v7H3L13,36h9Z"/></g></g></svg>