<svg xmlns="http://www.w3.org/2000/svg" viewBox="0 0 189 36"><defs><style>.cls-1{fill:#FFFDF1}</style></defs><g id="Layer_2" data-name="Layer 2"><g id="Layer_1-2" data-name="Layer 1"><path d="M19 5.5v12a5.52 5.52 0 0 1-5.5 5.5H12l10 13h7V0H13.5A5.52 5.52 0 0 1 19 5.5zM0 23v13h13L3 23H0z" class="cls-1"/><path d="M13 13.73V9.27A2.27 2.27 0 0 0 10.73 7H0v9h10.73A2.27 2.27 0 0 0 13 13.73zM67.2 0H52v7H35v7h10v7H35v7h17v8h15.2A12.84 12.84 0 0 0 80 23.2V12.8A12.84 12.84 0 0 0 67.2 0zM73 20.18A7.82 7.82 0 0 1 65.18 28H58V7h7.18A7.82 7.82 0 0 1 73 14.82zM108 28H95V0h-7v31.36A4.64 4.64 0 0 0 92.64 36h17.72a4.64 4.64 0 0 0 4.64-4.64V0h-7zM139 20l-9-20h-7v36h7V15.03L138 32h2l8-16.97V36h7V0h-7l-9 20zM183 0h-20v36h7V22h13a6 6 0 0 0 6-6V6a6 6 0 0 0-6-6zm0 12.22a2.79 2.79 0 0 1-2.78 2.78H170V7h10.22A2.79 2.79 0 0 1 183 9.78z" class="cls-1"/></g></g></svg>