<?xml version="1.0" encoding="utf-8"?>
<!-- Generator: Adobe Illustrator 22.0.1, SVG Export Plug-In . SVG Version: 6.00 Build 0)  -->
<svg version="1.1" id="flag-icon-css-ai" xmlns="http://www.w3.org/2000/svg" xmlns:xlink="http://www.w3.org/1999/xlink" x="0px"
	 y="0px" viewBox="0 0 640 480" style="enable-background:new 0 0 640 480;" xml:space="preserve">
<style type="text/css">
	.st0{fill:#036D2F;}
	.st1{fill:#FCFDFC;}
</style>
<rect class="st0" width="640" height="480"/>
<g>
	<path class="st1" d="M153.4,301c-9,0-15.3,6.4-15.3,15.4c0,9.1,6.1,15.4,15.2,15.4c9.1,0.1,15.4-6.1,15.6-15.1
		C168.9,307.7,162.4,301,153.4,301z"/>
	<path class="st1" d="M194.6,301c-9.1,0-15.5,6.6-15.4,15.7c0.1,9,6.5,15.2,15.6,15.1c9-0.1,15.3-6.4,15.2-15.5
		C210,307.5,203.6,301.1,194.6,301z"/>
	<path class="st1" d="M49.8,154.9c9.2,0.1,15.6-6.2,15.5-15.5c0-9-6.4-15.4-15.3-15.4c-8.9,0-15.3,6.4-15.3,15.4
		C34.7,148.5,40.8,154.9,49.8,154.9z"/>
	<path class="st1" d="M91.3,155c9,0,15.2-6.3,15.3-15.4c0-9-6.2-15.4-15.2-15.5c-8.9-0.1-15.4,6.3-15.5,15.2
		C75.9,148.6,82.2,155,91.3,155z"/>
	<path class="st1" d="M548.9,106.1c-2-1.1-3.4-1-5.2,0.3c-3.5,2.4-7.1,4.7-10.8,6.9c-8.8,5.2-12.5,12.8-12.5,22.9
		c0.1,32.6,0,65.1,0.1,97.7c0,3-0.7,3.9-3.8,3.9c-20.8-0.1-41.6-0.1-62.4-0.1c-7.7,0-13.8-4.5-16.3-11.8c-1-2.8-0.6-3.9,2.7-3.8
		c12.5,0.2,25.1,0.1,37.6,0.1c3.4,0,5.7-2.1,5.7-5.3c0-12.4,0-24.8,0-37.2c0-1.6-0.3-2.5-2-3.1c-2.9-1.1-4.9-1-6.2,2.1
		c-3.1,7.4-9.2,9.4-16.6,9c-2.1-0.1-4.1,0.1-6.2,0.1c-6.3-0.2-12.6-0.7-19-0.7c-22-0.2-35.3,18-28.5,38.8c1,3.1,2.1,6.1,3.5,9
		c1.2,2.6,0.5,3-2,3c-16.7-0.1-33.3-0.1-50,0c-2.7,0-3.2-0.9-3.1-3.4c0.2-6.6,0.1-13.2,0-19.8c0-3.6-3.6-5.9-6.8-4.3
		c-5.3,2.7-10.6,5.4-15.9,8.1c-5,2.5-8.1,6.6-10.1,11.8c-1.5,4.1-1.8,8.3-1.8,12.6c0,11-0.1,22,0.1,33c0.1,3.1-0.6,4.3-3.9,4.1
		c-7.2-0.2-14.5-0.1-21.7,0c-3.7,0-5.9,2.5-5.3,6.2c2.2,12.7,9.6,21.3,21.3,26.1c19.1,7.8,39.6-2.9,43.6-22.5
		c0.9-4.2,0.7-8.5,0.5-12.8c-0.2-3.4,0.7-4.3,4.2-4.3c29.6,0.2,59.2,0.1,88.8,0.1c29.3,0,58.7,0,88,0c10.1,0,16.5-6.5,16.5-16.5
		c0-48.5,0-96.9,0.1-145.4C551.4,108.6,550.9,107.2,548.9,106.1z"/>
	<path class="st1" d="M262.9,290.2c-8.9,0-15.4,6.5-15.4,15.4c0,9,6.4,15.4,15.3,15.4c9.1,0,15.5-6.2,15.5-15.2
		C278.6,296.7,272.1,290.1,262.9,290.2z"/>
	<path class="st1" d="M600.3,110.7c0-2.2-0.5-3.5-2.6-4.6c-2-1-3.4-1-5.2,0.4c-4.1,3.1-8.5,5.8-12.7,8.8c-6.4,4.7-10.4,11-10.4,19
		c-0.1,44.2-0.1,88.4,0,132.5c0,3.5,2.2,5.7,5.7,5.7c6.1,0,12.1,0,18.2,0c5.1,0,6.9-1.8,6.9-6.9c0-25.7,0-51.4,0-77.1
		C600.2,162.7,600.2,136.7,600.3,110.7z"/>
	<path class="st1" d="M292.9,257.2c0.2-19.5,0-39,0.1-58.5c0-2.2-1.3-2.8-2.8-3.6c-1.4-0.7-2.5-1.4-4.2-0.1
		c-6,4.7-12.2,9.2-17.9,14.2c-2.4,2.1-3.9,4.7-4.5,7.9c-1,5.5-1.5,11-1.3,16.6c0.1,3.1-0.7,4.1-4,4.1c-13.6-0.2-27.1-0.2-40.7,0
		c-3.6,0.1-4.2-1.1-4.1-4.4c0.2-11.4,0-22.7,0.1-34.1c0-2.3-1-3.3-2.8-4.4c-2-1.2-3.2-0.6-4.8,0.5c-5.4,3.8-10.8,7.5-15.9,11.8
		c-3.8,3.2-5.8,7.1-6.4,12c-0.6,4.9-1,9.8-0.8,14.7c0.1,3.4-1.1,4-4.2,4c-21.6-0.1-43.2-0.1-64.7,0c-3.1,0-3.9-0.8-3.8-3.8
		c0.2-17.2,0.1-34.4,0.1-51.6c0-1.8,0.4-3.5-2.1-4.3c-2.1-0.7-3.6-1.4-5.8,0.5c-6.1,5.5-13.2,8.9-21.5,9.6
		c-5.3,0.5-10.5,1.1-15.8,1.7c-6,0.7-11.7,2.4-16.5,6.2c-10.8,8.6-18.1,19.5-20.6,33.1c-2.2,12-0.8,24.2-1.1,36.4
		c-0.1,5.5,1.6,7.1,7.1,7.1c40.2,0,80.4,0,120.6,0c12.4,0,24.8,0,37.2,0c27.8,0,55.6,0,83.3,0C284.7,272.6,292.8,265.7,292.9,257.2z
		 M79.4,235.3c0,1.9-0.6,2.5-2.5,2.4c-2.8-0.1-5.7,0-8.5,0c0,0,0-0.1,0-0.1c-2.8,0-5.7,0-8.5,0c-1.7,0-2.5-0.3-2.2-2.4
		c1.4-8.2,10.4-15.5,18.5-15c2.2,0.1,3.2,0.8,3.1,3.2C79.3,227.3,79.3,231.3,79.4,235.3z"/>
</g>
</svg>
