<svg xmlns="http://www.w3.org/2000/svg" id="flag-icon-css-ga" viewBox="0 0 640 480"><style>.st0{fill:#006cb7}.st1{fill:#fffffe}</style><g id="_x23_006cb7ff"><path d="M640 0v480H0V0h640zM231.3 108.1c-32.2 20-56.5 52.4-66.3 89-9.3 35.4-6.1 74.1 8.4 107.7 4.8 10 9.5 20.8 18.4 27.9-25-40.1-31.5-92.5-12.1-136.2 17.2-40.5 54.3-71.9 97.2-82.1 35.7-8.6 74.9-4.3 107.1 13.6 27.1 14.9 47.6 41.3 54.5 71.5 13 53.1-18.9 113.3-70.6 131.6-29.6 10.3-64.2 9.9-91.4-6.9-26.4-14.9-42.8-43.3-47.7-72.6-4.3-25.6 4-51.8 18.7-72.7-7.8 5.5-11.5 14.9-15.7 23.1-13.7 30.2-12.3 66.2.7 96.4 14.4 33.4 46.6 58.4 82.7 63.4 28.1 4.9 57.2-3.9 80.2-20.1 30.9-21.6 51.1-57 55.5-94.2 5.4-37.3-3.9-76.9-26.7-107.1-20.4-27.4-51.6-46.3-85.1-52.6-36.7-7.3-76 .4-107.8 20.3m-1.9 43.7C202.9 177.7 188.6 215 189 252c.6 62 44.3 122.3 104.8 138.4 39.6 11 83.6 2.7 117.4-20.4 33.6-22.7 57.4-59.1 65.6-98.8 7.5-34.7 3.4-71.9-12.7-103.6-1-1.7-2.3-3.1-3.9-4.2 13.3 31.6 15.2 67.7 6.1 100.7-18.7 68.1-92.8 117.2-162.9 104.1-33-5.8-63.8-24.9-82.3-53.1-17.8-26.6-24.8-61-15.6-92 10.6-38.7 44.1-69.4 83-78.1 15.6-3.5 32-3.5 47.8-1.7 37.8 5.6 70.6 35.4 79.6 72.6 4.6 21 2.4 43.5-6.4 63.1 7.6-7.5 8.7-19.1 11.4-29 4.5-29.8-2.1-61.7-19.6-86.4-20.4-28.8-55.6-46-90.7-45.4-30.3-.8-59.9 12.5-81.2 33.6m39 42.1c4.1-1.2 8.2-2.1 12.5-2.5-5.8 9.2-13.3 17.6-17.2 27.9-5.3 11.7-6.6 24.9-4.5 37.5 6.8 35.7 46.4 61.8 81.9 52.6 25.8-8.1 38.4-34 50.8-55.9-6 3.2-11.8 6.8-18.3 8.8-9.6 2.4-19.5.4-28.1-4-6-3.4-12 1-15.9 5.4 7.1 1.2 15.4 3.2 18.9 10.3 6.2 11.5-2 26.4-13.6 30.6-9.7 3.2-20.4.1-29-4.8-19.4-11.3-24.6-38.8-15.2-58.2 7.5-14.4 24.6-19.6 39.8-20-5.7-5.1-10.4-11.9-8.8-19.9 8.8 5.5 17.7 11.4 28.1 13.2 2.5-7 3.9-16.7 12.5-18.8a55 55 0 0 0-10.3 21c-10.8-.5-20.2-6.2-29.2-11.8 2.1 9.5 10 17.3 19.5 19.3 14.8 4.6 33.7 8.5 46-3.8-7.5 1.6-15.7 6.1-23.1 1.6 7.8-2.2 15.7-4.1 23.5-6.3-7.6-17.8-23.4-31.5-42.1-36.4-13.2-4.7-27.3-2.7-40.8-5.7-15.3-2.5-29.4 8.1-37.4 19.9z" class="st0"/><path d="M369.1 210.1c3.4-3.6 8.1 2.4 4.8 5.5-3.4 3.9-8-2.5-4.8-5.5z" class="st0"/></g><g id="_x23_fffffeff"><path d="M231.3 108.1c31.7-19.9 71-27.6 107.9-20.4 33.5 6.3 64.7 25.2 85.1 52.6 22.8 30.2 32 69.8 26.7 107.1-4.4 37.2-24.6 72.7-55.5 94.2-23 16.2-52.1 25.1-80.2 20.1-36.1-5-68.3-30-82.7-63.4-13-30.2-14.4-66.2-.7-96.4 4.2-8.2 7.8-17.6 15.7-23.1-14.7 20.9-23 47.1-18.7 72.7 4.9 29.3 21.3 57.8 47.7 72.6 27.2 16.8 61.8 17.2 91.4 6.9 51.7-18.3 83.5-78.6 70.6-131.6-6.9-30.2-27.5-56.6-54.5-71.5-32.3-17.9-71.4-22.2-107.1-13.6-42.8 10.3-79.9 41.6-97.2 82.1-19.5 43.7-12.9 96.1 12.1 136.2-8.9-7.2-13.5-17.9-18.4-27.9-14.4-33.6-17.7-72.3-8.4-107.7 9.8-36.5 34.1-68.9 66.2-88.9z" class="st1"/><path d="M229.4 151.8c21.3-21.1 50.9-34.4 81.2-33.6 35.2-.6 70.3 16.6 90.7 45.4 17.5 24.7 24.1 56.6 19.6 86.4-2.7 9.9-3.8 21.5-11.4 29 8.9-19.7 11-42.1 6.4-63.1-9-37.2-41.8-67-79.6-72.6-15.9-1.8-32.2-1.8-47.8 1.7-38.9 8.8-72.4 39.4-83 78.1-9.2 31-2.2 65.4 15.6 92 18.5 28.2 49.2 47.3 82.3 53.1 70.1 13.1 144.2-36 162.9-104.1 9.1-33 7.1-69-6.1-100.7 1.6 1.2 2.9 2.6 3.9 4.2 16.1 31.7 20.2 68.9 12.7 103.6-8.2 39.6-31.9 76.1-65.6 98.8-33.8 23.1-77.7 31.5-117.4 20.4C233.2 374.3 189.6 314 189 252c-.5-37 13.8-74.3 40.4-100.2z" class="st1"/><path d="M268.4 193.9c8-11.9 22.1-22.5 37.2-19.7 13.5 3 27.6 1 40.8 5.7 18.7 4.9 34.4 18.6 42.1 36.4-7.8 2.2-15.7 4-23.5 6.3 7.4 4.5 15.6 0 23.1-1.6-12.2 12.3-31.2 8.4-46 3.8-9.5-2-17.4-9.8-19.5-19.3 9 5.5 18.3 11.3 29.2 11.8a55 55 0 0 1 10.3-21c-8.6 2.1-10 11.8-12.5 18.8-10.4-1.9-19.3-7.7-28.1-13.2-1.6 8 3.1 14.8 8.8 19.9-15.2.4-32.3 5.6-39.8 20-9.4 19.4-4.2 46.9 15.2 58.2 8.6 4.9 19.3 8 29 4.8 11.6-4.2 19.9-19.1 13.6-30.6-3.5-7.1-11.8-9.1-18.9-10.3 3.9-4.5 9.9-8.8 15.9-5.4 8.7 4.3 18.6 6.3 28.1 4 6.5-2 12.4-5.6 18.3-8.8-12.4 21.9-25 47.8-50.8 55.9-35.4 9.2-75-16.8-81.9-52.6-2.1-12.6-.7-25.8 4.5-37.5 4-10.3 11.4-18.7 17.2-27.9-4.1.2-8.2 1.2-12.3 2.3m100.7 16.2c-3.1 3 1.5 9.4 4.8 5.5 3.3-3.1-1.5-9.1-4.8-5.5z" class="st1"/></g></svg>