<?xml version="1.0" encoding="utf-8"?>
<!-- Generator: Adobe Illustrator 22.0.1, SVG Export Plug-In . SVG Version: 6.00 Build 0)  -->
<svg version="1.1" id="flag-icon-css-ar" xmlns="http://www.w3.org/2000/svg" xmlns:xlink="http://www.w3.org/1999/xlink" x="0px"
	 y="0px" viewBox="0 0 640 480" style="enable-background:new 0 0 640 480;" xml:space="preserve">
<style type="text/css">
	.st0{fill:#74ACDF;}
	.st1{fill:none;stroke:#FFFFFF;stroke-width:26;}
	.st2{fill:none;stroke:#FFFFFF;stroke-width:14;}
</style>
<path class="st0" d="M0,0h640v480H0V0z"/>
<g>
	<path class="st1" d="M324.3,70c-93.6,0.5-169.2,76.8-168.7,170.4c0.5,93.6,76.8,169.2,170.4,168.7s169.2-76.8,168.7-170.4
		C494.3,145.7,419,70.5,326.1,70H324.3z"/>
	<path class="st2" d="M325.2,70.9V410 M494.7,240.4H155.6 M193.9,136.1c78.6,56,184,56,262.6,0 M456.5,344.8
		c-78.6-56-184-56-262.6,0 M312.2,74.4c-91.7,77.5-103.3,214.6-25.8,306.3c7.9,9.3,16.5,18,25.8,25.8 M338.2,407.4
		c91.7-77.5,103.3-214.6,25.8-306.3c-7.9-9.3-16.5-18-25.8-25.8"/>
</g>
</svg>
