<svg xmlns="http://www.w3.org/2000/svg" viewBox="0 0 225 61.8"><defs><style>.cls-1{fill:#22b14c;stroke:#22b14c;stroke-width:.95px}</style></defs><g id="Layer_2" data-name="Layer 2"><g id="svg2"><path d="M200.5 59.1h21.1L196 28.2l23.9-25.1h3.8V1.3h-26.8v1.8h3.5L186 19 172.6 3.1h3.6V1.3h-26.8v1.8h2l24.4 27.5-25.5 28h-2.4v1.8h26.8v-1.8h-4.8l15.4-17.5 15.2 18zM140.5 42.7h1.9v18.6h-1.9z" class="cls-1"/><path d="M197.7 59.1h26.8v1.8h-26.8zM98.9 43.9q2.4-1 5.4-2t6.7-2l6.6-1.9q6.4-1.8 11-3.3A30 30 0 0 0 136 31a12.4 12.4 0 0 0 4.3-5 18.3 18.3 0 0 0 1.3-7.6 13.8 13.8 0 0 0-1.9-7 16 16 0 0 0-5.2-5.5 26.5 26.5 0 0 0-8.1-3.6A38 38 0 0 0 116 1.1a105.3 105.3 0 0 0-13.4.7 88.6 88.6 0 0 0-10.8 2 55.4 55.4 0 0 0-8.5 3 49.2 49.2 0 0 0-4.8 2.4l-.6-1.4-1.7.7 7.2 17.1 1.8-.7-1-2.5a49.6 49.6 0 0 1 5.5-3 66.5 66.5 0 0 1 7.6-3 62.3 62.3 0 0 1 8.5-2 50 50 0 0 1 9-.7c4 0 7 .5 8.6 1.6s2.5 2.1 2.5 3.5a3.4 3.4 0 0 1-1.8 3 21.3 21.3 0 0 1-4.9 2.1l-7.2 2.2c-2.8.8-5.5 1.5-8.5 2.5a95.8 95.8 0 0 0-9.2 3.4 54.3 54.3 0 0 0-9 5 60.3 60.3 0 0 0-9.3 8v14.2h64.4V45.4H96.1A7.5 7.5 0 0 1 99 44zM67.8 34.3a12.3 12.3 0 0 0-3.7-3.2 13.3 13.3 0 0 0-5.5-1.7 15.3 15.3 0 0 0 6.3-4.3 13.5 13.5 0 0 0 2.2-3.8 12.6 12.6 0 0 0 .8-4.7 11.2 11.2 0 0 0-2.3-7.2 17.6 17.6 0 0 0-6.4-5 32.2 32.2 0 0 0-9.2-3 60.5 60.5 0 0 0-10.8-1 86.8 86.8 0 0 0-10.5.7q-5.2.6-9.7 1.6a71 71 0 0 0-7.9 2L7.1 6l-.7-1.7-1.8.7L12 22.3l1.8-.8-1-2.2 3.7-1.7a44 44 0 0 1 6.3-2.2 62 62 0 0 1 7.5-1.6 52.6 52.6 0 0 1 8.2-.7q8.3 0 11.7 1.5t3.5 3.8a4 4 0 0 1-.7 2.4 5.4 5.4 0 0 1-2.5 1.7 18 18 0 0 1-4.4 1.1 50.2 50.2 0 0 1-6.8.4H23.4v-3.3h-1.9v18.7h2V36h15.6q7.9 0 11.3 1.2c2.4.8 3.6 2.3 3.6 4.5a3.4 3.4 0 0 1-1.4 2.7 9.8 9.8 0 0 1-3.4 1.8 24.6 24.6 0 0 1-5 1 54.3 54.3 0 0 1-6 .4 41.4 41.4 0 0 1-7.3-.8q-4.2-.8-8.6-2t-8-2.6a26.6 26.6 0 0 1-4.3-2l1.3-2.2-1.7-1-9 16.3 1.6.9 1.5-2.7-.5 1a33.4 33.4 0 0 0 5.2 2.7 71.7 71.7 0 0 0 7.8 2.5 86.4 86.4 0 0 0 9.6 2 74 74 0 0 0 10.9.8q17 0 25.3-4.3T70.4 42a12.9 12.9 0 0 0-.6-3.8 10.7 10.7 0 0 0-2-3.9z" class="cls-1"/></g></g></svg>