<svg xmlns="http://www.w3.org/2000/svg" id="Layer_1" viewBox="0 0 650.1 222.7"><style>.st0{fill:#22b14c}</style><path d="M0 216.5c0-3.5 16-6.3 35.7-6.3 19.7 0 35.7 2.8 35.7 6.3s-16 6.3-35.7 6.3C16 222.7 0 219.9 0 216.5zM553.6 53.7c-3.2-3.6-8.4-5.4-15.7-5.4-6.1 0-11 1.5-14.7 4.4-3.7 2.9-5.9 7.6-6.8 14-.9 6.4-1.3 18.9-1.3 37.6 0 18.4.4 30.7 1.2 36.6.8 6 2.8 10.7 6.1 14.2s8.5 5.3 15.6 5.3c5.9 0 10.7-1.4 14.4-4.3 3.7-2.9 6-7.5 7-13.9.9-6.4 1.4-19 1.4-37.8 0-18.5-.4-30.6-1.1-36.5a28 28 0 0 0-6.1-14.2zM379.1 53.3A34.7 34.7 0 0 0 363 50h-16.6v108.7H357c16.3 0 26.1-4.3 29.5-12.8 3.4-8.5 5.1-23.2 5.1-43.8 0-16.2-1-27.8-3.1-34.9-2.1-7-5.2-11.7-9.4-13.9z" class="st0"/><path d="M109.2 0v222.7h540.9V0H109.2zM234 157.3a58.7 58.7 0 0 1-35.2 9.5 49 49 0 0 1-29.4-7.6c-6.9-5-10.4-10.8-10.4-17.3a13 13 0 0 1 4.7-10.4c3.1-2.6 6.8-3.9 11.2-3.9a17 17 0 0 1 10.5 3.4 11 11 0 0 1 4.3 9.1c0 5-3.4 9.2-10.1 12.7-1.3.7-2 1.4-2 2.3 0 1.6 1.9 2.9 5.7 4.1 3.8 1.2 7.6 1.7 11.6 1.7 13 0 19.5-9.6 19.5-28.7 0-18.9-7.8-28.4-23.4-28.4l-13 .5c-2.6 0-3.9-1-3.9-2.9 0-2.2 1.4-3.3 4.1-3.3l9.4.4c9.6 0 16.1-2.1 19.3-6.4a29.5 29.5 0 0 0 4.9-18.3 34 34 0 0 0-3.7-18c-2.5-3.8-6.7-5.7-12.7-5.7-3.3 0-6.4.5-9.2 1.7-2.9 1.1-4.3 2.2-4.3 3.3 0 1 .9 2 2.8 3.1 5 3.2 7.5 6.6 7.5 10.3 0 3.6-1.4 6.5-4.2 8.7a16.6 16.6 0 0 1-20.1-.5 11.3 11.3 0 0 1-4.7-9.1c0-6.2 3.5-11.6 10.5-16.1a49 49 0 0 1 26.9-6.8 58 58 0 0 1 30.7 7.7c8.3 5.1 12.5 11.7 12.5 19.7 0 15.8-14.7 25.4-44.2 28.7v.4c16.3.3 28.3 3.5 36 9.7a27.6 27.6 0 0 1 11.6 22.4c0 9.6-4.4 17.7-13.2 24zm189.7-29a62.3 62.3 0 0 1-16.2 21.3 52.5 52.5 0 0 1-22.5 12.3c-7.7 1.8-17.1 2.7-28.3 2.7h-60.3v-5.9h17.1V50h-17.1v-5.9h68.4c19.8 0 35.4 5.6 46.9 16.8a56.7 56.7 0 0 1 17.3 42.4c0 8.9-1.7 17.2-5.3 25zm157.1 21.1a58.3 58.3 0 0 1-42.3 16.8c-18 0-32.6-6-43.9-17.9a62 62 0 0 1-16.9-44.5c0-18 5.9-32.8 17.9-44.3a59.4 59.4 0 0 1 42.8-17.2c15.5 0 29.3 5.4 41.5 16.2 12.2 10.8 18.3 26.1 18.3 46a60.2 60.2 0 0 1-17.4 44.9zM5.4 157.4a30.4 30.4 0 1 1 60.8 0 30.4 30.4 0 0 1-60.8 0zM7.4 78C3 81 1.8 98.3 1.8 98.3s1.2 17.3 5.7 20.3 28.3 4.8 28.3 4.8 23.8-1.8 28.3-4.8 5.7-20.3 5.7-20.3S68.5 81 64 78s-28.3-4.8-28.3-4.8S11.9 75 7.4 78zM35.7 0l35.6 35.7-35.6 35.6L.2 35.7z" class="st0"/></svg>