<svg xmlns="http://www.w3.org/2000/svg" viewBox="0 0 1205 142.2"><defs><style>.cls-1{fill:#22b14c}</style></defs><g id="Layer_2" data-name="Layer 2"><g id="Layer_2-2" data-name="Layer 2"><path d="M1139.6 34h65.4v74.3h-65.4z" class="cls-1"/><path d="M987.2 20a51.1 51.1 0 1 1-51 51.1 51.1 51.1 0 0 1 51-51.1m0 87.4A36.3 36.3 0 1 0 951 71a36.3 36.3 0 0 0 36.3 36.3M623 20.6a29.4 29.4 0 0 1 1.7 58.7l29.5 39.2h-17.7l-29.4-39.1h-5v39h-15.6V20.7H623m-20.9 47H621a17.6 17.6 0 1 0 0-35.2h-18.6v35.2m-25.6-47v65.2a32.6 32.6 0 0 1-65.2 0V20.6h14.7v64.9a18 18 0 1 0 35.9 0V20.6h14.6m544.8 0v97.9H1106l-47.6-70.6v70.6h-15.7V20.6h15.7l47.6 68.4V20.6h15.7m-189 0v97.9h-15.8V20.6h15.7m-52 0c16 0 27.6 10.6 27.6 26.8H894c0-10.6-7.8-13.9-13.5-13.9-8.4 0-13 7.6-13 13.2 0 9.2 8.8 11.7 13 13.2 12.1 4.6 29.5 8.4 29.5 31.5a28.1 28.1 0 0 1-29.5 29.2c-13.3 0-29.7-8.9-29.7-30.4h14c0 3.3 1.4 17.5 15.6 17.5 8.9 0 15.5-6.1 15.5-16.3 0-10.8-8.8-13.1-15.5-15.7-12.9-5-16-6.5-20.4-10.8s-6.5-11.3-6.5-18.1c0-11.2 8.7-26.2 27-26.2m-36.3 0v97.9h-15.6V20.6h15.7m-17.2 0l-32.5 97.9H778l-36.4-97.9h15.7l28.6 77.2 25.6-77.2h15.7m-119.3 0v15.7h-33.5v25.4h33.5v15.7h-33.5v25.4h33.5v15.7h-49.2V20.6h49.2m-202.2 0v15.7h-18.1v82.2h-15.7V36.3h-18V20.6h51.8m-60.7 0v97.9h-15.7l-47.6-70.6v70.6H366V20.6h15.7L429.1 89V20.6H445m-88.3 0v15.7H323v25.4h33.6v15.7H323v25.4h33.6v15.7h-49.3V40.7l-50.8 77.8h-20.7V20.6h15.7v78.5l51.3-78.5h53.8m-176.1 0a49 49 0 0 1 0 97.9H147V20.6h33.4m-17.7 82.2h17.7a33.3 33.3 0 0 0 0-66.5h-17.8v66.5m-25.5-82.2v97.9h-15.7V90.3H88.6l-18.4 28.2H52.5l64-97.9h20.7m-38.4 54h22.7V40L98.8 74.6M987.2 0a70.7 70.7 0 0 0-34.7 9V.7h-55.7v2.6A52 52 0 0 0 880.5.6a48.7 48.7 0 0 0-16.3 2.8V.6H797l-4.5 13.8-7.7 23-8.9-23.7-4.9-13H638.6V3A49 49 0 0 0 623 .6H409.2v24.7L398 9.3l-6-8.7H292l-6 9L271.6 32V.6h-55.7v9.9A68.2 68.2 0 0 0 180.5.6h-74.8l-6 9-64 97.9-20.2 31H81l6-9 12.4-19.2h2.1v28.2h79a68.2 68.2 0 0 0 35.4-9.8v9.8h51.4l6-9 14-21.6v30.6h114.3v-25.2l11 16.4 6 8.8h88.9v-14.9a52.6 52.6 0 0 0 59 9.8v5h55.8v-5.8l4.3 5.8h101.2v-97l31.4 84 4.8 13h100.3v-.5a51.5 51.5 0 0 0 16.2 2.6 53.3 53.3 0 0 0 16.3-2.5v.5h55.7V133a71 71 0 0 0 70.1-.4v5.8h55.7v-25.2l11 16.4 6 8.8h46.2V.6H1086v24.7l-11.2-16-6-8.7h-46v8.8A70.7 70.7 0 0 0 987.1 0zm0 87.4a16.3 16.3 0 1 1 16.3-16.3 16.3 16.3 0 0 1-16.3 16.3zm-804.5-4.8V56.5a13.3 13.3 0 0 1 0 26.1z" class="cls-1"/><path d="M87.1 34H0v74.3h41.2L87.1 34zM965.1 53.2h43v36.1h-43zM174.1 47.7h23.8v41.6h-23.8z" class="cls-1"/></g></g></svg>