<svg xmlns="http://www.w3.org/2000/svg" viewBox="0 0 417 134.8"><defs><style>.cls-1{fill:#22b14c}</style></defs><g id="Layer_2" data-name="Layer 2"><g id="Layer_1-2" data-name="Layer 1"><path d="M163.3 126.1a4 4 0 0 0-1.8-.5c-2.4-.4-3.8-1.3-4.3-2.8a18 18 0 0 1-.7-5.6L154.1 70a15.8 15.8 0 0 0-.5-4.2c-.3-1.2-1.4-1.8-3.3-1.8a4.8 4.8 0 0 0-3.8 1.5 32 32 0 0 0-2.4 3.4L114 111.4l-5 7.2a34 34 0 0 1-3.4 4.3 7.6 7.6 0 0 1-4.5 2.4 11.7 11.7 0 0 0-3 .6 2.3 2.3 0 0 0-1.5 2.3 1.4 1.4 0 0 0 .8 1.5 3.8 3.8 0 0 0 1.7.3c1.8 0 3.5-.1 5.3-.3a53.8 53.8 0 0 1 10.2 0l4.8.2a4.1 4.1 0 0 0 2-.5 1.9 1.9 0 0 0 1-1.7 2.2 2.2 0 0 0-2.1-2l-4-.7a2.8 2.8 0 0 1-2.2-2.9q.4-2.5 3.4-7.2t4.3-6.6h18.9l.3 6 .2 6c-.2 2.8-.9 4.4-2.2 4.9a13.9 13.9 0 0 1-4 .8c-1.4 0-2.1.8-2.2 2.3a1.5 1.5 0 0 0 .6 1.4 2.6 2.6 0 0 0 1.5.3c2.6 0 5.2 0 7.8-.2a114 114 0 0 1 18.3 0 4.4 4.4 0 0 0 2-.3 2.1 2.1 0 0 0 .3-3.3zm-38.5-22.5l15-22 .7 22zM163.9 127.7zM299 69.8a2.4 2.4 0 0 0 1.7-2.1 1.6 1.6 0 0 0-.6-1.3 2 2 0 0 0-1.3-.4l-2.5.1-2.5.3a73.3 73.3 0 0 1-12.8.4l-4.7-.2-4.6-.2a3.4 3.4 0 0 0-2 .6 2.2 2.2 0 0 0-1 1.9q.4 2.1 3.2 2c2-.1 3 .7 3.3 2.4a7.6 7.6 0 0 1-.2 1.5l-.4 1.4-12 41.3a37.5 37.5 0 0 1-1.4 5c-.6 1.4-1.9 2.4-4 2.8l-3.1.7a2.4 2.4 0 0 0-2.1 2.2 1.6 1.6 0 0 0 .8 1.4 3 3 0 0 0 1.6.4q3 0 6.1-.4t6.2-.4l6.8.2c2.2.1 4.4.3 6.7.3a16.6 16.6 0 0 0 3.1-.1 2 2 0 0 0 2-2 1.8 1.8 0 0 0-1.8-2 19.2 19.2 0 0 1-3.4-.5c-1.2-.3-1.8-1.4-1.9-3.2a10.3 10.3 0 0 1 .3-2.3l.7-2.3L291 75.9a10.6 10.6 0 0 1 1.6-3.7 5.8 5.8 0 0 1 3.5-1.7 12.7 12.7 0 0 0 2.9-.7zM352 111.5q1.6-5.1 4-6a11.1 11.1 0 0 1 4.1-.8c1.2 0 1.9-.7 2-2.3a1.6 1.6 0 0 0-.8-1.4 3.1 3.1 0 0 0-1.6-.4q-3.6 0-7.1.3t-7.2.4q-3.4 0-6.8-.3c-2.3-.2-4.5-.3-6.8-.3a5.1 5.1 0 0 0-2.2.4 1.9 1.9 0 0 0-1.1 1.8 1.8 1.8 0 0 0 1.9 1.8 19.8 19.8 0 0 1 3.5.6c1.1.4 1.8 1.4 1.9 3.2a31.6 31.6 0 0 1-1.7 7.2l-2.4 7.5a6.6 6.6 0 0 1-1.5 3 4.5 4.5 0 0 1-3.2 1q-8.3-.2-12.6-5.4t-4.2-13.3a36.6 36.6 0 0 1 3-14.3 39.9 39.9 0 0 1 8.2-12.3 45.8 45.8 0 0 1 12.6-8.8 35.7 35.7 0 0 1 14.8-3.8q3.5 0 4.3 1.3a8.9 8.9 0 0 1 .6 4.6V77l-.2 1.7a5.8 5.8 0 0 0 .5 2.6 2.1 2.1 0 0 0 2 1.2 3 3 0 0 0 2.6-1.7 14.8 14.8 0 0 0 1.2-3l1.6-4.9a44.6 44.6 0 0 0 1.4-4.6c-.2-1-1.2-1.8-3.1-2.2a35 35 0 0 0-6.1-.8 82 82 0 0 0-4.3 0 72 72 0 0 0-24.8 4.7 59.7 59.7 0 0 0-22 14 32.2 32.2 0 0 0-9.6 22.5q.1 8.5 4.8 14a28.6 28.6 0 0 0 12 8.2 41.6 41.6 0 0 0 14.7 2.7 81.5 81.5 0 0 0 18.4-2.1 14.5 14.5 0 0 0 3-1 3.7 3.7 0 0 0 1.9-2.2q1.2-3.5 2.2-7.1l2-7.4zM416.3 126.1a3.8 3.8 0 0 0-1.7-.5q-3.6-.6-4.3-2.8a18.2 18.2 0 0 1-.7-5.6L407 70a15.4 15.4 0 0 0-.4-4.2c-.4-1.2-1.5-1.8-3.3-1.8a4.8 4.8 0 0 0-3.8 1.5 30.7 30.7 0 0 0-2.4 3.4L367 111.4l-5.1 7.2a34 34 0 0 1-3.3 4.3 7.6 7.6 0 0 1-4.5 2.4 11.9 11.9 0 0 0-3 .6 2.3 2.3 0 0 0-1.5 2.4 1.4 1.4 0 0 0 .8 1.4 3.7 3.7 0 0 0 1.6.3c1.8 0 3.6-.2 5.3-.3l5.4-.3c1.6 0 3.2 0 4.8.2s3.2.2 4.9.3a4.2 4.2 0 0 0 2-.5 1.9 1.9 0 0 0 1-1.7 2.2 2.2 0 0 0-2.2-2 46 46 0 0 1-4-.8 2.8 2.8 0 0 1-2.1-2.8q.4-2.6 3.3-7.3t4.3-6.5h19l.3 6q.2 3 .1 6-.1 4.1-2.2 4.8a13.9 13.9 0 0 1-4 .8c-1.4 0-2 .9-2.2 2.4a1.5 1.5 0 0 0 .6 1.3 2.6 2.6 0 0 0 1.5.4l7.8-.3a114.1 114.1 0 0 1 18.4.1 4.4 4.4 0 0 0 2-.4 1.8 1.8 0 0 0 .9-1.7 1.7 1.7 0 0 0-.6-1.6zm-38.5-22.5l15-22 .8 22zM241.9 115.2l9.6-38.6a13.4 13.4 0 0 1 1.3-4c.6-1 1.7-1.6 3.5-1.8a9.2 9.2 0 0 0 2.8-.6 2.2 2.2 0 0 0 1.5-2.2 1.5 1.5 0 0 0-.6-1.3 2.4 2.4 0 0 0-1.4-.4l-6 .2a171.6 171.6 0 0 1-10.7 0c-2.1-.1-3.6.1-4.3.7a5.2 5.2 0 0 0-.4.6 3.9 3.9 0 0 1-.3.7l-26 39.3-1-38.6a7.7 7.7 0 0 0-.1-2c-.1-.5-.6-.7-1.4-.8l-6.6.1h-6.6a148.3 148.3 0 0 1-7.3-.3 6.4 6.4 0 0 0-2.3.3 1.8 1.8 0 0 0-1.1 1.7c.3 1.5 1.4 2.3 3.5 2.3s3.3.7 3.6 2.2a10.6 10.6 0 0 1-.6 3.2l-1.2 3.1-6.8 19.2q-3.4 9.6-7.1 19a19.3 19.3 0 0 1-2.8 5.8q-1.3 1.6-5.6 2.3a5.6 5.6 0 0 0-2 .7 2 2 0 0 0-1 1.9 1.5 1.5 0 0 0 .8 1.5 4.2 4.2 0 0 0 1.9.3l5-.2 5-.1c1.7-.1 3 0 4.6.2s3 .2 4.5.2a3.9 3.9 0 0 0 2-.5 2 2 0 0 0 1-1.7 2.1 2.1 0 0 0-2.2-2.1 24.3 24.3 0 0 1-4-.7c-1.4-.4-2.2-1.6-2.3-3.6q.2-4.5 3.2-13.3t6.2-17l4.4-11.2 1 45a8.7 8.7 0 0 0 .5 3.3c.3.8 1.2 1.2 2.7 1.2a4.9 4.9 0 0 0 3.7-1.6 23.8 23.8 0 0 0 2.5-3.4l30.2-44.5-10 37.6a30.9 30.9 0 0 1-1.3 4.9 4.6 4.6 0 0 1-3.6 3 26 26 0 0 0-3.4.5 2.4 2.4 0 0 0-2 2.3 1.6 1.6 0 0 0 .7 1.5 3 3 0 0 0 1.6.4q3.3 0 6.6-.4t6.5-.3q3.4 0 6.8.3t6.8.4a5 5 0 0 0 2.3-.4 2 2 0 0 0-.7-3.8 26.1 26.1 0 0 1-3.2-.8c-1-.3-1.6-1.2-1.7-2.8a18.3 18.3 0 0 1 .4-3.5l.9-3.4zM155.6 0l-84 120.2-1.6-2.4L152.4 0h-20.5L59.8 103.2 44.2 80.9H23.7l25.8 36.9-1.6 2.4-27.4-39.3H0l37.7 53.9h20.5l1.6-2.3 1.6 2.3h20.5L176.1 0h-20.5z" class="cls-1"/></g></g></svg>