<svg xmlns="http://www.w3.org/2000/svg" viewBox="0 0 788.4 92.7"><defs><style>.cls-1{fill:#22b14c}</style></defs><g id="Layer_2" data-name="Layer 2"><g id="Layer_1-2" data-name="Layer 1"><path d="M76 62.3H42l-6.7 6.8-7.6 7.4a21 21 0 0 0-3 4.4 6 6 0 0 0-.8 3c0 1.1.8 2 2.3 3s3.8 1.4 7 1.5v2.3H0l.7-2.3a21.3 21.3 0 0 0 7.8-2.5q4.3-2.6 12.5-10.8L96 .8h3.7v72l.1 6.7c.2 3 1 5.2 2.5 6.5s4 2.2 7.6 2.4l-.7 2.3h-48l.8-2.3a55 55 0 0 0 8.1-.9 8.7 8.7 0 0 0 4-3.8q1.7-3 1.8-10.1V62.3zm-.2-5.3l.8-28.7L47.2 57h28.6m104-54.2L191 63.3l49.7-60.5h39l-.8 2.3c-5.3 0-9.4.9-12 2.7s-5 5.4-6.6 10.8L242.6 75a25.1 25.1 0 0 0-1.5 8 4.7 4.7 0 0 0 2.6 3.9c1.7 1 5 1.5 9.7 1.6l-.6 2.2h-55.3l.8-2.2c6 0 10.3-1 13-2.8s5-5.4 6.7-10.8l17.9-57-59.8 72.8h-3.4L159 16.4 140.7 75a18 18 0 0 0-1 6 6.6 6.6 0 0 0 3.1 5.3c2 1.3 5.2 2 9.7 2.2l-.7 2.3h-36.7l.7-2.3q6.6-.2 10-2.2a19.5 19.5 0 0 0 8.4-11.3L155 9.9a20.6 20.6 0 0 0-6.4-4 39 39 0 0 0-9.2-.8l.8-2.3h39.7M289.6 5l.8-2.3h54.2l-1 2.3q-7.3 0-11 2.6t-6.4 11l-17.6 56.3q-2 6-1.8 8a4.3 4.3 0 0 0 2.5 3.7q3 1.7 11.2 1.8l-.7 2.3h-55l.8-2.3q8.3 0 12-2.5c2.5-1.7 4.6-5.4 6.4-11l17.6-56.3a25.7 25.7 0 0 0 1.5-8 4.5 4.5 0 0 0-2.5-3.7q-2.4-1.4-11-1.8M507 62.3h-34l-6.7 6.8-7.5 7.4a21 21 0 0 0-3.2 4.4 6 6 0 0 0-.6 3c0 1.1.8 2 2.2 3s3.8 1.4 7 1.5l.1 2.3H431l.7-2.3a21.2 21.2 0 0 0 7.7-2.5q4.5-2.6 12.7-10.8l75-74.3h3.7v72l.1 6.7q.3 4.5 2.6 6.5t7.5 2.4l-.7 2.3h-48l.8-2.3a55 55 0 0 0 8.1-.9 8.7 8.7 0 0 0 4-3.8q1.8-3 1.9-10.1V62.3zm-.2-5.3l.8-28.7L478.2 57h28.6" class="cls-1"/><path d="M446.3 1.6c.8.7 1 3.1 1 3.1L442 28.9h-2.9c-.8-8.1-1-14-5.5-17.6s-6.7-5.6-14.4-5.6a55.1 55.1 0 0 0-25.6 6.8 52.4 52.4 0 0 0-29.9 49.1q.6 13 8.7 19.8a27.7 27.7 0 0 0 18.4 6.8 36.8 36.8 0 0 0 10.6-1.9l7.2-23.2q1.9-5.9 1.8-7.7a5.1 5.1 0 0 0-2.8-4 18 18 0 0 0-9-1.6l.7-2.5H447l-.6 2.5a17.8 17.8 0 0 0-6.6 1.3 8 8 0 0 0-3.8 3.2 34.8 34.8 0 0 0-2.2 6.6L425.7 87a117.3 117.3 0 0 1-36.8 5.7q-15 0-25.7-4.2A43.2 43.2 0 0 1 345 75.1a35 35 0 0 1-8-20.8q-1.2-24.9 26-41C377.2 5 393.2 1.3 411.5.4c1.8 0 6.2-.4 12.5-.4 5.3 0 11.5.2 20.4.8a2.4 2.4 0 0 1 1.8.8m147.4 22.2v43.9a21.7 21.7 0 0 0 21.4 22h47a21.7 21.7 0 0 0 21.4-22V56.5h-21.2v4.2a9 9 0 0 1-8.6 9.4h-29.9a9 9 0 0 1-9.2-8.8V32.7a9 9 0 0 1 8.6-9.4h28a9 9 0 0 1 9.2 8.8V35h21.3V23.8a21.7 21.7 0 0 0-21.4-22H615a21.7 21.7 0 0 0-21.5 21.9v.1m124 46.4V21.3h37.7A12 12 0 0 1 767 33.5V58a12 12 0 0 1-11.7 12.3h-37.9zm-21 19.5H765a24 24 0 0 0 23.4-23.9v-40A24 24 0 0 0 765 1.9h-68.5v87.8" class="cls-1"/></g></g></svg>