<svg xmlns="http://www.w3.org/2000/svg" viewBox="0 0 940.5 106.4"><defs><style>.cls-1{fill:#22b14c}</style></defs><g id="Layer_2" data-name="Layer 2"><g id="Layer_1-2" data-name="Layer 1"><path d="M76 76H42l-6.7 6.8-7.6 7.4a20.8 20.8 0 0 0-3 4.4 6 6 0 0 0-.8 3c0 1.1.8 2 2.3 3s3.8 1.4 7 1.5v2.3H0l.7-2.3a21.4 21.4 0 0 0 7.8-2.5Q12.8 97 21 88.8l75-74.3h3.7v72l.1 6.7c.2 3 1 5.2 2.5 6.5s4 2.2 7.6 2.4l-.7 2.3h-48l.8-2.3a54.7 54.7 0 0 0 8.1-.9 8.7 8.7 0 0 0 4-3.8q1.7-3 1.8-10.1V76zm-.2-5.3l.8-28.7-29.4 28.7h28.6M179.8 16.5L191 77l49.7-60.5h39l-.8 2.3c-5.3 0-9.4.9-12 2.7s-5 5.4-6.6 10.8l-17.7 56.4a25.2 25.2 0 0 0-1.5 8 4.7 4.7 0 0 0 2.6 3.9c1.7 1 5 1.5 9.7 1.6l-.6 2.2h-55.3l.8-2.2c6 0 10.3-1 13-2.8s5-5.4 6.7-10.8l17.9-57-59.8 72.8h-3.4L159 30.1l-18.3 58.6a18 18 0 0 0-1 6 6.6 6.6 0 0 0 3.1 5.3q3 2 9.7 2.2l-.7 2.3h-36.7l.7-2.3q6.6-.2 10-2.2a19.5 19.5 0 0 0 8.4-11.3L155 23.6a20.6 20.6 0 0 0-6.4-4c-1.8-.5-5-.8-9.2-.8l.8-2.3h39.7M289.6 18.7l.8-2.3h54.2l-1 2.3q-7.3 0-11 2.6t-6.4 11l-17.6 56.3q-1.9 6-1.8 8a4.3 4.3 0 0 0 2.5 3.7q3 1.7 11.2 1.8l-.7 2.3h-55l.8-2.3q8.3 0 12-2.5c2.5-1.7 4.6-5.4 6.4-11l17.6-56.3a25.7 25.7 0 0 0 1.5-8 4.5 4.5 0 0 0-2.5-3.7q-2.4-1.4-11-1.8M507 76H473l-6.7 6.8-7.5 7.4a21.2 21.2 0 0 0-3.2 4.4 6 6 0 0 0-.6 3c0 1.1.8 2 2.2 3s3.8 1.4 7 1.5l.1 2.3H431l.7-2.3a21.3 21.3 0 0 0 7.7-2.5q4.5-2.6 12.7-10.8l75-74.3h3.7v72l.1 6.7q.3 4.5 2.6 6.5c1.5 1.4 4 2.2 7.5 2.4l-.7 2.3h-48l.8-2.3a55.3 55.3 0 0 0 8.1-.9 8.7 8.7 0 0 0 4-3.8q1.8-3 1.9-10.1V76zm-.2-5.3l.8-28.7-29.4 28.7h28.6" class="cls-1"/><path d="M446.3 15.3c.8.7 1 3.1 1 3.1L442 42.6h-2.9c-.8-8.1-1-14-5.5-17.6s-6.7-5.6-14.4-5.6a55.1 55.1 0 0 0-25.6 6.8c-7.6 4.4-17.2 11.2-22.3 20.3s-8.2 18.7-7.6 28.8q.6 13 8.7 19.8a27.7 27.7 0 0 0 18.4 6.8 36.9 36.9 0 0 0 10.6-1.9l7.2-23.2q1.9-5.9 1.8-7.7a5.1 5.1 0 0 0-2.8-4 18 18 0 0 0-9-1.6l.7-2.5H447l-.6 2.5a17.9 17.9 0 0 0-6.6 1.3A8.1 8.1 0 0 0 436 68a34.6 34.6 0 0 0-2.2 6.6l-8.1 26.1a117.2 117.2 0 0 1-36.8 5.7q-15 0-25.7-4.2A43.2 43.2 0 0 1 345 88.8a35.1 35.1 0 0 1-8-20.8q-1.2-24.9 26-41c14.2-8.3 30.2-12 48.5-12.9 1.8 0 6.2-.4 12.5-.4 5.3 0 11.5.2 20.4.8a2.4 2.4 0 0 1 1.8.8M593.6 37.5v43.9a21.7 21.7 0 0 0 21.4 22h47a21.7 21.7 0 0 0 21.4-22V70.2h-21.2v4.2a9 9 0 0 1-9.2 9.4h-29.3a9 9 0 0 1-9.2-9.4v-28a9 9 0 0 1 9.2-9.4h27.4a9 9 0 0 1 9.2 9.4v2.3h21.3V37.5a21.7 21.7 0 0 0-21.5-22H615a21.7 21.7 0 0 0-21.5 22M717.5 83.9V35h37.7A12 12 0 0 1 767 47.3v24.4A12 12 0 0 1 755 84h-37.6zm-21 19.5H765c12.7 0 23.4-11 23.4-23.9v-40c0-13-10.7-23.9-23.4-23.9h-68.5v87.8M891 25.9c-8.5 0-17.2 4.5-17.2 13.1v19.5h66.8V46.2h-48.1c-6.2-1.6.6-6.7 3.7-7h28.9a15.5 15.5 0 0 0 15.4-15.6v-8A15.5 15.5 0 0 0 925.1 0h-34c-8.6 0-17.4 5-17.4 13.7v8h16.8V20a6.5 6.5 0 0 1 6.6-6.7h21.6a6.5 6.5 0 0 1 6.7 6.3 6.5 6.5 0 0 1-6.6 6.3H891M853 29.3c6.5-.5 11.3-2.5 11.3-9.6v-8c0-8.6-7-11.7-15.5-11.7h-30.2c-8.5 0-17.3 5-17.3 13.6v8H818V20a6.5 6.5 0 0 1 6.6-6.7h17.8c3.7 0 6.4.7 6.6 4.3a6.4 6.4 0 0 1-6.6 6.3H828v10.9h16.4A6.5 6.5 0 0 1 851 41c-.2 3.6-2.9 4.3-6.6 4.3h-19.7a6.5 6.5 0 0 1-6.6-6.7V37h-16.8v8c0 8.6 8.8 13.6 17.3 13.6h32.1c9.8-.2 15.5-5 15.5-13.6V39c0-7.8-5.7-9.5-13.1-9.7" class="cls-1"/></g></g></svg>