<svg xmlns="http://www.w3.org/2000/svg" viewBox="0 0 417.8 103.8"><defs><style>.cls-1{fill:#22b14c}</style></defs><g id="Layer_2" data-name="Layer 2"><g id="Layer_2-2" data-name="Layer 2"><path d="M46.3 53H20L1 103.8h26.3l19-50.8zM83.8 53H57.5l-19 50.8h26.3l19-50.8zM121.3 53H95l-19 50.8h26.3l19-50.8zM28 41.5h14.8l-12-32.9c-2.5-6.6-9.4-6.5-9.4-6.5s-7 0-9.4 6.5l-12 33h14.8l1.4-6.2h10.3zm-9.8-14.2l3.2-12.7 3.1 12.7zM136.3 41.5H151L139 8.6c-2.4-6.6-9.4-6.5-9.4-6.5s-7 0-9.3 6.5l-12 33H123l1.5-6.2h10.3zm-9.8-14.2l3.1-12.7 3.2 12.7zM233.8 41.5h14.8l-12-32.9c-2.4-6.6-9.4-6.5-9.4-6.5s-7 0-9.4 6.5l-12 33h14.8l1.5-6.2h10.2zM224 27.3l3.2-12.7 3.1 12.7zM104.2 30.1c-6.4 0-10.5-3.6-10.5-8.4s4.1-8.3 10.5-8.3a14.8 14.8 0 0 1 2.7.2V2.2a25.2 25.2 0 0 0-5.2-.6c-12.3 0-22.4 9-22.4 20s10 20 22.5 20a25.2 25.2 0 0 0 5.1-.5V29.9a14.8 14.8 0 0 1-2.7.3zM56.6 41.5V15.3c0-2.5 2-3.2 3.5-3.2s4.2.6 4.2 4c0 4.2-6.2 3.4-6.2 9.9a9.4 9.4 0 0 0 1 4.2l5.5 11.3h15l-9.2-14.3c-.4-.6.2-1.7 1.4-2.6s6.5-3.7 6.5-10a12.2 12.2 0 0 0-12.4-12H49.4c-3.2 0-5.8 2.8-5.8 7v32zM169.8 2.6h-13c-2.6 0-5.6 2.2-5.6 7.2v24.7c0 1.8 1.8 7 9.2 7h8.5c6 0 19.7-5 19.7-20.7 0-15-13.5-18.2-18.8-18.2zm-3.3 26.8c-1.3 0-2-.4-2-1.3v-15c0-.8.8-1.2 2-1.2s8.9 1.7 8.9 8.7-7.7 8.8-8.9 8.8zM190.8 2.6h13.9v38.9h-13.9zM253.8 18h18.3v10.4h-18.3zM411.6 0h-13.2v11h3.4c1.3 0 2 1.4 2 2.6v28h14V6.2c0-2.6-3.3-6.3-6.2-6.3zM378.8.3c-14.5 0-19 9.3-19 20.6s5 20.6 19 20.6c12.6 0 19-9.2 19-20.6S391.6.3 378.8.3zm-.2 30.8c-3.2 0-5.8-4.6-5.8-10.2s2.6-10.2 5.8-10.2 5.8 4.6 5.8 10.2-2.6 10.2-5.8 10.2zM338.5.3c-14.5 0-19 9.3-19 20.6s5 20.6 19 20.6c12.6 0 19-9.2 19-20.6S351.2.3 338.5.3zm-.2 30.8c-3.2 0-5.8-4.6-5.8-10.2s2.6-10.2 5.8-10.2 5.8 4.6 5.8 10.2-2.6 10.2-5.8 10.2zM282 16.9h14.2v-2.3a3.6 3.6 0 0 1 3.6-3.1c2.6 0 3 2 3 3.3s-.6 2-1.8 3c-1.8 1.5-15.6 11.3-17.3 12.5-3 2.3-3.3 11.2 2.6 11.2H317V30.1h-13.4c-1.4 0-.7-.8.3-1.3s13.5-5 13.5-14.3S309.8.3 301 .3c-9.6 0-19 5.5-19 16.6z" class="cls-1"/></g></g></svg>