<svg xmlns="http://www.w3.org/2000/svg" id="Layer_1" viewBox="0 0 279 123.6"><style>.st0{fill:#22b14c}</style><path d="M190.7 85.8c0 12-4.8 21.2-14.3 27.7-8.4 5.7-19 8.5-31.9 8.5-6.1 0-12-.5-17.9-1.6-5.9-1.1-12.2-2.8-19.2-5.1V87.6c7.1 2 8.8 3.7 12.6 4.9a80.5 80.5 0 0 0 20.1 3.6c6.4 0 10.9-1.1 13.6-3.2 2.7-2.1 4.1-.7 4.1-3.8 0-4-4.8-7.5-14.5-10.7a73.3 73.3 0 0 1-22.3-9.5c-10.3-6.3-15.5-19.9-15.5-32.7 0-10.2 4.4-18.8 13.2-25.8A52.4 52.4 0 0 1 152 0c6.5 0 12.3.4 17.3 1.1A66 66 0 0 1 185.8 6v27.8c-6.5-2.9-8.3-5.1-13.1-6.6a46.9 46.9 0 0 0-14.2-2.3c-4.5 0-8.5 1-12.1 3.1-3.6 2.1-5.4 4.9-5.4 8.4 0 5.1 4.1 8.8 12.4 11.2a77.3 77.3 0 0 1 22.3 8.8c10 6.2 15 15.9 15 29.4zM279 32.3h-24.6v91.3h-37.1V32.3h-24.7V4H279zM46.5 0h10.1v85.3H46.5zM3 85.5h1.7c21.3-.6 38.5-22.1 38.5-48.6V.1h-6.7v25.1c0 24.4-14.6 44.5-33.5 48v12.3zM100.3 85.5h-1.7C77.2 84.9 60 63.4 60 36.9V.1h6.7v25.1c0 24.4 14.6 44.5 33.5 48v12.3z" class="st0"/><g><path d="M16.6 109.9l-2.8-13.8-3.1 13.8h5.9zm10.8 12h-7.1l-1.8-6.1H8.9l-1.8 6.1H0l8.9-28.3c.3-1.1.9-2 1.7-2.7.9-.8 1.9-1.2 3-1.2 1.3 0 2.4.4 3.4 1.3.9.8 1.5 1.8 1.9 3l8.5 27.9zM43.6 96.2h-6.2v25.7h-6.9V96.2h-6.3v-6.1h19.4zM57.3 109.9l-2.8-13.8-3.1 13.8h5.9zm10.7 12h-7.1l-1.8-6.1h-9.6l-1.8 6.1h-7.1l8.9-28.3c.3-1.1.9-2 1.7-2.7.9-.8 1.9-1.2 3-1.2 1.3 0 2.4.4 3.4 1.3.9.8 1.5 1.8 1.9 3l8.5 27.9zM92 121.9h-8l-6.8-12.5-.8-1.6-.3-1.1c0-1.4 1.1-2.6 3.4-3.5 2.3-.9 3.4-2 3.4-3.4 0-.8-.3-1.6-1-2.4-.6-.8-1.3-1.2-2.1-1.2h-4V122h-6.7V94.4c0-1 .5-1.9 1.4-2.8.9-.9 1.8-1.4 2.7-1.4H80c2.6 0 4.9.9 6.9 2.7 2 1.8 2.9 4 2.9 6.4 0 1.9-.6 3.6-1.8 5-1 1.3-2.5 2.3-4.5 3.2l8.5 14.4zM93.3 90.2h7v31.9h-7z" class="st0"/></g></svg>