<svg xmlns="http://www.w3.org/2000/svg" id="Layer_1" viewBox="0 0 299.3 88.3"><style>.st0{fill:#22b14c}</style><path d="M250.1 2.3h13.7v86.1h-13.7V2.3zM33.8.1a10 10 0 0 0-9.4 6.5v.1L0 88.3h14.6l5.6-22.2h27.2l5.9 22.2h15l-25-81.7h-.1A9.7 9.7 0 0 0 33.8.1zm-.1 18.7l9.4 35.8H24.5l9.2-35.8zM60.5 1.9v11.6h21.3v74.9h13.7V13.5h21.3V1.9H60.5zm161.1 55.2a5 5 0 0 1-.1-4.6c.5-.7 1.2-1.2 2-1.6a28 28 0 0 0 12.2-24c0-14.1-8.9-25.8-20-26.6-1.3-.3-4.4-.3-4.4-.3h-15.6c-5.4 0-9.8 5.9-9.8 13.1v75.3h13.3V18.5c0-2.2 1.3-4 3-4h9l3.7.1c4 .4 7.2 4.2 8.1 9.2l.1.6.1.9.1 1.4c0 4.6-1.9 8.6-4.7 10.7l-1.8 1.2-1.5.8c-3.6 1.7-5.1 2.7-6.6 4.6a16 16 0 0 0-2.8 9c-.1 3 .7 6 2.3 8.6l16.9 26.6H241l-19.4-31.1M144.5.1a10 10 0 0 0-9.4 6.5v.1l-24.4 81.7h14.6l5.7-22.2h27.2l5.9 22.2h15L154 6.6a10 10 0 0 0-9.5-6.5zm-.1 18.7l9.4 35.8h-18.6l9.2-35.8zm147.1 51.4c-.4 0-1.6-.2-4.7-1.6l-7.3-3.4-3-1.6V60l8.8 4.2v-1.5c-.1-1.9.6-3.8 1.9-5.3a6 6 0 0 1 4.7-2c2-.1 3.9.8 5.2 2.3a7.6 7.6 0 0 1 2.1 5.5c0 1.9-.8 3.7-2.3 4.9a6.9 6.9 0 0 1-5.4 2.1m.6-11.5a4.2 4.2 0 0 0-4.3 4.2c0 1.1.5 2.2 1.4 2.9A4 4 0 0 0 292 67c1.1.1 2.2-.4 3-1.2s1.1-1.9 1.1-3-.4-2.2-1.2-3a4.3 4.3 0 0 0-2.8-1.1m-4.1-7c-3.1.1-6.1-1.2-8.3-3.4a11.2 11.2 0 0 1-.3-15.7l.3-.3c2-2.2 4.9-3.4 7.9-3.4 2.9 0 5.8 1.1 7.9 3.1a10 10 0 0 1 3.5 7.9c.1 3.1-1 6-3 8.3a9.5 9.5 0 0 1-8 3.5m-.4-19.7c-2.1 0-4.2.9-5.6 2.5a7.7 7.7 0 0 0-2.5 5.6c0 2.3.9 4.5 2.6 6.1a8.7 8.7 0 0 0 5.9 2.4 8 8 0 0 0 8-8.4c0-2.1-.8-4.2-2.4-5.7a7.9 7.9 0 0 0-6-2.5m.4-7.1c-3.1.1-6.1-1.2-8.3-3.4a11.1 11.1 0 0 1 0-16c2-2.2 4.9-3.5 7.9-3.4 2.9 0 5.8 1.1 7.9 3.1 2.3 2 3.6 4.9 3.4 7.9.1 3.1-1 6-3 8.4a10 10 0 0 1-7.9 3.4m-.4-19.7a8 8 0 0 0-5.6 2.4 8 8 0 0 0 .1 11.7 8.7 8.7 0 0 0 5.9 2.4 8 8 0 0 0 8-8.4c0-2.1-.8-4.2-2.4-5.7a7.8 7.8 0 0 0-6-2.4M297 88.3c-.5 0-1.6-.3-3.7-2.2l-5.3-5c-2-1.9-3.5-2.8-4.9-2.8-.8 0-1.6.4-2.2 1-.7.6-1 1.5-1 2.4s.3 1.9 1 2.5c.4.5 1 .8 1.6.9v3.1a6.6 6.6 0 0 1-3.7-1.9 6 6 0 0 1-1.9-4.7 6 6 0 0 1 2-4.6 6.1 6.1 0 0 1 4.6-1.8c2.1.1 4.1 1.1 5.5 2.7l5.8 5.6 1.6 1.6.1-9.9h2.8V87c0 .2-.2.5-.6.7a3 3 0 0 1-1.7.6" class="st0"/></svg>