<svg xmlns="http://www.w3.org/2000/svg" viewBox="0 0 317 172.4"><defs><style>.cls-1{fill:#22b14c}</style></defs><g id="Layer_2" data-name="Layer 2"><g id="Layer_1-2" data-name="Layer 1"><path d="M134 119.2c11.1-4.5 18.6-12.5 18.6-21.7 0-14-17.5-25.4-39.1-25.4-14.4 0-27 5-33.8 12.6l4.7-11H0v30.6h41.1l-34 67.9H43l31.3-74.7c0 9.1 7.5 17.1 18.6 21.6-12 5-20 14-20 24.5 0 15.7 18.2 28.5 40.6 28.5s40.5-12.7 40.5-28.4c0-10.5-8-19.6-20-24.5zm-20.6-28a9 9 0 1 1-8.9 8.8 9 9 0 0 1 9-8.9zm0 57.7a10.1 10.1 0 1 1 10.1-10.1 10.1 10.1 0 0 1-10 10z" class="cls-1"/><path d="M275 72.1c-20.1 0-37 17-41 39.8-4-22.8-20.8-39.9-41-39.9-23.2 0-42 22.4-42 50.1s18.8 50.2 42 50.2c20.2 0 37-17.1 41-39.9 4 22.8 20.8 40 41 40 23.3 0 42-22.5 42-50.2s-18.8-50-42-50zm-82 70.3c-6.6 0-12-9-12-20.3s5.4-20.2 12-20.2 11.8 9 11.8 20.2-5.3 20.3-11.9 20.3zm82 0c-6.5 0-11.8-9-11.8-20.2S268.5 102 275 102s11.9 9 11.9 20.2-5.3 20.3-12 20.3zM244.5 1.7h10v62.7h-10V1.7zM93.9 4.8A7 7 0 0 0 87 .1a7.3 7.3 0 0 0-6.8 4.7L62.4 64.4H73l4-16.2H97l4.3 16.2h11zm-13.7 35L87 13.7l6.8 26zM106.4 1.4v8.4h15.5v54.6h10V9.8h15.5V1.4h-41zM223.8 41.6a3.7 3.7 0 0 1-.5-1.8 4 4 0 0 1 .4-1.6 3.8 3.8 0 0 1 1.4-1.1c5.2-3.2 9-9.9 9-17.5C234 9.3 227.4.8 219.4.2a21.2 21.2 0 0 0-3.3-.2H205c-4 0-7.2 4.3-7.2 9.5v54.9h9.7v-51c0-1.5 1-2.8 2.2-2.8h9.3c2.9.3 5.2 3 5.9 6.7a.9.9 0 0 1 0 .5l.1.6v1a9.7 9.7 0 0 1-3.3 7.8l-1.3.9-1.1.6c-2.7 1.2-3.7 2-4.8 3.3a11.6 11.6 0 0 0-2 6.6 11.3 11.3 0 0 0 1.6 6.3l12.3 19.3h11.6l-14.2-22.6M174.5 4.8a7.2 7.2 0 0 0-6.9-4.7 7.3 7.3 0 0 0-6.8 4.7L143 64.5h10.6l4.2-16.2h19.8l4.3 16.2h10.9zm-13.7 35l6.7-26.1 6.9 26z" class="cls-1"/></g></g></svg>