<svg xmlns="http://www.w3.org/2000/svg" viewBox="0 0 863.2 347.8"><defs><style>.cls-1{fill:#22b14c}</style></defs><g id="Layer_2" data-name="Layer 2"><g id="Layer_5" data-name="Layer 5"><path d="M741.4.1a122 122 0 0 0-120.5 103.8V32.6a32.5 32.5 0 0 0-65 0v121.7a79 79 0 0 0-68-71.2C478.3 82 473 79.7 473 72.9c0-4.9 4-9.9 8.9-9.9 14.8 0 15.8 3.8 30 3.8a23 23 0 0 0 22.2-14 33 33 0 0 0-13.4-44A90 90 0 0 0 482 0 74 74 0 0 0 408 74c0 39.7 26.6 58.3 49.8 64.6 17.8 4.8 33.5 3.8 33.5 23.8a15.4 15.4 0 0 1-30 5.1 32.5 32.5 0 0 0-63 11.3l-8.2-18.3-.2-.6-62.1-140.4-.7-1.5-.3-.5-.5-1-.4-.6-.4-.7-.5-.7-.4-.6-.5-.7-.4-.6-.6-.7-.4-.5-.6-.7-.5-.5-.6-.6-.6-.5-.5-.6-.6-.5-.6-.5-.7-.5-.5-.4-.7-.6-.7-.4-.7-.5-.7-.4-.6-.4-1-.5-.4-.2-1.5-.7-1.5-.7-.7-.2-.8-.3-1-.3-.5-.1-1-.3-.5-.1-1-.2-.6-.1-1-.2h-.6l-.9-.2h-5.9l-1.3.2h-.2c-.5 0-1 0-1.3.2h-.2c-.5 0-1 .2-1.4.3h-.1c-.5 0-1 .2-1.4.3h-.2l-1.3.5h-.3l-1.2.5-.5.2-1 .4-.4.2-1 .5-.7.4-.7.3-.8.5-.5.3-.9.6-.5.3-.8.6-.4.4c-.1.2-.6.4-.8.6l-.5.4-.7.6-.5.4-.6.7-.5.5-.5.6-.6.6-.5.5-.5.7-.4.6-.5.7-.5.6-.4.7-.5.7-.3.7-.5.9-.3.6-.7 1.5L206.2 160l-.2.5-3.7 8.2A32.5 32.5 0 0 0 158 166a56.2 56.2 0 0 1-36 12.9 56.8 56.8 0 0 1 0-113.7 56.1 56.1 0 0 1 36 12.9 32.5 32.5 0 1 0 41.4-50.2A121.8 121.8 0 1 0 189 223.6a32.5 32.5 0 0 0 59.8.8l8.3-18.9H339l8.3 19a32.5 32.5 0 0 0 62-17 80.4 80.4 0 0 0 146.6-37v40.8a32.5 32.5 0 0 0 65 0v-71.4A121.8 121.8 0 1 0 741.4.1zM285.9 140.5L298 113l12.1 27.6zm455.5 38.3a56.8 56.8 0 1 1 56.8-56.9 56.9 56.9 0 0 1-56.8 56.9z" class="cls-1"/><path d="M622.5 259.5a44.2 44.2 0 0 0-40.2 26 44.1 44.1 0 0 0-80.5 0 44.1 44.1 0 0 0-83 6.8v-21-.3-.7-.5-.6l-.2-.5c0-.1 0-.4-.2-.6s0-.4-.1-.6l-.3-.5-.3-.6-.2-.4-.3-.7-.2-.2v-.2l-.5-.5-.3-.4-.3-.5-.4-.4-.4-.4-.5-.4-.3-.3-.6-.4-.4-.3-.5-.3-.6-.3-.4-.2-.7-.2-.4-.2-.7-.2h-.4l-.6-.2h-.6l-.5-.1H405.6l-.7.1-.5.1-.6.2-.6.2-.5.1-.6.3a3.5 3.5 0 0 0-.4.2l-.6.4-.3.1-17.7 11a11.8 11.8 0 0 0 6.3 21.8 11.6 11.6 0 0 0 5.9-1.6V336a11.8 11.8 0 0 0 23.5 0v-21a44.1 44.1 0 0 0 83 6.8 44.1 44.1 0 0 0 80.4 0 44.1 44.1 0 1 0 40.3-62.3zm-161 64.8a20.6 20.6 0 1 1 20.6-20.6 20.6 20.6 0 0 1-20.6 20.6zm80.5 0a20.6 20.6 0 1 1 20.6-20.6 20.6 20.6 0 0 1-20.6 20.6zm80.5 0a20.6 20.6 0 1 1 20.6-20.6 20.6 20.6 0 0 1-20.6 20.6zM363.7 291.9h-23a11.8 11.8 0 0 0 0 23.6h23a11.8 11.8 0 1 0 0-23.6zM302 343c0-.3.2-.5.4-.7a2.6 2.6 0 0 0 .1-.3l.4-.7.1-.2v-.1l30-64.7a11.8 11.8 0 1 0-21.3-10L292.4 308 273 266.3a11.8 11.8 0 0 0-22.5 5.7 28 28 0 0 0-23.2-12.5h-24.5a11.8 11.8 0 0 0-11.8 11.8V336a11.8 11.8 0 0 0 23.6 0v-20.6h12.7a28 28 0 0 0 28-28 27 27 0 0 0-.3-4l26.6 57.6c0 .2.1.2.2.3l.3.7.2.3.4.6.2.2a9.7 9.7 0 0 0 .6.8l.2.2.6.6a2 2 0 0 0 .2.2l.7.5.1.1a10.4 10.4 0 0 0 .9.6l.2.1a9.2 9.2 0 0 0 .8.5h.1a9.6 9.6 0 0 0 1.1.4l.3.1 1 .3h.1l1 .2h2.9c.3 0 .7 0 1-.2h.2l1-.3h.2a10.4 10.4 0 0 0 1-.5h.2a7.8 7.8 0 0 0 .8-.5h.2l1-.7.7-.6a2 2 0 0 0 .3-.2l.6-.6v-.2l.7-.8zm-74.6-51h-12.7V283h12.7a4.4 4.4 0 0 1 0 8.8z" class="cls-1"/></g></g></svg>