<svg xmlns="http://www.w3.org/2000/svg" viewBox="0 0 323.8 239.1"><defs><style>.cls-1{fill:#22b14c}</style></defs><g id="Layer_2" data-name="Layer 2"><g id="svg2484"><path d="M144.5 221c0 4.6 4 6.8 8.2 6.8 7 0 13.8-3.4 13.8-11v-6a36 36 0 0 1-11.3 2.2c-6.6.4-10.7 2.8-10.7 8zM98.1 195.8c-7.7 0-11.8 6.2-12.7 13.3h24.7c0-7.3-4.1-13.3-12-13.3zM296.7 195.8c-7.7 0-11.8 6.2-12.7 13.3h24.7c0-7.3-4.1-13.3-12-13.3z" class="cls-1"/><path d="M313.9 168H8.9a8.5 8.5 0 0 0-8.5 8.6v54a8.5 8.5 0 0 0 8.5 8.5h305a8.5 8.5 0 0 0 8.5-8.5v-54a8.5 8.5 0 0 0-8.5-8.5zM17.7 230.8h-5V178h5zm40 0h-4.4V206c0-6.8-2.7-10.2-9.7-10.2A11 11 0 0 0 33 203a19.4 19.4 0 0 0-1 7.2v20.4h-4.3v-37.8h4.4v5.2c3.5-3.7 7-6.3 12.2-6.3 4.6 0 8.8 1.5 11.5 5.4 1.8 2.7 2 5.6 2 8.7zm21 .1a21.2 21.2 0 0 1-5 .9c-4.3 0-6.7-1.9-6.7-7.5v-27.7h-5.4V193h5.3v-10.6h4.4V193h7v3.6h-7v26c0 3.6.1 5.2 3.8 5.2a15.2 15.2 0 0 0 3.6-.5zm19.5-3c5.6 0 10-3.2 11.4-8.7h4.9c-2.2 7.1-6.7 12.6-16.3 12.6-12.2 0-17.4-8.6-17.4-19.8 0-11 6.5-20 17.4-20 10.3 0 16.7 7.3 16.6 20.9H85.4c0 8.2 4.3 15 12.7 15zM125 212v18.6h-4.4v-37.8h4.4v7h.1c2.5-6 6-8 12.4-8v4.7c-9.9-.2-12.5 7-12.5 15.5zm50.5 18.4a12 12 0 0 1-3.4.7 9 9 0 0 1-2-.2c-3-.4-3.5-3-3.5-5.6a18.6 18.6 0 0 1-14.1 6.3c-6.7 0-12.7-3.6-12.7-10.9 0-6.3 4.4-10.2 13.3-11.4l6-.8a22 22 0 0 0 5.8-1.2c1.5-.7 1.6-2.6 1.6-4 0-4.4-2.6-7.6-9.4-7.6-6 0-10.2 2-11 8.5h-4.5c.7-8.9 7.3-12.5 15.6-12.5 7.6 0 13.7 3 13.7 11.8v20.6c0 3.4.9 4.2 4.6 2.9zm19.5 1.2c-12 0-17.4-8.7-17.4-19.9 0-10.5 6-20 17.4-20 8.7 0 14.4 4.2 15.7 13h-4.5c-1.5-5.7-5.4-9-11.2-9-9 0-12.7 8.1-12.7 16s3.6 16 12.7 16c6.5 0 10.6-4 11.6-10.2h4.7c-1.6 8.4-6.8 14-16.3 14zm35.4-.9a21.3 21.3 0 0 1-5 .9c-4.3 0-6.7-1.9-6.7-7.5v-27.7h-5.3V193h5.3v-10.6h4.3V193h7v3.6h-7v26c0 3.6.1 5.2 3.8 5.2a15.2 15.2 0 0 0 3.6-.5zm9.1-.1h-4.4v-37.8h4.4zm.2-46H235V178h4.8zm23.4 46h-5l-14.4-37.8h4.8l12.3 32.4 12.2-32.4h4.8zm33.6-3c5.7 0 10.2-3 11.5-8.6h4.9c-2.2 7.1-6.7 12.6-16.4 12.6-12 0-17.3-8.6-17.3-19.8 0-11 6.5-20 17.3-20 10.4 0 16.7 7.3 16.7 20.9H284c0 8.2 4.3 15 12.7 15z" class="cls-1"/><path id="_59759256" d="M290.9 20.5l-.1 2c-.2 2 0 3-6 3s-5.8-1-6-3l-.1-6.1.1-6.1c.2-2.1 0-3 6-3s5.7 1 6 3v2h8.3c0-1.8-.2-3.3-.3-4.1-.4-4.2 1.2-8.2-14-8.2s-13.5 4-14 8.1a86.8 86.8 0 0 0 0 16.5c.5 4.2-1.1 8.1 14 8.1s13.6-4 14-8.1l.2-4z" class="cls-1" data-name="59759256"/><path id="_59358120" d="M193.8.8l-7.9 23.4-8-23.4h-12v31.3h8V8.8l8 23.3h8l7.9-23.3v23.3h8V.8h-12z" class="cls-1" data-name="59358120"/><path id="_58923920" d="M300.9.8h22.9v8h-7.5v23.3h-8V8.8h-7.4v-8z" class="cls-1" data-name="58923920"/><path id="_59357072" d="M239.3 32.1L248.5.7h11.9l9.2 31.4h-8l-1.9-6.5h-10.5l1.5-5.1h7.5l-3.7-12.7-7.2 24.3h-8z" class="cls-1" data-name="59357072"/><path id="_119970072" d="M146.7 7.2c6 0 5.8 1 6 3l.1 6.2-.1 6c-.2 2.1 0 3.1-6 3.1s-5.8-1-6-3a107 107 0 0 1 0-12.2c.2-2.1 0-3 6-3V0c-15.2 0-13.5 4-14 8.1a90.4 90.4 0 0 0 0 16.5c.5 4.2-1.2 8.1 14 8.1s13.5-4 14-8.1a108.3 108.3 0 0 0 0-16.5c-.4-4.1 1.2-8.1-14-8.1v7.2z" class="cls-1" data-name="119970072"/><path id="_60339936" d="M119.7 20.5v2c-.3 2 0 3-6 3s-5.8-1-6-3a107 107 0 0 1 0-12.2c.2-2.1 0-3 6-3s5.7 1 6 3v2h8.2l-.2-4.1c-.5-4.2 1.1-8.2-14-8.2s-13.6 4-14 8.1a90.4 90.4 0 0 0 0 16.5c.5 4.2-1.2 8.1 14 8.1s13.5-4 14-8.1l.2-4z" class="cls-1" data-name="60339936"/><path id="_59963744" d="M225.2 25h-4.8v-7.2h4.8c6 0 5.8-1 6-3a8.7 8.7 0 0 0 0-1.9 10 10 0 0 0 0-1.8c-.2-2.1 0-3.1-6-3.1h-4.8v24h-8V.8h12.8c15.2 0 13.5 4 14.1 8v8c-.4 4.3 1.1 8.2-14 8.2z" class="cls-1" data-name="59963744"/><path id="_59947616" d="M70 150H20a13.1 13.1 0 0 1-13.2-13.1V60.7a13 13 0 0 1 13.2-13h31.3a6.8 6.8 0 0 0 6.8-6.8V10.4A2.9 2.9 0 0 1 61 7.5h18.3a2.9 2.9 0 0 1 2.9 2.9l.2 136.7a2.9 2.9 0 0 1-2.9 2.9H70l-.2 6.8h12.5A6.8 6.8 0 0 0 89 150V7.5A6.8 6.8 0 0 0 82.2.7h-24a6.8 6.8 0 0 0-6.8 6.8V38a2.9 2.9 0 0 1-2.9 2.8H20a20 20 0 0 0-20 20v76a20 20 0 0 0 20 20h49.7l.2-6.7z" class="cls-1" data-name="59947616"/><path d="M58.1 122.2V72.8a14.3 14.3 0 1 0-28.5 0v53a14.3 14.3 0 1 0 28.5 0v-3.6l-6.7-.2v4a7.5 7.5 0 0 1-15 0V72.7a7.5 7.5 0 0 1 15 0V122z" class="cls-1"/><path id="_59378368" d="M117.5 150H108a2.9 2.9 0 0 1-2.9-2.9l.2-96.5a2.9 2.9 0 0 1 2.8-2.9h18.3a2.8 2.8 0 0 1 2.9 2.9l.2 96.6a2.9 2.9 0 0 1-2.9 2.8h-9.2v6.8h12a6.8 6.8 0 0 0 6.8-6.8V47.7a6.8 6.8 0 0 0-6.8-6.8h-24.1a6.8 6.8 0 0 0-6.8 6.8v102.2a6.8 6.8 0 0 0 6.8 6.8h12V150z" class="cls-1" data-name="59378368"/><path id="_59501248" d="M203.8 66.7h-20.1a11.2 11.2 0 1 0 0 22.5h27.6a13.1 13.1 0 0 1 13.1 13.1l-.1 34.4a13 13 0 0 1-13 13.1l-54.9.1a2.9 2.9 0 0 1-2.8-2.9v-13.3a2.9 2.9 0 0 1 2.8-2.8l37.4-.2a11.2 11.2 0 1 0 0-22.4l-27-.1A13.1 13.1 0 0 1 153.7 95V60.8a13 13 0 0 1 13-13.1l50.9-.3a2.9 2.9 0 0 1 2.8 2.9v13.6a2.9 2.9 0 0 1-2.8 2.8h-13.7l-.2 6.7h16.7a6.8 6.8 0 0 0 6.8-6.7V47.6a6.8 6.8 0 0 0-6.8-6.8h-53.7a20 20 0 0 0-20 20V95a20 20 0 0 0 20 20h27a4.5 4.5 0 1 1 0 9h-40.2a6.8 6.8 0 0 0-6.8 6.8v19a6.8 6.8 0 0 0 6.8 6.8h57.7a20 20 0 0 0 20-20l.1-34.4a20 20 0 0 0-20-20l-27.6.1a4.5 4.5 0 0 1 0-9h20l.1-6.7z" class="cls-1" data-name="59501248"/><path id="_59390680" d="M305.4 85.6h8.6a2.9 2.9 0 0 0 2.9-2.9v-22a13 13 0 0 0-13.1-13h-43.3a13 13 0 0 0-13.1 13v76.1a13.1 13.1 0 0 0 13 13.1h43.4a13.1 13.1 0 0 0 13-13v-21a2.9 2.9 0 0 0-2.8-2.8h-16.3a2.9 2.9 0 0 0-2.9 2.8l.1 10c0 7.9-5 14.3-12.8 14.3s-12.8-6.4-12.8-14.3V72.8c0-8 5-14.3 12.8-14.3S295 64.9 295 72.8v10a2.9 2.9 0 0 0 2.8 2.8h7.7l-.2 6.9h-10.3a6.8 6.8 0 0 1-6.8-6.8v-13c0-4-1.9-7.4-6-7.4s-6 3.4-6 7.5v53.1c0 4.1 2 7.5 6 7.5s6-3.4 6-7.5V113a6.8 6.8 0 0 1 6.8-6.8h22a6.8 6.8 0 0 1 6.8 6.8v23.8a20 20 0 0 1-20 20h-43.2a20 20 0 0 1-20-20v-76a20 20 0 0 1 20-20h43.3a20 20 0 0 1 20 20v24.9a6.8 6.8 0 0 1-6.9 6.8h-11.8l.3-6.9z" class="cls-1" data-name="59390680"/></g></g></svg>