<svg xmlns="http://www.w3.org/2000/svg" viewBox="0 0 1022.8 187.7"><defs><style>.cls-2{fill:#22b14c}</style></defs><g id="Layer_2" data-name="Layer 2"><g id="Layer_2-2" data-name="Layer 2"><path fill="none" stroke="#22b14c" stroke-miterlimit="10" stroke-width="7" d="M1012 32.8c-2.6-8.3-4.7-16.3-16.5-19.3s-52-10-98.7-10-87 7-98.7 10-14 11-16.4 19.3-7.4 36-7.4 61 5 52.7 7.4 61 4.6 16.4 16.4 19.4 52.1 10 98.7 10 87-7 98.7-10 14-11 16.4-19.4 7.4-36 7.4-61-5-52.6-7.4-61z"/><path d="M939.7 57.3V20.8h-85.8v146h36.5v-56.5h49.3v-33h-49.3v-20h49.3zM296.3 30.1h-23L218 150.5V30h-34.3v51.3h-40.4V30H109v132.7h34.3v-51.3h40.4v51.3h63l23.5-51.3h26.1v51.3h34.4V30.1h-34.4zm0 51.3h-12.2l12.2-26.6zM543.7 30H578v132.7h-34.3l-44.4-69.1v69.1H465V30.1h34.3l44.4 69.2zm-123 0H455v132.7h-34.3l-44.4-69.1v69.1H342V30.1h34.3l44.4 69.2zm328.5 102.5v30.2H675V30.1h34.3v102.5zM623.7 30.1h39.8v30.2h-39.8v21h39.8v30.3h-39.8v21h39.8v30.2h-74.2V30.1h34.4zm-555-2.3a68.3 68.3 0 0 1 32.6 8.3v49.8a34.3 34.3 0 1 0 0 21.1V157A68.7 68.7 0 1 1 68.7 27.8z" class="cls-2"/></g></g></svg>