<svg xmlns="http://www.w3.org/2000/svg" viewBox="0 0 768.4 241.9"><defs><style>.cls-1{fill:#22b14c}</style></defs><g id="Layer_2" data-name="Layer 2"><g id="Layer_1-2" data-name="Layer 1"><rect width="67.2" height="47" x="167.9" y="40.3" class="cls-1" rx="11.8" ry="11.8"/><path d="M525.8 154.6H482a11.7 11.7 0 0 0-11.8 11.7v23.5a11.7 11.7 0 0 0 11.8 11.8h43.7a11.7 11.7 0 0 0 11.7-11.8v-23.5a11.7 11.7 0 0 0-11.7-11.7z" class="cls-1"/><path d="M731.4 0h-84.7a37.5 37.5 0 0 0-28.5 13.2V8a7.6 7.6 0 0 0-8-8h-84.4a36.4 36.4 0 0 0-25.4 10.2l.1-10.2H362.8l-.3 77.3h-24a13 13 0 0 1-12.7-10.9V9.8A9.8 9.8 0 0 0 316 0h-37.5a9.8 9.8 0 0 0-9.8 9.3A36.7 36.7 0 0 0 244.2 0h-84.7A37.5 37.5 0 0 0 131 13.2V8a7.6 7.6 0 0 0-8-8L36.5.3C16.5.3 0 15.5 0 35.8v54a37.3 37.3 0 0 0 28.8 36.7h3.3L102 241.9h44.5l55-87V232a9.8 9.8 0 0 0 9.8 9.8H356a36.5 36.5 0 0 0 23.7-8.7 9.8 9.8 0 0 0 9.8 8.7H427a9.8 9.8 0 0 0 9.8-9.8v-.3a37 37 0 0 0 25 9.8h84.7a36.9 36.9 0 0 0 24.7-9.5 9.8 9.8 0 0 0 9.8 9.8h37.5a9.8 9.8 0 0 0 9.8-9.8v-67.5l30.9.1a13 13 0 0 1 13 13L672 232a9.8 9.8 0 0 0 9.8 9.8h37.6a9.8 9.8 0 0 0 9.8-9.9l-.2-77a36.7 36.7 0 0 0-12.4-27.7h14.7a37 37 0 0 0 37-37V37a37 37 0 0 0-36.9-37zM278.8 10h37v65.6a11.7 11.7 0 0 0 11.8 11.8h42v30.2h-57.2A33.6 33.6 0 0 1 278.8 84zM131 119.8V114a36.6 36.6 0 0 0 26.3 13.2l-33 48.8-26.5-48.5 25.2.2a7.6 7.6 0 0 0 8-8zM10 84V43.7A33.6 33.6 0 0 1 43.6 10h80.6v30.2H58.7A11.7 11.7 0 0 0 47 52.1v23.5a11.7 11.7 0 0 0 11.7 11.8h65.5v30.2H43.7A33.6 33.6 0 0 1 10 84zm131 147.8h-33.6L43.6 124.3H84l40.4 69.9 47-69.9h33.5zm23.6-114.2A33.6 33.6 0 0 1 131 84V43.7A33.6 33.6 0 0 1 164.6 10h74A33.6 33.6 0 0 1 272 43.7V84a33.6 33.6 0 0 1-33.6 33.6zm84 114.2h-37V124.3h37zm100.8 0h-90.8v-30.2h89a5 5 0 1 0 0-10h-57a33.6 33.6 0 1 1 0-67.3h89v30.3h-90.7a5 5 0 1 0 0 10h60.5a33.6 33.6 0 1 1 0 67.2zm77.3 0h-37V124.3h37zm-20.2-114.2A33.6 33.6 0 0 1 372.9 84V10h117.6v27h-80.6v10h80.6v27h-80.6v1.6a11.7 11.7 0 0 0 11.7 11.8h68.9v30.2zm168 80.6a33.6 33.6 0 0 1-33.6 33.6H467a33.6 33.6 0 0 1-33.6-33.6V158a33.6 33.6 0 0 1 33.6-33.6h74a33.6 33.6 0 0 1 33.5 33.6zm-43.7-80.6A33.6 33.6 0 0 1 497.2 84V43.7A33.6 33.6 0 0 1 530.8 10h80.6v30.2H546a11.7 11.7 0 0 0-11.7 11.8v23.5a11.7 11.7 0 0 0 11.7 11.8h65.5v30.2zM719 157.9v74h-37v-65.6a11.7 11.7 0 0 0-11.8-11.7h-52v77.2h-37V124.3h104.2A33.6 33.6 0 0 1 719 158zM759.3 84a33.6 33.6 0 0 1-33.6 33.6h-74A33.6 33.6 0 0 1 618.3 84V43.7A33.6 33.6 0 0 1 651.8 10h73.9a33.6 33.6 0 0 1 33.6 33.6z" class="cls-1"/><rect width="67.2" height="47" x="655.1" y="40.3" class="cls-1" rx="11.8" ry="11.8"/></g></g></svg>