<?xml version="1.0" encoding="utf-8"?>
<!-- Generator: Adobe Illustrator 22.0.1, SVG Export Plug-In . SVG Version: 6.00 Build 0)  -->
<svg version="1.1" id="Layer_1" xmlns="http://www.w3.org/2000/svg" xmlns:xlink="http://www.w3.org/1999/xlink" x="0px" y="0px"
	 viewBox="0 0 279.9 270.6" style="enable-background:new 0 0 279.9 270.6;" xml:space="preserve">
<style type="text/css">
	.st0{fill:#22B14C;}
</style>
<g>
	<path class="st0" d="M175.1,71.5l-3.4-1.5c-7-3.1-14.4-5.3-22-6.6c-6.9-1.1-13.9-1.3-20.9-0.6c-12.4,1.2-24.2,5.5-34.5,12.7
		c-12.8,9-22.6,20.4-28.5,35c-3.4,8.6-4.9,17.9-4.1,27.1c1.2,16.6,7,31.4,18.2,43.8c11.8,12.9,26.1,21.9,43.4,25.6
		c7.2,1.5,14.6,1.8,21.9,1c9.8-1.1,19.3-3.7,28.3-7.8l1.5-0.6v1.4c0.1,17,0.2,34,0.3,51c0,3.8,0.1,7.6,0.2,11.4
		c0.1,0.6-0.3,1.2-0.9,1.3c0,0-0.1,0-0.1,0c-7.5,2-15.1,3.6-22.9,4.6c-8.6,1.2-17.2,1.5-25.8,1c-16.7-0.8-33-5-48-12.4
		c-22-10.9-40.6-26-54.8-46.2c-8.3-12-14.5-25.4-18.2-39.5c-1.9-7-3.2-14.1-3.9-21.3c-0.8-7.1-1-14.3-0.6-21.5
		C1,113.3,4.6,97.3,10.8,82.3c8-19.7,20.7-37.3,36.9-51.2c12-10.3,25.9-18.2,40.9-23.3c8-2.8,16.3-4.9,24.7-6.1
		c4.8-0.7,9.6-1.2,14.4-1.4c5.1-0.3,10.2-0.4,15.3-0.2c6.3,0.3,12.5,1.2,18.5,2.8c4.2,1,8.3,2.1,12.5,3.1c1,0.2,1.2,0.7,1.2,1.6
		C175.1,28.5,175.1,71,175.1,71.5z M178.8,82.9c-0.9,0-1.4,0.1-1.4,1.2c0,15.3-0.1,30.6-0.2,45.9c0,0.9,0.2,1.2,1.1,1.2
		c18.3,0.1,36.7,0.1,55,0.2c0.7,0,1.3-0.3,1.7-0.8c13.3-14,26.7-28,40-42.1c1.5-1.6,3-3.2,4.8-5L178.8,82.9z M279.9,187.5
		c-1.7-1.8-3.2-3.4-4.8-5c-13.3-14.1-26.7-28.1-40-42.1c-0.5-0.5-1.1-0.8-1.7-0.8c-18.3,0-36.7,0.1-55,0.2c-0.9,0-1.1,0.3-1.1,1.2
		c0.1,15.3,0.1,30.6,0.2,45.9c0,1.1,0.5,1.2,1.4,1.2L279.9,187.5z"/>
</g>
</svg>
