<svg xmlns="http://www.w3.org/2000/svg" viewBox="0 0 279.9 84.05"><defs><style>.cls-1,.cls-2{fill:#22b14c}.cls-1{fill-rule:evenodd}</style></defs><g id="Layer_2" data-name="Layer 2"><g id="Layer_1-2" data-name="Layer 1"><path d="M.06 32.32h174.6v6.24H.06v-6.24zM.06 43.65h174.6v6.23H.06v-6.23zM.06 55.12h174.6v6.24H.06v-6.24zM.06 66.34h174.6v6.24H.06v-6.24zM.06 77.82h174.6v6.23H.06v-6.23z" class="cls-1"/><path d="M224 55.1q-3.52-3.47-11.15-3.46h-5.17a12.86 12.86 0 0 0-7.77 2.28v-7s.31-2.56.86-3 1.79-.63 3.74-.73h3.43a6.86 6.86 0 0 1 3.13.66 3 3 0 0 1 .84 2.36V48h14.41v-3.69q0-5.84-4.2-8.86t-12.54-3h-6.18q-10.11 0-14 4.71t-3.92 16.24v9.74q0 11.55 3.92 16.24t14 4.69h6.12q18 0 17.95-13.72v-4.57q0-7.21-3.47-10.68zM213.06 69c0 1.36-.31 2.22-.93 2.55a10.71 10.71 0 0 1-4.23.52h-2.8a11.09 11.09 0 0 1-4.24-.52c-.67-.33-1-1.19-1-2.55v-3.63c0-1.32.33-2.14 1-2.45a11.8 11.8 0 0 1 4.24-.48h2.8a10.86 10.86 0 0 1 4.2.51c.64.34 1 1.15 1 2.42zM240.76 8.73h-7.49v17.46h6.24V17.1s1.91-3.69 4.65-3.69 3.42.82 3.56 2.8h6.16c0-5.82-.82-8.15-7.39-8.15-4 0-5.35.83-5.73 3.84V8.73zM269.9 23c-6.3 0-7.26-.55-7.26-3h17.26c-.27-9.42-.27-11.47-11.91-11.47-9.87 0-12.06 1.78-12.06 9.58 0 7.26 2.88 9 10.82 9.17 8.9 0 13.15-.41 13.15-6h-6.44c-.27 1.03-.82 1.72-3.56 1.72zm-2.19-10.63c4.8 0 5.48.28 5.75 2.61h-10.95c.27-1.93.82-2.62 5.2-2.62zM17.66 16.21h6.58c-.55-6.23-2.33-7.73-11.5-7.73C2.33 8.48 0 10.12 0 17.79s2.19 9.44 11.91 9.44c10.27 0 12.33-1.36 12.33-7.28h-6.58c0 1.26-.68 2.08-5.75 2.08-4.38 0-5.34-1.09-5.34-4.65S7.53 14 12.74 14c3.83 0 4.51.41 4.92 2.19zM157.61 8.34c-11.36 0-12.73 1.92-12.73 9.58s1.91 9.31 12.73 9.31c11.51 0 12.74-1.91 12.74-10 0-7.39-2.19-8.89-12.74-8.89zm.14 13.66c-5.48 0-6.16-.55-6.16-4.38s.82-4.11 5.61-4.11c5.34 0 6.3.14 6.3 4.11 0 3.73-.68 4.38-5.75 4.38zM216.77 8.34c-11.23 0-12.6 1.78-12.6 9.45s1.92 9.44 12.6 9.44c11.5 0 12.6-1.91 12.6-10 0-7.39-2.06-8.89-12.6-8.89zm.14 13.66c-5.48 0-6.16-.55-6.16-4.38s.82-4.11 5.61-4.11c5.34 0 6.3.14 6.3 4.11 0 3.73-.66 4.38-5.75 4.38zM40.81 8.34c-11.37 0-12.74 1.78-12.74 9.45s1.93 9.44 12.74 9.44c11.5 0 12.6-1.91 12.6-10 0-7.39-2.06-8.89-12.6-8.89zM40.94 22c-5.34 0-6-.55-6-4.38s.82-4.11 5.48-4.11c5.34 0 6.3.14 6.3 4.11C46.7 21.35 46 22 40.94 22zM192.12 0v11.35s-1.78-3.15-7.26-3.15c-8.76 0-10.4 2.33-10.4 9.45S176.79 27 185.27 27c5.35 0 7-1.37 8.1-3.7v2.93h6.23V0zm-4.24 21.62c-5.21 0-6.57-.14-6.57-3.83 0-4.25 1.64-4.38 7.11-4.38 3.7 0 4.94.54 4.94 3.42 0 4.38-.28 4.79-5.48 4.79zM63.67 8.73h-6.24v17.46h6.24v-9.31c0-2.73 1.43-3.69 5.3-3.7a4.67 4.67 0 0 1 4.67 4.66v8.35h6.24v-9.58c0-2.6 2.13-3.43 5.41-3.43s4.56.83 4.56 3.43v9.58h6.24V15.87c0-5.15-3.26-7.54-9.22-7.54-5.16 0-7.06 1.85-7.74 3.84-1.35-2.25-3.25-3.84-8.41-3.84-4.88 0-6.24 1.59-7 4.5v-4.1zM108.56 8.73h-6.23v17.46h6.23v-9.31c0-2.74 1.54-3.7 4.62-3.7s4.11 1.1 4.11 4.66v8.35h7.48v-9.58c0-2.6 2-3.43 5.28-3.43 3.13 0 4.7 1 4.7 3.43v9.58H141V15.87c0-5.15-3.27-7.54-9.27-7.54-5.17 0-7 1.72-7.76 3.84-1.37-2.25-3.27-3.84-8.45-3.84-4.77 0-6 1.59-7 4.5v-4.1zM273.1 62.44v-30h-20l-20.83 27.13-.07 13.68h26.49v9.6h14.41v-9.6h6V62.44zm-14.41 0h-12.48l12.48-16.72z" class="cls-2"/></g></g></svg>