<svg xmlns="http://www.w3.org/2000/svg" id="Layer_1" viewBox="0 0 194.2 59.9"><style>.st0{stroke-linejoin:round}.st0,.st2{fill:#22b14c;stroke:#22b14c}.st2,.st3{stroke-linecap:round;stroke-linejoin:round}.st3,.st6{fill:none;stroke:#22b14c}</style><path d="M97.1 15.7h24.5l-3.1 4.3H94l3.1-4.3zM107.8 33.5l10.7 10.8 3.1-4.3-10.7-10.8-3.1 4.3z" class="st0"/><path d="M110.9 29.3h-1.6l-1.5 1.5H96l-2 2.8h13.8l3.1-4.3zM94 5.6v12.8l3.1-4.3V1.3L94 5.6zm0 38.7v14.1l3.1-4.2v-10H94z" class="st0"/><path d="M97.1 1.3a29.8 29.8 0 0 0-32.2 13.4A30 30 0 0 1 94 5.5l3.1-4.2zM94 42.4c-1.3.3-2.7.5-4.1.5-7.1-.1-15.5-6.4-15.8-15.1 0-2.2.5-4.4 1.5-6.4A14.6 14.6 0 0 0 71 32c.3 8.7 8.7 15 15.8 15.1 2.6.1 5-.5 7.2-1.6v-3.1zM137.2 24.4l4.2-4v-6.9h-1.8c-1.8 0-2.3 1.1-2.3 5.9l-.1 5z" class="st0"/><path d="M153.1 24.4C152.9 8 154.3 6 140.3 6c-5.6 0-8.7.4-10.5 2.1 0 0 1.9-2.3 4.7-4.4 1.8-1.4 4.9-1.7 10.1-1.7 14.1 0 12.6 2.5 12.8 19 0 9.6 1.3 10.2-8 15.7 4.5-3.2 3.7-4.5 3.7-12.3zm4.5 30.8V47l-4.2 3.2v8.2l4.2-3.2zM141.7 47l-.2-4.4c0-.7.2-1.1 1.2-1.8-4.8 2.8-5.5 3.2-5.5 4.4l.2 5 4.3-3.2zM165.4 7.5c1.8-2.1 5.1-2.6 11-2.6 14.8 0 13 3.1 13 26.2v1.2c0 16.5 1 22.8-3.9 25.1 1.7-.7 4.2-3.2 6.1-5.2 2.8-3.1 2.1-9.7 2.1-23.8v-1.2c0-23.1 1.3-25.5-13.6-25.5-5.1 0-8.3.4-10.5 1.7l-4.2 4.1z" class="st0"/><path fill="#22b14c" stroke="#22b14c" d="M176.3 51.4c-4.3 0-4.4-1.8-4.2-19.4 0-17.4 0-19.4 4.3-19.4h.5c-.6 2.6-.5 7.3-.5 16.2-.2 17-.2 19.1 3.7 19.2-.5 3-1.6 3.4-3.8 3.4z"/><path d="M191.5 4.4c-1.8-2.2-5.2-2.6-11.4-2.6-5.1 0-8.2 0-10.3 1.4l-4.3 4.4c1.8-2.1 5.1-2.6 11-2.6 6.4 0 9.7.6 11.4 3.1l3.6-3.7zM137.4 50.2l4.3-3.2h15.9l-4.2 3.2z" class="st0"/><path d="M151.3 8.3c-1.6-1.9-4.8-2.2-11.1-2.2-5.6 0-8.7.4-10.5 2.1 0 0 1.9-2.3 4.7-4.4 1.8-1.4 4.9-1.7 10.1-1.7 5.9 0 9 .4 10.8 2.2l-4 4z" class="st2"/><path d="M94 20h24.5l-10.7 10.8H94V20z" class="st3"/><path fill="none" stroke="#22b14c" stroke-linejoin="round" d="M94 44.3h24.5l-10.7-10.8H94v10.8z"/><g><path d="M16.5 1.3l3.7 27.1-2.5 19-5.8-42.6 4.6-3.5zm18.4 3.5l-7.7 54.5 4.6-3.5 7.7-54.5-4.6 3.5z" class="st2"/><path d="M11.9 4.8H.5l4.6-3.5h11.4l-4.6 3.5zm27.6-3.5H28.1l-4.6 3.5h11.4l4.6-3.5z" class="st2"/></g><path d="M.5 4.8l7.7 54.4h19l7.7-54.5H23.5l-5.8 42.6-5.8-42.5H.5s0 .1 0 0z" class="st3"/><g><path fill="none" stroke="#22b14c" stroke-linecap="square" stroke-linejoin="round" d="M127.5 24.4h9.7c0-9 0-11 2.4-11h1.7c2.3 0 2 2.3 2.1 12.8.2 4-2.3 4.9-6.5 6.9-5.6 3.3-9.6 4.9-9.4 10l-.1 15.3h26v-8.2h-15.9l-.2-5c0-1.4.9-1.7 7.9-5.8 9.3-5.5 8-5.3 8-14.9C152.9 8 154.3 6 140.3 6c-13.1 0-12.6 1.9-12.8 18.3v.1z"/><path d="M176.4 5c-14.9 0-13 3.1-13 26.2v1.2c0 23.1-1.9 26.2 13 26.2 14.8 0 13-3.1 13-26.2v-1.2c0-23.1 1.8-26.2-13-26.2zm0 7.7c4.2 0 4.2 1.9 4.3 19.4-.1 17.5-.1 19.4-4.4 19.4-4.3 0-4.4-1.8-4.2-19.4 0-17.4.1-19.4 4.3-19.4z" class="st6"/><path d="M52.6 4.8l-.2 54.5 4.1-3.5.2-54.5-4.1 3.5z" class="st2"/><path d="M56.7 1.3H45.3l-4.1 3.5h11.4l4.1-3.5z" class="st2"/></g><path d="M94 58.5c-2.3.6-4.7.9-7.2.9-14.2-.4-26.9-10.7-28.5-24.6l-.2-2.8A28.6 28.6 0 0 1 86.8 4.8c2.4 0 4.8.3 7.2.8v12.8a15.8 15.8 0 0 0-7.2-1.6c-8.4 0-15.7 6.5-15.8 15.2.3 8.7 8.7 15 15.8 15.1 2.6.1 5-.5 7.2-1.6v13z" class="st6"/><path d="M41.3 59.2h11.2l.2-54.5H41.2v54.4l.1.1z" class="st3"/></svg>