<svg xmlns="http://www.w3.org/2000/svg" viewBox="0 0 260.4 65.5"><style>.st0{fill:#22b14c}.st2{display:inline;fill:#0a199a}</style><g id="Layer_4"><path d="M0 17.6h11.4V22h.6c2.1-3.9 5.5-5.2 14.8-5.2 8.3 0 12.6 1 15.3 3.5 2.6 2.3 3.3 5.4 3.3 13.5 0 14-3.2 16.7-19.2 16.7-8.1 0-11.2-1.2-13.6-5H12v17.6H0V17.6zM12 34c0 6.2 1.8 7.5 10.7 7.5 4.4 0 7.3-.5 8.6-1.4 1.5-1 2-2.7 2-7 0-6.2-1.6-7.4-10.2-7.4-9.6.1-11.1 1.2-11.1 8.3zM61.2 4.4v45.4h-12V4.4h12zM96.7 49.8V45h-.6c-1.8 4.1-5.6 5.6-13.7 5.6-7.4 0-11.5-1.2-14.4-4.1-2.9-3-3.5-5.4-3.5-14.2V17.6h12v14.7c0 4.7.3 6.1 1.6 7.4 1.4 1.4 3.3 1.8 7.8 1.8 4.2 0 6.5-.5 8-1.8 1.7-1.5 2.1-3.2 2.1-9.2V17.6h12v32.2H96.7zM123.1 39.5c.2 2.8 2.5 3.6 10.1 3.6 7.8 0 10.1-.7 10.1-3 0-1.3-1-2.2-2.8-2.4-1.6-.1-4.7-.2-16.5-.2-9.1-.1-12.9-3-12.9-9.9 0-4.8 1.7-7.8 5.2-9.3 2.7-1.1 8.2-1.6 17-1.6 11 0 15 .7 17.7 3 1.7 1.4 2.3 3.1 2.6 6.9h-12.2c-.3-1-.4-1.3-.8-1.5-1-.6-3.5-1-7.6-1-7.6 0-9.9.6-9.9 2.7 0 1.3 1 2 2.9 2.1 2 .1 3.9.2 16.4.3 9.3.1 12.9 2.9 12.9 10 0 4.8-1.6 7.8-5 9.3-2.9 1.4-8.7 2-18 2-11.7 0-15.7-.7-18.6-3.3-2-1.8-2.8-4-2.9-7.8h12.3zM260.4 51.8h-11v10.9h-16.3V51.8h-44.9V29.4l33.4-24.3h27.8v33.2h11v13.5zm-27.3-33.6h-3.5l-26.1 17.9v2.2H233V18.2z" class="st0"/><path d="M170.7-1.9h7.9v69.4h-7.9z" class="st0" transform="rotate(26.6 174.6 32.8)"/></g></svg>