<svg xmlns="http://www.w3.org/2000/svg" viewBox="0 0 587.2 153"><defs><style>.cls-1{fill:#22b14c}</style></defs><g id="Layer_2" data-name="Layer 2"><g id="Layer_4" data-name="Layer 4"><path d="M26.5 130H0v6h24v4c0 2.2-3.8 7-7.2 7H2v6h13.5c5.8 0 12.6-7.7 12.6-11.8v-9.5a1.6 1.6 0 0 0-1.6-1.7zM29 137.4v3.6h20.1c0 1.2-.8 2-2.3 2H39v3.3c0 1.2-.9 1.7-2.1 1.7H29v5H38c3.6 0 6.1-6 6.1-6h5.7c2 0 3.3-3.4 3.3-5v-6H30.4a1.4 1.4 0 0 0-1.4 1.4zM55.1 134.9l28 3V133l-28-3v4.9zM55.1 142.4l28 3v-4.9l-28-3v4.9zM55.1 149.9l28 3V148l-28-3v4.9zM90.2 142.4v-10.7a1.6 1.6 0 0 0-1.6-1.7H85v15H88c1.4 0 2.2-1.1 2.2-2.6zM109 140.8c0 2-3.1 6.2-6.7 6.2H90.7c-2.7 0-2.8 6 0 6h12.5c3.8 0 9.9-6.2 9.9-12v-11h-4zM115 144h27l1.1-6h-27l-1.1 6zM154 135h21.9a2.1 2.1 0 0 1 2.1 2.1v7.8a2.1 2.1 0 0 1-2.1 2.1H154v6h28v-23h-28zM186.2 136h14v-6h-14a2.1 2.1 0 0 0-2.1 2.1v1.8a2.1 2.1 0 0 0 2.1 2.1zM266 142.9a2.1 2.1 0 0 0 2.2 2.1H291a2.1 2.1 0 0 0 2.1-2.1V139h-27z" class="cls-1"/><path d="M209 140.8c0 2-3.1 6.2-6.7 6.2H184v5h19.1c3.8 0 9.9-5.2 9.9-11v-11h-4zM492 141.8c0 2-3.1 6.2-6.8 6.2h-18.1v5h19c3.9 0 10-5.2 10-11v-11h-4zM263.2 136H245v5h12.7a2.3 2.3 0 0 1 2.3 2.3v1.3a2.4 2.4 0 0 1-2.3 2.4H245v6h20.8a2.1 2.1 0 0 0 2.2-2.2V147h-5zM219.1 132a2.1 2.1 0 0 0-2.1-2h-2v16.9c0 1.9.8 6.1 7.8 6.1H243v-6h-22.3a2.3 2.3 0 0 1-1.8-1 3.3 3.3 0 0 1-.4-.7 2.5 2.5 0 0 1-.1-.8v-1.2a2.3 2.3 0 0 1 2.3-2.3h22.3v-5h-24zM319.2 130H299v3.4c0 2.6-4 3.7-4 3.7v6.9s6.5-2 6.8-8h17.3v1a40.5 40.5 0 0 1-10.5 2h-5.6v6.1h8.6a9.7 9.7 0 0 0 7.1-2.9c-1 2.2-3.5 4.9-6.4 4.9H297v6h16.2c3.8 0 9.9-6.2 9.9-12V130h-4zM450.2 130h-21v3.4c0 2.6-5.1 3.7-5.1 3.7v6.9s7.6-2 7.9-8H450v4.8c0 2-3 6.2-6.7 6.2h-16.3v6h17.3c3.8 0 9.9-6.2 9.9-12v-11h-4zM340 130h19.1v5H340zM361.1 130h3v5h-3zM365.1 130h3v5h-3zM338 143h16.3c-1.2 2-3.5 4-6 4h-8.4c-2.7 0-2.8 6 0 6h9.3c3.4 0 8.6-4.9 9.7-10h9.2v-6h-30zM530.1 130h25.1v5h-25.1zM558 142v-5h-29v5h14.7c-.5 2.1-2.4 5-5.4 5H530c-2.7 0-2.8 6 0 6h9.3c3.6 0 8.2-5.6 8.6-11zM388 139h-18v5h10v9h4v-9h4.5a5.4 5.4 0 0 0 5.5-5.2v-3h-3.9s.1 3.2-2.1 3.2z" class="cls-1"/><path d="M422.1 138.4V130h-26v5.1H418v.9c0 4.2-5.2 11-10.4 11H396v6h8.7a18.4 18.4 0 0 0 12.6-5.4l3.7 5.4h5l-5.8-9a11.1 11.1 0 0 0 1.8-5.6zM523.1 138.4v-6.3a2.4 2.4 0 0 0-2.1-2.1h-19.7c-5.8 0-5.4 6.2-.7 6.2s6-1.1 7.4-1.1h9c1.3 0 1.8.2 2 .7v.2c0 4.2-5.3 11-10.5 11H501c-1.9 0-3 1-3 1.6v4.4h7.8a18.4 18.4 0 0 0 12.6-5.4l3.6 5.4h5l-5.7-9a11.1 11.1 0 0 0 1.8-5.6zM467.1 131h16.1v5h-16.1zM467.1 138h16.1v5h-16.1zM586.5 143.8c-.5-1-5.5-8.4-7.1-11.1s-4.7-.4-3.6 1.6c.7 1.3 5.3 8 6.5 9.8s0 2.8-.8 2.8h-18.7c-1.1 0-1.1-.8-.6-1.6l9-15.3H567l-9.1 15.8c-1.4 2.6-1 6.2.3 6.2h29v-5.7a3.6 3.6 0 0 0-.7-2.5z" class="cls-1"/></g><g id="Fam_Comp" data-name="Fam Comp"><path d="M.3 0h15.5v5.3H5.7v6.5h10.1v5.5H5.7v11.6H.3V0zM33.6 28.9h-5.3v-4.5H18l-3 4.5H8.6L29.3 0h4.3zm-5.3-10v-8.4L22 18.9zM35.7 0h6.1l8.7 19.4L59.3 0h6.2v28.9H60V14.3l-6.8 14.6h-5.5l-6.5-14.6v14.6h-5.5V0zM167.8 0h6.2l8.7 19.4L191.4 0h6.3v28.9h-5.5V14.3l-6.8 14.6h-5.6l-6.5-14.6v14.6h-5.5V0zM67.1 0h5.7v28.9h-5.7zM74.5 0h5.7v23.6h7.4v5.3H74.5V0zM81.3 0h6.3l5.9 11.8L99.3 0h6.3l-9.4 18.4v10.5h-5.5V18.4L81.3 0zM136.4 8A15 15 0 0 0 123.2.1a14.8 14.8 0 0 0-14.9 14.7 14.8 14.8 0 0 0 15 14.6 15 15 0 0 0 13.2-8h-6.8a9.4 9.4 0 0 1-6.3 2.6 9.3 9.3 0 0 1-9.4-9.2 9.3 9.3 0 0 1 9.4-9.2 9.4 9.4 0 0 1 6.3 2.4z" class="cls-1"/><path d="M151.2 29.5a14.9 14.9 0 0 1-15-14.7 15 15 0 0 1 30 0 14.9 14.9 0 0 1-15 14.7zm9.5-14.7a9.5 9.5 0 0 0-19 0 9.5 9.5 0 0 0 19 0zM209.3 0a9.6 9.6 0 0 1 9 9.5 9.6 9.6 0 0 1-9 9.4H205v10h-5.5V0h9.8zM205 5.6v7.8h4.3a4 4 0 0 0 0-7.8zM278.7 29.2h-5.4V.2H285a9.6 9.6 0 0 1 8.9 9.5 9.5 9.5 0 0 1-6.3 9l6.4 10.5h-6l-9-15h-.4zm6.4-15.6a4 4 0 0 0 0-7.8h-6.4v7.8zM225.2 16.7v4.2a4 4 0 0 0 8 0V.3h5.6v20.6a9.7 9.7 0 0 1-19.2 0V.3h5.6zM244.8 29.2h5.6V5.7h5V.3H240v5.4h4.8v23.5zM271.8 29.2h-15.2V.3h15.2v5.3H262v6.8h9.8v5.5H262v6h9.8v5.3z" class="cls-1"/></g><g id="Disk_System" data-name="Disk System"><path d="M57.1 35h24v90h-24zM318 35v40h-3V35h-25v48a15 15 0 0 0 15 15h14v4h-24.9v23H329a15 15 0 0 0 15-15V35h-26zM460.2 35v90H500.1v-23H483V92h17.1V69H483V58h17.1V35H460.2zM37 35H0v90h37a15 15 0 0 0 15-15V50a15 15 0 0 0-15-15zm-9 64.5a3.5 3.5 0 0 1-3.5 3.5h-1.4V58h1.4a3.5 3.5 0 0 1 3.5 3.5zM373 64.7v-5.4a2.6 2.6 0 0 1 5.1 0V63l24 16.4V47.7A12.6 12.6 0 0 0 389.5 35h-27.9A12.6 12.6 0 0 0 349 47.7v21c0 3.9 1.4 7.7 4.4 9.6l24.7 17v5.4a2.6 2.6 0 0 1-5.1 0v-3.6l-24-16.4v31.7a12.6 12.6 0 0 0 12.6 12.6h27.9a12.6 12.6 0 0 0 12.6-12.6v-21a12.7 12.7 0 0 0-5.3-10.4l-1.1-.7zM255.7 64.7v-5.4a2.6 2.6 0 0 1 5.2 0V63l24 16.4V47.7A12.6 12.6 0 0 0 272.2 35h-27.8a12.6 12.6 0 0 0-12.6 12.6v21.2c0 3.8 1.4 7.6 4.3 9.5l24.8 17v5.4a2.6 2.6 0 0 1-5.1 0v-3.6l-24-16.4v31.7a12.6 12.6 0 0 0 12.6 12.6h27.8a12.6 12.6 0 0 0 12.7-12.6v-21a12.7 12.7 0 0 0-5.4-10.4l-1-.7zM110.2 64.7v-5.4a2.6 2.6 0 0 1 5.2 0V63l24 16.4V47.7A12.6 12.6 0 0 0 126.7 35H99a12.6 12.6 0 0 0-12.6 12.7v21c0 3.9 1.4 7.7 4.3 9.6l24.8 17v5.4a2.6 2.6 0 0 1-5.1 0v-3.6l-24-16.4v31.7A12.6 12.6 0 0 0 98.9 125h27.8a12.6 12.6 0 0 0 12.7-12.6v-21A12.7 12.7 0 0 0 134 81l-1-.7zM173 59.6l-4 4V35h-23v90h23.1V96.3l4 4V125H198V89.8l-9-8.8v-3.8l9-9V35h-24.9zM418.2 35h-11.1v23h11.1v67h24.9V58h11.1V35h-36zM573.7 35h-17a13.3 13.3 0 0 0-10.3 5 13.2 13.2 0 0 0-10.3-5h-31v90h24V61.5a2.5 2.5 0 0 1 5 0V125h24V61.5a2.5 2.5 0 0 1 5 0V125H587V48.3A13.3 13.3 0 0 0 573.7 35z" class="cls-1"/></g></g></svg>