<svg xmlns="http://www.w3.org/2000/svg" viewBox="0 0 1745.7 284"><defs><style>.cls-1{fill:#22b14c}</style></defs><g id="Layer_2" data-name="Layer 2"><g id="Layer_1-2" data-name="Layer 1"><path d="M462.3 64.7H554v-55H306.3v55H397v74.6h65.3V64.7zM397 146.3h65.3v128H397zM687 59.3a82.7 82.7 0 0 1 82.6 80H829a142 142 0 0 0-284 0h59.4a82.7 82.7 0 0 1 82.6-80zM687 224.7a82.7 82.7 0 0 1-82.6-78.4h-59.3a142 142 0 0 0 283.8 0h-59.3a82.7 82.7 0 0 1-82.6 78.4zM999.7 116.3l5.7 23h56.4L1030.3 10H968l-31.2 129.3h57.3l5.6-23zM886.3 10H827l31 129.3h58.3L886.3 10zM926.3 182.7l-8.4-36.4h-58.2L890.3 274h71.4l30.8-127.7h-57.4l-8.8 36.4zM1172.3 10h-58.6l-31 129.3h58.3L1172.3 10zM1072.3 182.7l-8.8-36.4h-56.4L1039 274h69.3l31-127.7H1081l-8.7 36.4zM1259 70.7h24.7l27 68.6h60.8a5194.4 5194.4 0 0 1-43.8-112c-5.4-16-22-17.3-28-17.3h-100v129.3h59.3zM1199.7 146.3h59.3V274h-59.3zM1404.3 210s-3.3 2-7.3-7.3l-22.7-56.4h-60.8a8194 8194 0 0 0 42.8 107c8.7 20 21.4 20.7 40.7 20.7h64.7V146.3h-57.4zM1404.3 10h57.3v129.3h-57.3zM1656.1 83.3h-98.3c-7.4 0-11.4-3.3-11.4-7.3s2.7-8.7 7.4-8.7h173V10h-173c-47.1 0-65.3 39.3-65.3 66 0 26.2 8.4 62 64.7 63.3h184c-13-29.7-40.7-56-81-56zM1685 177.3c0 22-20.8 38-40.3 38h-156.2V274h159.6c64 0 97.6-55.3 97.6-96a95.8 95.8 0 0 0-5.8-31.7h-71.8a38 38 0 0 1 17 31zM167.5 274.3h58.4v-27.6h-15.2v-45.4l33.8 73h20.3l28-70.6v43h-10.5v27.6H352v-27.6h-15.9l-.1-76.6h16v-25.2h-63l-28 65.9-30.3-65.9h-63.2v25.2h14.9v76.6h-14.9v27.6zM0 144.9v27.2h14.5v75.6H0v26.4h75.6v-26.3H60.1v-19.6h44.1v-26.7H60.8v-29.3H115v25.2h36.2v-52.5H0z" class="cls-1"/></g></g></svg>