<?xml version="1.0" encoding="utf-8"?>
<!-- Generator: Adobe Illustrator 22.0.1, SVG Export Plug-In . SVG Version: 6.00 Build 0)  -->
<svg version="1.1" id="Layer_1" xmlns="http://www.w3.org/2000/svg" xmlns:xlink="http://www.w3.org/1999/xlink" x="0px" y="0px"
	 viewBox="0 0 1127 197" style="enable-background:new 0 0 1127 197;" xml:space="preserve">
<style type="text/css">
	.st0{fill:#22B14C;}
</style>
<path class="st0" d="M215,101l16-37l7,37H215 M447,5l-45,103L383,5h-39l-54,152L264,5h-47l-73,164l11-68H83l-6,35h30l-3,19
	c-17,7-46,4-59-18c-8-14-15-46,18-75c27-24,74-28,101-16l6-38C118-10,78,5,51,22C14,45-4,80,1,127c5,55,76,90,137,55l1-1l-6,13h41
	l25-57h45l10,57h66l34-106l27,106h26l44-117l18,117h39L493,5H447z M508,194h108l6-40h-67l5-34h59l6-40h-59l5-34h68l6-40H538L508,194
	 M1043,65l-24-61h-45l46,99l-14,89h39l12-79l69-109h-45L1043,65"/>
<path class="st0" d="M951,118c-10,31-35,49-56,40c-20-10-28-42-18-74c11-31,36-49,56-40C954,53,962,86,951,118 M936,7
	c-43-10-87,24-100,76c-11,52,14,103,57,113c43,9,87-25,99-77S979,17,936,7z M760,82h-27l6-35h26C792,47,786,82,760,82 M756,158h-35
	l6-37h33C791,121,790,158,756,158z M778,7h-72l-30,187h87c36,0,89-52,41-96C853,47,804,8,778,7z"/>
</svg>
