<svg xmlns="http://www.w3.org/2000/svg" viewBox="0 0 897.63 161.79"><defs><style>.cls-1{fill:#22b14c;}</style></defs><title>Asset 1</title><g id="Layer_2" data-name="Layer 2"><g id="Tiger"><path class="cls-1" d="M686.33,8c34.12,0,54.07,20.63,54.07,54.88,0,35.25-21.45,54.87-54.07,54.87s-54.08-19.62-54.08-54.87c0-34.25,20-54.88,54.08-54.88m0,89.45c16,0,26.49-11.86,26.49-33.16,0-20.7-9.77-33.16-26.49-33.16s-26.5,12.46-26.5,33.16c0,21.3,10.51,33.16,26.5,33.16M856.88,10.13c18.12,0,32.75,13.25,32.75,34.75v69.25a2,2,0,0,1-2,2h-21a2,2,0,0,1-2-2V46.38c0-6.5-5.13-11.25-10.13-11.25H834.38v79a2,2,0,0,1-2,2h-21a2,2,0,0,1-2-2v-79H779.13v79a2,2,0,0,1-2,2h-21a2,2,0,0,1-2-2v-102a2,2,0,0,1,2-2H856.88M618,10.13a2,2,0,0,1,2,2v21a2,2,0,0,1-2,2H582.58c-12.1,0-21.91,12.53-21.91,28s9.81,28,21.91,28h36.55a2,2,0,0,1,2,2v21a2,2,0,0,1-2,2h-44c-22.58,0-40.88-23.73-40.88-53,0-28.58,17.44-51.86,39.27-52.95a2.12,2.12,0,0,1,.44,0h44m-144.19,0a2,2,0,0,1,2,2v21a2,2,0,0,1-2,2H438.4c-9.84,0-18.15,8.26-20.93,19.66h57.47a2,2,0,0,1,2,2v18a2,2,0,0,1-2,2H419.27c3.75,8.55,10.91,14.34,19.13,14.34h36.54a2,2,0,0,1,2,2v21a2,2,0,0,1-2,2h-44c-22.58,0-40.88-23.73-40.88-53,0-28.58,17.44-51.86,39.27-52.95a2.12,2.12,0,0,1,.44,0h44m-130.89,0c18.12,0,32.75,13.25,32.75,34.75v69.25a2,2,0,0,1-2,2h-21a2,2,0,0,1-2-2V46.38c0-6.5-5.13-11.25-10.13-11.25H320.38v79a2,2,0,0,1-2,2h-21a2,2,0,0,1-2-2v-79H265.13v79a2,2,0,0,1-2,2h-21a2,2,0,0,1-2-2v-102a2,2,0,0,1,2-2H342.88m-155,0c18.12,0,32.75,13.25,32.75,34.75v69.25a2,2,0,0,1-2,2H150.44c-14.53,0-26.31-14.11-26.31-31.5s11.78-31.5,26.31-31.5h45.19V46.38c0-6.5-5.13-11.25-10.13-11.25H132.13a2,2,0,0,1-2-2v-21a2,2,0,0,1,2-2h55.75M160.25,94.38h35.38V73.5H160.25c-5.11,0-9.25,4.67-9.25,10.44s4.14,10.44,9.25,10.44M107.38,10.13a2,2,0,0,1,2,2v103c0,17.5-6.5,38.66-37.5,38.66H20.13a2,2,0,0,1-2-2v-18a2,2,0,0,1,2-2H67.38c8.25,0,14.75-3,14.75-15.66H51.94C27.67,116.13,8,92.4,8,63.13s19.67-53,43.94-53h55.44M60.1,92.92H82.38V33.58H60.1c-12.3,0-22.27,13.29-22.27,29.67s10,29.67,22.27,29.67m442.75-1.67a17.51,17.51,0,1,1-18,17.5,17.75,17.75,0,0,1,18-17.5M686.33,0C648,0,624.25,24.09,624.25,62.88c0,19.23,5.94,35.26,17.19,46.35,10.95,10.81,26.48,16.52,44.89,16.52s33.93-5.71,44.88-16.52A56.53,56.53,0,0,0,746.13,82.3v31.83a10,10,0,0,0,10,10h21a10,10,0,0,0,10-10v-71h14.25v71a10,10,0,0,0,10,10h21a10,10,0,0,0,10-10v-71H854.5a3.2,3.2,0,0,1,2.13,3.25v67.75a10,10,0,0,0,10,10h21a10,10,0,0,0,10-10V44.88c0-24.78-17.14-42.75-40.75-42.75H756.13a10,10,0,0,0-10,10V43.35C739.33,16.17,717.7,0,686.33,0Zm0,89.45c-16.1,0-18.5-15.77-18.5-25.16,0-8.36,1.81-15.06,5.24-19.37,3.1-3.9,7.44-5.79,13.26-5.79s10.15,1.89,13.25,5.79c3.43,4.31,5.24,11,5.24,19.37,0,9.39-2.4,25.16-18.49,25.16ZM618,2.13H574a11.69,11.69,0,0,0-1.32.08c-26,1.62-46.39,28.26-46.39,60.92,0,15.91,4.84,30.95,13.64,42.36,9.27,12,21.78,18.64,35.24,18.64h44a10,10,0,0,0,10-10v-21a10,10,0,0,0-10-10H582.58c-7.54,0-13.91-9.16-13.91-20s6.37-20,13.91-20H618a10,10,0,0,0,10-10v-21a10,10,0,0,0-10-10Zm-144.19,0h-44a11.69,11.69,0,0,0-1.32.08c-21.8,1.36-39.59,20.23-44.82,45.49V44.88c0-24.78-17.14-42.75-40.75-42.75H242.13a10,10,0,0,0-10,10v102a10,10,0,0,0,10,10h21a10,10,0,0,0,10-10v-71h14.25v71a10,10,0,0,0,10,10h21a10,10,0,0,0,10-10v-71H340.5a3.2,3.2,0,0,1,2.13,3.25v67.75a10,10,0,0,0,10,10h21a10,10,0,0,0,10-10V78.56a66,66,0,0,0,12.07,26.93c9.27,12,21.78,18.64,35.24,18.64h44a9.92,9.92,0,0,0,5.86-1.91,26.1,26.1,0,0,0,22.05,12,25.5,25.5,0,1,0,0-51,26.11,26.11,0,0,0-18.23,7.36A10,10,0,0,0,478.93,84a10,10,0,0,0,6-9.17v-18a10,10,0,0,0-10-10H430.5a11.22,11.22,0,0,1,7.9-3.66h35.37a10,10,0,0,0,10-10v-21a10,10,0,0,0-10-10Zm-285.89,0H132.13a10,10,0,0,0-10,10v21a10,10,0,0,0,10,10H185.5a2.88,2.88,0,0,1,1.93,2h-37c-15.74,0-29,12.26-33.06,28.91V12.13a10,10,0,0,0-10-10H51.94c-14.16,0-27.38,6.54-37.23,18.41C5.22,32,0,47.11,0,63.13s5.22,31.13,14.71,42.58c8.56,10.32,19.66,16.61,31.72,18.08H20.13a10,10,0,0,0-10,10v18a10,10,0,0,0,10,10H71.88c28.91,0,45.5-17,45.5-46.66V95.21c4,16.65,17.32,28.92,33.06,28.92h68.19a10,10,0,0,0,10-10V44.88c0-24.78-17.14-42.75-40.75-42.75ZM60.1,84.92c-7.73,0-14.27-9.93-14.27-21.67S52.37,41.58,60.1,41.58H74.38V84.92Zm100.15,1.46c-.32,0-1.25-.84-1.25-2.44s.93-2.44,1.25-2.44h27.38v4.88H160.25Z"/><path class="cls-1" d="M536.59,84.21c-6-6.71-20.57-3.55-32.84,7a17.5,17.5,0,1,1-18.87,17.45,17.08,17.08,0,0,1,3.48-10.32c-3.26,1.33-6.06,4.57-7.9,8.94-10.52,10.84-14.82,23.45-9.56,29.29,2.86,3.18,8,3.76,14,2.12a9.92,9.92,0,0,0,6.78,2.92c5.66,0,10.51-5.59,12.56-13.55,6.52-1.07,14.15-4.9,21-11C537.72,105.79,542.8,91.11,536.59,84.21Z"/></g></g></svg>