<svg xmlns="http://www.w3.org/2000/svg" viewBox="0 0 30.38 34.66"><defs><style>.cls-1{fill:#27b04c;fill-rule:evenodd}</style></defs><g id="Layer_2" data-name="Layer 2"><g id="Layer_1-2" data-name="Layer 1"><path d="M7.7 21.85l6.79 3.92v-7.84L7.7 14v7.85z" class="cls-1"/><path d="M4.78 23.53l9.71 5.61v5.52L0 26.29V9.56l4.78 2.75v11.22zM15.19 8.88L8.4 12.8l6.79 3.92 6.79-3.92-6.79-3.92z" class="cls-1"/><path d="M15.19 5.51l8.17 4.73 4.78-2.76L15.19 0 .71 8.36l4.77 2.76 9.71-5.61zM25.6 23.53v-5.7l-2.92 1.69v2.33l-6.8 3.92v.01-7.85l14.5-8.37v16.73l-14.5 8.37v-5.51l9.72-5.62z" class="cls-1"/></g></g></svg>