<svg xmlns="http://www.w3.org/2000/svg" viewBox="0 0 1077.5 130.6"><defs><style>.cls-1{fill:#22b14c}</style></defs><g id="Layer_2" data-name="Layer 2"><g id="Layer_2-2" data-name="Layer 2"><path d="M93.1 52.2H50.5v26h41.3a31.7 31.7 0 1 1-2.6-33L112 22.4a63.8 63.8 0 1 0 14.2 29.8zM183.8.1h-4.6a39.8 39.8 0 0 0-39.7 39.7v86.6h30.7V88.7h22.6v37.7h30.7V39.8A39.8 39.8 0 0 0 183.8 0zm9 64.2h-22.6V41a10.7 10.7 0 0 1 10.7-10.7h1.2A10.7 10.7 0 0 1 192.8 41zM675 .1h-4.6a39.8 39.8 0 0 0-39.6 39.7v86.6h30.6V88.7h22.7v37.7h30.7V39.8A39.8 39.8 0 0 0 675 0zm9 64.2h-22.6V41a10.7 10.7 0 0 1 10.7-10.7h1.3A10.7 10.7 0 0 1 684 41zM336.2.1h-2.6a31.9 31.9 0 0 0-31.9 31.8A31.9 31.9 0 0 0 270 .1h-2.6a31.9 31.9 0 0 0-31.8 31.8v94.5H267V39.1a8.9 8.9 0 0 1 17.8 0v87.3h34V39.1a8.9 8.9 0 0 1 17.7 0v87.3H368V32A31.9 31.9 0 0 0 336.2.1zM588.2.1h-2.6a31.9 31.9 0 0 0-31.8 31.8A31.9 31.9 0 0 0 521.9.1h-2.6a31.9 31.9 0 0 0-31.8 31.8v94.5H519V39.1a8.9 8.9 0 0 1 17.8 0v87.3h34V39.1a8.9 8.9 0 0 1 17.7 0v87.3H620V32A31.9 31.9 0 0 0 588.2.1zM390.3.1h-12.7v98.3a28 28 0 0 0 28 28H446v-28h-27a8 8 0 0 1-8-8V77h35V53.2h-35v-24h35V0h-55.8zM941 98.4a8 8 0 0 1-8-8V77h35V53h-35l-.1-24h35L967.7 0l-35 .1h-33.4l.4 98.4a28 28 0 0 0 28 28l40.4-.2v-28zM821.6 29.2h17.8v97.2h32.3V29.2h17.9V.1h-68v29.1zM759.3 30.2l-9.1 48.9c-2.2 11.6-10.5 16.8-21 16.8H725v30.6h8.5c23.5 0 40.8-10.6 45.8-36.4 3.9-19.9 5.3-28 8-42.8 2.6-13.8 11.2-18.1 18.2-18.1h7.8V0h-10.8c-26 0-40.8 18.2-43.2 30.1zM1077.5 45.7c0-25.3-22.3-45.7-49.7-45.7S978 20.4 978 45.7v80.7h30.9V64.1h.4c3.5 15 5.8 26.6 9.5 31l30.3 35.5 23.5-20-21.2-24.8a45.2 45.2 0 0 0 26-40.1zm-49.7-18.5a18.4 18.4 0 1 1-18.4 18.5 18.4 18.4 0 0 1 18.4-18.5z" class="cls-1"/></g></g></svg>