<?xml version="1.0" encoding="utf-8"?>
<!-- Generator: Adobe Illustrator 22.0.1, SVG Export Plug-In . SVG Version: 6.00 Build 0)  -->
<svg version="1.1" id="Layer_1" xmlns="http://www.w3.org/2000/svg" xmlns:xlink="http://www.w3.org/1999/xlink" x="0px" y="0px"
	 viewBox="0 0 577 236" style="enable-background:new 0 0 577 236;" xml:space="preserve">
<style type="text/css">
	.st0{fill:#22B14C;}
</style>
<path class="st0" d="M206,180c0,0-10,16-30,14c-25-2-28-24-28-24s-3-16,12-29s31-11,31-11s11,1,16,18C214,171,206,180,206,180z
	 M243,135c-3-9-11-18-11-18s-13-16-36-21c-21-5-37,4-37,4s-15,6-26,18c-17,17-22,42-22,42s-7,21,4,38l11,14c17,14,34,15,34,15
	s14,3,30-1c15-3,25-10,25-10s24-13,30-40L243,135"/>
<path class="st0" d="M408,184c-26,16-43-1-43-1s-7-5-8-20c-2-17,15-25,15-25s9-6,20-5c12,1,15,0,24,7s8,13,8,13S427,172,408,184z
	 M453,130c-16-27-45-31-45-31s-9-3-29,0c-36,7-49,35-49,35s-13,21-8,46l16,32c12,11,17,11,17,11c16,7,34,3,34,3s23-2,44-18
	c17-13,24-31,24-31L453,130"/>
<path class="st0" d="M492,136l-1-24c0,0,17-1,24,1c14,2,13,6,13,6s0,5-11,9C505,134,492,136,492,136z M457,177c0,0,1,15-2,19
	c-3,7-2,13-2,13s-3,20,21,24c16,0,18-14,18-19l1-26l20,17c12,9.7,24,19.4,36,29c0,0,2,2,9,1c5,1,11-5,11-5s6-4,8-13c2-10-6-15-6-15
	l-48-39c13-7,19-12,19-12s18-12,22-31c6-20-10-28-10-28l-17-11c-21-10-40-8-40-8s-27-2-44,20c-8,11-3,24-3,24l3,13
	C457,151,457,177,457,177"/>
<path class="st0" d="M322,180c-8-2-20,1-20,1l-21,7c-1-2-3-30-2-42c0-20-2-36-2-36s0-20-11-31c-12-13-21-8-26-5c-11,11-6,24-6,24
	l6,17c0,0,3,8,3,20l2,41l5,43c0,0,0,12,12,14s23-4,28-7l12-4l11-2c12-1,17-3,17-3s5-1,8-5C341,207,345,185,322,180"/>
<path class="st0" d="M115,198c-9-2-18-1-18-1s-27,3-41,0c-22-4-21-27-21-27s-1-16,12-37c16-26,34-31,34-31s5-1,9,1c2,15,17,15,17,15
	s21,1,20-24c-2-21-22-24-31-26c-25-4-42,9-42,9s-17,9-37,41C3,138,1,154,1,154l-1,20c0,13,5,23,5,23s7,22,30,31c14,6,35,6,35,6l35-1
	c9,0,13-4,13-4s9-6,8-17C126,212,124,201,115,198"/>
<path class="st0" d="M95,32l-3-12l-5,12H95z M176,61h-12l-2-37l-16,37h-8l-7-33l-11,33H99l-3-17H82l-8,17H61L88,2h15l8,48l16-48h12
	l6,32l14-32h14L176,61 M211,61l2-12h-21l1-11h19l2-13h-19l2-11h21l2-12h-34l-9,59H211 M371,2h-15l-12,19l-8-19h-14l15,31l-5,28h13
	l3-25L371,2"/>
<path class="st0" d="M298,50c6,3,14-3,17-13c4-10,1-20-5-23c-7-3-15,3-18,13S291,47,298,50z M279,26c4-16,18-27,32-24
	c13,3,21,19,17,36c-3,16-18,27-31,24C283,59,275,43,279,26 M35,7c-12,7-17,18-16,33c2,18,25,29,44,18l1-2l4-24H45l-1,11h9l-1,6
	c-5,2-15,1-19-6c-2-4-4-14,6-23c9-8,24-9,32-5l2-12C57-3,44,2,35,7"/>
<path class="st0" d="M239,2l-9,59h27c12,0,28-16,13-30c16-16,0-29-8-29H239z M246,38h10c10,0,10,12-1,12h-11L246,38z M250,15h8
	c8,0,7,11-2,11h-8L250,15"/>
</svg>
