<svg xmlns="http://www.w3.org/2000/svg" viewBox="0 0 210.1 73.7"><defs><style>.cls-1{fill:#22b14c}</style></defs><g id="Layer_2" data-name="Layer 2"><g id="Layer_1-2" data-name="Layer 1"><path d="M138 27h-5.6l-1.1 6.6h6c6 0 6.2-6.7.8-6.6zM46.7 17.1l-2.9 6.5H48l-1.3-6.5zM138.8 13.9h-4.4l-1.1 6.2h4.8c4.7 0 5.6-6.2.7-6.2zM57.4 49h-8.8v12.5h6.2c7 0 9.6-1.6 9.6-6.6 0-4-2.3-6-7-6z" class="cls-1"/><path d="M194.2 27.1l16-26.1h-44.3a18.6 18.6 0 0 0-10.1 3 23.3 23.3 0 0 0-3.5 2.7c-3-3.6-6.1-5.8-11.2-5.8H61.6L59 8.8 57.7 1H40.3l-.6 1.4-1.7-.6a29.4 29.4 0 0 0-26.2 3A23.9 23.9 0 0 0 .2 29a19.4 19.4 0 0 0 10.6 15.1 22.6 22.6 0 0 0 5.7 2L0 73.7l55.9-.6c8.9 0 14.3-2.7 17.3-6l3.7 6H132v-7.7l9.9 7.7h68V37.8h-17zM183 6.8l4.2 10.9 6.8-10.9h8l-12.3 19.4-2.1 14h-7l2.6-15.8L175 6.7zm-83.7 0H118l-1.1 7.2h-12l-.9 5.9h10.5l-1.1 7.2h-10.4l-1 5.9h12l-1.1 7.2H93.9zM6 28.3c-.8-8.4 2.3-14.6 8.8-18.6A24 24 0 0 1 36 7.3l-1.1 6.8A18.4 18.4 0 0 0 17 16.8c-5.9 5.1-4.6 10.7-3.2 13.2 2.2 4 7.4 4.4 10.4 3.1l.6-3.3h-5.3l1-6.2h12.7l-1.9 12.1 12.8-29h8.4l4.5 27 8.8-27h6.8L75.9 25l7.8-18.3h8.2l1.3 33.5h-6.8l-1-20.6-8.8 20.6H72l-3.8-18.6-5.9 18.6H50.7l-1.7-10h-7.9l-4.5 10h-7.2l1-2.3a.3.3 0 0 0-.2.1C19.5 44.1 7 38 6 28.3zm78.6 38.6H80l-.2-.3-9.2-15.2a13.8 13.8 0 0 1 .5 3.7C71.2 63 66 67 55.9 67H36.6l-.2-.3-9.5-16.9-6.7 12.1h6.7V67H10.4l.6-1 13-22 .3-.3h5.9l.2.3 11.5 19V43.6h15.5c4.7 0 8.3 1.2 10.7 3.5l-1.5-2.4-.6-1h7.7l.2.3 8.7 15 8-15 .3-.4H98l-.6 1-12.7 22zm63.7.1h-4.6l-.2-.2L126 53V67h-11.4l-.2-.4-9.5-16.9-6.7 12.1h6.7V67H88.3l.6-1.1L102 44l.2-.4h5.9l.2.4 11.5 19V43.6h4.6l.2.2 17.5 13.7V43.6h6.2zm-9.6-27h-15.4l5.3-33h-.1s9-.2 12.8 0c4.6 0 13.2 7 4.6 16 8.4 7.7-.9 17-7.2 17zm38.2 12.3H170v-3.2H157v12.3h13.1v-3.6h6.8v3.3c0 4.4-1.6 6-6.4 6h-13.7c-4.8 0-6.4-1.6-6.4-6V49.5c0-4.4 1.6-5.9 6.4-5.9h13.7c4.8 0 6.4 1.4 6.4 6zm1.5-25.4c-2.1 9.2-10 15.3-17.6 13.5s-12-10.7-10-19.9 10-15.2 17.7-13.5 12 10.7 9.9 19.9zM204 43.6V49h-18.2v3.4h10.7v5.1h-10.7v4.1h18.5V67h-25.2V43.6z" class="cls-1"/><path d="M167.9 13.6c-3.6-1.6-8.1 1.6-10 7.1s-.3 11.4 3.3 13 8-1.6 9.9-7.1.5-11.3-3.2-13z" class="cls-1"/></g></g></svg>