<svg xmlns="http://www.w3.org/2000/svg" viewBox="0 0 95.7 95.7"><defs><style>.cls-1{fill:#22b14c}</style></defs><g id="Layer_2" data-name="Layer 2"><g id="svg2"><path d="M47.8 0a47.8 47.8 0 1 0 47.9 47.8A47.8 47.8 0 0 0 47.8 0zm0 87.1a39.3 39.3 0 1 1 39.5-39.3 39.4 39.4 0 0 1-39.5 39.3z" class="cls-1"/><path id="path3797" d="M47.8 12.6c-19.7 0-35.7 15.8-35.7 35.2S28.1 83 47.8 83a35.5 35.5 0 0 0 35.8-34.4H52v9h12.1a19.3 19.3 0 1 1-16.6-29 19.5 19.5 0 0 1 17.8 11.3h17.3a35.6 35.6 0 0 0-34.8-27.3z" class="cls-1"/></g></g></svg>