<svg xmlns="http://www.w3.org/2000/svg" viewBox="0 0 513.1 104.2"><defs><style>.cls-1{fill:#22b14c}</style></defs><g id="Layer_2" data-name="Layer 2"><g id="Layer_1-2" data-name="Layer 1"><path d="M185.6 23.3h7.7c1 0 1.9-.5 1.9-1.5s-.9-1.5-1.9-1.5h-7.7M166 .3c-1 0-1.9.5-1.9 1.4v7c0 1-.5 1.9-1.4 1.9h-2c-1 0-1.9.5-1.9 1.5l-.1 9.6c0 1 .8 1.5 1.9 1.5h15c1 0 1.8-.5 1.8-1.5s-.8-1.5-1.9-1.5h-11.7c-1 0-1.9-.5-1.9-1.5l.1-3.6c0-1 .9-1.5 1.9-1.5h11.6c1 0 1.9-.5 1.9-1.5s-.8-1.5-1.9-1.5H173c-1 0-1.9-.5-1.9-1.5l.1-4.4c0-1 .8-1.5 1.9-1.5h2.4c1 0 1.9-.5 1.9-1.5s-.8-1.4-1.8-1.4zM307.4 13.4c-1 0-1.8-.5-1.8-1.5l-.1-10.2c0-1 .8-1.5 1.8-1.5l11-.1c1 0 1.9.5 1.9 1.5s-.9 1.5-1.9 1.5h-7.7c-1 0-1.9.6-1.9 1.5L309 9c0 1 .8 1.5 1.8 1.5h9c1 0 1.8.5 1.8 1.4l-.1 10c0 1-.9 1.5-1.9 1.5H305c-1 0-1.9-.5-1.9-1.5s.9-1.5 1.9-1.5h7.7c1 0 1.8-.5 1.8-1.5l.1-3.7c0-1-.8-1.5-1.8-1.5zM128.8.3c-1 0-1.9.5-1.9 1.4v7c0 1-.5 1.9-1.5 1.9h-2c-1 0-1.8.5-1.8 1.5l-.1 9.6c0 1 .8 1.5 1.8 1.5h15c1 0 1.9-.5 1.9-1.5s-.9-1.5-1.9-1.5h-11.8c-1 0-1.8-.5-1.8-1.5V15c0-1 1-1.5 2-1.5h11.6c1 0 1.9-.5 1.9-1.5s-.9-1.5-1.9-1.5h-2.6c-1 0-1.8-.5-1.8-1.5l.1-4.3c0-1 .8-1.5 1.9-1.5h2.4c1 0 1.9-.5 1.9-1.5s-.8-1.5-1.9-1.5z" class="cls-1"/><path d="M180.6 21.7c0 1 .8 1.5 1.9 1.5l10.8.1c1 0 1.9-.5 1.9-1.5s-.9-1.5-1.9-1.5h-7.6c-1 0-1.9-.6-1.9-1.5L184 8c0-1 .8-1.5 1.9-1.5h7.6c1 0 1.8-.5 1.8-1.5V1.6c0-1-.8-1.5-1.8-1.5l-11-.1c-1 0-1.8.5-1.8 1.5zM287.6 21.7c0 1 .9 1.5 1.9 1.5l10.8.1c1 0 1.9-.5 1.9-1.5s-.8-1.5-1.9-1.5h-7.6c-1 0-1.8-.6-1.8-1.5L291 8c0-1 .8-1.5 1.9-1.5h7.6c1 0 1.8-.5 1.8-1.5V1.6c0-1-.8-1.5-1.8-1.5L289.6 0c-1 0-1.9.5-1.9 1.5zM252.3 1.5c0-1-.9-1.5-1.9-1.5h-12.6c-1 0-1.9.5-1.9 1.5v20.2c0 1 .7 1.5 1.8 1.5h12.8c1 0 1.9-.5 1.9-1.5zM247.6 17h-7c-1 0-1.8-.6-1.8-1.5V4.8c0-1 1-1.5 2-1.5h6.7c1 0 1.8.5 1.8 1.5l.1 10.7c0 1-.8 1.5-1.8 1.5zM272.6 1.6c0-1-.9-1.6-1.9-1.6h-12.9c-1 0-1.8.6-1.8 1.6v19.7c0 1 .5 1.9 1.5 1.9s1.5-.8 1.5-1.9V8.2c0-1 .8-1.6 1.9-1.6h6.7c1 0 1.9.6 1.9 1.6v13.1c0 1 .6 1.9 1.5 1.9s1.6-.9 1.6-1.9V1.6zM205.7 8.1c0-1 .8-1.5 1.8-1.5h2.3c1 0 1.9-.5 1.9-1.5V1.6c0-1-.8-1.5-1.9-1.5h-11.2c-1 0-1.9.5-1.9 1.5v3.6c0 1 .8 1.5 1.9 1.5h2.3c1 0 1.8.5 1.8 1.4v13.4c0 1 .5 1.8 1.4 1.8s1.6-.8 1.6-1.8zM282 15.2V2c0-1-.6-1.9-1.5-1.9S279 1 279 2l.1 13.3c0 1-.7 1.5-1.7 1.5h-.7c-1 0-2 .5-2 1.5v3.5c0 1 1 1.6 2 1.6h6c1 0 2-.6 2-1.6v-3.5c0-2.5-2.7-.5-2.7-3zM75.1.1c1 0 1.9.6 1.9 1.5v3.6c0 1-.8 1.5-1.9 1.5h-2.3c-1 0-1.9.5-1.9 1.4l.1 13.3c0 1-.5 2-1.5 2s-1.5-1-1.5-2V8.1c0-1-.8-1.5-1.9-1.5h-6.3c-1 0-1.9.5-1.9 1.5v13.3c0 1-.5 2-1.5 2s-1.5-1-1.5-2L55 8.1c0-1-.8-1.5-1.9-1.5h-2.3c-1 0-1.8-.5-1.8-1.5V1.6c0-1 .8-1.5 1.8-1.5zM143.6 21.8c0 1 .9 1.5 1.9 1.5h9.1c1 0 1.9-.6 1.9-1.6V18c0-1-.8-1.5-1.9-1.5h-5.9c-1 0-1.8-.5-1.8-1.5V2c0-1-.6-2-1.5-2s-1.6 1-1.6 2zM84 .3c-1 0-2 .5-2 1.4v7c0 1-.4 1.9-1.4 1.9h-2c-1 0-1.9.5-1.9 1.5l-.1 9.6c0 1 .8 1.5 1.9 1.5h15c1 0 1.8-.5 1.8-1.5s-.8-1.5-1.8-1.5H81.7c-1 0-1.9-.5-1.9-1.5l.2-3.5c0-1 .8-1.5 1.9-1.5h11.6c1 0 1.9-.5 1.9-1.5s-.9-1.5-1.9-1.5H91c-1 0-1.8-.5-1.8-1.5V4.8c0-1 1-1.5 2-1.5h2.4c1 0 1.9-.5 1.9-1.5s-.9-1.5-2-1.5zM98.8 21.8c0 1 .8 1.5 1.8 1.5h9.2c1 0 1.8-.6 1.8-1.6V18c0-1-.8-1.5-1.8-1.5h-6c-1 0-1.8-.5-1.8-1.5V2c0-1-.5-1.9-1.5-1.9S99 .8 99 1.9zM232.4 13c0-2.3-3.3-2.2-3.3-3.5v-8c0-1-.8-1.4-1.8-1.4h-11.7c-1 0-1.9.5-1.9 1.4v18.8c0 .7-.3 1.5.1 2.1a2.3 2.3 0 0 0 2.2 1c1.8 0 3.5.5 4.4-1.5l.2-6.6c0-1 .8-1.5 1.9-1.5h5c1 0 1.8.5 1.8 1.5v6.2c0 1 .6 1.8 1.6 1.8s1.5-.8 1.5-1.8V13zm-8.3-2.3h-5.3c-1 0-1.9-.6-1.9-1.5l.1-4.4c0-1 .8-1.4 1.9-1.4h5.1c1 0 1.9.5 1.9 1.4l.1 4.4c0 1-.9 1.5-1.9 1.5zM44.5 0h-10a1.8 1.8 0 0 0-1.8 1.5l-6.6 16.8c-.1.3-1.4.6-1.4-.1V2c0-1-.4-2-1.4-2h-3.5c-1 0-1.3.6-2 1.8l-4.4 10.7c-.3.5-1 .7-1.1 0l-2-11.1c0-1-.9-1.5-1.9-1.5H2C.9 0 0 .6 0 1.6v19.7c0 1 .5 1.9 1.5 1.9S3 22.4 3 21.3V8.2c0-1 .8-1.6 1.9-1.6H6c1 0 1.9.6 1.9 1.6l1.2 7c0 1 .6 1.8 1.5 1.8H14c1 0 1.5-.7 2-1.8L20 6c.3-.7 1.2-.6 1.2.1v15.4c0 1 .5 1.9 1.5 1.9h3.8c1 0 1.1-.8 1.8-1.9l2.8-6.2c.5-.9 1-1.5 1.8-1.5h4.7c1 0 1.9.5 1.9 1.5l.2 6.6c0 1.8 2.6 1.5 4.4 1.5.8 0 2.2-.5 2.2-1.5V1.5c0-.9-.8-1.4-1.8-1.4zm-3.2 10.7h-6.1c-2.1 0-1.8-1.5-1.7-2l1.7-3.9c.5-.8.8-1.4 1.9-1.4h4c1 0 2 .5 2 1.4v4.4c0 1-.8 1.5-1.8 1.5zM196.7 45.6H215v44.2a5 5 0 0 0 5 5h8v8.3h-17.3a14 14 0 0 1-14.2-14.4V45.6zM163.9 45.6h18.7v44.2a4.9 4.9 0 0 0 5 5h7.7v8.3H178a14 14 0 0 1-14.3-14.4l.2-43.1zM231.1 103.3l.1-44.4h18.4v44.3zM0 103.3L.1 33h18.4v70.3zM231.1 55.3l.1-9.8h18.4v9.8zM309.8 103.3l.1-44.4h18.4v44.3zM309.8 55.3l.1-9.8h18.4v9.8zM380.6 103.3l.2-44.4H399v44.3zM380.6 55.3l.2-9.8H399v9.8zM138.4 58.8a5 5 0 0 1 5-5H160v-8.3h-27.8c-7.7 0-12.3 5.8-12.3 14.4v28.3c0 8.6 4.6 14.7 12.3 14.7H160v-8.3h-16.6a5.1 5.1 0 0 1-5-5.3v-11h19V70h-19zM107.1 52.9h8.9v-7.3H104a1.6 1.6 0 0 1-1.6-1.6V32.6l-30 19.2v-6h-9.6V72c0 .7-1.3 2-2.4.3 0 0-12.7-18.2-17.3-23.8-3.8-4.5-17.2-4.3-17.2 6.5v47.3h9.6V69c0-1.9 1.6-1.2 2.6 0 .5.5 21 31.7 21.9 33 2 2.8 12.4 4.8 12.4-5.8V53.8h9.3a4.5 4.5 0 0 1 2.2 1l-.1 33.9c0 8.6 7.1 14.4 14.8 14.4H116v-8.3h-8a5 5 0 0 1-5-5V57.1A4.3 4.3 0 0 1 107 53zM513 45.7h-9.5v26.4c0 .7-1.2 2-2.3.3 0 0-12.7-18.2-17.3-23.8-3.9-4.5-17.2-4.3-17.3 6.5v47.3h9.6V69c0-1.9 1.6-1.2 2.6 0 .5.5 21 31.7 21.9 33 2 2.8 12.4 4.8 12.4-5.8V45.7zM302.2 28.6l-14.3 55c-.5 1.7-2 2.2-2.9.4-1-2-11.5-38.4-11.5-38.4H254s14.4 47.4 15.1 48.8c6.8 14.7 22 8.8 25-2a5453 5453 0 0 0 17-63.9zM433.4 45C416.6 45 403 58.1 403 74.3s13.6 29.4 30.4 29.4 30.3-13.2 30.3-29.4S450.1 45 433.4 45zm0 51.9c-7.5 0-10.3-10-10.3-22.5s1.7-22.5 10.3-22.5c7.3 0 10.3 10 10.3 22.5s-3.5 22.4-10.3 22.4zM352.3 80.8c4.2.4 8.3 3.4 8.3 7.6a6.2 6.2 0 0 1-6 6h-19.9v8.4h22A19.9 19.9 0 0 0 377 83c0-14-7.4-15.7-20.2-19 0 0-5.7-1.9-5.7-5.3s3.2-5.1 6.3-5.1h13.5v-8.3h-18.5a19 19 0 0 0-19.7 19.3c0 11.6 12.8 15.3 19.6 16z" class="cls-1"/></g></g></svg>