<svg xmlns="http://www.w3.org/2000/svg" viewBox="0 0 595.4 363.3"><g data-name="Layer 2"><path fill="none" stroke="#22b14c" stroke-miterlimit="10" stroke-width="5" d="M528 84.9l-29.6-10.5-194.1-69L239 189l-12.2 34.3a103.3 103.3 0 0 0 62.6 131.5c53.4 19 112.6-9.2 131.6-62.6l12.1-34.2 29.7 10.5a97.8 97.8 0 0 0 124.5-59.2 97.8 97.8 0 0 0-59.2-124.5zm25 102a61.6 61.6 0 0 1-78.7 36.6l-80.8-29.3-29.3 80.6a59.7 59.7 0 0 1-76.3 35.5 59.7 59.7 0 0 1-35.5-76.2l29.3-80.6 42-115.4 111.8 40.6 80.8 29.4A61.6 61.6 0 0 1 553 187z"/><path fill="#22b14c" d="M364.3 152.2A103.3 103.3 0 0 0 234.5 86l-34.6 11.2-9.7-30A97.8 97.8 0 0 0 67.4 4.7 97.8 97.8 0 0 0 4.6 127.7l9.8 30 63.7 195.9 153.5-50a103.5 103.5 0 0 1-10.7-49.8l-51.5 17-37.4 12.5-21.5 7-11-33.4-11-33.2L52.2 114a60.3 60.3 0 0 1 38.2-76 60.3 60.3 0 0 1 76 38.2l18.6 56.5 57.4-19a63.3 63.3 0 0 1 79.8 40.1 63.3 63.3 0 0 1-40.1 79.8l-32.5 10.7a59.8 59.8 0 0 0 13.6 49h.3l34.5-11.2c53.9-17.5 83.7-76 66.2-129.8z"/></g></svg>