<svg xmlns="http://www.w3.org/2000/svg" viewBox="0 0 321.6 44"><defs><style>.cls-1{fill:#22b14c}.cls-2{fill:none;stroke:#22b14c;stroke-width:2px}</style></defs><g id="Layer_2" data-name="Layer 2"><g id="svg4913"><path id="rect5539" d="M.1 1.5H24v28.7H.1z" class="cls-1"/><path id="rect5541" d="M0 33.6h60.4v9H0z" class="cls-1"/><path id="path5543" d="M38.6 1.5h27.7l19.4 15.9-15.1 10.2z" class="cls-1"/><path id="path5545" d="M73.8 30L118 1.4h20.8L96 29.4v13.2H74z" class="cls-1"/><path id="path5547" d="M144.8 1.3L206 43h13.2V1.2h-12V30l-43-28.7z" class="cls-1"/><path id="path5549" d="M141.8 5.5l23.6 15v22.1h-23.7z" class="cls-1"/><path id="path5551" d="M225.6 1.1L269 22.7l7.8-3.5 13 6.1h18.6L261.4 1z" class="cls-2"/><path id="path5553" d="M280.5 8l11.7 4.7L321.6 2h-30.7z" class="cls-1"/><path id="path5551-7" d="M319.5 43.9l-43.4-21.6-7.8 3.5-13-6.1h-18.6l47 24.3z" class="cls-1"/><path id="path5553-8" d="M264.4 37.5l-11.5-5.4-29.4 10.8h30.6z" class="cls-2"/></g></g></svg>