<svg xmlns="http://www.w3.org/2000/svg" viewBox="0 0 210.1 37"><defs><style>.cls-1{fill:#22b14c}</style></defs><g id="Layer_2" data-name="Layer 2"><g id="svg6688"><g id="layer1"><g id="g6708"><g id="flowRoot6696"><path id="path6717" d="M34.3 28.3H22.1V27l1.7-.1a4 4 0 0 0 1.4-.4 2.4 2.4 0 0 0 1-.8 2.3 2.3 0 0 0 .2-1.2V4.3h-.3l-9.4 23.6h-1l-9-24.1h-.3v16.5a16.7 16.7 0 0 0 .3 3.7 3.3 3.3 0 0 0 1 1.8 4.4 4.4 0 0 0 1.7.8 10.2 10.2 0 0 0 1.8.4v1.4H0V27a14.7 14.7 0 0 0 1.9-.3 3.6 3.6 0 0 0 1.4-.7 2.9 2.9 0 0 0 1-1.7 19.6 19.6 0 0 0 .2-3.8V6.4a6 6 0 0 0-.3-2A3.1 3.1 0 0 0 3.4 3a3.8 3.8 0 0 0-1.5-.8A8.1 8.1 0 0 0 .2 2V.6h9.4l8 20.8L24.3 4a18.7 18.7 0 0 0 .7-2 8.5 8.5 0 0 0 .3-1.4h9V2a9 9 0 0 0-1.4.2 8.6 8.6 0 0 0-1.3.3 1.5 1.5 0 0 0-.9.8 3.1 3.1 0 0 0-.2 1.1v20a2.7 2.7 0 0 0 .2 1.2 2 2 0 0 0 1 .8 4.5 4.5 0 0 0 1.2.4 9.8 9.8 0 0 0 1.4.2z" class="cls-1"/><path id="path6719" d="M51.7 28l-1.6.5a5.8 5.8 0 0 1-1.6.2A3.8 3.8 0 0 1 46 28a3.3 3.3 0 0 1-1.2-2h-.1a9.7 9.7 0 0 1-2.7 2 7.7 7.7 0 0 1-3.5.8 5 5 0 0 1-3.6-1.3 4.6 4.6 0 0 1-1.4-3.5 5.9 5.9 0 0 1 .3-2 5 5 0 0 1 2.2-2.6 12 12 0 0 1 1.5-.8l3.6-1.2a28 28 0 0 0 3.6-1.4v-1.9a7.9 7.9 0 0 0 0-1 4.1 4.1 0 0 0-.5-1.4 3.9 3.9 0 0 0-1.2-1.2 3.3 3.3 0 0 0-2-.6 4.6 4.6 0 0 0-1.6.3 3.2 3.2 0 0 0-1.1.7 5 5 0 0 0 .2 1.1 6.2 6.2 0 0 1 .2 1.4 1.7 1.7 0 0 1-.6 1.3 2.5 2.5 0 0 1-1.8.5 1.6 1.6 0 0 1-1.4-.6 2.7 2.7 0 0 1-.5-1.6 2.7 2.7 0 0 1 .7-1.7 6.2 6.2 0 0 1 1.6-1.5 8.8 8.8 0 0 1 2.1-1 8.1 8.1 0 0 1 2.5-.3 16 16 0 0 1 2.8.2 5.3 5.3 0 0 1 2.3 1 4.5 4.5 0 0 1 1.5 2 8.5 8.5 0 0 1 .5 3.2v5l-.1 4.7a2.4 2.4 0 0 0 .2 1.2 2.1 2.1 0 0 0 .8.8 2 2 0 0 0 1 .2h1.3zm-6.9-10.3l-2.9 1a13 13 0 0 0-2.3 1.1 5.3 5.3 0 0 0-1.5 1.6 4 4 0 0 0-.6 2.1 3 3 0 0 0 .9 2.4 3.1 3.1 0 0 0 2.1.8A4.4 4.4 0 0 0 43 26a7.2 7.2 0 0 0 1.8-1.6z" class="cls-1"/><path id="path6721" d="M62.1 19a5 5 0 0 1 1.3 1.5 5.2 5.2 0 0 1 .4 2.3 5.5 5.5 0 0 1-2 4.4 7.8 7.8 0 0 1-5.2 1.7 7.6 7.6 0 0 1-3-.7 8.5 8.5 0 0 1-2-1l-.5 1.2h-1.5l-.2-6.7h1.4a7.7 7.7 0 0 0 .7 1.8 8 8 0 0 0 1.2 1.8 6.5 6.5 0 0 0 1.8 1.5 4.9 4.9 0 0 0 2.4.5 4.4 4.4 0 0 0 3-.8 3 3 0 0 0 1-2.4 3 3 0 0 0-.4-1.5 3.1 3.1 0 0 0-1-1 7.5 7.5 0 0 0-1.5-.8l-2-.7a18.9 18.9 0 0 1-2-.8 8.3 8.3 0 0 1-2-1.1 5.3 5.3 0 0 1-1.4-1.7 4.7 4.7 0 0 1-.6-2.3 5.3 5.3 0 0 1 1.8-4 6.6 6.6 0 0 1 4.7-1.7 9.4 9.4 0 0 1 2.3.3 7.8 7.8 0 0 1 1.9.7l.5-1h1.4l.3 6.2h-1.4a6.3 6.3 0 0 0-1.8-3.4 4.6 4.6 0 0 0-3.3-1.3 3.7 3.7 0 0 0-2.5.8 2.5 2.5 0 0 0-.9 2 3.2 3.2 0 0 0 .3 1.4 2.7 2.7 0 0 0 1 1 7.5 7.5 0 0 0 1.4.8l2.2.8a17.6 17.6 0 0 1 2.4 1 7.6 7.6 0 0 1 1.9 1.1z" class="cls-1"/><path id="path6723" d="M74.4 27.5l-2.4.9a9.2 9.2 0 0 1-2.7.4 4.2 4.2 0 0 1-3.4-1.3 5.3 5.3 0 0 1-1-3.4V11h-3.5V9.2H65v-6h3.6v6H74V11h-5.5v10.8l.1 2a3.8 3.8 0 0 0 .5 1.4 2 2 0 0 0 .9.9 4 4 0 0 0 1.7.3l1.4-.1a5.7 5.7 0 0 0 1.3-.2z" class="cls-1"/><path id="path6725" d="M89.3 23.8a9.9 9.9 0 0 1-3.2 3.7 8.2 8.2 0 0 1-4.7 1.3 9.6 9.6 0 0 1-4-.8 8 8 0 0 1-3-2.2 9.7 9.7 0 0 1-1.6-3.3 13.9 13.9 0 0 1-.6-4 11.9 11.9 0 0 1 .6-3.7 10.4 10.4 0 0 1 1.8-3.2 8.6 8.6 0 0 1 2.7-2.3 8 8 0 0 1 3.7-.8 9 9 0 0 1 3.6.7 6.4 6.4 0 0 1 2.5 1.8 7 7 0 0 1 1.3 2.6 11.5 11.5 0 0 1 .5 3.2v1.3H76a15 15 0 0 0 .4 3.4 8.2 8.2 0 0 0 1.1 2.7 5.4 5.4 0 0 0 2 1.8 6.1 6.1 0 0 0 3 .7 5.4 5.4 0 0 0 3-.8A8 8 0 0 0 88 23zM85 16.5a16.5 16.5 0 0 0-.2-2.4 7.5 7.5 0 0 0-.6-2 3.9 3.9 0 0 0-1.2-1.5 3.3 3.3 0 0 0-2-.6 4.2 4.2 0 0 0-3.4 1.7 8 8 0 0 0-1.5 4.8z" class="cls-1"/><path id="path6727" d="M102.2 11.6a3.2 3.2 0 0 1-.5 1.7 1.7 1.7 0 0 1-1.5.8 2.3 2.3 0 0 1-1.7-.6 1.7 1.7 0 0 1-.5-1.2 3.9 3.9 0 0 1 0-.8l.1-.7a4.3 4.3 0 0 0-2.1.7 6.4 6.4 0 0 0-2.1 2.2v11.2a2.2 2.2 0 0 0 .3 1.1 1.6 1.6 0 0 0 .8.6 5.1 5.1 0 0 0 1.3.3l1.3.2v1.3H87.5V27l.9-.1a3.6 3.6 0 0 0 .8-.2 1.4 1.4 0 0 0 .8-.6 2.1 2.1 0 0 0 .3-1.1V13A2.7 2.7 0 0 0 90 12a2.3 2.3 0 0 0-.8-1 2.6 2.6 0 0 0-.9-.3 7.2 7.2 0 0 0-1-.1V9.3l6.3-.5.3.3v2.7h.1a8.7 8.7 0 0 1 2.7-2.4 5.8 5.8 0 0 1 2.7-.8 2.7 2.7 0 0 1 2 .8 3 3 0 0 1 .8 2.2z" class="cls-1"/><path id="path6729" d="M123 15.6a6.4 6.4 0 0 1 1.3 2.2 8 8 0 0 1 .4 2.7 7.7 7.7 0 0 1-2.7 6 9.8 9.8 0 0 1-6.7 2.4 12.5 12.5 0 0 1-3.7-.6 14 14 0 0 1-3.2-1.4l-.9 1.5H106l-.3-9.5h1.6a19.8 19.8 0 0 0 1.1 3.1 11 11 0 0 0 1.7 2.6 7.8 7.8 0 0 0 2.4 1.9 6.9 6.9 0 0 0 3.2.7 7.2 7.2 0 0 0 2.3-.4 4.2 4.2 0 0 0 1.6-1 4 4 0 0 0 1-1.5 6.2 6.2 0 0 0 .3-2 5.5 5.5 0 0 0-1-3 5.7 5.7 0 0 0-2.8-2.3 132 132 0 0 0-5.7-2.2 9.2 9.2 0 0 1-3.6-2.8 7.2 7.2 0 0 1-1.3-4.5 6.8 6.8 0 0 1 .6-3 7.6 7.6 0 0 1 1.8-2.4 8.2 8.2 0 0 1 2.7-1.5 9 9 0 0 1 3.2-.6 9.4 9.4 0 0 1 3.5.6A16.6 16.6 0 0 1 121 2l.8-1.3h1.6l.1 9.2H122l-1-3a10.4 10.4 0 0 0-1.4-2.7 6.3 6.3 0 0 0-2-1.8 6 6 0 0 0-3-.6 4.5 4.5 0 0 0-3.2 1.2 3.8 3.8 0 0 0-1.3 2.9 5 5 0 0 0 .9 3 6.1 6.1 0 0 0 2.4 2 29.5 29.5 0 0 0 2.8 1l2.7 1.2a20.9 20.9 0 0 1 2.2 1.1 8.3 8.3 0 0 1 1.9 1.4z" class="cls-1"/><path id="path6731" d="M122 34.6a2.3 2.3 0 0 1 .6-1.6 1.7 1.7 0 0 1 1.3-.6 2.2 2.2 0 0 1 1.1.3 2.8 2.8 0 0 1 .8.6 4.8 4.8 0 0 1 .6.8l.6.8a7.8 7.8 0 0 0 2.3-2.7 21.8 21.8 0 0 0 2-4l-3.4-8.2-3.1-7.6a2.8 2.8 0 0 0-1.3-1.4 5 5 0 0 0-1.8-.6V9h8.8v1.4a6.1 6.1 0 0 0-1.4.2c-.5.1-.8.3-.8.5a1.4 1.4 0 0 0 0 .4l.3.6a206.3 206.3 0 0 0 4.6 11.4l1.9-4.4q1-2.2 2-5.2l.5-1a3.2 3.2 0 0 0 .2-1.1c0-.4-.3-.7-.9-1a5.6 5.6 0 0 0-1.7-.6V9.1h7.2v1.2a4.9 4.9 0 0 0-1.6.7 3.4 3.4 0 0 0-1.4 1.6l-4.1 9.8-2.8 6.5a35 35 0 0 1-2.2 4.3 12.7 12.7 0 0 1-1.8 2.4 5.6 5.6 0 0 1-1.7 1.1 4.1 4.1 0 0 1-1.5.3 3.7 3.7 0 0 1-2.4-.7 2.1 2.1 0 0 1-.9-1.7z" class="cls-1"/><path id="path6733" d="M151.8 19a5 5 0 0 1 1.2 1.5 5.2 5.2 0 0 1 .4 2.3 5.5 5.5 0 0 1-2 4.4 7.8 7.8 0 0 1-5.2 1.7 7.6 7.6 0 0 1-3-.7 8.2 8.2 0 0 1-2-1l-.4 1.2h-1.5l-.2-6.7h1.3a7.7 7.7 0 0 0 .7 1.8 8.6 8.6 0 0 0 1.2 1.8 6.7 6.7 0 0 0 1.9 1.5 4.9 4.9 0 0 0 2.4.5 4.4 4.4 0 0 0 2.9-.8 3 3 0 0 0 1-2.4 2.9 2.9 0 0 0-.4-1.5 3 3 0 0 0-1-1 7.3 7.3 0 0 0-1.5-.8 28 28 0 0 0-2.1-.7 18.9 18.9 0 0 1-2-.7 8 8 0 0 1-2-1.1 5.4 5.4 0 0 1-1.4-1.7 4.8 4.8 0 0 1-.5-2.4 5.3 5.3 0 0 1 1.7-4 6.6 6.6 0 0 1 4.7-1.6 9.3 9.3 0 0 1 2.4.3 8 8 0 0 1 1.9.7l.4-1h1.4l.3 6.2h-1.3a6.3 6.3 0 0 0-1.8-3.4A4.6 4.6 0 0 0 146 10a3.7 3.7 0 0 0-2.5.8 2.5 2.5 0 0 0-1 2 3.2 3.2 0 0 0 .4 1.4 2.8 2.8 0 0 0 .9 1 7.5 7.5 0 0 0 1.4.7l2.2.8a18.2 18.2 0 0 1 2.5 1 7.5 7.5 0 0 1 1.9 1.2z" class="cls-1"/><path id="path6735" d="M164 27.5l-2.3.9a9.2 9.2 0 0 1-2.8.4 4.2 4.2 0 0 1-3.4-1.3 5.3 5.3 0 0 1-1-3.4V11H151V9.2h3.5v-6h3.6v6h5.5V11h-5.4v10.8a18.9 18.9 0 0 0 0 2 3.4 3.4 0 0 0 .5 1.4 2 2 0 0 0 .9.9 4 4 0 0 0 1.7.3l1.4-.1a5.8 5.8 0 0 0 1.4-.2z" class="cls-1"/><path id="path6737" d="M179 23.8a9.9 9.9 0 0 1-3.2 3.7 8.2 8.2 0 0 1-4.7 1.3 9.6 9.6 0 0 1-4.1-.8 8 8 0 0 1-2.9-2.2 9.4 9.4 0 0 1-1.7-3.3 13.9 13.9 0 0 1-.5-4 11.6 11.6 0 0 1 .6-3.7 10.4 10.4 0 0 1 1.7-3.2 8.7 8.7 0 0 1 2.8-2.2 8 8 0 0 1 3.7-.9 9 9 0 0 1 3.6.7 6.4 6.4 0 0 1 2.4 1.8 7 7 0 0 1 1.4 2.6 11.5 11.5 0 0 1 .4 3.2v1.3h-12.8a15.1 15.1 0 0 0 .4 3.4 8.2 8.2 0 0 0 1.1 2.7 5.4 5.4 0 0 0 2 1.8 6.1 6.1 0 0 0 3 .7 5.4 5.4 0 0 0 3-.8 8 8 0 0 0 2.4-2.9zm-4.3-7.3a16.5 16.5 0 0 0-.2-2.4 7.2 7.2 0 0 0-.6-2 3.9 3.9 0 0 0-1.2-1.5 3.3 3.3 0 0 0-2-.6 4.2 4.2 0 0 0-3.4 1.7 8 8 0 0 0-1.5 4.8z" class="cls-1"/><path id="path6739" d="M210 28.3h-9.3V27h.9a3.8 3.8 0 0 0 .8-.2 1.5 1.5 0 0 0 .8-.6 2.2 2.2 0 0 0 .3-1.1V15a4.7 4.7 0 0 0-1-3.1 2.9 2.9 0 0 0-2.3-1.1 5.6 5.6 0 0 0-1.8.3 5.8 5.8 0 0 0-1.5.8 5.3 5.3 0 0 0-1 1 9.1 9.1 0 0 0-.5.7V25a2.4 2.4 0 0 0 .2 1 1.6 1.6 0 0 0 .8.8 5 5 0 0 0 .8.2 6 6 0 0 0 1 .2v1.2H189V27h.9a3.5 3.5 0 0 0 .7-.2 1.4 1.4 0 0 0 .9-.6 2.1 2.1 0 0 0 .2-1.1V15a4.7 4.7 0 0 0-1-3.1 3 3 0 0 0-2.2-1.1 5.3 5.3 0 0 0-1.8.3 6 6 0 0 0-1.6.8 4.8 4.8 0 0 0-1 1l-.6.8v11a2.1 2.1 0 0 0 .3 1.1 1.8 1.8 0 0 0 .8.7 4 4 0 0 0 .9.3 6.5 6.5 0 0 0 1 .2v1.2H177V27h.9a3.6 3.6 0 0 0 .8-.1 1.4 1.4 0 0 0 .8-.7 2.1 2.1 0 0 0 .3-1.1V13a2.2 2.2 0 0 0-.3-1.1 2.5 2.5 0 0 0-.8-.9 3.4 3.4 0 0 0-.9-.4 5.2 5.2 0 0 0-1.1-.1V9.3l6.4-.5.3.3V12h.1l1.2-1.2a10.2 10.2 0 0 1 1.3-1 6.2 6.2 0 0 1 1.8-.8 7.5 7.5 0 0 1 2.2-.4 5.3 5.3 0 0 1 3.2 1 5.8 5.8 0 0 1 2 2.5l1.2-1.2a10.6 10.6 0 0 1 1.4-1.1 6.4 6.4 0 0 1 1.7-.8 7.5 7.5 0 0 1 2.3-.3 5 5 0 0 1 3.8 1.6 7.2 7.2 0 0 1 1.5 4.9v9.8a2.4 2.4 0 0 0 .2 1.1 1.5 1.5 0 0 0 .8.7 4.3 4.3 0 0 0 .9.2 8.3 8.3 0 0 0 1 .2z" class="cls-1"/></g></g></g></g></g></svg>