<svg xmlns="http://www.w3.org/2000/svg" viewBox="0 0 613.7 212"><g fill="#22b14c" data-name="Layer 2"><path fill-opacity=".9" d="M0 0v212h512V0zm434.4 182.3l-33-45.7-31.2 45.7h-48.5l55.2-78.8-24-35-100.3.1c-11 .1-10.5 17.3 0 17l42.3.7c17.9 0 43 18.6 42.4 47.6.3 33.6-30 49-44.7 48.2l-110.5.1-18.4-68.8-18.4 68.7h-34.9l-19.2-68.4-16.9 68.5-40.7-.2L72.5 28.9h36l18.8 66.8 19.4-66.8h34l31.8 112.7 77.6-.1c8.2 0 8.7-17-.6-17l-45.2-.5c-19.4.2-39.9-20.8-38.9-48.8.2-25.7 22.6-45.9 51.2-45.9H372l29.4 39.9 28.6-40.3 47.7.3-52.3 73.6 56.6 79.7z"/><path d="M520.8 212c-.8-25.9 6.3-48.3 27-65.2 7.5-6.2 15-12.6 22.3-19a17.5 17.5 0 0 0 5.9-19c-1.6-5.7-6-8.4-11.7-7a7.8 7.8 0 0 0-6.4 6.3c-.7 3.2-.8 6.5-1.1 9.7l-.2 3.1h-35.3a39 39 0 0 1 .7-15.9 46.7 46.7 0 0 1 40.5-35.3 47 47 0 0 1 41.8 16.1c4.6 5.1 7 11.3 8.4 18a58.4 58.4 0 0 1 .5 18 41 41 0 0 1-9.5 21.1 77.7 77.7 0 0 1-19.9 16.9 86 86 0 0 0-19.8 16l-1.6 1.6h49V212z"/></g></svg>