<svg xmlns="http://www.w3.org/2000/svg" viewBox="0 0 412.7 47.3"><defs><style>.cls-1{fill:#22b14c}</style></defs><g id="Layer_2" data-name="Layer 2"><g id="Layer_1-2" data-name="Layer 1"><path d="M56.7 35.2V.6H71V41a5.3 5.3 0 0 1-1.2 3.3 8 8 0 0 1-2.4 2.1 14.3 14.3 0 0 1-7.1.6 16.9 16.9 0 0 1-6.6-2.4L48 40.6c-2-1.4-4-3-6-4.6l-6.8-5.3L21.5 20q-6.6-5-7.8-6.9v33.4H0v-40a5.6 5.6 0 0 1 2-4.1A11.8 11.8 0 0 1 6.7 0h2l2.4.3a11.4 11.4 0 0 1 4.5 1.5zM80.3 20.5a6.5 6.5 0 0 1 1.8-2 9.4 9.4 0 0 1 2.7-1.3 10.6 10.6 0 0 1 3.3-.5 10.2 10.2 0 0 1 3.2.5 9.6 9.6 0 0 1 2.7 1.3 6.5 6.5 0 0 1 1.8 2 5 5 0 0 1 .6 2.5 4.8 4.8 0 0 1-.7 2.4 6.2 6.2 0 0 1-1.8 2 9.8 9.8 0 0 1-2.6 1.4 10 10 0 0 1-3.2.4 10.3 10.3 0 0 1-3.3-.4 9.6 9.6 0 0 1-2.7-1.4 6.2 6.2 0 0 1-1.8-2 4.8 4.8 0 0 1-.6-2.4 5 5 0 0 1 .6-2.5zM249.3 2.4a12.2 12.2 0 0 0-6-1.8H112.3a6.6 6.6 0 0 0-5.4 2.1 7.2 7.2 0 0 0-1.8 5v31.7q0 4.1 2.1 5.6a7 7 0 0 0 3.9 1.5h65.6q6 0 6-6V19.2h-48.3v9h34.6V37h-49.6V10.2h117.5l.9.3c.6.1 1 .4 1 .8v7.8H198v9h40.5v18.4h13.7V7.7a6 6 0 0 0-3-5.3zM285 28h34.7v9h-49.5V10.2h72V10h68V.6H263a6.6 6.6 0 0 0-5.4 2.1 7.2 7.2 0 0 0-1.8 5v31.7q0 4.1 2.1 5.6a7 7 0 0 0 3.9 1.5h65.6q6 0 6-6V19.2H285z" class="cls-1"/><path d="M356 36.4v-8.3h41.2v-9.6h-55.5v28h71V36.4H356z" class="cls-1"/></g></g></svg>