<svg xmlns="http://www.w3.org/2000/svg" viewBox="0 0 822.4 235.2"><defs><style>.cls-1,.cls-2{fill:#27b04c}.cls-2{stroke:#27b04c;stroke-miterlimit:10;stroke-width:3px}</style></defs><g id="Layer_2" data-name="Layer 2"><g id="Layer_2-2" data-name="Layer 2"><path d="M48.9 95.5v56.4L9.5 95.5H0V167h8v-59.9L48.9 167h7.9V95.5h-7.9zM104.5 103.4v-7.9H64.7V167h39.8v-7.9H72.6v-24.7H103v-7.9H72.6v-23.1h31.9zM307.7 103.4v-7.9h-39.8V167h39.8v-7.9h-31.8v-24.7h30.4v-7.9h-30.4v-23.1h31.8zM145.1 101.8a29.4 29.4 0 1 1-20.8 8.6 29.2 29.2 0 0 1 20.8-8.6m0-8a37.4 37.4 0 1 0 37.4 37.4 37.4 37.4 0 0 0-37.4-37.4zM347.5 101.8a29.4 29.4 0 1 1-20.8 8.6 29.2 29.2 0 0 1 20.8-8.6m0-8a37.4 37.4 0 1 0 37.3 37.4 37.4 37.4 0 0 0-37.3-37.4zM751.7 103.4v-7.9h-39.8V167h39.8v-7.9h-31.8v-24.7h30.4v-7.9h-30.4v-23.1h31.8zM513.1 101.8a29.4 29.4 0 1 1-20.8 8.6 29.2 29.2 0 0 1 20.8-8.6m0-8a37.4 37.4 0 1 0 37.4 37.4A37.4 37.4 0 0 0 513 93.8zM259.5 133h-45.8v7.9h39.8a29.4 29.4 0 1 1-3.8-26.6h9.3a37.4 37.4 0 1 0 4 18.6zM822.4 95.5h-57.9v7.9h25V167h7.9v-63.6h25v-7.9zM698.7 95.5h-10.3l-40 41.5V95.5h-8V167h8v-19.2l10.7-11.2 29.3 30.4h10.3l-34.4-35.8 34.4-35.7zM620.8 147.5a29.5 29.5 0 0 1-3.7 4.5 29.4 29.4 0 1 1 0-41.6 29.5 29.5 0 0 1 3.7 4.6h9.2a37.4 37.4 0 1 0 0 32.4zM416.5 51.2l-40.7 19.3L426 172.8l12.6-5.6-45-89.5 28.3-14.5s28.3-13.3 38 13.5c6.6 18.6-15.8 31.7-15.8 31.7l-18.6-13.3 3.5-12.8h18l-.1-13.6-27.6.2-10 28.2 32.2 26.7c30.4-11.7 37.8-37.4 28.3-57.8-8.2-17.3-31.6-25.7-53.2-14.8zM438.1 35l8.9 1.8 12.7-34.4L443.4 0l-5.3 35zM460.1 40.7L478 10.2l12.4 8.6-22.3 26.8-8-4.9zM475.8 53.7l25.6-22.8 8.7 14-28.4 17.7-5.9-8.9z" class="cls-1"/><path d="M493.4 186.5A23.6 23.6 0 1 0 517 210a23.6 23.6 0 0 0-23.6-23.6zm13.1 36.8A18.6 18.6 0 1 1 512 210a18.5 18.5 0 0 1-5.5 13.2zM362.2 186.5a23.6 23.6 0 1 0 23.6 23.6 23.6 23.6 0 0 0-23.6-23.6zm13.2 36.8a18.6 18.6 0 1 1 5.4-13.2 18.5 18.5 0 0 1-5.4 13.2zM286.2 191.5a18.5 18.5 0 0 1 13.1 5.5 19.2 19.2 0 0 1 2.4 2.9h5.8a23.6 23.6 0 1 0 0 20.5h-5.8a19.2 19.2 0 0 1-2.4 3 18.6 18.6 0 1 1-13.1-31.9zM425.3 187.5h-5v45.2h19.4v-5h-14.4v-40.2zM577.2 201.6c0-7.8-7-14.1-15.4-14.1h-12.9v45.2h5v-17h4.7l11 17h6l-11-17.3c7.1-1.2 12.6-7 12.6-13.8zm-15.4 9h-7.9v-18.1h7.9c5.7 0 10.4 4 10.4 9s-4.7 9.2-10.4 9.2z" class="cls-2"/></g></g></svg>