<svg xmlns="http://www.w3.org/2000/svg" viewBox="0 0 258.3 166.4"><defs><style>.cls-1{fill:#22b14c}</style></defs><g id="Layer_2" data-name="Layer 2"><path id="Layer_2-2" d="M98.4 145.4a4.3 4.3 0 1 0 3 1.3 4.2 4.2 0 0 0-3-1.3zm83.1-10.6a14.7 14.7 0 0 0-11.4 4.2 15.2 15.2 0 0 0-4.6 11.4 16.1 16.1 0 0 0 3.6 10.4q4.5 5.6 12.7 5.6t12.7-5.9a16.3 16.3 0 0 0 3.4-10.2 15.3 15.3 0 0 0-4.5-11.3q-4.6-4.5-11.9-4.2zm7.2 24.2a9.2 9.2 0 0 1-3 4.6 6.4 6.4 0 0 1-4 1.1 6.2 6.2 0 0 1-5.3-2.6c-1.8-2.5-2.7-6.3-2.7-11.5 0-4.4.6-7.7 1.7-10 1.5-3 3.6-4.4 6.4-4.4a6.7 6.7 0 0 1 4 1.3 8.8 8.8 0 0 1 2.9 4.2 27.4 27.4 0 0 1 1 9 25.4 25.4 0 0 1-1 8.3zm-51-6H123v.8h.8a3.9 3.9 0 0 1 1.9.4 2.4 2.4 0 0 1 1 1 7 7 0 0 1 .2 2.4v6.3a16 16 0 0 1-2.3.7 11 11 0 0 1-2.3.2 9.5 9.5 0 0 1-5.4-1.5 8.7 8.7 0 0 1-3.4-4.9 25.8 25.8 0 0 1-1-7.7 26.6 26.6 0 0 1 1-7 10.5 10.5 0 0 1 3.2-5.4 8.5 8.5 0 0 1 5.7-1.9 10.7 10.7 0 0 1 6.6 2.3 13.7 13.7 0 0 1 4.5 6.7h.8v-10.9h-.8a4.2 4.2 0 0 1-1 1.8 1.8 1.8 0 0 1-1.1.5 13 13 0 0 1-2.7-.9 17 17 0 0 0-7.3-1.4 16.7 16.7 0 0 0-12.2 4.8 15.7 15.7 0 0 0-4.8 11.6 15.1 15.1 0 0 0 1.6 7 14.4 14.4 0 0 0 3.4 4.2 18 18 0 0 0 5 3.1 19.2 19.2 0 0 0 7.2 1.2 32 32 0 0 0 6.6-.6 29.9 29.9 0 0 0 6-2v-6.4a6.4 6.4 0 0 1 .3-2 2.3 2.3 0 0 1 1-1.3 6.3 6.3 0 0 1 2.3-.4zM76 134.8a14.7 14.7 0 0 0-11.4 4.2 15.2 15.2 0 0 0-4.6 11.4 16.1 16.1 0 0 0 3.5 10.4q4.5 5.6 12.8 5.6t12.7-5.9a16.3 16.3 0 0 0 3.4-10.2 15.3 15.3 0 0 0-4.6-11.3q-4.5-4.5-11.8-4.2zM83 159a9.2 9.2 0 0 1-3 4.6 6.4 6.4 0 0 1-3.9 1.1 6.2 6.2 0 0 1-5.3-2.6c-1.8-2.5-2.8-6.3-2.8-11.5 0-4.4.6-7.8 1.8-10.1 1.5-2.9 3.6-4.3 6.4-4.3a6.7 6.7 0 0 1 4 1.3 8.8 8.8 0 0 1 2.8 4.2 27.4 27.4 0 0 1 1.1 9 25.4 25.4 0 0 1-1 8.3zm76.8 3a11 11 0 0 1-6.9 2h-1.8a3.7 3.7 0 0 1-1.9-.3 1.9 1.9 0 0 1-.8-.9 12.6 12.6 0 0 1-.2-3V151a7.6 7.6 0 0 1 3.3.6 4.9 4.9 0 0 1 2 2.3 12.1 12.1 0 0 1 1.1 4.2h1v-16h-1a11.2 11.2 0 0 1-1.6 5.4 4.8 4.8 0 0 1-4.2 1.8h-.6V137h3.1a18.1 18.1 0 0 1 4.7.4 6.8 6.8 0 0 1 3.4 2.1 10.9 10.9 0 0 1 1.8 4.8h.9v-9h-25.5v.7h1a3.8 3.8 0 0 1 2.3.6 2.2 2.2 0 0 1 .8 1.3 15.6 15.6 0 0 1 .1 2.5v20.1a9.7 9.7 0 0 1-.2 2.9 2 2 0 0 1-1 1 4.2 4.2 0 0 1-2 .5h-1v.8h26.3l1.4-9.7h-.9a11 11 0 0 1-3.7 6zM54 162a11 11 0 0 1-6.8 2h-1.8a3.7 3.7 0 0 1-2-.3 1.9 1.9 0 0 1-.7-.9 12.6 12.6 0 0 1-.2-3V151a7.7 7.7 0 0 1 3.3.6 5 5 0 0 1 2 2.3 12.3 12.3 0 0 1 1.1 4.2h.9v-16H49a11.3 11.3 0 0 1-1.7 5.4 4.8 4.8 0 0 1-4.2 1.8h-.6V137h3.1a18.1 18.1 0 0 1 4.8.4 6.8 6.8 0 0 1 3.3 2.1 10.9 10.9 0 0 1 1.8 4.8h1v-9H21.3v.7a4.4 4.4 0 0 1 3.6 1.3 6.3 6.3 0 0 1 .8 3.7v13.1l-15-18.9H0v.8a5.2 5.2 0 0 1 2.1.4 6 6 0 0 1 1.8 1.7l.6.8v21.5a5 5 0 0 1-1 3.5A4.8 4.8 0 0 1 0 165v.8h10.8v-.8h-.7a4.4 4.4 0 0 1-2.7-1q-1.2-1-1.2-3.6V141l20.5 25.4h.8V141a8.8 8.8 0 0 1 .3-3 2.6 2.6 0 0 1 1-1.4 7.9 7.9 0 0 1 2.6-.6h.5a3.8 3.8 0 0 1 2.3.6 2.2 2.2 0 0 1 .9 1.3 15.6 15.6 0 0 1 0 2.5v20.1a9.7 9.7 0 0 1-.2 2.9 2 2 0 0 1-.9 1 4.2 4.2 0 0 1-2 .5h-1v.8h26.3l1.3-9.7h-.8a11 11 0 0 1-3.7 6zm190.4-24.3a13 13 0 0 0-5-.7v22.5a7.6 7.6 0 0 0 .3 2.2 1.1 1.1 0 0 0 .5.6 3.4 3.4 0 0 0 1.6.3 6.2 6.2 0 0 0 5.2-2.4c1.7-2.1 2.5-5.7 2.5-10.1a18.6 18.6 0 0 0-1.7-8.6 8.2 8.2 0 0 0-3.4-3.8zm1.7 21.8a5 5 0 0 1-4.3 1.8 2.1 2.1 0 0 1-1-.1 9.5 9.5 0 0 1 0-1.7v-21.2a9.6 9.6 0 0 1 3.1.5 7 7 0 0 1 2.9 3.2 17.6 17.6 0 0 1 1.5 8c0 4.2-.7 7.6-2.2 9.5zm10-17.8a13.9 13.9 0 0 0-6.2-6 21.2 21.2 0 0 0-8.6-1.4h-15.6l-.2 1c0 .6-.2.8-.3.8a.4.4 0 0 1-.2.2 10.8 10.8 0 0 1-2-.7 18.5 18.5 0 0 0-6.7-1.4 16.5 16.5 0 0 0-8.1 2.2 16.5 16.5 0 0 0-8.4 14.2 15.7 15.7 0 0 0 2 7.7 14 14 0 0 0 5.8 5.7 18.4 18.4 0 0 0 8.6 2 16.1 16.1 0 0 0 6.4-1.3 16.5 16.5 0 0 0 5.3-3.8l.3-.4v-6.2l-2.1 2.5a15.8 15.8 0 0 1-4.3 3.7 9 9 0 0 1-4.2 1 7 7 0 0 1-4.5-1.3 8 8 0 0 1-2.6-4 22.1 22.1 0 0 1-.9-6.5 16.9 16.9 0 0 1 1.2-6.5 7.5 7.5 0 0 1 2.8-3.4 7 7 0 0 1 4.1-1.3 7.3 7.3 0 0 1 4.8 1.8 9.2 9.2 0 0 1 3 5.1l.2 1h3v-9h1a2.4 2.4 0 0 1 1.3.2 1 1 0 0 1 .4.4 24.4 24.4 0 0 1 .1 2.9v18.4a12.8 12.8 0 0 1 0 2.1 1.1 1.1 0 0 1-.5.5 2.6 2.6 0 0 1-1.3.2h-2v3.2h13.6a23.6 23.6 0 0 0 4.2-.3 20 20 0 0 0 5.1-1.6 13 13 0 0 0 3.9-2.9 13.9 13.9 0 0 0 2.7-4.5 18 18 0 0 0 1-6.1 16.5 16.5 0 0 0-2-8.2zm-28.6 3.5h-.8a10.4 10.4 0 0 0-3.4-5.8 8.6 8.6 0 0 0-5.6-2 8.2 8.2 0 0 0-4.8 1.5 8.7 8.7 0 0 0-3.1 4 18 18 0 0 0-1.3 6.9 23.2 23.2 0 0 0 1 6.8 9 9 0 0 0 3 4.7 8.3 8.3 0 0 0 5.1 1.5 10.2 10.2 0 0 0 4.9-1.1 16.6 16.6 0 0 0 4.6-4v2.4a15.3 15.3 0 0 1-5 3.6 14.8 14.8 0 0 1-5.9 1 17 17 0 0 1-8-1.7 12.7 12.7 0 0 1-5.3-5.2 14.5 14.5 0 0 1-1.9-7.2 15.3 15.3 0 0 1 7.8-13.1 15.3 15.3 0 0 1 7.5-2 17.1 17.1 0 0 1 6.2 1.3 9.8 9.8 0 0 0 2.5.7 1.5 1.5 0 0 0 1-.5 2.6 2.6 0 0 0 .7-1.5h.8zm28.5 10.4a12.4 12.4 0 0 1-2.4 4.1 12 12 0 0 1-3.5 2.6 18.5 18.5 0 0 1-4.8 1.6 23.1 23.1 0 0 1-4 .2h-12.5v-.7h1a3.7 3.7 0 0 0 1.8-.4 2.4 2.4 0 0 0 1-1 10.4 10.4 0 0 0 .2-2.6v-18.5a16 16 0 0 0-.2-3.3 2 2 0 0 0-1-1 3.7 3.7 0 0 0-1.8-.4h-1v-.7h12.6a20 20 0 0 1 8 1.3 12.6 12.6 0 0 1 5.7 5.5 15.2 15.2 0 0 1 2 7.6 16.8 16.8 0 0 1-1 5.8z" class="cls-1" data-name="Layer 2"/><g id="Layer_3" data-name="Layer 3"><path fill="none" stroke="#22b14c" stroke-linecap="round" stroke-width="4" d="M71.6 2.8L41.4 33v51.5l36.4 36.3 51.4.1 30.2-30.2L71.6 2.8z"/><path d="M79.2 95.4c3.5 2.2 7.2 2.2 10.8 2.1 6 0 11.8-1.9 16-6.7 3.3-4.9 3.3-8 5.3-13.4a20 20 0 0 1 2.6-5 37.2 37.2 0 0 1 1 9.5 20.4 20.4 0 0 1-2.9 10.5c-4 6.6-7.9 9.2-10.7 9.7s-10.8 1.6-16-.8a14.7 14.7 0 0 1-6-5.9zm0-48.6l4.1-6.1h5.2s4.3 6.4 4.3 7.4-3.3 5.9-3.3 5.9l-6.7-.3zM64.5 65.6a12.4 12.4 0 0 1-5.1-3l1-3.2 3-2s3.1.3 4.2 1 2 4.1 2 4.1l-2.3 2s-.5 1.6-2.8 1.1z" class="cls-1"/><path d="M183.7 7.5h-47l-33.2 33.2v26.2h29l52.3 52.8 32-32v-47zm-29.6 45l-6.9 2.7-7.2-5.8 1.1-10.3 6.6-1.7 7.4 4.8zm13-17.6l-5-1.1s-.8-4-.1-4.3 2-4.8 2-4.8l5 1 2.2 4.8zM199 76l-6.7 1.7-2 10-12 1.7-4.3-4.1-2.1-10 10.4-5.1 1.3-6-1.3-8.8 14.3-3.2 3.8 16.7z" class="cls-1"/></g></g></svg>