<svg xmlns="http://www.w3.org/2000/svg" viewBox="0 0 139.14 51.59"><defs><style>.cls-2{fill:#22b14c}</style></defs><g id="Layer_2" data-name="Layer 2"><g id="Layer_1-2" data-name="Layer 1"><path fill="none" stroke="#22b14c" stroke-width="3.41" d="M25.6 1.7h88a12.71 12.71 0 0 1 12.71 12.71 12.7 12.7 0 0 1-12.71 12.7h-88a12.7 12.7 0 0 1-12.71-12.7A12.71 12.71 0 0 1 25.6 1.7z"/><path d="M36.9 21.09V7.79h-4v9.3L27 7.79h-4.3v13.3h4v-9.6l6.2 9.6zM43.4 21.09v-9h-4v9zM43.4 10.19v-2.4h-4v2.4z" class="cls-2"/><path id="_3162" d="M57.4 21.09v-6.2c0-1.3-2.5-3.1-3.8-3.1h-1.2c-.9 0-1.9.8-2.8 1.2v-.9h-4v9h4v-6.2c0-.6 1.4-1.3 2-1.3s1.7.7 1.7 1.3v6.2z" class="cls-2" data-name="3162"/><path id="_3162-2" d="M90.87 21.4v-6.2c0-1.3-2.5-3.1-3.8-3.1h-1.2c-.9 0-1.9.8-2.8 1.2v-.9h-4v9h4v-6.2c0-.6 1.4-1.3 2-1.3s1.7.7 1.7 1.3v6.2z" class="cls-2" data-name="3162"/><path d="M63.9 21.09v-9H66v-1.2h-2.1V9h-4.1v1.9h-2.1v1.2h2.1v9zM71.6 11.79c-3.2 0-5.9 2.2-5.9 4.9s2.7 5 5.9 5c2.8 0 5.1-1.6 5.7-3.7h-4.1v1.2c0 1-.7 1.3-1.6 1.3s-1.5-.3-1.5-1.3v-2.5h7.4c0-2.69-2.6-4.9-5.9-4.9zm0 .9a1.52 1.52 0 0 1 1.6 1.6v.9h-3.1v-.9a1.45 1.45 0 0 1 1.5-1.6zM111 11.79c-3.3 0-5.9 2.2-5.9 4.9s2.6 5 5.9 5 5.9-2.2 5.9-5-2.7-4.9-5.9-4.9zm0 .9a1.45 1.45 0 0 1 1.5 1.6v4.9c0 1-.6 1.3-1.5 1.3s-1.6-.3-1.6-1.3v-4.9a1.47 1.47 0 0 1 1.6-1.6zM99.5 7.79v4.9a5.12 5.12 0 0 0-2.8-.9 4.72 4.72 0 0 0-4.6 4.6c0 2.5 2.1 5 4.6 5a6.87 6.87 0 0 0 2.8-.6v.3h4V7.79zm-1.5 5.5a1.5 1.5 0 0 1 1.5 1.6v3.7c0 .9-.6 1.2-1.5 1.2s-1.6-.3-1.6-1.2v-3.7a1.52 1.52 0 0 1 1.6-1.6z" class="cls-2"/><path id="_2399" d="M21.2 40.59v-5.8a2.37 2.37 0 0 0-2.2-2.2h-8.4v8h2.6v-5.4a.77.77 0 0 1 .7-.8h4a.86.86 0 0 1 .8.8v5.4z" class="cls-2" data-name="2399"/><g id="use3171"><path id="_2399-2" d="M90.59 40.59v-5.8a2.37 2.37 0 0 0-2.2-2.2H80v8h2.6v-5.4a.77.77 0 0 1 .7-.8h4a.86.86 0 0 1 .8.8v5.4z" class="cls-2" data-name="2399"/></g><g id="use3171-2" data-name="use3171"><path id="_2399-3" d="M128.58 40.59v-5.8a2.37 2.37 0 0 0-2.2-2.2H118v8h2.6v-5.4a.77.77 0 0 1 .7-.8h4a.86.86 0 0 1 .8.8v5.4z" class="cls-2" data-name="2399"/></g><path id="_3177" d="M105.9 40.59v-5.8a2.37 2.37 0 0 0-2.2-2.2H92.4v8H95v-5.4a.77.77 0 0 1 .7-.8h1.5a.86.86 0 0 1 .7.8v5.4h2.6v-5.4a.77.77 0 0 1 .7-.8h1.5a.86.86 0 0 1 .7.8v5.4z" class="cls-2" data-name="3177"/><path id="_3181" d="M8.8 40.59H2.2a2 2 0 0 1-2.2-1.8v-6.3h8.8v1.9H2.9a.7.7 0 1 0 0 1.4h5.5v1.6H2.9a.85.85 0 0 0-.7.7.86.86 0 0 0 .7.8h5.9z" class="cls-2" data-name="3181"/><path id="_3181-2" d="M41.3 40.59h-6.6a2 2 0 0 1-2.2-1.8v-6.3h8.8v1.9h-5.9a.7.7 0 0 0 0 1.4h5.5v1.6h-5.5a.85.85 0 0 0-.7.7.86.86 0 0 0 .7.8h5.9z" class="cls-2" data-name="3181"/><path id="_3181-3" d="M116.54 40.59h-6.6a2 2 0 0 1-2.2-1.8v-6.3h8.8v1.9h-5.9a.7.7 0 0 0 0 1.4h5.5v1.6h-5.5a.85.85 0 0 0-.7.7.86.86 0 0 0 .7.8h5.9z" class="cls-2" data-name="3181"/><path id="_2391" d="M22.3 32.59v1.8h2.6c.7 0 .7 0 .7.8v5.4h2.5v-5.4c0-.8 0-.8.8-.8h2.5v-1.8z" class="cls-2" data-name="2391"/><path id="_2391-2" d="M54.07 32.59v1.8h2.6c.7 0 .7 0 .7.8v5.4h2.5v-5.4c0-.8 0-.8.8-.8h2.5v-1.8z" class="cls-2" data-name="2391"/><path id="_2391-3" d="M130 32.59v1.8h2.6c.7 0 .7 0 .7.8v5.4h2.5v-5.4c0-.8 0-.8.8-.8h2.5v-1.8z" class="cls-2" data-name="2391"/><path d="M43.1 32.59v8h2.6v-1.4a.77.77 0 0 1 .7-.8h3.3a.77.77 0 0 1 .7.8v1.4h2.2v-2.2c0-.3-.3-.7-.3-1.1s.7-1 .7-1.8v-.7c0-.7-1.1-2.2-1.8-2.2zm3.3 1.8h3.3a.77.77 0 0 1 .7.8v.7a.68.68 0 0 1-.7.7h-3.3a.68.68 0 0 1-.7-.7v-.7a.77.77 0 0 1 .7-.8zM66.1 32.59c-.7 0-1.8 1.5-1.8 2.2v5.8h2.6v-2.2h4.7v2.2h2.6v-5.8c0-.7-1.1-2.2-1.9-2.2zm1.5 1.8h3.3a.86.86 0 0 1 .7.8v1.4h-4.7v-1.4a.77.77 0 0 1 .7-.8zM78.5 40.59v-8H76v8z" class="cls-2"/><path id="_3177-2" d="M102.61 51.55v-5.8a2.37 2.37 0 0 0-2.2-2.2h-11.3v8h2.6v-5.4a.77.77 0 0 1 .7-.8h1.5a.86.86 0 0 1 .7.8v5.4h2.6v-5.4a.77.77 0 0 1 .7-.8h1.5a.86.86 0 0 1 .7.8v5.4z" class="cls-2" data-name="3177"/><path id="_3181-4" d="M87.32 51.55h-6.6a2 2 0 0 1-2.2-1.8v-6.3h8.8v1.9h-5.9a.7.7 0 0 0 0 1.4h5.5v1.6h-5.5a.85.85 0 0 0-.7.7.86.86 0 0 0 .7.8h5.9z" class="cls-2" data-name="3181"/><path id="_2391-4" d="M68.32 43.55v1.8h2.6c.7 0 .7 0 .7.8v5.4h2.5v-5.4c0-.8 0-.8.8-.8h2.5v-1.8z" class="cls-2" data-name="2391"/><path id="_3187" d="M38.7 43.59c-.7 0-2.2 1.1-2.2 1.8v1.1c0 .7 1.5 1.8 2.2 1.8h4.4a.75.75 0 1 1 0 1.5h-6.6v1.8h7.4c.7 0 2.1-1.1 2.1-1.8v-1.1c0-.8-1.4-1.9-2.1-1.9h-4.4a.71.71 0 1 1 0-1.4H46v-1.8z" class="cls-2" data-name="3187"/><path id="_3187-2" d="M59.88 43.59c-.7 0-2.2 1.1-2.2 1.8v1.1c0 .7 1.5 1.8 2.2 1.8h4.4a.75.75 0 1 1 0 1.5h-6.6v1.8h7.4c.7 0 2.1-1.1 2.1-1.8v-1.1c0-.8-1.4-1.9-2.1-1.9h-4.4a.71.71 0 1 1 0-1.4h6.5v-1.8z" class="cls-2" data-name="3187"/><path d="M46.8 43.59v3.6A2.37 2.37 0 0 0 48.6 49h1.8v2.6H53V49h1.8a2.37 2.37 0 0 0 1.8-1.8v-3.6h-2.5v2.9a.86.86 0 0 1-.8.7h-3.2a.86.86 0 0 1-.8-.7v-2.9z" class="cls-2"/></g></g></svg>