<svg xmlns="http://www.w3.org/2000/svg" viewBox="0 0 232 234"><defs><style>g{fill:#22B14C}</style></defs><g data-name="Layer 2"><path d="M0 45l37-15 35 14 12-32 32-12 39 15v32l40-17 37 15v145l-36 14-39-14v28l-41 16-39-15-14-26-27 10-36-14zm36 90l42 82 36 14V89L78 76v71h-3L35 59 3 47v141l33 13v-66zm158-7V60l-34-13-25 18 19 8zM98 65L72 47 38 60l38 83V73zM74 45l27 19 4-3 14-33-33-13zm77 29l-34-13-36 13 35 13 35-13zm12-28l33 11 31-12-32-12zm-93 0L37 33 5 45l32 12 33-11zm46-44L89 13l32 13 29-11zm42 149v36l34 13z" data-name="Layer 1"/></g></svg>