<svg xmlns="http://www.w3.org/2000/svg" viewBox="0 0 710.6 101.7"><defs><style>.cls-1{fill:#22b14c}</style></defs><g id="Layer_2" data-name="Layer 2"><g id="svg101576"><path id="path100608" d="M451.9 91.4a2 2 0 0 1-2 2H412a2 2 0 0 1-2-2V64.1a2 2 0 0 1 2-2h37.7a2 2 0 0 1 2 2zM450.2 54h-38.5a10.1 10.1 0 0 0-10 10.2v27.3a10.2 10.2 0 0 0 10 10.2h38.5a10.2 10.2 0 0 0 10.1-10.2V64.1a10.1 10.1 0 0 0-10-10.1" class="cls-1"/><path id="path100618" d="M8.8 13v35.2H0V.5h7.5l35.8 34.8V.5H52v47.7h-6.9L8.8 13" class="cls-1"/><path id="path100622" d="M97.3 13v35.2h-8.8V.5h7.6l35.7 34.8V.5h8.7v47.7h-6.9L97.3 13" class="cls-1"/><path id="path100626" d="M280.8 13v35.2H272V.5h7.5l35.8 34.8V.5h8.7v47.7h-6.9L280.8 13" class="cls-1"/><path id="path100630" d="M73 .5h1.6v47.7h-8.8V.5H73" class="cls-1"/><path id="path100634" d="M200.7.5h1.6v8.2H181v39.5h-9.2V8.7h-21.3V.5h50.1" class="cls-1"/><path id="path100638" d="M257.2.5h1.7v8.2H221v10.7h29.3v8.2H221V40h37.8v8.2h-46.5V.5h45" class="cls-1"/><path id="path100642" d="M373 40h-27V8.7h27c8.5 0 11.6 8.5 11.6 15.7S381.6 40 373 40zm14.5-32.5c-3.4-4.6-8.5-7-14.7-7h-35.4v47.8h35.4a17.8 17.8 0 0 0 14.7-7c3.3-4.3 5-10 5-16.9s-1.7-12.6-5-16.8" class="cls-1"/><path id="path100646" d="M451.9 38.1a2 2 0 0 1-2 2H412a2 2 0 0 1-2-2V10.7a2 2 0 0 1 2-2h37.7a2 2 0 0 1 2 2zM450.2.5h-38.5a10.1 10.1 0 0 0-10 10.2V38a10.1 10.1 0 0 0 10 10.1h38.5a10.1 10.1 0 0 0 10.1-10.1V10.7a10.1 10.1 0 0 0-10-10.2" class="cls-1"/><path id="path100656" d="M610.5 81.5A143 143 0 0 0 654 88c16.5 0 23.3-5.6 23.3-12.8 0-6.4-6.3-10.1-24.6-16.8-24.3-9-42.2-16-42.2-32.2C610.6 9.8 632 0 664.9 0c17.6 0 23.6 1 34.8 3.1l.1 15.8c-11-2-20.7-5.6-35.8-5.6-16.2 0-23.1 5.2-23.1 10.4 0 7.7 10.6 11.4 29.3 18 26 9.3 40.4 16.4 40.4 32 0 16.2-18.1 27.9-59 27.9a230.5 230.5 0 0 1-41.1-3.2v-17" class="cls-1"/><path id="path100660" d="M523.6 14h-19.4v73.5h19.4c29.8 0 48.6-12.8 48.6-36.7S553.4 14 523.6 14zm52.1 80.3c-9.6 4.4-27.7 7.2-43.6 7.2h-60.7V.2H532c15.9 0 34 2.8 43.7 7.1 23.4 10.6 31 27.6 31 43.5s-7.6 33-31 43.5" class="cls-1"/></g></g></svg>