<svg xmlns="http://www.w3.org/2000/svg" viewBox="0 0 588 92.5"><defs><style>.cls-1{fill:#22b14c}</style></defs><g id="Layer_2" data-name="Layer 2"><g id="svg2525"><g id="g61"><path id="path63" d="M335 85a1.4 1.4 0 0 1-1.4 1.4h-28A1.4 1.4 0 0 1 304 85V64.7a1.5 1.5 0 0 1 1.5-1.4h28a1.5 1.5 0 0 1 1.5 1.4zM334 57.2h-28.6a7.5 7.5 0 0 0-7.5 7.5V85a7.5 7.5 0 0 0 7.5 7.5h28.5a7.5 7.5 0 0 0 7.5-7.5V64.8a7.5 7.5 0 0 0-7.4-7.5" class="cls-1"/></g><g id="g65"><path id="path67" d="M0 17.6h5.6L32 43.3V17.6h6.4v35.3h-5l-27-26.2V53H0V17.6" class="cls-1"/></g><path id="path71" d="M72.1 26.7V53h-6.5V17.6h5.6l26.5 25.7V17.6h6.5v35.3H99z" class="cls-1"/><path id="path75" d="M208.2 26.7V53h-6.5V17.6h5.5l26.6 25.7V17.6h6.4v35.3h-5z" class="cls-1"/><path id="path79" d="M54.1 17.6h1.2v35.3h-6.5V17.6z" class="cls-1"/><path id="path83" d="M148.8 17.6h1.2v6h-15.8V53h-6.8V23.6h-15.8v-6z" class="cls-1"/><path id="path87" d="M190.7 17.6h1.2v6h-28v8h21.7v6.1h-21.7V47h28v6h-34.5V17.7z" class="cls-1"/><g id="g97"><path id="path99" d="M276.6 46.8h-20V23.6h20c6.3 0 8.6 6.3 8.6 11.6s-2.3 11.6-8.6 11.6m10.8-24a13.2 13.2 0 0 0-11-5.2h-26.2v35.3h26.3a13.2 13.2 0 0 0 10.9-5.1c2.4-3.2 3.7-7.5 3.7-12.6s-1.3-9.3-3.7-12.5" class="cls-1"/></g><g id="g101"><path id="path103" d="M335 45.4a1.5 1.5 0 0 1-1.4 1.4h-28a1.5 1.5 0 0 1-1.5-1.4V25a1.5 1.5 0 0 1 1.5-1.5h28a1.5 1.5 0 0 1 1.5 1.5zM334 17.6h-28.6a7.5 7.5 0 0 0-7.5 7.5v20.3a7.5 7.5 0 0 0 7.5 7.5h28.5a7.5 7.5 0 0 0 7.5-7.5V25.1a7.5 7.5 0 0 0-7.4-7.5" class="cls-1"/></g><g id="g105"><path id="path107" d="M452.8 77.6a107 107 0 0 0 32.3 4.9c12.3 0 17.4-4.2 17.4-9.5 0-4.7-4.8-7.5-18.3-12.5-18-6.6-31.3-12-31.3-23.8 0-12.3 16-19.5 40.3-19.5 13 0 17.5.8 25.8 2.3v11.7c-8-1.5-15.3-4.2-26.5-4.2-12 0-17.2 3.8-17.1 7.8 0 5.7 7.8 8.4 21.7 13.3 19.2 7 30 12.2 30 23.8 0 12-13.5 20.6-43.7 20.6a180.6 180.6 0 0 1-30.6-2.3z" class="cls-1"/></g><g id="g109"><path id="path111" d="M388.3 27.5H374V82h14.4c22.2 0 36.1-9.5 36.1-27.2s-14-27.3-36-27.3M427 87a91.8 91.8 0 0 1-32.5 5.3h-45.1v-75h45.1c11.8 0 25.3 2 32.4 5.2 17.4 7.9 23 20.4 23 32.3s-5.6 24.4-23 32.2" class="cls-1"/></g><g id="g113"><path id="path115" d="M562 0a26 26 0 1 0 26 26 26 26 0 0 0-26-26m3.8 44.7h-7.7V20.9h7.7zM562 16.5a4.5 4.5 0 0 1-4.6-4.4 4.6 4.6 0 0 1 9.3 0 4.5 4.5 0 0 1-4.7 4.4" class="cls-1"/></g></g></g></svg>