<svg xmlns="http://www.w3.org/2000/svg" viewBox="0 0 710.9 239.8"><defs><style>.cls-1{fill:#22b14c}</style></defs><g id="Layer_2" data-name="Layer 2"><g id="Layer_1-2" data-name="Layer 1"><path d="M55.3 46.4C51.1 43 50.5 40 54 40h15.8l32 27.4c4.2 3.6 2.6 6.5-1 6.5h-9zM5.4 40.2l314.3 199.6L193.5 42.5A77.4 77.4 0 0 0 180.8 25c-8.2-8.3-16-7.3-16-7.3h-73l23.1 22.6h46l20.2 24.8c3 3.5 2.6 6.4-.9 6.4h-4.5L153 48.8h-29.6l196.4 191-243.5-222H9.8S0 20.6 0 28.5a14.7 14.7 0 0 0 5.4 11.7zM322 239.8L265.1 71.6h5.7c5.5-.1 7.2-2.3 6.4-6l-12.8-47.8h-30.5l9.1 23.5c1.4 3 0 5.6-3 5.6s-6.7-2.5-8-5.6l-11.4-23.5H189l27.5 47c2.1 3.5 3.7 6.7 10.3 6.8h8zm8.9 0L559.6 70.7H572c3.5 0 8.7-3.3 13.7-6.9l55.9-46h-29.4l-32 27.2c-5 3.6-9.5 3.4-12.6 3.4S560 45 564 42l24.8-24-24.9-.2-40.4 38.8c-3.8 3.7-11 14.3-4.4 14h10.1zm-7.8 0l39.1-191h-46.9a3 3 0 0 1-2.7-2.2l-.8-5a1.7 1.7 0 0 1 1.7-2.2h51l4.1-21.7h-79.9a8.6 8.6 0 0 0-7.5 3.2c-2.9 3.8-1.4 12.4-1.4 12.4l6.7 32.7h44.7a1.1 1.1 0 0 1 1 1.7l-.8 4a2.5 2.5 0 0 1-2.2 1.6h-41zm1.4-.2L444 49h-42.3a1.8 1.8 0 0 1-1.8-2.2l1.2-5a2.8 2.8 0 0 1 2.7-2.3H450L464 17.8h-70.7a12.2 12.2 0 0 0-9 3.2 29.3 29.3 0 0 0-6.7 12.4l-8 32.6h40c.9 0 1 .7.4 1.7l-2.3 4a4.4 4.4 0 0 1-3 1.6h-36.4zm2 .1L496.1 73.3H470a1.2 1.2 0 0 1-1.1-1.7l.8-4A2.5 2.5 0 0 1 472 66h30.7l20.6-19.3h-31a1.2 1.2 0 0 1-1.1-1.7l1.5-3.9a2.5 2.5 0 0 1 2.2-1.6h35.6l22.3-21.7h-75.5zM673.7 35.5h-34.1s20-17.4 21.6-19a13.6 13.6 0 0 1 7.2-3.2l18.4-.1s5.7-1 7.2-3.1-2.7-3.3-2.7-3.3h-22.2c-1 0 4.6-3.4 5.3-4.2a9.2 9.2 0 0 1 2.9-1.8 7.8 7.8 0 0 1 3.2-.8h26c1.7 0 3.8.5 4 1.4s.8 2.1-.5 3.5a86 86 0 0 1-6.2 7c-4 4-10.8 5.4-13 6.4s-9.6 1.2-11.3 1.2l-9.4.5-7.5 6.8h16.7c1 0 1.4.3 1.6.8s-.1 1.1-.9 1.8-5.4 6.1-6.3 6.1z" class="cls-1"/></g></g></svg>