<svg xmlns="http://www.w3.org/2000/svg" viewBox="0 0 426 207.1"><defs><style>.cls-1{fill:#22b14c}</style></defs><g id="Layer_2" data-name="Layer 2"><g id="Layer_1-2" data-name="Layer 1"><path d="M212.6 110a20 20 0 1 1 2.6-20l.2.4L241 73.7a50.4 50.4 0 1 0-2.8 52.7zM249.1 153.8l-7.6-116 53.3 39.9 26.6-49.4 9.5 127.4-53.2-41.8 1.9 38-30.5 1.9zM376.4 55a47.5 47.5 0 1 0 49.6 45.4A47.6 47.6 0 0 0 376.4 55zm-1 58.9l-21-5L369 93.2 384 77.5 390 98l6.2 20.7zM49.5 37.8C39.9 37.8 0 47.3 0 47.3l28.5 159.8 19-72.3S99 131 99 85.3 59 37.8 49.4 37.8zm1.9 66.6a19 19 0 1 1 19-19 19 19 0 0 1-19 19z" class="cls-1"/><path d="M100.8 28.3l3.8 121.7h32.3l15.2-123.6zm24.7 34.5A13.5 13.5 0 1 1 139 49.3a13.5 13.5 0 0 1-13.5 13.5zM317 0l13 1-8 23-5-24zM297.7 11.2l10.5-7.8 9 22.7-19.5-14.9zM343.3 7.7l6.9 11-23.3 7.2 16.4-18.2z" class="cls-1"/></g></g></svg>