<svg xmlns="http://www.w3.org/2000/svg" viewBox="0 0 198 153"><defs><style>.cls-1{fill:#22B14C}</style></defs><g id="Layer_2" data-name="PSX"><g id="svg41117"><path d="M196 117c-4 5-13 8-13 8l-71 26v-19l52-18c6-3 7-6 2-7s-13-1-19 1l-35 12v-19l2-1a118 118 0 0 1 24-5c14-2 32 0 45 5 15 5 17 12 13 17z" class="cls-1"/><path d="M119 85V37c0-5-1-10-6-12-4-1-7 3-7 8v120l-32-10V0l44 12c28 10 37 21 37 48 0 25-16 35-36 25zM15 130c-16-4-18-14-11-19 6-5 18-8 18-8l46-17v19l-33 12c-6 2-7 5-2 7s13 1 19-1l16-6v16l-3 1a105 105 0 0 1-50-4z" class="cls-1"/></g></g></svg>