<svg xmlns="http://www.w3.org/2000/svg" viewBox="0 0 796.5 108.6"><defs><style>.cls-1{fill:#22b14c}</style></defs><g id="Layer_2" data-name="Layer 2"><g id="Layer_1-2" data-name="Layer 1"><g id="layer1"><path id="path2870" d="M0 13.6v94.9h22.5V75H40s22.6-1.9 22.6-20.3V36.5S62.5 13.6 40 13.6c-22.3 0-39.9.4-40 0zM22.5 32h12c6.2 1.8 5.5 8.1 5.5 8.1v8c0 6.7-5.5 8-5.5 8h-12z" class="cls-1"/><path id="path3667" d="M97.5 36.4c-6.2 0-31.1 2-31.1 35.9 0 38.7 32.5 36.2 32.5 36.2s31.7-.3 31.7-36.3S99.2 36.5 99 36.5zm1.4 18.4s11.6-2 11.6 17.5c0 18-11.6 16-11.6 16s-12.2 0-12.2-16C86.8 52.8 99 55 99 54.8z" class="cls-1"/><path id="path3678" d="M140.1 8h20.4v55l15.8-26.6H198l-21.8 31.8 21.8 40.3h-21.8L160.6 75v33.6h-20.4z" class="cls-1"/><path id="path3696" d="M230.9 36.4c-24 0-29.5 18.3-29.5 35.9s10.6 36.2 31.1 36.2 22.4-4.1 22.4-4.1V92.2h-25.7c-8.8 0-7-11.8-7-11.8h38V67s0-30.7-29.3-30.7zm1.3 15.7c10.2 0 10.3 4 10.3 4v11h-20.4v-11s0-4 10.2-4z" class="cls-1"/><path id="path3711" d="M210.4 17.9l7.7 10.8 29.3-17.5-9-11.2-27.6 17.7-.3.2z" class="cls-1"/><path id="path3727" d="M270.4 108.5h18V67.2s.7-11 10-11 9.2 11 9.2 11v41.5h17V67s.4-11 9.6-11 9.3 11 9.3 11v41.5h17.6V56.1s1.3-19.8-17.6-19.8-18.9 11.8-18.9 11.8 2.3-11.8-17-11.8-19.2 11.8-19.2 11.8 2.7-11.8-7.6-11.8h-10.4z" class="cls-1"/><path id="path3667-1" d="M403.5 36.4c-6.2 0-31.1 2-31.1 35.9 0 38.7 32.5 36.2 32.5 36.2s31.7-.3 31.7-36.2-31.4-35.9-31.7-35.9zm1.4 18.4s11.6-1.9 11.6 17.5c0 18-11.6 16-11.6 16s-12.1.1-12.1-16c0-19.4 12-17.3 12-17.5z" class="cls-1"/><path id="path3759" d="M446.5 108.5h19.6V67.2s-.5-11 10.4-11 10.9 11 10.9 11v41.5h18.2V56.1s.1-19.8-18.2-19.8S466 48.2 466 48.2s1.8-11.8-5.5-11.8h-14.1z" class="cls-1"/><path id="path3775" d="M552.3 36.4h84.3s8.1-.3 8.1 7.7v60.3s.2 4.1-3.9 4.1h-12.2s-4 0-4-4.1V67s-.4-4.8-4-4.8h-12.1s-4.1-.4-4.1 4.8v37.3s-.5 4.1-4 4.1h-11.6s-4.4.3-4.4-4.1V67s1.3-4.8-4.2-4.8h-11.5s-4-.4-4 4.8v37.3s0 4.1-4.2 4.1h-12.1a4 4 0 0 1-3.8-4.1V44s.2-7.1 7.7-7.7z" class="cls-1"/><path id="path3787" d="M676.5 72.3a3.6 3.6 0 0 1 4 3.9v28.2s-.5 4.1-3.9 4.1h-8.2s-4 0-4-4.1V76.2a4 4 0 0 1 4.1-3.9c4 0 7.8.2 8 0z" class="cls-1"/><path id="path3789" d="M668.5 60.2s-4.2 0-4.2-4V44a4 4 0 0 1 4.3-4h8a3.8 3.8 0 0 1 3.8 4v12a3.6 3.6 0 0 1-3.8 4h-8.1z" class="cls-1"/><path id="path3807" d="M700.4 104.4s.1 4.1 4.1 4.1h11.8s4-.2 4-4.1V67s.2-4.8 4-4.8h12s4.2-.4 4.2 4.8v37.3s-.3 4.1 4 4.1h8.1a4 4 0 0 0 3.8-4.1V48.2s-.1-8.1-8-8.1h-39.9s-8.1 0-8.1 8 .4 56.7 0 56.3z" class="cls-1"/><path id="path3787-7" d="M792.6 72.3a3.6 3.6 0 0 1 4 3.9v28.2s-.5 4.1-3.9 4.1h-8.2s-4 0-4-4.1V76.2a4 4 0 0 1 4.2-3.9c4 0 7.7.2 8 0z" class="cls-1"/><path id="path3789-4" d="M784.6 60.2s-4.2 0-4.2-4V44a4 4 0 0 1 4.3-4h8a3.8 3.8 0 0 1 3.8 4v12a3.6 3.6 0 0 1-3.7 4h-8.2z" class="cls-1"/></g></g></g></svg>