<svg xmlns="http://www.w3.org/2000/svg" viewBox="0 0 821.4 253"><defs><style>.cls-1{fill:#27b04c}</style></defs><g id="Layer_2" data-name="Layer 2"><path id="Layer_2-2" d="M0 0v253h253V0zm64.3 156.9l-10.8-24.5v-26.6h-7.4v51.1H18.4v-61h46.2c15.1 0 20.2 4 20.2 21 0 6.4-1.3 9.5-5.3 13.3L93.2 157zm64.2 1.5c-31.8 0-33.2-4.3-33.2-36.7 0-21.7 4.3-27 33.2-27 26 0 32.1 3.6 32.1 24 0 .7.2 2.2 0 3.9h-28.8V105h-7.7v43h7.7v-17.9h28.8c-.3 23.2-3.8 28.2-32.1 28.2zm106.1-1.5h-27.3v-51h-7.4v25.3l-10.8 25.7h-29.5l25.6-61h49.4z" class="cls-1" data-name="Layer 2"/><g id="Layer_5" data-name="Layer 5"><path d="M378.2 114.2s15.5 0 23.3-11.7a68.9 68.9 0 0 0 9.9-22.7h1.4s-17 82.1-18.3 90.7 6.1 8.8 10.5 4 11.1-15 11.1-15l1.2.4s-11.6 25-25.7 25c-10.4 0-8-17.7-6.9-23.5l8.9-45h-15.4z" class="cls-1"/><path d="M404.3 110.1h20s-.6 6.4-6.6 6.4h-15zM440.8 121.2c-1 4.6-7.4 35.6-8.8 43s-1.4 20.8 9.8 20.8c18.3 0 33.3-34.2 33.3-34.2s-1.7 12.5-2.6 16.6-1.8 17.6 8.8 17.6 23.6-22.7 23.6-22.7l-1.4-1s-7.6 10.7-11.8 15-8.5.5-6.7-8.4l12-57.7H487s-4 15.3-15.5 39.5-18.9 28.3-24.1 28.3-4.8-7.8-4-13.2 11.9-54.6 11.9-54.6h-24v2s11.5-.5 9.4 9zM673.5 108.9c-24.5 0-39.3 34.3-39.3 51.6 0 9 2.8 27 24.5 27 23.7 0 38.4-31.2 38.4-50 0-14.9-7.5-28.6-23.6-28.6zm-14.7 74.8c-11.4 0-13.8-9.6-13.8-20.7 0-14.1 9.4-50.2 27.6-50.2 8.6 0 14.8 6.1 14.8 18.3 0 19.9-14.1 52.6-28.6 52.6zM575 172.6c-6 6.6-10.4.4-8.1-8.6s21.8-95 21.8-95h-28.5l-1.2 2.7h7.2c6.6 0 8.2 5 7.7 10.8s-8.1 38.2-8.1 38.2-3.6-11.5-14.2-11.5c-19 0-40.6 31.2-40.6 53.2 0 12 2.3 23.5 15.9 23.5 16.4 0 28.7-25.6 28.7-25.6s-.7 6.7-.7 9.2-.2 14.2 9.1 14.2 22.2-21.4 22.2-21.4l-1-1-10.2 11.3zm-43 6.9c-9.5 0-10.6-8.3-10.6-16 0-19.4 18-50 31.7-50 7 0 10 6 10 13.5 0 21.2-20.2 52.5-31.1 52.5zM625 161.2c-7.2 11.5-9 14.8-13 14.8-5.3 0-4.8-5.8-3.9-11.3s11.8-54.6 11.8-54.6H596v2.1s11.4-.5 9.3 9c-1 4.7-7.4 35.6-8.8 43s-1.4 20.8 9.8 20.8c9 0 15.5-13.2 20.7-22.4zM629.2 80.3c1.3-5-.6-9.7-4-10.6s-7.3 2.5-8.6 7.4.5 9.7 4 10.6 7.3-2.4 8.6-7.4zM737.2 69h39l-1 2.7S764 70 760.8 84.4s-16.8 77-18.9 86 3.2 10.9 5.8 10.9h6v3.5h-41.2v-2.6s13.4.4 16-8.2 19.1-79.2 21.3-90.5-4.4-11.6-7-11.6h-5.9zM782.5 69h39l-1 2.7S809.3 70 806 84.4s-16.7 77-18.8 86 3.1 10.9 5.8 10.9h6v3.5h-41.3v-2.6s13.4.4 16-8.2 19.2-79.2 21.4-90.5-4.4-11.6-7-11.6h-5.8zM275.6 160.1c2.7-3.7 8.2-3.1 16.3 3.6s16.4 17 33.7 17 31.9-15.8 31.9-27.6-7.6-16.2-27.9-24-30-16.2-30-28 13.3-35.6 43-35.6S382.9 82 379 87s-9.3 4.4-14.6-.2-13.5-14.2-31.3-14.2-22.7 12.7-22.7 20.6c0 4.6 3.1 13.7 26.3 22.5s30 15.9 30 28.4-13.7 41.4-48 41.4-49.3-17-43.1-25.4z" class="cls-1"/></g></g></svg>