<svg xmlns="http://www.w3.org/2000/svg" viewBox="0 0 270 336.6"><defs><style>.cls-1{fill:#22b14c}</style></defs><g id="Layer_2" data-name="Layer 2"><g id="Layer_2-2" data-name="Layer 2"><g id="layer1"><path id="path3358" d="M269 200A322.4 322.4 0 0 0 67.6 0h59.5c62.7 40.7 116 116.6 142.9 177.8z" class="cls-1"/><path id="path3360" d="M220.6.5c22.2 25.4 37.6 60.1 49.4 93.4V0z" class="cls-1"/><path id="path3362" d="M171.7 0h27.6c25.7 36.5 53.3 81 70.2 122v27.6C244 98.3 212.4 34.9 171.7 0z" class="cls-1"/><path id="path3364" d="M7 336c53.4-14.5 27.8-56.5 14.6-93.9 29.3 38.6 72 77 117.2 94.5z" class="cls-1"/><path d="M204.2 110c-63-66.9-145.6-85.2-184.4-40.8S.8 203.6 64 270.4s145.6 85.1 184.3 40.8 19-134.4-44-201.2zm-61 120c0 16.7-19 30.2-42.4 30.2s-42.4-13.5-42.4-30.1 19-30.1 42.4-30.1 42.4 13.5 42.4 30.1zm-.8-50.3c-3 9.3-10.7 14.8-20.6 16.3-3.6-16.6-22.8-29.3-45.9-29.3a60.8 60.8 0 0 0-10.1.9c-9.2-12.6-13.2-26.8-9.5-38.1 6-18.4 30.2-22 54-8.2s38.1 40 32.1 58.4zm93.8 68.4c0 16.6-19 30-42.4 30s-42.3-13.4-42.3-30 19-30.1 42.3-30.1 42.4 13.4 42.4 30zm2-49.4c-3.8 11.7-15 17.4-28.7 16.3-3.4-16.8-22.7-29.7-46-29.7h-1.8c-8.5-12-12-25.7-8.5-36.5 6-18.3 29.8-21.9 53.3-8.1s37.7 39.8 31.8 58z" class="cls-1"/></g></g></g></svg>