<?xml version="1.0" encoding="utf-8"?>
<!-- Generator: Adobe Illustrator 22.0.1, SVG Export Plug-In . SVG Version: 6.00 Build 0)  -->
<svg version="1.1" id="Layer_1" xmlns="http://www.w3.org/2000/svg" xmlns:xlink="http://www.w3.org/1999/xlink" x="0px" y="0px"
	 viewBox="0 0 1924.3 1948.3" style="enable-background:new 0 0 1924.3 1948.3;" xml:space="preserve">
<style type="text/css">
	.st0{fill:#22B14C;}
</style>
<g id="Layer_2_1_">
	<g id="Layer_1-2">
		<path class="st0" d="M901.3,977.4h0.7l35.3,400.3h5.3l66.5,0.1c4,0,5.7-1,7.2-4.8l156.8-388l2.2-4.6l1,0.3l-72.7,396.6h94
			l87.2-520l-3.7-0.2c-41.5-0.3-83-0.5-124.5-1c-4.8,0-6.8,1.5-8.6,5.8c-48.2,118.7-96.5,237.2-144.9,355.7l-1.7,3.9l-0.9-0.2
			l-29.6-363.8H837.4l-86.8,519.9h95L901.3,977.4L901.3,977.4z M1317.9,856.6l-86.3,520.8h273.1l17.1-107h-173.3l19.8-110.9h153.5
			l16-101h-153.5l17.1-94.1h169.9l16.5-107.8L1317.9,856.6z M1153,1719.4l15.8-101h-153.3l17.1-94.3h169.9l16.4-107.7H949
			c-28.7,173.7-57.4,347.4-86.2,521H1136l17.1-107.2H979.5l20-110.8H1153z"/>
		<path class="st0" d="M656,0.3c7.7,1.7,15.6,2.8,23,5.4c30.7,10.1,47.3,32.6,54,63.2c6.1,29,3,57.7-3.5,86.2
			c-11.6,48.2-30.1,94.5-54.9,137.5c-61.3,109-142.2,205.8-238.6,285.5c-34.6,29.3-71.9,55.1-111.5,77.2
			c-31.7,18.4-65.9,32-101.5,40.4c-24.2,5.2-48.6,7-72.6-0.7c-30.4-9.8-47.5-31.8-54.4-62.2c-5.2-26.6-4.7-54,1.6-80.3
			c11-54,33.3-103.7,60-151.4c39.2-68.8,86.5-132.7,141-190.2c48.6-52.9,103.3-100,162.9-140.1c35.3-24.2,73.6-43.7,114-58
			c16.6-5.8,33.9-9.7,51.4-11.6c0.7-0.2,1.5-0.6,2.1-1L656,0.3z"/>
		<path class="st0" d="M618,1948.3l-22.5-5.6c-40.9-10.6-76.3-36.2-99-71.8c-18.5-28.8-30.3-61.4-34.4-95.4
			c-8.3-59.8-4.8-119,12-177c15.7-54,42-102.2,83.4-141c38.6-36.2,85.2-53.2,137.8-54.2c33.3-0.6,65.7,4.1,96.4,17.8
			c53.6,23.8,84.5,65.2,94.1,122.5c3,17.5,4,35.3,5.8,53.4H783.5c-1-9.3-1.2-18.6-3-27.7c-6-33.2-22-50-55.4-56.3s-65-0.8-92,21.5
			c-15.6,13.5-28.3,30.2-37,49c-26,51.4-34.4,106-28.8,162.8c2,21.4,8.5,41.7,20.2,60c12.6,19.8,30.4,32,53.7,35.1s45.8,1,67.3-9
			c13.9-7,25.9-17.3,34.9-30c12.6-16.9,22-36,27.8-56.3H671l16.3-97h195l-3.3,19.4c-4.7,26.3-8.3,53-14.3,79
			c-10.1,47.4-31.6,91.6-62.8,128.7c-19,21.8-42.4,39.2-68.8,51c-15.4,7-30,16-46.7,19.7c-1.2,0.3-2.4,0.8-3.5,1.3L618,1948.3z
			 M0,1131.3l2-16.5c6.1-69.5,28-133.2,71-188.8c26.3-35.1,63.1-60.8,105-73.5c29.1-8.3,59.4-11,89.5-7.9
			c28.6,2.3,56.4,10.6,81.6,24.4c45.2,25.2,70.3,64.4,78.7,114.6c2.9,17.5,3.9,35.3,5.8,53.5h-108c-1-9.5-1.3-19.1-3-28.5
			c-6.1-32.8-22.7-49.4-55.7-55.4c-28-5-55.1-2.2-80,13c-19,12.2-34.5,29.2-44.7,49.4c-28.2,52.2-39.7,111.8-33,170.8
			c1.7,17.4,6.7,34.4,14.6,50c14,27.9,35.7,44.2,67.3,46.2c34.3,2.1,65.1-5.6,88.6-32.8c11.6-13.5,20.9-28.9,27.3-45.6
			c2.2-5.7,4.2-11.5,6.4-17.8H213.2l16.1-97h195.1l-4.4,25.5c-4.6,25.7-8.1,51.7-14.3,77c-11,45.6-30,87.6-60.9,123.7
			c-19.1,22.1-42.9,39.7-69.6,51.6c-10.4,4.8-20.4,10.4-31,14.8c-17.8,6.8-36.8,9.7-55.8,8.3c-32.5-1.3-63.6-8-92-24.5
			c-36.4-21-60.9-52-76.5-90.5c-10.7-27.7-17.1-56.9-18.9-86.5c-0.2-1.5-0.6-3-1-4.5V1131.3z M901.3,977.4l-55.6,400h-95l86.7-520
			h133.4l29.7,364h0.8c0.6-1.2,1.3-2.5,1.8-3.8L1148,862c1.8-4.4,3.8-5.9,8.5-5.8c41.5,0.5,83,0.7,124.5,1l3.7,0.2l-87.1,520h-94
			l72.7-396.6l-1-0.3l-2.2,4.6l-156.8,388c-1.5,3.8-3.3,4.9-7.2,4.8c-22.1-0.2-44.3,0-66.5,0h-5.3L902,977.3L901.3,977.4z
			 M1822.5,1717.7l85.6,220h-109.7c-3.9,0-5.3-1.2-6.7-4.7c-24.4-63.2-49-126.3-73.5-189.5c-1.4-3.6-3-4.7-6.7-4.6
			c-13.7,0.2-27.3,0-41.3,0l-33.5,198.4H1537l86.2-520.9l2.7-0.2c58.8,0,117.6-0.2,176.4,0.2c27.6,0.2,53.8,6.2,76.8,22.7
			c20.7,15.3,34.8,37.9,39.3,63.3c8.2,38.5,9.3,77-5,114.2c-16.5,43.3-46.7,75.3-86.4,98.7L1822.5,1717.7L1822.5,1717.7z
			 M1685,1645.3c18.9,0,37.5,0.5,56.1-0.2c10.6-0.4,21.2-2,31.4-5c24-7.3,42-21.4,48-47.2c3.2-13.5,3-27,0.6-40.6
			c-2.8-16.5-11.9-27.1-28-31.3c-5.4-1.4-10.8-3-16.2-3.2c-23-0.3-45.9-0.1-69.2-0.1L1685,1645.3L1685,1645.3z M1317.9,856.6h269.9
			l-16.5,107.8h-169.9l-17,94.1h153.4l-16,101h-153.5l-19.8,110.9h173.3l-17,107h-273.2L1317.9,856.6L1317.9,856.6z"/>
		<path class="st0" d="M1153,1719.4H999.5l-20,110.8H1153l-17,107.1H862.7l86.2-520.9h270l-16.5,107.7h-169.9l-17,94.4h153.2
			l-15.8,100.9H1153z"/>
		<path class="st0" d="M1145,1937.3l16.1-40.3l191.8-476.4c1.4-3.5,3-4.7,6.8-4.6c34.1,0.1,68.3,0,102.4,0h4.9l59.3,521.4h-98.9
			l-8.7-101.1c-1.7,0-3.1-0.3-4.6-0.3h-125c-3.6,0-5,1.1-6.2,4.4l-34,93.2c-1,2.4-1.7,4.1-5,4.1h-96.5
			C1146.6,1937.6,1145.8,1937.5,1145,1937.3L1145,1937.3z M1411,1746.4l-17.6-204.9h-1l-75,205L1411,1746.4z M356.4,1377.3
			l209.7-521h112.4l59.2,521.1h-99l-8.8-101.3H500.8c-3.9,0-5.4,1.2-6.6,4.7l-34.2,93c-0.9,2.6-2,4-5.1,4h-95
			C359,1377.8,358,1377.5,356.4,1377.3L356.4,1377.3z M604.8,981.6l-0.8-0.3l-75.4,205.6h93.7L604.8,981.6z"/>
		
			<ellipse transform="matrix(0.6639 -0.7478 0.7478 0.6639 -122.6771 427.431)" class="st0" cx="414.2" cy="350.2" rx="440" ry="179.8"/>
		
			<ellipse transform="matrix(0.6639 -0.7478 0.7478 0.6639 76.4375 870.3483)" class="st0" cx="1006.5" cy="350.1" rx="440" ry="179.8"/>
		
			<ellipse transform="matrix(0.6639 -0.7478 0.7478 0.6639 276.3022 1315.4)" class="st0" cx="1601.6" cy="350.3" rx="440" ry="179.8"/>
	</g>
</g>
</svg>
