<?xml version="1.0" encoding="utf-8"?>
<!-- Generator: Adobe Illustrator 22.0.1, SVG Export Plug-In . SVG Version: 6.00 Build 0)  -->
<svg version="1.1" id="Layer_1" xmlns="http://www.w3.org/2000/svg" xmlns:xlink="http://www.w3.org/1999/xlink" x="0px" y="0px"
	 viewBox="0 0 175.8 41.9" style="enable-background:new 0 0 175.8 41.9;" xml:space="preserve">
<style type="text/css">
	.st0{fill:#22B14C;}
</style>
<g>
	<path class="st0" d="M163.8,12.6H115L106.3,0H68.7l-8.8,12.6h-48L0,19.4v15.3l12.5,7.2h150.8l12.5-7.2V19.5L163.8,12.6z M34.8,31.8
		l-5.2,3.5h-17V23.4l5.7-3.8h18.6l-5.5,3.7H19.5v8.3H28v-2.3h-7l5.6-3.7h8.2V31.8z M55.6,25.5L50,29.3h-6.6v2.3h15.4l-5.6,3.7H36.6
		V23.2l6-3.7h16.3l-5.6,3.7h-9.9v2.3H55.6z M88,6.6c0-1.7,1.3-3,3-3h5.2v1.5h-5.1c-0.9,0-1.6,0.8-1.6,1.7v4.8c0,0.9,0.7,1.6,1.6,1.7
		h3.6V8.9h-2.8V7.5h4.3v6.9l3-9.4c0.4-1.2,1.8-1.9,3.1-1.5c0.7,0.2,1.2,0.8,1.5,1.5l3.2,9.7h-6v-1.5h3.9l-2.6-8.1
		c-0.1-0.3-0.4-0.5-0.7-0.5c-0.3,0-0.6,0.2-0.7,0.5l-3.1,9.5h-6.7c-1.7,0-3-1.3-3-3L88,6.6z M92.7,11.3v-0.5h-0.8V9.4h2.3v3.4h-3.1
		c-0.6,0-1.2-0.5-1.2-1.2c0,0,0,0,0,0V6.8c0-0.6,0.5-1.2,1.2-1.2h5v1.5h-4.7v4.3H92.7z M101.5,9.6l-1.7,5.2h-1.6l3-9.3
		c0.1-0.1,0.1-0.2,0.3-0.2s0.2,0,0.2,0.2l2.4,7.4h-3.2v-1.5h1.1L101.5,9.6z M79,6.6c0-1.7,1.3-3,3-3h5v1.5h-4.9
		c-0.9,0-1.6,0.8-1.6,1.7v4.8c0,0.9,0.7,1.6,1.6,1.7h4.9v1.5h-5c-1.7,0-3-1.3-3-3L79,6.6z M87,11.3v1.5h-4.9c-0.6,0-1.2-0.5-1.2-1.1
		c0,0,0,0,0,0V9.4h5v1.5h-3.5v0.4H87z M86,7.5v1.5h-5V6.8c0-0.6,0.5-1.1,1.1-1.2h4.8v1.5h-4.5v0.4H86z M74.1,7.5
		c2,0,3.6,1.6,3.6,3.6s-1.6,3.6-3.6,3.6h-5v-1.4h4.9c1.2,0,2.2-1,2.2-2.2s-1-2.2-2.2-2.2c0,0,0,0,0,0h-1.3c-0.9,0-1.7-0.7-1.7-1.7
		s0.7-1.7,1.7-1.7h4.8V7h-5v0.5L74.1,7.5z M72.8,3.6h4.8v1.5h-4.8c-1.2,0.1-2.1,1.1-2,2.3c0.1,1.1,0.9,1.9,2,2h1.3
		C75,9.4,75.8,10,75.9,11c0.1,0.9-0.6,1.7-1.5,1.8c-0.1,0-0.2,0-0.3,0h-4.9v-1.4h5.1v-0.5h-1.5c-2,0-3.6-1.5-3.6-3.5c0,0,0,0,0-0.1
		C69.1,5.2,70.8,3.6,72.8,3.6z M82.6,35.3h-6.8v-5.2l-8.5-5.3v10.5h-6.8V19.5h7l8.4,4.6v-4.6h6.8L82.6,35.3z M84.5,35.3V23.2l6-3.7
		h16.3l-5.6,3.7h-9.9v2.3h12.2L98,29.3h-6.6v2.3h15.4l-5.6,3.7H84.5z M128.4,25.5v6.1l-5.4,3.7h-16.8l5.6-3.7h9.9v-2.3h-15.3v-5.9
		l5.6-3.8h16.8l-5.6,3.7h-10v2.3H128.4z M137.4,35.3h-6.9V19.5h6.9V35.3z M162.1,25.5v6.1l-5.4,3.7h-16.9l5.6-3.7h9.9v-2.3H140v-5.9
		l5.6-3.8h16.8l-5.6,3.7h-10v2.3H162.1z"/>
</g>
</svg>
