<svg xmlns="http://www.w3.org/2000/svg" viewBox="0 0 458.9 298.8"><ellipse cx="230.4" cy="149.4" fill="none" stroke="#22b14c" stroke-linecap="round" stroke-linejoin="round" stroke-width="5" rx="146.9" ry="146.9"/><path fill="#22b14c" d="M341.8 53.6l2.3-.2a304 304 0 0 1 55.9.3 17 17 0 0 0 12.7-3.7c3.8-3.2 5.8-6.9 6.3-11.5.6-4.9-.9-9.2-3.7-12.7-3.2-3.7-6.9-6-11.5-6.3-18.4-2-39.2-2-61.9-.6-12 .8-24.3 2.1-37 3.8a148 148 0 0 1 36.9 30.9zM121.5 247.3a418.2 418.2 0 0 1-31.7 2.1h-.3a94 94 0 0 1-29.1-3.2 15.8 15.8 0 0 0-13.1.6 15.5 15.5 0 0 0-9.3 9.6c-1.7 4.7-1.5 9 .6 13.4 2 4.4 5.2 7.6 9.6 9.3 9.3 3.5 23 5.2 41.9 5.2 16-.3 34.7-1.8 56.2-5h.3l12.5-1.9a144.5 144.5 0 0 1-37.6-30.1zM432.1 87.7c-6.9-5.5-19.9-6.9-39.5-4.3h-.8c-12.7 2-29.7 5.6-50.7 11.5-16.1 4.5-36.9 10.6-62.8 19l-68.5 21.8a2510 2510 0 0 1-67.1 20.7 654.8 654.8 0 0 1-58.8 14.8c-17 3.4-30.2 4.8-40.3 4.2-4 0-6.9-.3-8.1-.3l-.3-.3c-.9-2.8-.6-6.2 1.4-9.5v-.3a75.6 75.6 0 0 1 20.2-20.7c7.9-6 17.1-12 27.9-17.8a139 139 0 0 1 15.2-45.1c-6.5 2.9-12.8 5.9-18.9 8.9h-.2a244.5 244.5 0 0 0-45.2 28.5v-.3a102 102 0 0 0-29 32.5v.5c-8.1 14.7-8.6 28.2-2 40.9 4 12.4 16.2 18.1 37.2 19.3 12.1.9 28.7 0 49.5-4a904 904 0 0 0 61.6-15.8c17.9-5.5 40.6-12.7 68.3-21.9l68.6-22.5c25.1-8.4 45.5-14.7 61.3-19a335 335 0 0 1 46.1-10.9 64.8 64.8 0 0 1 16.4-.9v.3c6.3 4 9.8 8.1 10.1 12.7-2.3 7.2-9.5 15.3-21 24.2a233.1 233.1 0 0 1-26.8 17 145.3 145.3 0 0 1-14.9 46.3 349.3 349.3 0 0 0 62.8-36c20.2-15.6 31.7-30.2 33.7-44.4 5.1-18.9-3.2-35-25.4-49.1z"/></svg>