<svg xmlns="http://www.w3.org/2000/svg" viewBox="0 0 189.7 27.2"><defs><style>.cls-1{fill:#22b14c}</style></defs><g id="Layer_2" data-name="Layer 2"><g id="svg4139"><g id="layer1"><g id="text4145"><path id="path6759" d="M25.4 21.8a5.1 5.1 0 0 1-5.5 5.4H.4v-5.4H20v-5.4H5.4a5.3 5.3 0 0 1-3.9-1.6A5.3 5.3 0 0 1 0 11V5.4a5.4 5.4 0 0 1 1.6-3.8A5.6 5.6 0 0 1 3.3.4 5.2 5.2 0 0 1 5.4 0h18.1v5.4H5.4V11h14.5a5.5 5.5 0 0 1 2.1.4 5.5 5.5 0 0 1 1.8 1.2 5.2 5.2 0 0 1 1.1 1.7 5.5 5.5 0 0 1 .5 2.2z" class="cls-1"/><path id="path6761" d="M57 27.2H35.2c-3.7 0-5.5-1.8-5.5-5.4V5.4a5.4 5.4 0 0 1 .5-2.1 5.5 5.5 0 0 1 1.1-1.7A5.7 5.7 0 0 1 33.1.4a5.3 5.3 0 0 1 2-.4H56v5.4H35.2v16.4h16.3v-5.4H40.6v-5.5H57z" class="cls-1"/><path id="path6763" d="M77.4 16.4H61.1v-5.5h16.3z" class="cls-1"/><path id="path6765" d="M96.4 27.2H80v-5.4h5.5V5.4H80V0h11v21.8h5.4z" class="cls-1"/><path id="path6767" d="M127.2 21.8c0 3.6-1.8 5.4-5.5 5.4h-16.3q-5.4 0-5.4-5.4V5.4a5.2 5.2 0 0 1 .5-2.1 5.2 5.2 0 0 1 1.1-1.7 5.5 5.5 0 0 1 1.8-1.2 5.2 5.2 0 0 1 2-.4h16.3a5.5 5.5 0 0 1 2.1.4 5.6 5.6 0 0 1 1.8 1.2 5.4 5.4 0 0 1 1.1 1.7 5.4 5.4 0 0 1 .4 2.1zm-5.5 0V5.4h-16.3v16.4z" class="cls-1"/><path id="path6769" d="M158.4 21.8c0 3.6-1.8 5.4-5.4 5.4h-16.3q-5.4 0-5.4-5.4V5.4a5.2 5.2 0 0 1 .4-2.1 5.2 5.2 0 0 1 1.2-1.7 5.5 5.5 0 0 1 1.7-1.2 5.2 5.2 0 0 1 2-.4H153a5.5 5.5 0 0 1 2.1.4 5.6 5.6 0 0 1 1.8 1.2 5.4 5.4 0 0 1 1.1 1.7 5.4 5.4 0 0 1 .4 2.1zm-5.4 0V5.4h-16.3v16.4z" class="cls-1"/><path id="path6771" d="M189.7 21.8c0 3.6-1.8 5.4-5.4 5.4h-16.4q-5.4 0-5.4-5.4V5.4a5.2 5.2 0 0 1 .5-2.1 5.2 5.2 0 0 1 1.2-1.7 5.5 5.5 0 0 1 1.7-1.2 5.2 5.2 0 0 1 2-.4h16.3a5.5 5.5 0 0 1 2.1.4 5.6 5.6 0 0 1 1.8 1.2 5.4 5.4 0 0 1 1.1 1.7 5.4 5.4 0 0 1 .4 2.1zm-5.4 0V5.4h-16.4v16.4z" class="cls-1"/></g></g></g></g></svg>