<?xml version="1.0" encoding="utf-8"?>
<!-- Generator: Adobe Illustrator 22.0.1, SVG Export Plug-In . SVG Version: 6.00 Build 0)  -->
<svg version="1.1" id="Layer_1" xmlns="http://www.w3.org/2000/svg" xmlns:xlink="http://www.w3.org/1999/xlink" x="0px" y="0px"
	 viewBox="0 0 187.9 134.8" style="enable-background:new 0 0 187.9 134.8;" xml:space="preserve">
<style type="text/css">
	.st0{fill:#22B14C;}
</style>
<title>Asset 1</title>
<g id="Layer_2_1_">
	<g id="body">
		<ellipse class="st0" cx="37.5" cy="79.7" rx="37.5" ry="19"/>
		<ellipse class="st0" cx="108.7" cy="114.9" rx="39.4" ry="19.9"/>
		<path class="st0" d="M187.9,71.7c0.1-19.1-15.3-34.8-34.4-34.9S118.7,52,118.6,71.2c0.6,0,1.2,0,1.8,0c19,0,34.4,15.4,34.4,34.4
			l0,0c0,0.3,0,0.5,0,0.8C173.3,105.5,187.9,90.2,187.9,71.7z"/>
		<path class="st0" d="M119.6,35.6c-0.2-19.6-16.2-35.4-35.9-35.2C64.5,0.5,48.9,15.9,48.5,35.1h1.1c19.8,0,35.9,16.1,35.9,35.9v0.1
			C104.5,70.3,119.6,54.6,119.6,35.6z"/>
	</g>
</g>
</svg>
