<svg xmlns="http://www.w3.org/2000/svg" viewBox="0 0 194 57.5"><defs><style>.cls-1{fill:#22b14c}</style></defs><g id="Layer_2" data-name="Layer 2"><g id="Layer_1-2" data-name="Layer 1"><path d="M110.6 10c3.1.3 5.2 2.6 4.5 5.8a7.4 7.4 0 0 1-6.8 5.7 4.5 4.5 0 0 1-4.6-5.7h-2c-.9 4.3 1.8 7.8 6 7.8a10 10 0 0 0 9.5-7.8c.9-4.4-2-7.6-6.2-7.8a2.4 2.4 0 0 1-2.4-3 3.8 3.8 0 0 1 3.6-3 2.4 2.4 0 0 1 2.4 3h2a4 4 0 0 0-4-5 6.5 6.5 0 0 0-6 5 4 4 0 0 0 4 5M134.9 8.2h-2l-1.7 7.8a7.4 7.4 0 0 1-6.9 5.7 4.5 4.5 0 0 1-4.5-5.7l1.6-7.8h-2l-1.7 7.8a6.2 6.2 0 0 0 6.3 7.8 9.5 9.5 0 0 0 6.2-2.5l-.5 2.3h2.1zM143.3 10a4.5 4.5 0 0 1 4.5 5.8 7.3 7.3 0 0 1-6.8 5.7 4.5 4.5 0 0 1-4.6-5.7 7.4 7.4 0 0 1 6.9-5.7m-2.8 13.5a10.1 10.1 0 0 0 9.4-7.9c.9-4.3-1.9-7.7-6.2-7.7a10 10 0 0 0-9.4 7.8l-3 15.3h2l2-10a6.3 6.3 0 0 0 5.2 2.5zM153.6 15.8a7.3 7.3 0 0 1 6.9-5.7 4.8 4.8 0 0 1 3 1L154 19a5 5 0 0 1-.3-3.2m12.8-4.7A6.3 6.3 0 0 0 161 8a9.9 9.9 0 0 0-9.4 7.8c-.8 4.3 1.9 7.7 6.2 7.7a10 10 0 0 0 9.4-7.7h-2a7.3 7.3 0 0 1-6.9 5.7 4.8 4.8 0 0 1-3-1zM167.7 23.6h2l1.7-8a7.3 7.3 0 0 1 6.8-5.4l.4-2a9.4 9.4 0 0 0-6.2 2.4l.5-2.4h-2zM16.9 51.8c-4.3 3.4-10 3.4-12.6 0S3 42.5 7.2 39.1s9.9-3.4 12.6 0l2.4-2c-3.5-4.6-11-4.6-16.6 0s-7.3 12-3.7 16.5 10.9 4.6 16.5 0z" class="cls-1"/><path d="M16.9 51.8c-4.3 3.4-10 3.4-12.6 0S3 42.5 7.2 39.1s9.9-3.4 12.6 0l2.4-2c-3.5-4.6-11-4.6-16.6 0s-7.3 12-3.7 16.5 10.9 4.6 16.5 0zM32 49.4a6.4 6.4 0 0 1-6 4.9 3.8 3.8 0 0 1-3.7-5 6.3 6.3 0 0 1 6-4.7 3.7 3.7 0 0 1 3.7 4.8zm4.2 4.8a3.8 3.8 0 0 1-1.4-4.2l.1-.7c1-4.2-1.7-7.7-6-7.7a10.3 10.3 0 0 0-9.5 7.7c-1 4.4 1.7 7.9 6 7.9a9.8 9.8 0 0 0 6.9-3 4.7 4.7 0 0 0 3.2 3z" class="cls-1"/><path d="M32 49.4a6.4 6.4 0 0 1-6 4.9 3.8 3.8 0 0 1-3.7-5 6.3 6.3 0 0 1 6-4.7 3.7 3.7 0 0 1 3.7 4.8zm4.2 4.8a3.8 3.8 0 0 1-1.4-4.2l.1-.7c1-4.2-1.7-7.7-6-7.7a10.3 10.3 0 0 0-9.5 7.7c-1 4.4 1.7 7.9 6 7.9a9.8 9.8 0 0 0 6.9-3 4.7 4.7 0 0 0 3.2 3z" class="cls-1"/><path d="M43.6 49.5a4.8 4.8 0 0 1 4.9-4.9v-3a7.8 7.8 0 0 0-7.8 7.8 4.8 4.8 0 0 1-4.8 4.9v3a7.8 7.8 0 0 0 7.7-7.8z" class="cls-1"/><path d="M43.6 49.5a4.8 4.8 0 0 1 4.9-4.9v-3a7.8 7.8 0 0 0-7.8 7.8 4.8 4.8 0 0 1-4.8 4.9v3a7.8 7.8 0 0 0 7.7-7.8zM53.3 49.5a4.8 4.8 0 0 1 4.9-4.9v-3a7.8 7.8 0 0 0-7.8 7.8 4.8 4.8 0 0 1-4.8 4.9v3a7.8 7.8 0 0 0 7.7-7.8z" class="cls-1"/><path d="M53.3 49.5a4.8 4.8 0 0 1 4.9-4.9v-3a7.8 7.8 0 0 0-7.8 7.8 4.8 4.8 0 0 1-4.8 4.9v3a7.8 7.8 0 0 0 7.7-7.8zM60.7 49.5a4.8 4.8 0 0 1 4.8-5 4.9 4.9 0 0 1 2.2.5l-6.5 6.6a5 5 0 0 1-.5-2.1zm9.7 0a4.8 4.8 0 0 1-4.9 4.8 5 5 0 0 1-2.2-.6l8.6-8.7a7.8 7.8 0 1 0 1.4 4.5z" class="cls-1"/><path d="M60.7 49.5a4.8 4.8 0 0 1 4.8-5 4.9 4.9 0 0 1 2.2.5l-6.5 6.6a5 5 0 0 1-.5-2.1zm9.7 0a4.8 4.8 0 0 1-4.9 4.8 5 5 0 0 1-2.2-.6l8.6-8.7a7.8 7.8 0 1 0 1.4 4.5zM78 49.4l1-4.6h4.8l.7-3h-4.8l.7-3h-3l-2.3 10.6c-1 4.3 1.7 7.8 6 7.8l.6-3a3.8 3.8 0 0 1-3.7-4.8z" class="cls-1"/><path d="M78 49.4l1-4.6h4.8l.7-3h-4.8l.7-3h-3l-2.3 10.6c-1 4.3 1.7 7.8 6 7.8l.6-3a3.8 3.8 0 0 1-3.7-4.8zM87.5 49.4l1-4.6h4.9l.7-3h-4.8l.6-3H87l-2.4 10.6c-1 4.3 1.7 7.8 6 7.8l.7-3a3.8 3.8 0 0 1-3.8-4.8z" class="cls-1"/><path d="M87.5 49.4l1-4.6h4.9l.7-3h-4.8l.6-3H87l-2.4 10.6c-1 4.3 1.7 7.8 6 7.8l.7-3a3.8 3.8 0 0 1-3.8-4.8z" class="cls-1"/><path d="M95.9 49.5a4.8 4.8 0 0 1 4.8-5 5 5 0 0 1 2.2.5l-6.5 6.6a5 5 0 0 1-.5-2.1zm9.7 0a4.8 4.8 0 0 1-5 4.8 5 5 0 0 1-2.2-.6l8.7-8.7a7.8 7.8 0 1 0 1.4 4.5z" class="cls-1"/><path d="M95.9 49.5a4.8 4.8 0 0 1 4.8-5 5 5 0 0 1 2.2.5l-6.5 6.6a5 5 0 0 1-.5-2.1zm9.7 0a4.8 4.8 0 0 1-5 4.8 5 5 0 0 1-2.2-.6l8.7-8.7a7.8 7.8 0 1 0 1.4 4.5zM127.4 57.5a5 5 0 0 0 4.3-2.9l9.7-20.8h-3L129 54a1.2 1.2 0 0 1-1 .7.8.8 0 0 1-.8-.7l-1.3-20h-3.1l1.4 20.7a3 3 0 0 0 3.2 3z" class="cls-1"/><path d="M127.4 57.5a5 5 0 0 0 4.3-2.9l9.7-20.8h-3L129 54a1.2 1.2 0 0 1-1 .7.8.8 0 0 1-.8-.7l-1.3-20h-3.1l1.4 20.7a3 3 0 0 0 3.2 3zM146 37.4a1.6 1.6 0 0 0-1.6-2 2.6 2.6 0 0 0-2.4 2 1.6 1.6 0 0 0 1.6 2 2.6 2.6 0 0 0 2.4-2zm-7.4 19.8h3l3-15.4h-3z" class="cls-1"/><path d="M146 37.4a1.6 1.6 0 0 0-1.6-2 2.6 2.6 0 0 0-2.4 2 1.6 1.6 0 0 0 1.6 2 2.6 2.6 0 0 0 2.4-2zm-7.4 19.8h3l3-15.4h-3zM151.2 49.5a4.8 4.8 0 0 1 4.8-4.9v-3a7.7 7.7 0 0 0-7.8 7.8 4.8 4.8 0 0 1-4.8 4.9v3a7.8 7.8 0 0 0 7.8-7.8z" class="cls-1"/><path d="M151.2 49.5a4.8 4.8 0 0 1 4.8-4.9v-3a7.7 7.7 0 0 0-7.8 7.8 4.8 4.8 0 0 1-4.8 4.9v3a7.8 7.8 0 0 0 7.8-7.8zM162.5 37.4a1.6 1.6 0 0 0-1.6-2 2.5 2.5 0 0 0-2.4 2 1.6 1.6 0 0 0 1.6 2 2.5 2.5 0 0 0 2.4-2zM155 57.2h2.9l3-15.4h-3z" class="cls-1"/><path d="M162.5 37.4a1.6 1.6 0 0 0-1.6-2 2.5 2.5 0 0 0-2.4 2 1.6 1.6 0 0 0 1.6 2 2.5 2.5 0 0 0 2.4-2zM155 57.2h2.9l3-15.4h-3zM168.1 54.3a3.9 3.9 0 0 1-3.8-4.9 6.2 6.2 0 0 1 5.8-4.8 3.9 3.9 0 0 1 3.8 4.8 6.2 6.2 0 0 1-5.8 4.9zm2.5-12.7a10 10 0 0 0-9.3 7.8c-.8 4.3 2 7.8 6.3 7.8a10 10 0 0 0 9.3-7.8c.8-4.3-2-7.8-6.3-7.8z" class="cls-1"/><path d="M168.1 54.3a3.9 3.9 0 0 1-3.8-4.9 6.2 6.2 0 0 1 5.8-4.8 3.9 3.9 0 0 1 3.8 4.8 6.2 6.2 0 0 1-5.8 4.9zm2.5-12.7a10 10 0 0 0-9.3 7.8c-.8 4.3 2 7.8 6.3 7.8a10 10 0 0 0 9.3-7.8c.8-4.3-2-7.8-6.3-7.8zM187 44.5a3.9 3.9 0 0 1 3.9 4.9l-1.6 7.8h3l1.5-7.8c.8-4.3-2-7.8-6.2-7.8a9.2 9.2 0 0 0-5.2 1.7l.3-1.6h-2.9l-3 15.5h2.8l1.6-8a6.2 6.2 0 0 1 5.8-4.7z" class="cls-1"/><path d="M187 44.5a3.9 3.9 0 0 1 3.9 4.9l-1.6 7.8h3l1.5-7.8c.8-4.3-2-7.8-6.2-7.8a9.2 9.2 0 0 0-5.2 1.7l.3-1.6h-2.9l-3 15.5h2.8l1.6-8a6.2 6.2 0 0 1 5.8-4.7z" class="cls-1"/></g></g></svg>