<svg xmlns="http://www.w3.org/2000/svg" viewBox="0 0 738.7 254.3"><defs><style>.cls-1{fill:#22b14c}</style></defs><g id="Layer_2" data-name="Layer 2"><g id="Super"><path d="M417.3 0l9 25.2s-31.5 17.3-31.5 31.3c0 8.8 9.2 9.5 18.9 9.5s30.3-.8 31 16.2c1.6 39.5-35 48.6-35 48.6L393 106.3a62.5 62.5 0 0 0 21.8-4.1c12-4.5 18.2-11.9 18.2-17.2s-1.8-6.7-17.3-6.7-33-2.6-33-20.8S400 15.3 417.3 0zM441.3 40.8l13.4-3.1 10.1 46c1.5 6.8 11.9 18 25 13 12.6-4.8 11.6-15.8 10-21.2l-10.6-36.7 12.6-4.3 9.5 41.2c1.5 6.7 2.2 26.5-16.8 32.1s-36-4.8-40-19.5zM554.3 32.8a54.6 54.6 0 0 0-20.6 4.3l.5-4.3-18.9-3-.4 72.2 10.8.7 3-25.1c4.1 2.8 15 9.6 26.5 9.6 14.5 0 30.1-10.9 30.1-27.5s-17.8-26.9-31-26.9zm-.3 41.7a37 37 0 0 1-23.8-9.2l1.9-15.2a38.9 38.9 0 0 1 20.6-5.6c14.5 0 21.8 9.8 21.8 16.3s-4.3 13.7-20.5 13.7z" class="cls-1"/><path d="M601 82.7L596.9 65l24.6-9.8-4.2-10.7L594 53l-4.3-18.5 32.3-8.2-5-19-42.5 19 17.5 73.9 45.8-18.7V65.4L601 82.7zM698.8 77.4a26.3 26.3 0 0 0 12.5-22c0-16.7-17.8-26.9-31-26.9a54.8 54.8 0 0 0-20.6 4.3l.5-4.3-19.9-3-.5 74.2 10.8 1.6 4.1-28c4.1 2.8 15 9.5 26.5 9.5a30.5 30.5 0 0 0 6.3-.6c3 3.2 6.5 8.2 6.5 13.6a39.6 39.6 0 0 1-1.8 12l16 4.9a57.3 57.3 0 0 0-2.5-23.2 34.6 34.6 0 0 0-6.9-12zM680 70.2a37 37 0 0 1-23.8-9.3l1.9-15.1a39 39 0 0 1 20.6-5.6c14.5 0 21.8 9.8 21.8 16.3s-4.3 13.7-20.5 13.7z" class="cls-1"/></g><g id="A_can" data-name="A'can"><path d="M172.1 109.5C80.8 109.5 0 252.3 0 252.3h102.3s44-90 80-90 1.9 90 1.9 90h29.3s52.2-142.8-41.4-142.8zM355.5 165.8a135.5 135.5 0 0 1 31.8 4.2l11.4-11.5s-36.5-26-70.9-26-85.6 21.7-85.6 64.8 49 55 77.3 55 66.7-19 66.7-19l-4.5-20.8s-21.4 8.8-44.7 8.8c-14.7 0-27-10.6-27-26 0-18 28.8-29.5 45.5-29.5zM261.3 137a91 91 0 0 1 17.9-9.5s-7.4-11-23.9-16.2-30.6 2.8-30.6 2.8 8.4 8 13.6 17.2S245 153 245 153s7.5-9.9 16.3-16.1z" class="cls-1"/><path d="M548.8 218.7l23.7-86.2h-50.2l-2.2 8a133 133 0 0 0-46.6-8c-32 0-79.8 31-79.8 67.7s31 54.1 64.3 54.1a72 72 0 0 0 43-15.5 27 27 0 0 0 23.3 13.5c17 0 24.5-6.8 24.5-6.8l6.6-23.1s-8.9 4.4-6.6-3.7zm-95.1-15.9c0-28.1 27.8-40.5 40.8-40.5a43.3 43.3 0 0 1 18.4 4.4l-12.8 46.5c-12.3 9.7-46.4 16.1-46.4-10.4zM684.3 136.2a173.3 173.3 0 0 0-42 5l2.4-8.7h-50.2l-33 119.8h50.2l22.5-81.8c7-3.4 19.9-8.5 35.1-8.5 23.2 0 22.9 19.2 22.9 27.7 0 25.5-23.2 62.6-23.2 62.6h43s26.7-34.5 26.7-70.1-25.7-46-54.4-46z" class="cls-1"/><ellipse cx="157.2" cy="222.3" class="cls-1" rx="29.8" ry="7.3"/></g></g></svg>