<svg xmlns="http://www.w3.org/2000/svg" viewBox="0 0 1072 524"><defs><style>.cls-1{fill:#27b04c}</style></defs><g id="Layer_2" data-name="Layer 2"><g id="Layer_1-2" data-name="Layer 1"><path d="M150 0l48 54v65h-69V72H75v77h16v69H51l-3-3-48-49V56L49 0zM224 325V0h74v310h21v70h-38a4 4 0 0 1-3-1zM357 0h74v325l-54 55h-39v-70h19V0zM455 0h74v380h-74zM602 0l54 53v145l-54 53h-53v-72h32V72h-32V0zM680 0h163v72h-89v236h89v72H680zM868 0h74v380h-74zM1027 191l45 45v144h-75V228h-37v-72h37V72h-37V0h58l54 55v89z" class="cls-1"/><path d="M774 144h54v72h-54zM149 380H48L0 326v-65h69v47h55v-90h-13v-69h36l3 2 47 49a3 3 0 0 1 1 3v121zM284 524H171c-7 0-15-2-20-8a18 18 0 0 1-6-13v-67c0-8 6-15 14-18 5-2 11-2 16-2h109v20H170v68h89v-24h-43v-20h68zM308 416h109c9 0 19 4 24 12 3 5 2 10 2 15v19c-1 8-7 13-14 16s-15 2-23 2l39 44h-31l-39-44h-42v44h-25zm25 20v24h85v-24zM583 524l-43-88h-11l-44 88h-29l53-108h50l53 108zM624 416h127v20H649v24h89v20h-89v44h-25zM912 524h-37l-39-38-39 38h-37l57-57-52-51h37l34 33 34-33h37l-52 51z" class="cls-1"/></g></g></svg>