<svg xmlns="http://www.w3.org/2000/svg" viewBox="0 0 296 429"><defs><style>.cls-1{fill:#27b04c}</style></defs><g id="Layer_2" data-name="Layer 2"><g id="Layer_1-2" data-name="Layer 1"><path d="M134.5 31h15.9v44.9h-15.9zM91.1 288.1H107V333H91.1zM191.5 31h15.9v44.9h-15.9zM191.5 90h15.9v50.9h-15.9zM249.7 31H265v161.7h-15.3zM148.5 289h15.9v44h-15.9z" class="cls-1"/><path d="M0 0v429h296V0zm177.8 17.8H208a13 13 0 0 1 13 13v41.7c0 5.8-6 10-6 10s6 3.9 6 10v48.8c0 8.8-6.9 13-13 13h-30.3zm-57 0h28.7c7.8 0 14.6 6 14.6 12.4v44.7c0 8.2-6.3 14.3-11.1 14.3l13.8 65h-13l-14.8-64h-5v64.3h-13.3zM12 17h41v13H41v176.5H26.5v-176H12zm51.1 394.6H33c-6.4 0-14.4-5.3-14.4-13.4v-162c0-6.9 6.7-14.1 14-14.1h16.5c7.3 0 14 7.2 14 13.9v38.4H48.5v-37.9H32.2v161.9H49v-80.9h-7.3v-13.1h21.4zm0-270.8V17.3H77V141h16V17.3h14V141a13.8 13.8 0 0 1-13.7 13.7H77a14.2 14.2 0 0 1-13.8-13.9zm47.4 270.7l-14.8-64h-5v64.2H77.5V275h28.8c7.7 0 14.5 6 14.5 12.4v44.8c0 8.2-6.3 14.3-11 14.3l13.7 65zm67.5 0h-13.3v-65H148v65h-13.3V287.7c0-5.4 4.7-12.4 12.6-12.4h17.4c8 0 13.3 5 13.3 13.2zM114.5 262a46.6 46.6 0 0 1-44.8-47.8 48 48 0 0 1 44.8-47h65.9a48 48 0 0 1 44.7 47.1c0 29-23 47.7-44.7 47.7zm112.3 25.1h-20.6v46h17v13.4l-17-.1v65h-13.4V287c0-5.6 5.1-11.8 11.7-11.8h22.3zM279 411.6h-13.2v-67.8l-8.5-12.9-8.5 12.7v68h-14v-65c0-8 14.9-29.8 14.9-29.8s-14.9-20.8-14.9-29.2v-65H249v68.7l8 12 7.8-11.7v-69h14v65.3c0 8-13.8 29-13.8 29s14 21 14 29.5zm.2-218.1c0 6-6.7 13.3-13.4 13.3h-17.1c-6.3 0-13.7-6.4-13.7-13.6V30.4c0-5.6 5.8-12.9 13.8-12.9h15.7c8.4 0 14.7 7.5 14.7 12.5z" class="cls-1"/><path d="M182.8 176H112c-13.3 0-34.7 14.5-34.7 38.3A39 39 0 0 0 112 254h70.8v-.1a39.3 39.3 0 0 0 0-77.9zm-59.5 66.8h-21.8V235h7V195h-6.9V187h14.8v48h6.8zm68.7-41.2h-7v-7h-44.1v16.8H188l4 4v22.1l-5 5h-48.3l-5-5v-45.6l4.7-4.7h49.3l4.3 4.3z" class="cls-1"/><path d="M141.3 218.8h43.3v16.1h-43.3z" class="cls-1"/></g></g></svg>