<svg xmlns="http://www.w3.org/2000/svg" viewBox="0 0 245.5 52.6"><defs><style>.cls-1{fill:#22b14c}</style></defs><g id="Layer_2" data-name="Layer 2"><g id="Layer_1-2" data-name="Layer 1"><path d="M42.5 0L28.3 24.3 14.2 0 0 8.1l28.3 44.5L56.7 8.1 42.5 0z" class="cls-1"/><circle cx="49.2" cy="43.3" r="7.3" class="cls-1"/><path d="M88.5 5s-22 4-22 14 13 11 13 15-11 4-11 4l1 10s23-4 23-15-13-10-13-15 11-3 11-3zM139.5 5l-14 23-14-23-16 39 11 4 7-20 12 18 12-18 7 20 11-4-16-39zM163.5 5h13v43h-13zM186.5 5h13v43h-13zM199.5 37h13v11h-13zM219.5 5h13v43h-13zM232.5 37h13v11h-13zM232.5 5h13v11h-13zM232.5 22h10v9h-10z" class="cls-1"/></g></g></svg>