<svg xmlns="http://www.w3.org/2000/svg" viewBox="0 0 732 125"><defs><style>.cls-1{fill:#22b14c}</style></defs><g id="Layer_2" data-name="Layer 2"><g id="Layer_1-2" data-name="Layer 1"><path d="M324.3 40.8s-.8 3.5 0 4.8a5.4 5.4 0 0 0 2.8 1.8H343a5 5 0 0 1 3 1 3.9 3.9 0 0 1 .8 2.9v46.6a6 6 0 0 0 1.3 2.8 3.4 3.4 0 0 0 2.5 1h18.6a3.4 3.4 0 0 0 2.5-1 6 6 0 0 0 1.3-2.8V51.2a3.9 3.9 0 0 1 .8-2.8 5 5 0 0 1 3-1h16a5.3 5.3 0 0 0 2.7-1.8c.8-1.4 0-4.8 0-4.8l-3.2-13.2a3.2 3.2 0 0 0-1-1.6 2.8 2.8 0 0 0-1-.8 14.3 14.3 0 0 0-4-1.2h-52.8a14.3 14.3 0 0 0-4 1.2 2.7 2.7 0 0 0-1 .8 3.2 3.2 0 0 0-1 1.6zM232.6 62.8a43.4 43.4 0 0 0 75.7 28.8l-17.7-17.7a18.3 18.3 0 1 1 .8-21l17-18.7A43.3 43.3 0 0 0 232.5 63zM147.6 95.3c0 4.7 1.5 6.2 6.2 6.2H213c4.7 0 5.2-6.4 5.2-6.2l1.3-7.8a2.2 2.2 0 0 0-2.4-2.8h-38.3a3.3 3.3 0 0 1-3.2-3.2v-8.9a3.3 3.3 0 0 1 3.3-3.3H191a3.5 3.5 0 0 0 3.6-3.5v-7.1A3.6 3.6 0 0 0 191 55h-12.2a3.3 3.3 0 0 1-3.2-3.2V43a3.3 3.3 0 0 1 3.3-3.3h35.9a2.2 2.2 0 0 0 2.4-2.7l-1.4-9c0 .2-.4-6.2-5.1-6.2h-57c-4.6 0-6.1 1.5-6.1 6.2zM516.8 95.3c0 4.7 1.4 6.2 6.1 6.2h59.3c4.7 0 5.2-6.4 5.2-6.2l1.3-7.8a2.2 2.2 0 0 0-2.4-2.8H548a3.3 3.3 0 0 1-3.3-3.2v-8.9a3.3 3.3 0 0 1 3.3-3.3h12.2a3.6 3.6 0 0 0 3.5-3.5v-7.1a3.6 3.6 0 0 0-3.5-3.6H548a3.3 3.3 0 0 1-3.3-3.2V43a3.3 3.3 0 0 1 3.3-3.3h36a2.2 2.2 0 0 0 2.3-2.7l-1.3-9c0 .2-.4-6.2-5.2-6.2H523c-4.7 0-6.2 1.5-6.2 6.2zM78.3 97.5a24.5 24.5 0 0 0 2.9-3.6l44.5-67.1s2.7-3 1.4-4.4c-.7-.7-2.9-.6-2.9-.6h-25a12 12 0 0 0-2.8 1.7 29.7 29.7 0 0 0-2.4 3.1L77.6 48.2 61.3 26.6a29.7 29.7 0 0 0-2.4-3 12 12 0 0 0-2.8-1.8H31s-2.2 0-2.9.6c-1.3 1.4 1.4 4.4 1.4 4.4l44.5 67a24.8 24.8 0 0 0 3 3.7 1.1 1.1 0 0 0 1.2 0zM607.5 97.8c-.7 1.1-2.6 4.5 1.4 4.7h27.7a12 12 0 0 0 2.8-1.8 29.7 29.7 0 0 0 2.4-3L654.4 81l12.7 16.6a29.7 29.7 0 0 0 2.3 3 12 12 0 0 0 2.9 1.8h27.6c4-.2 2.1-3.6 1.4-4.7l.1-.3L678 62.7 701.4 28s2-2.5.2-4.4a2.4 2.4 0 0 0-1.7-.6h-27.6a11.8 11.8 0 0 0-2.9 1.8 29.7 29.7 0 0 0-2.3 3l-12.7 16.7-12.6-16.6a29.7 29.7 0 0 0-2.4-3.1 11.8 11.8 0 0 0-2.9-1.8H609a2.4 2.4 0 0 0-1.7.6c-1.8 1.9.2 4.4.2 4.4L631 62.8l-23.5 34.7zM439.3 102.5c2.3 0 3.4-1 3.4-3.4V46a2.5 2.5 0 0 1 2.7-2.7H458c4.6 0 7.7 2.6 7.7 6.6s-3.1 8.8-7.7 8.8v32c0 1 8.5 11.9 9.5 11.9h23.8c8.9 0 4.7-4.8 4.7-4.8l-19-26.4c8.5-5 15.4-14.1 15.4-23.3 0-13.7-10.4-24.9-26-24.9H420c-3.2 0-5.8 1.5-5.8 4.7v68.8c0 3.2 1.4 5.8 4.6 5.8z" class="cls-1"/><path d="M13.5 1.9S7 2.4 2 10.5a13 13 0 0 0 .9 15l60.5 88.7s4.3 8.3 14.2 8.3 15.5-8.3 15.5-8.3l31.5-45h2.3v34.4s.8 6.1 6.8 12 11 5.7 11 5.7h72.5s9.9.7 14-3.3c5.7-5.8 5-9.7 5-9.7s13 16.6 42.7 16.6c26.2 0 38.7-11.6 44-19h4.5c1 4 2.6 9.2 5.5 12 5.1 5.1 14.8 4.5 14.8 4.5h368s7-.3 12.5-8.6c4.3-6.5.6-15 .6-15l-22.6-36.7 25-37.9s3.1-9.4-2.6-15.1C721.4 2 709.8 3 709.8 3H511.5c-3.6 0-13 8.3-13 8.3S487.4 3 477 3h-152c-4.7 0-13 7.1-13 7.1S295.2 0 276.4 0s-40.3 14.9-40.3 14.9-5-13-21.3-13zm213.1 61A48.4 48.4 0 0 1 276 13.6c16 0 30.4 6.4 39.7 18 .5.7.3 5 .3 5l-21.6 22h-5.8a14.2 14.2 0 0 0-12.5-7.8c-6.9 0-11.4 4.8-11.4 11.3s4 12.4 10.9 12.4c5.5 0 11.4-3 13.4-7.6h4.1l22 22.8V94a50.1 50.1 0 0 1-39.2 18 48.4 48.4 0 0 1-49.2-49.2zM315.1 45l6.5-23.1a8.3 8.3 0 0 1 3.2-3.2 17.7 17.7 0 0 1 5.1-1.5h60.2a17.6 17.6 0 0 1 5 1.5 5.1 5.1 0 0 1 2.7 2.6l5.9 23.7s1 4.3-.1 6a6.6 6.6 0 0 1-3.5 2.3h-15.4s-2.6 0-3.8 1.2-1 3.5-1 3.5v45a7.5 7.5 0 0 1-1.7 3.5 4.3 4.3 0 0 1-3 1.3h-30.5a4.3 4.3 0 0 1-3-1.3 7.5 7.5 0 0 1-1.7-3.5v-45s.3-2.3-1-3.5-3.8-1.2-3.8-1.2h-16.6a6.6 6.6 0 0 1-3.4-2.3c-1.1-1.7-.1-6-.1-6zm-174 56.1V23.3c0-5.5 1.8-7.2 7.3-7.2h67.4c5.6 0 6 7.5 6 7.2 0 0 2.5 13.7 2.5 15s.5 7.4-4 7.4h-37a1.8 1.8 0 1 0 0 3.5h13.4a3.5 3.5 0 0 1 3.8 3.8v18.5a3.5 3.5 0 0 1-3.7 3.8h-13.5a1.8 1.8 0 1 0 0 3.5h39.4c4.5 0 4 6 4 7.3s-2.4 15-2.4 15c0-.2-.5 7.3-6 7.3h-69.9c-5.5 0-7.2-1.7-7.2-7.2zm369.2 0V23.3c0-5.5 1.8-7.2 7.3-7.2H585c5.6 0 6 7.5 6 7.2 0 0 2.5 13.7 2.5 15s.5 7.4-4 7.4h-37a1.8 1.8 0 1 0 0 3.5h13.4a3.5 3.5 0 0 1 3.8 3.8v18.5a3.5 3.5 0 0 1-3.8 3.8h-13.4a1.8 1.8 0 1 0 0 3.5h39.4c4.4 0 4 6 4 7.3s-2.4 15-2.4 15c0-.2-.6 7.3-6.1 7.3h-69.8c-5.5 0-7.3-1.7-7.3-7.2zm-432 6.8a1.3 1.3 0 0 1-1.3 0 29.2 29.2 0 0 1-3.5-4.3L18.4 22s-3.3-3.5-1.7-5.1c.8-.8 3.4-.7 3.4-.7h39.2a14 14 0 0 1 3.3 2 34.7 34.7 0 0 1 2.8 3.7l12.2 15.6L90 21.8a34.7 34.7 0 0 1 2.8-3.7 14 14 0 0 1 3.4-2h39.1s2.6-.1 3.4.7c1.6 1.6-1.7 5.1-1.7 5.1l-55 81.8a29.2 29.2 0 0 1-3.6 4.3zM655 31.9l7.9-10.1a36.2 36.2 0 0 1 2.8-3.7 14.3 14.3 0 0 1 3.3-2h41.5s2.3 0 3.1.7c2.8 2.8 1 5.1 1 5.1L687 63l27.6 40.8s1.8 2.4-1 5.1c-.8.9-3.1.8-3.1.8h-41.6a14.3 14.3 0 0 1-3.3-2 35 35 0 0 1-2.8-3.6l-7.9-10.2L647 104a33.6 33.6 0 0 1-2.8 3.6 14 14 0 0 1-3.3 2h-41.5s-2.3.1-3.1-.7c-2.8-2.8-1-5.1-1-5.1l27.6-41L595.3 22s-1.8-2.4 1-5.1c.8-.8 3-.8 3-.8H641a14 14 0 0 1 3.3 2 34.7 34.7 0 0 1 2.8 3.7zm-246.6 69.3V23.3c0-5.5 1.7-7.2 7.2-7.2h51a31.8 31.8 0 0 1 33.1 32 31 31 0 0 1-14.3 25.6l.1.4 21.4 28.4s3.5 6-1.2 6h-36.8a7.1 7.1 0 0 1-4.8-2.4l-10.6-11.9V53.6c2-.4 4.7-1 4.7-2 0-1.5-1.3-2.4-4.7-2.4s-3.6 1.2-3.6 1.2v53.3c0 3-1.7 4.7-4.8 4.7h-29.5c-5.5 0-7.3-1.7-7.3-7.2z" class="cls-1"/></g></g></svg>