<svg xmlns="http://www.w3.org/2000/svg" viewBox="0 0 693.7 100"><defs><style>.cls-1{fill:#27b04c}</style></defs><g id="Layer_2" data-name="Layer 2"><path id="Cross" d="M693.6 38.2h-33.8V4.4H637v33.8h-33.8V61H637v33.8h22.8V61h33.8V38.2z" class="cls-1"/><g id="Videopac"><path d="M100.7 5h19v90h-19zM128 5h19v90h-19zM213.7 5h19v90h-19zM379 5h19v90h-19zM238.2 5h36.2v19h-36.2zM238.2 76h36.2v19h-36.2zM238.2 40.5h36.2v19h-36.2zM163.2 5h-10.7v19h10.7a26 26 0 0 1 0 52h-10.7v19h10.7a45.1 45.1 0 0 0 45-45 45.1 45.1 0 0 0-45-45zM442.7 32.4A27.5 27.5 0 0 0 415.3 5h-11.6v19h11.6a8.4 8.4 0 1 1 0 16.8h-11.6v19h11.6a27.5 27.5 0 0 0 27.4-27.4zM326.7.8a48.2 48.2 0 0 0-48.2 46.5h20a28.2 28.2 0 0 1 56.3 0h20A48.2 48.2 0 0 0 326.6.8zM326.7 77.2a28.2 28.2 0 0 1-28-24.5h-20a48.1 48.1 0 0 0 96 0h-20.1a28.2 28.2 0 0 1-28 24.5zM502.7 49A48.1 48.1 0 0 0 548 97V77a28.2 28.2 0 0 1 0-56V1a48.1 48.1 0 0 0-45.4 48zM0 5l48.7 95H50l11-21.5L23.3 5H0zM52.1 50.4l11.7 22.8L98.7 5H75.3L52.1 50.4zM466.3 0l-11 21.5 20.1 39.1h-10.6L455.4 79h29.4l8.2 16h23.3L467.7 0h-1.4z" class="cls-1"/><path d="M452.6 26.8L417.7 95H441l23.3-45.4-11.7-22.8zM574 33l14.3-14.2A48 48 0 0 0 553.6.9V21A28.1 28.1 0 0 1 574 33zM574 65a28.1 28.1 0 0 1-20.4 12v20a48 48 0 0 0 34.7-17.9z" class="cls-1"/></g></g></svg>