<svg xmlns="http://www.w3.org/2000/svg" viewBox="0 0 345 89"><defs><style>.cls-1{fill:#22b14c}</style></defs><g id="Layer_2" data-name="Layer 2"><g id="svg2"><path id="path2952" d="M0 0l19 89L37 0H27l-8 50-9-50z" class="cls-1"/><path id="path3726" d="M41 0h10v89H41V0z" class="cls-1"/><path id="path3728" d="M60 0v89h10V43l14 46h9L82 47c6-4 8-9 8-9V10C86 1 79 0 79 0zm10 9h10v31H70z" class="cls-1"/><path id="path3733" d="M93 0h30v9h-10v80h-10V9H93V0z" class="cls-1"/><path id="path3735" d="M178 0l-19 89h10l2-12h14l2 12h10L178 0zm0 38l5 31h-10z" class="cls-1"/><path id="path2882" d="M201 0h10v80h15v9h-25V0z" class="cls-1"/><path id="path3660" d="M308 0h9l9 38 9-38h10l-14 52v37h-10V52L308 0z" class="cls-1"/><path id="path3662" d="M290 0c-11 0-15 10-15 10v69c2 11 15 10 15 10 15 0 15-10 15-10V10c-4-10-15-10-15-10zm-5 10h10v70h-10z" class="cls-1"/><path id="path3667" d="M127 0h10v79h10V0h10v79s-3 10-14 10-16-10-16-10V0z" class="cls-1"/><path id="path3669" d="M237 0v89h20c9-2 10-9 10-9V50c-1-4-4-4-4-4v-2c4 0 4-4 4-4V10c-1-7-10-10-10-10zm10 10h10v30h-10zm0 39h10v31h-10V49z" class="cls-1"/></g></g></svg>