<svg xmlns="http://www.w3.org/2000/svg" viewBox="0 0 964.32 195.86"><defs><style>.cls-1{fill:#22b14c;}</style></defs><title>Asset 1</title><g id="Layer_2" data-name="Layer 2"><g id="Layer_2-2" data-name="Layer 2"><path class="cls-1" d="M803.4,38.56A58.63,58.63,0,1,0,862,97.18,58.69,58.69,0,0,0,803.4,38.56Zm0,100.25A41.63,41.63,0,1,1,845,97.18,41.68,41.68,0,0,1,803.4,138.81ZM721.07,40h17.2V153.41h-17.2Zm-109,0h17.2V153.41h-17.2ZM446.2,40h17.2V153.41H446.2Zm518.12-2.2v17h-6.75c-2.38,0-2.45,4.94-2.45,5.5v70.37c0,6.86,0,22.93-17.8,22.93-13.63,0-18.44-12.65-20.24-17.41-2.77-7.27-23.13-64-27.82-77.23-1.13-3.18-2.07-4.79-2.81-4.79-.31.1-1.2,1.73-1.2,6.13v69.25c0,21.5-12,21.5-21.68,21.5h-5.12V134h5.12c4.35,0,4.68-1.78,4.68-4.5V60.26c0-22.37,15-23.5,18-23.5h.33c8.9,0,14.67,5.08,18.71,16.49,4.74,13.39,25.08,70,27.68,76.87,2.45,6.44,3.69,6.44,4.35,6.44,0,0,.8-.45.8-5.93V60.26c0-15.46,10.08-22.5,19.45-22.5Zm-348-21H612c-4.71,0-5.55,0-8.64,9.66-2.9,9.08-44.26,147.5-45.58,152.19-3,10.63-11.18,17.24-21.39,17.24S518,189.25,515,178.62c-1.31-4.68-42.67-143.08-45.58-152.19-3.08-9.66-3.93-9.66-8.64-9.66h-4.26V0h4.26c14.9,0,20.31,7.82,24.62,21.34,2.91,9.13,44.43,148,45.75,152.75.93,3.32,2.69,5,5.24,5s4.3-1.64,5.25-5c1.32-4.7,42.83-143.62,45.75-152.75C591.73,7.82,597.14,0,612,0h4.27Zm98.12,104.11c0,17.93-14.92,32.53-33.27,32.53h-43.7V136.77h43.7a15.89,15.89,0,1,0,0-31.77H669.72c-18.35,0-33.27-14.58-33.27-32.51S651.37,40,669.72,40h42.6V56.6h-42.6a15.88,15.88,0,1,0,0,31.76h11.43C699.5,88.36,714.42,103,714.42,120.88ZM409,40h29.85V57H409c-2,0-2.5,0-2.5,3.5v75.85a18.64,18.64,0,0,1-37.27,0V60.48c0-3.5-.53-3.5-2.5-3.5H336.85V40H366.7c11.84,0,19.5,8.06,19.5,20.52l0,75.85a1.62,1.62,0,1,0,3.23,0V85.13h0V60.48C389.47,48,397.13,40,409,40Zm-51.4,97.8h4.75v17h-4.75c-7.82,0-17.56,0-23.05-16.78-.35-1.07-.65-2-.92-2.9-2.11-6.81-2.19-7.07-11.28-7.07H303a18.5,18.5,0,0,1-13.78-5.48,17.61,17.61,0,0,1-4.89-12.32A18.11,18.11,0,0,1,303,91.88h8.57c2.78,0,4.47-.68,4.92-1.35s.7-2.57-.76-6.06c-2.86-6.85-5.46-13.51-7.55-18.87l-1.27-3.24c-1.51-3.85-3.13-5.42-5.59-5.42s-3.76,3.25-4.27,4.63c-3.35,9.08-22.43,63.47-26.22,74.28-.18.51-.34,1-.51,1.5l-.43,1.29c-2.87,8.65-5.35,16.12-25.94,16.12H208.82c-24.79,0-30-16-30-29.38,0-8.27,1-16.55,8.14-21,5.47-3.45,13.28-3.44,16.61-3.45H228.8c2.14,0,2.14-.77,2.14-1.38,0-1.13-.76-1.37-1.89-1.37H200.7c-5.81,0-11.39-.32-15.86-4.24-5.24-4.59-5.94-11.68-5.94-18,0-22.64,9.31-34.12,27.67-34.12h40.88v17H206.57c-6.25,0-10.67,1.23-10.67,17.12,0,3.73.43,5.25,4.8,5.25h28.75a18.43,18.43,0,0,1,13.53,31,19.2,19.2,0,0,1-14.18,5.74h-25c-6.34,0-8,.3-8,7.5,0,9.83,2.68,12.38,13,12.38H244c8.21,0,8.76-1.59,9.87-4.75.12-.36.25-.73.4-1.13s.23-.63.34-1,.15-.46.23-.69c2.31-6.61,22.73-64.83,26.31-74.53s11.08-15.67,20-15.76h.2c9.14,0,17.55,6.36,21.41,16.21L324,59.38c2.08,5.32,4.64,11.88,7.42,18.53,3.62,8.68,3.52,16.94-.28,22.64-4.1,6.15-9.22,8.33-19.57,8.33H303c-1.19,0-1.67.39-1.67,1.33a.94.94,0,0,0,.11.5,2.4,2.4,0,0,0,1.56.4l19.32-.1c19.37,0,22.88,4.42,28.41,21.83C352.28,137.76,353.51,137.76,357.57,137.76Zm-189-1.16h6.67v16.48h-8.83c-6.31,0-16.88-2.81-16.88-21.6,0-6.56-.89-10.25-3-12.35s-3.79-3.78-20.14-3.78c-12.14,0-18.68-9-18.68-17.5a17,17,0,0,1,5-12.17,18.78,18.78,0,0,1,13.64-5.24h11.83c6.1,0,12.09-5.83,12.09-11.76A12,12,0,0,0,138.57,57H120.41c-13.17,0-14.93,3.6-14.93,17.88v57.5c0,13.33-8.4,21.61-21.91,21.61H56.73a56.73,56.73,0,0,1,0-113.46H81.41V57H56.73a40.26,40.26,0,0,0,0,80.51H83.57c4.68,0,5.43-1.22,5.43-5.13V74.84c0-11.15,0-34.35,31.41-34.35h18.16a28.59,28.59,0,0,1,28.24,28.19c0,15-13.35,28.23-28.57,28.23H126.41c-.82,0-2.2.13-2.2.94s1.19,1,2.2,1c16.34,0,24.37,1.2,31.79,8.61,6.92,6.93,7.81,16.46,7.81,24C166,136.07,167.47,136.6,168.57,136.6Z"/></g></g></svg>