<svg xmlns="http://www.w3.org/2000/svg" viewBox="0 0 777.6 107.22"><defs><style>.cls-1{fill:#22b14c;}</style></defs><title>Asset 1</title><g id="Layer_2" data-name="Layer 2"><g id="Layer_1-2" data-name="Layer 1"><polygon id="_Path_" data-name="&lt;Path&gt;" class="cls-1" points="632.33 33.58 668.78 103.27 595.88 103.27 632.33 33.58"/><path id="_Path_2" data-name="&lt;Path&gt;" class="cls-1" d="M581.93,54.4a57.2,57.2,0,0,0,11.26,34.41l12.7-24.27A36.47,36.47,0,0,1,604,52.7c0-17.84,12.51-32.3,27.95-32.3s28,14.46,28,32.3a36.56,36.56,0,0,1-1.61,10.83l12.87,24.61A57.31,57.31,0,0,0,681.88,54.4c0-30-22.38-54.4-50-54.4S581.93,24.35,581.93,54.4Z"/><rect id="_Path_3" data-name="&lt;Path&gt;" class="cls-1" x="552.28" y="3.4" width="20.33" height="100.3"/><polygon id="_Path_4" data-name="&lt;Path&gt;" class="cls-1" points="689.5 103.7 709.83 103.7 709.83 37 762.35 105.4 777.6 105.4 777.6 3.4 757.27 3.4 757.27 70.1 704.75 1.7 689.5 1.7 689.5 103.7"/><rect id="_Path_5" data-name="&lt;Path&gt;" class="cls-1" x="448.94" y="3.4" width="20.33" height="100.3"/><polygon id="_Path_6" data-name="&lt;Path&gt;" class="cls-1" points="445.55 3.4 423.53 3.4 400.66 68.97 377.79 3.4 355.77 3.4 394.73 105.4 406.59 105.4 445.55 3.4"/><polygon id="_Path_7" data-name="&lt;Path&gt;" class="cls-1" points="228.7 3.4 228.7 103.7 281.22 103.7 281.22 86.7 249.03 86.7 249.03 59.5 279.53 59.5 279.53 42.5 249.03 42.5 249.03 20.4 279.53 20.4 279.53 3.4 228.7 3.4"/><path id="_Compound_Path_" data-name="&lt;Compound Path&gt;" class="cls-1" d="M159.25,3.4V103.7h20.33V66.3h14.51c11.92,0,23.41-10.25,25.72-22A57.59,57.59,0,0,0,221,34.85a52.56,52.56,0,0,0-1.21-9.35c-2.54-11.78-15.43-22.1-27.39-22.1Zm20.33,45.9V20.4h6.77c8.42,0,15.25,5.15,15.25,13.6a15.28,15.28,0,0,1-15.25,15.3Z"/><path id="_Compound_Path_2" data-name="&lt;Compound Path&gt;" class="cls-1" d="M293.08,3.4V103.7h20.33V66.3h1.94l21.78,37.4h25.41L335.19,65.06c9-3.07,16.62-11.44,18.46-20.74a57.8,57.8,0,0,0,1.17-9.47,53.7,53.7,0,0,0-1.2-9.35c-2.55-11.78-15.44-22.1-27.39-22.1Zm20.33,45.9V20.4h6.78c8.42,0,15.24,5.15,15.24,13.6a15.27,15.27,0,0,1-15.24,15.3Z"/><path id="_Path_8" data-name="&lt;Path&gt;" class="cls-1" d="M11.86,75.7,0,88.4C20.88,118.08,63.48,112,63.48,74.8c0-20.25-13-26.9-29.66-33.5C9.3,31.61,28.9,6.36,49.13,25.5l10-12.87C52.33,6,41.71,1.2,32.19,1.7c-17.81.94-29.6,11.1-29.6,30.6,0,32.1,42.26,25.3,42.26,44.2C44.85,94.4,22.3,92.56,11.86,75.7Z"/><path id="_Path_9" data-name="&lt;Path&gt;" class="cls-1" d="M491.06,75.7,479.2,88.4c20.88,29.68,63.48,23.6,63.48-13.6,0-20.25-13-26.9-29.66-33.5-24.52-9.69-4.92-34.94,15.31-15.8l10-12.87C531.53,6,520.91,1.2,511.39,1.7c-17.81.94-29.6,11.1-29.6,30.6,0,32.1,42.26,25.3,42.26,44.2C524.05,94.4,501.5,92.56,491.06,75.7Z"/><path id="_Path_10" data-name="&lt;Path&gt;" class="cls-1" d="M126.3,3.9v65a17.5,17.5,0,1,1-35,0V3.9h-20v65a38,38,0,0,0,37.71,38h-.25c20.79,0,37.54-17.19,37.54-38V3.9Z"/></g></g></svg>