<svg xmlns="http://www.w3.org/2000/svg" id="Layer_1" viewBox="0 0 564.2 47.8"><style>.st0{fill:#22b14c}</style><path d="M0 47.8L9.6 7.6 19.2 0h9.6l-9.6 40.1 9.6-5.7 7.7-28.7L42.3 0h13.4l-9.6 40.1 9.6-7.6 5.8-24.9L69.2 0h11.5l-9.6 38.2-11.5 9.6zM389.1 47.8l4.9-23 8-7.6h11.2l-5.9 24.5 9.6-5.8 2.4-13 5.8-5.7h13.4l-5.9 24.5 9.1-6.1 2.6-10.8 7.7-7.6h10l-5 21-13 9.6zM314.1 47.8l9.6-9.5H365s3.6 1.1 5.6-3.4c1.9-4.2-1.7-4.2-1.7-4.2h-19.2s-5.5-1.3-5.5-8c-.1-16.6 13.6-21 13.6-21h40.4l-8 8h-21.1s-6.7 1.9-6.9 7.5c-.1 2.5 3 2 3 2h17.3s10 1.7 7.7 12.4c-3 14.1-13.5 16.2-13.5 16.2h-62.6z" class="st0"/><path d="M281.3 47h17.3l5.2-19.1c.6-2.3 6.7-4.9 5.1-4.6l5.5-1s2.2.6 3.4 2.2c1.2 1.5-1.1 3.7-1.4 5.5-.3 1.8 1.9 1.9 1.9 1.9h9.6s5.1-1.9 6.5-3.9c1.4-1.9 3.1-4 3.1-5.7 0-1.7-3.8-3.8-3.8-3.8l-3.8-1.9H301s-13.8 7.9-15.4 9.5a390 390 0 0 0-4.3 20.9zM79.7 25.9c-1.4 1.6-5.7 15-4.7 17.2 1 2.1 6.3 4.7 6.3 4.7h28.1s13.1-8.2 14.1-9.4c1-1.2 4.7-14.3 4.7-15.6 0-1.4-3.1-6.3-3.1-6.3H92.2s-11.1 7.8-12.5 9.4zm21.9-3.1h8.6s-1 10.4-3.1 13.3c-2.2 2.9-7 5.5-7 5.5s-5.5.6-6.3 0c-.8-.6-.2-6.3-.2-6.3s.8-6.1 1.8-7.8c.9-1.8 6.2-4.7 6.2-4.7zM184.4 25.9c-1.4 1.6-5.7 15-4.7 17.2 1 2.1 6.3 4.7 6.3 4.7h39s1.3-6.2 2.9-12.5c1.5-5.9 3.3-15 3.3-15.6C231.3 18.3 241 6 241 6h-17l-8.6 10.5h-18.6c.1 0-11 7.8-12.4 9.4zm21.9-3.1h8.6s-1 10.4-3.1 13.3c-2.2 2.9-7 5.5-7 5.5s-5.5.6-6.3 0c-.8-.6-.2-6.3-.2-6.3s.8-6.1 1.8-7.8c.9-1.8 6.2-4.7 6.2-4.7zM125 46.2s2-9.4 3.7-16a354 354 0 0 1 4.1-13.7h37.5s4.9.5 6.6 3.3c1.7 2.8 1.2 7.6 1.2 7.6l-4.7 18.8h-15.6s1.4-8.4 3.1-15.6c1.8-7.2-3.1-7.8-3.1-7.8h-9.4L143.7 40s-4.3 5.5-6.3 6.3c-1.8.7-12.4-.1-12.4-.1zM509.4 46.2l4.5-16.1c1.8-6.6 4.9-13.6 4.9-13.6h37.5s4.9.5 6.6 3.3c1.7 2.8 1.2 7.6 1.2 7.6l-4.7 18.8h-17.2s2.9-8.4 4.7-15.6c1.8-7.2-3.1-7.8-3.1-7.8h-9.4L529.7 40s-4.3 5.5-6.3 6.3c-1.9.7-14-.1-14-.1zM236 25.9c-1.4 1.6-5.7 15-4.7 17.2 1 2.1 6.3 4.7 6.3 4.7h28.1s5.6-3.5 9.7-6.3c0 0-23.9.2-25.3 0-.6-.1-.4-3-.3-4.7H269s3.7-.8 9.2-5.4c5.6-4.6 6.3-5.1 6.3-8.7 0-3.6-3.1-6.3-3.1-6.3h-32.8c-.1.1-11.3 7.9-12.6 9.5zm21.8-3.1h12.6s-1.4 4.8-8.3 7.8h-10.4c-1.1-2.7 1.5-4.9 2.8-6.1 1.6-1.3 3.3-1.7 3.3-1.7zM489.1 46.2l6.4-20.6c.9-2.9-1.1-2.8-4.8-2.8-3.7 0-5.8-.8-10.9 7.8-6 10 8.9 12.7 8.9 12.7l-1.1 2.9h-17.2s-9.4.4-9.4-10.9c0-13.9 17.2-18.8 17.2-18.8h37.5l-9.4 29.7h-17.2z" class="st0"/></svg>