<svg xmlns="http://www.w3.org/2000/svg" id="Layer_1" viewBox="0 0 564.2 155.5"><style>.st0{fill:#22b14c}</style><path d="M0 47.8L9.6 7.6 19.2 0h9.6l-9.6 40.1 9.6-5.7 7.7-28.7L42.3 0h13.4l-9.6 40.1 9.6-7.6 5.8-24.9L69.2 0h11.5l-9.6 38.2-11.5 9.6zM389.1 47.8l4.9-23 8-7.6h11.2l-5.9 24.5 9.6-5.8 2.4-13 5.8-5.7h13.4l-5.9 24.5 9.1-6.1 2.6-10.8 7.7-7.6h10l-5 21-13 9.6zM314.1 47.8l9.6-9.5H365s3.6 1.1 5.6-3.4c1.9-4.2-1.7-4.2-1.7-4.2h-19.2s-5.5-1.3-5.5-8c-.1-16.6 13.6-21 13.6-21h40.4l-8 8h-21.1s-6.7 1.9-6.9 7.5c-.1 2.5 3 2 3 2h17.3s10 1.7 7.7 12.4c-3 14.1-13.5 16.2-13.5 16.2h-62.6z" class="st0"/><path d="M281.3 47h17.3l5.2-19.1c.6-2.3 6.7-4.9 5.1-4.6l5.5-1s2.2.6 3.4 2.2c1.2 1.5-1.1 3.7-1.4 5.5-.3 1.8 1.9 1.9 1.9 1.9h9.6s5.1-1.9 6.5-3.9c1.4-1.9 3.1-4 3.1-5.7 0-1.7-3.8-3.8-3.8-3.8l-3.8-1.9H301s-13.8 7.9-15.4 9.5a390 390 0 0 0-4.3 20.9zM79.7 25.9c-1.4 1.6-5.7 15-4.7 17.2 1 2.1 6.3 4.7 6.3 4.7h28.1s13.1-8.2 14.1-9.4c1-1.2 4.7-14.3 4.7-15.6 0-1.4-3.1-6.3-3.1-6.3H92.2s-11.1 7.8-12.5 9.4zm21.9-3.1h8.6s-1 10.4-3.1 13.3c-2.2 2.9-7 5.5-7 5.5s-5.5.6-6.3 0c-.8-.6-.2-6.3-.2-6.3s.8-6.1 1.8-7.8c.9-1.8 6.2-4.7 6.2-4.7zM184.4 25.9c-1.4 1.6-5.7 15-4.7 17.2 1 2.1 6.3 4.7 6.3 4.7h39s1.3-6.2 2.9-12.5c1.5-5.9 3.3-15 3.3-15.6C231.3 18.3 241 6 241 6h-17l-8.6 10.5h-18.6c.1 0-11 7.8-12.4 9.4zm21.9-3.1h8.6s-1 10.4-3.1 13.3c-2.2 2.9-7 5.5-7 5.5s-5.5.6-6.3 0c-.8-.6-.2-6.3-.2-6.3s.8-6.1 1.8-7.8c.9-1.8 6.2-4.7 6.2-4.7zM125 46.2s2-9.4 3.7-16a354 354 0 0 1 4.1-13.7h37.5s4.9.5 6.6 3.3c1.7 2.8 1.2 7.6 1.2 7.6l-4.7 18.8h-15.6s1.4-8.4 3.1-15.6c1.8-7.2-3.1-7.8-3.1-7.8h-9.4L143.7 40s-4.3 5.5-6.3 6.3c-1.8.7-12.4-.1-12.4-.1zM509.4 46.2l4.5-16.1c1.8-6.6 4.9-13.6 4.9-13.6h37.5s4.9.5 6.6 3.3c1.7 2.8 1.2 7.6 1.2 7.6l-4.7 18.8h-17.2s2.9-8.4 4.7-15.6c1.8-7.2-3.1-7.8-3.1-7.8h-9.4L529.7 40s-4.3 5.5-6.3 6.3c-1.9.7-14-.1-14-.1zM236 25.9c-1.4 1.6-5.7 15-4.7 17.2 1 2.1 6.3 4.7 6.3 4.7h28.1s5.6-3.5 9.7-6.3c0 0-23.9.2-25.3 0-.6-.1-.4-3-.3-4.7H269s3.7-.8 9.2-5.4c5.6-4.6 6.3-5.1 6.3-8.7 0-3.6-3.1-6.3-3.1-6.3h-32.8c-.1.1-11.3 7.9-12.6 9.5zm21.8-3.1h12.6s-1.4 4.8-8.3 7.8h-10.4c-1.1-2.7 1.5-4.9 2.8-6.1 1.6-1.3 3.3-1.7 3.3-1.7zM489.1 46.2l6.4-20.6c.9-2.9-1.1-2.8-4.8-2.8-3.7 0-5.8-.8-10.9 7.8-6 10 8.9 12.7 8.9 12.7l-1.1 2.9h-17.2s-9.4.4-9.4-10.9c0-13.9 17.2-18.8 17.2-18.8h37.5l-9.4 29.7h-17.2zM297.5 70.2c-4.5-1.3-9.5 5-13.8 14.7-3.8 16.1-12.4 39.8-12.9 56.2-.3 7.3 6.5 9.4 11 11 14.4 5.1 22.9.1 27.2-5.1 3.1-3.7-.2-6.8-4-5.7-5.5 1.6-12.3 2.8-13.7-2.6-1.5-5.9 6.7-30.1 12.3-48.2 3-9.9 5.7-18.1-6.1-20.3zM222.7 98.7c-9.8 1-29.2 6.2-29.2 31.3 0 1.2-3.5 28.4 31.5 25.2 35-3.1 41-25.2 41-25.2s8.7-29.1-12.6-28.3c-13 .5-18.9 6.3-18.9 6.3s8.7 1.7 10.5 7.9c3.5 11.8 2.2 31.7-16.8 29.9-19.1-1.8-9.8-27.1-3.8-39.9 2.1-4.5 1.6-7.5-1.7-7.2z" class="st0"/><path d="M339.3 98.7c-9.8 1-29.2 6.2-29.2 31.3 0 1.2-3.5 28.4 31.5 25.2 35.1-3.1 41-25.2 41-25.2s8.7-29.1-12.6-28.3c-13 .5-18.9 6.3-18.9 6.3s8.7 1.7 10.5 7.9c3.6 11.8 2.2 31.7-16.8 29.9-19.1-1.8-9.8-27.1-3.8-39.9 2.1-4.5 1.6-7.5-1.7-7.2zM108.5 117.4c-1.6-31.1 41.4-45.1 56.7-46.3 15.3-1.2 31.5 2.1 31.5 2.1s-2.4 30.7-9.4 31.5c-7.1.8-5.5-23.2-18.9-22.1-24.5 2.2-34.4 28.9-34.6 37.8-.1 4.3 1.2 23.6 18.9 22 17.7-1.6 21.7-11 25.2-12.6 3.5-1.6 10.3-4.7 9.5 3.2-2 17.3-34.7 22-34.7 22s-42.2 2.5-44.2-37.6zM398.3 152.1c-15 .8-6.7-17.3-3.2-28.4 3.5-11 2.9-23.1 15.8-22 14.2 1.2 3.2 18.9 3.2 18.9s21.6-23.7 40.9-22.1c4.7.4-9.4 31.5-9.4 31.5s-3.5-11.4-12.6-9.4c-26.1 5.6-19.7 30.7-34.7 31.5z" class="st0"/></svg>