<svg xmlns="http://www.w3.org/2000/svg" id="Layer_1" viewBox="0 0 685.7 175.7"><style>.st0{fill:#22b14c}</style><path d="M123.4 0H146v19.5h-22.6zM118 50.2H22.5v-7.7h95.4V23H0v45.7h95.4v7.5H0v20.1h118zM394.7 2.4h22.6v94h-22.6zM543.2 23.2h22.6v73h-22.6zM123.4 23.2H146v73h-22.6zM268.2 23.2H151v73.1h22.7V42.7h71.8v53.6h22.7zM389.9 96.3V76.2h-94.2V42.7h94.2V23.2H273v73.1zM538.4 96.3v-73H422.2v19.5h93.6v7.6h-93.6v45.9h116.2zm-22.6-20.1h-71v-7.5h71v7.5zM543.2 0h22.6v19.4h-22.6zM571.4 23.2v73.1H594V42.7h91.7V23.2z" class="st0"/><g><path d="M45.1 157.6H.9v-7.1L29 112.8H2.9v-10.1H45v6.9l-27.5 37.9h27.6v10.1z" class="st0"/><path d="M95.4 157.6H80.7l-9.5-17.9c-.4-.7-.7-1.9-1.1-3.7H70c-.2.8-.6 2.1-1.3 3.8l-9.5 17.7H44.5L62 130.2l-16-27.4h15l7.8 16.5c.6 1.3 1.2 2.8 1.6 4.6h.2l1.7-4.8 8.7-16.3h13.8L78.4 130l17 27.6zM115.7 155.5v-12.2a24 24 0 0 0 19.2 5.2c1.2-.3 2.1-.7 2.9-1.2.8-.5 1.4-1.1 1.7-1.8.4-.7.6-1.4.6-2.2a5 5 0 0 0-.9-2.9 9.4 9.4 0 0 0-2.5-2.3c-1.1-.7-2.3-1.4-3.8-2.1l-4.7-2c-4.3-1.8-7.5-4-9.6-6.5s-3.2-5.7-3.2-9.3c0-2.9.6-5.3 1.7-7.4 1.1-2.1 2.7-3.7 4.7-5.1 2-1.3 4.3-2.3 6.9-2.9a37 37 0 0 1 8.3-.9c2.9 0 5.4.2 7.6.5 2.2.3 4.2.9 6.1 1.6v11.4a21.4 21.4 0 0 0-9.7-3.6c-1.1-.2-2.2-.2-3.2-.2a14.8 14.8 0 0 0-6.7 1.5 6 6 0 0 0-1.8 1.7 4.5 4.5 0 0 0 0 4.8c.5.7 1.2 1.4 2.1 2.1.9.7 2 1.3 3.3 1.9l4.3 1.9c2.2.9 4.2 1.9 5.9 2.9 1.7 1 3.2 2.2 4.5 3.5 1.2 1.3 2.2 2.8 2.9 4.5a15 15 0 0 1 1 5.8c0 3.1-.6 5.6-1.7 7.7a14.4 14.4 0 0 1-4.7 5.1c-2 1.3-4.3 2.2-6.9 2.8s-5.4.8-8.4.8-5.9-.3-8.6-.8-5.3-1.2-7.3-2.3zM170.5 153.1h-.2v22.6h-12.1v-57.2h12.1v5.9h.2c3-4.6 7.2-6.9 12.6-6.9 5.1 0 9 1.7 11.8 5.2a22 22 0 0 1 4.2 14.2c0 6.5-1.6 11.8-4.8 15.7-3.2 4-7.5 5.9-12.9 5.9a12 12 0 0 1-10.9-5.4zm-.3-16.1v3.1c0 2.7.7 4.9 2.1 6.6a7 7 0 0 0 5.6 2.6c2.8 0 4.9-1.1 6.4-3.2s2.3-5.1 2.3-9.1c0-6.9-2.7-10.3-8-10.3-2.5 0-4.5.9-6.1 2.8a11.8 11.8 0 0 0-2.3 7.5zM239.4 141.5h-25.6c.4 5.7 4 8.5 10.8 8.5 4.3 0 8.1-1 11.4-3.1v8.7a30.2 30.2 0 0 1-14.1 2.9c-6.3 0-11.2-1.8-14.7-5.3s-5.2-8.4-5.2-14.7a21 21 0 0 1 5.7-15.5c3.8-3.8 8.4-5.7 13.9-5.7 5.7 0 10.1 1.7 13.3 5.1 3.1 3.4 4.7 8 4.7 13.8l-.2 5.3zm-11.2-7.4c0-5.6-2.3-8.4-6.8-8.4-1.9 0-3.6.8-5 2.4a11 11 0 0 0-2.6 6h14.4zM273.7 156.2a23.6 23.6 0 0 1-11.8 2.4c-6 0-10.9-1.8-14.6-5.5a19.1 19.1 0 0 1-5.6-14.1 21 21 0 0 1 6-15.8c4-3.8 9.3-5.8 16-5.8 4.6 0 8 .6 10 1.8v10.3a13.6 13.6 0 0 0-8.5-2.8 11 11 0 0 0-8.2 3c-2 2-3 4.8-3 8.4 0 3.5 1 6.2 2.9 8.2 1.9 2 4.6 3 8 3 3 0 6-.9 8.8-2.8v9.7zM302.6 157.2c-1.8.9-4.5 1.4-8.1 1.4-8.5 0-12.8-4.4-12.8-13.3v-18h-6.4v-8.9h6.4V110l12.1-3.4v11.9h8.8v8.9h-8.8v15.8c0 4.1 1.6 6.1 4.9 6.1 1.3 0 2.6-.4 3.9-1.1v9zM332.3 129.4c-1.5-.8-3.2-1.2-5.1-1.2-2.6 0-4.7 1-6.2 2.9a12.4 12.4 0 0 0-2.2 7.9v18.7h-12.1v-39.2h12.1v7.3h.2c1.9-5.3 5.4-8 10.3-8 1.3 0 2.3.2 3 .5v11.1zM372.5 157.6h-12.1v-6h-.2c-3 4.6-7 6.9-12 6.9-9.1 0-13.6-5.5-13.6-16.5v-23.7h12.1V141c0 5.5 2.2 8.3 6.6 8.3 2.2 0 3.9-.8 5.2-2.3 1.3-1.5 2-3.6 2-6.2v-22.4h12.1l-.1 39.2zM442.3 157.6h-12.1v-22.4c0-5.7-2.1-8.5-6.3-8.5a6 6 0 0 0-4.9 2.6 10.1 10.1 0 0 0-1.9 6.4v21.9H405V135c0-5.5-2.1-8.3-6.2-8.3-2.1 0-3.7.8-5 2.5a11.1 11.1 0 0 0-1.9 6.7v21.8h-12.1v-39.2h12.1v6.1h.2c1.2-2.1 3-3.8 5.3-5.1 2.3-1.3 4.7-2 7.4-2 5.5 0 9.3 2.4 11.4 7.3 3-4.9 7.4-7.3 13.2-7.3 8.5 0 12.8 5.3 12.8 15.8l.1 24.3z" class="st0"/></g><g><path d="M472.2 116.9h-8v11h-11v7h11v11h8v-11h11v-7h-11zM520.7 132.3a11.1 11.1 0 0 0-6.8-4.1c2.7-.9 4.7-2.2 6.2-4.1 1.5-1.9 2.1-6.6 2.1-6.6v-2c0-4.4-1.3-7.9-3.9-10.3a15.4 15.4 0 0 0-10.8-3.7c-4.1 0-7.5 1.2-10.2 3.5a16.4 16.4 0 0 0-5.2 9.7h8a7.8 7.8 0 0 1 2.6-4.4c1.3-1 2.8-1.6 4.6-1.6a7 7 0 0 1 5 1.7 6.6 6.6 0 0 1 1.8 4.9v2.3c0 2.2-.5 4-1.6 5.2a6.1 6.1 0 0 1-4.7 1.8h-3.7v7h3.6c2.3 0 4.2.7 5.4 2.1 1.3 1.4 1.9 3.4 1.9 6v1.7c0 2.3-.7 4.1-2 5.4a8 8 0 0 1-5.7 1.9 9 9 0 0 1-5.6-1.6 7 7 0 0 1-2.7-4.5h-8c.6 4.3 2.3 7.7 5.2 10 2.9 2.4 6.6 3.5 11.2 3.5 5 0 8.8-1.3 11.6-3.9 2.7-2.6 4.1-6.2 4.1-10.9v-1.2c.1-3-.8-5.7-2.4-7.8z" class="st0"/></g></svg>